<svg width="316" height="46" viewBox="0 0 316 46" fill="none" xmlns="http://www.w3.org/2000/svg">
<path d="M18.8765 6.21753H26.1493V7.56698H23.2896V15.1529H21.7171V7.56698H18.8701V6.21753H18.8765H18.8765ZM25.8386 8.68311H27.1828V9.93166H27.2082C27.2526 9.7551 27.335 9.58484 27.4555 9.42089C27.5759 9.25694 27.7218 9.09929 27.893 8.96687C28.0642 8.82814 28.2544 8.72094 28.4636 8.63266C28.6729 8.55069 28.8885 8.50655 29.104 8.50655C29.2689 8.50655 29.3894 8.51285 29.4528 8.51916C29.5162 8.52546 29.5796 8.53807 29.6493 8.54438V9.91905C29.5479 9.90013 29.4464 9.88752 29.3386 9.87491C29.2309 9.8623 29.1294 9.85599 29.028 9.85599C28.787 9.85599 28.5587 9.90644 28.3432 10.001C28.1276 10.0956 27.9437 10.2406 27.7852 10.4235C27.6267 10.6127 27.4998 10.8397 27.4047 11.1172C27.3096 11.3946 27.2652 11.7099 27.2652 12.0693V15.1466H25.8322V8.68311H25.8386V8.68311ZM36.2374 15.1529H34.8297V14.2512H34.8044C34.6268 14.5791 34.3668 14.8376 34.0181 15.0331C33.6694 15.2286 33.3143 15.3295 32.9529 15.3295C32.0969 15.3295 31.4755 15.1214 31.095 14.6989C30.7146 14.2764 30.5244 13.6395 30.5244 12.7882V8.68311H31.9574V12.6495C31.9574 13.217 32.0652 13.6206 32.2871 13.8539C32.5027 14.0872 32.8134 14.207 33.2065 14.207C33.5108 14.207 33.7581 14.1629 33.961 14.0683C34.1639 13.9737 34.3288 13.8539 34.4493 13.6962C34.5761 13.5449 34.6649 13.3557 34.7219 13.1413C34.779 12.9269 34.8044 12.6936 34.8044 12.4414V8.68941H36.2374V15.1529V15.1529ZM38.6785 13.0783C38.7229 13.4945 38.8814 13.7845 39.1541 13.9548C39.4331 14.1187 39.7628 14.207 40.1496 14.207C40.2827 14.207 40.4349 14.1944 40.6061 14.1755C40.7773 14.1566 40.9422 14.1124 41.088 14.0557C41.2402 13.9989 41.3607 13.9106 41.4621 13.7971C41.5572 13.6836 41.6016 13.5386 41.5953 13.3557C41.5889 13.1729 41.5192 13.0215 41.3924 12.908C41.2655 12.7882 41.107 12.6999 40.9105 12.6242C40.7139 12.5549 40.492 12.4918 40.2383 12.4414C39.9847 12.3909 39.7311 12.3342 39.4711 12.2774C39.2048 12.2207 38.9448 12.145 38.6976 12.063C38.4503 11.9811 38.2283 11.8676 38.0318 11.7225C37.8352 11.5838 37.6767 11.4009 37.5626 11.1802C37.4421 10.9595 37.385 10.6884 37.385 10.3605C37.385 10.0073 37.4738 9.71726 37.645 9.47764C37.8162 9.23802 38.0381 9.04885 38.2981 8.90381C38.5644 8.75878 38.8561 8.65788 39.1795 8.59483C39.5028 8.53807 39.8135 8.50655 40.1052 8.50655C40.4413 8.50655 40.7646 8.54438 41.069 8.61374C41.3733 8.68311 41.6523 8.79661 41.8996 8.96056C42.1469 9.11821 42.3498 9.3263 42.5147 9.57854C42.6795 9.83077 42.781 10.1398 42.8254 10.4992H41.329C41.2592 10.1587 41.107 9.92536 40.8597 9.81185C40.6125 9.69204 40.3271 9.63529 40.0101 9.63529C39.9086 9.63529 39.7882 9.64159 39.6487 9.66051C39.5092 9.67943 39.3824 9.71096 39.2555 9.7551C39.1351 9.79924 39.0336 9.8686 38.9448 9.95689C38.8624 10.0452 38.818 10.1587 38.818 10.3037C38.818 10.4803 38.8814 10.619 39.0019 10.7262C39.1224 10.8334 39.2809 10.9217 39.4775 10.9973C39.674 11.0667 39.896 11.1298 40.1496 11.1802C40.4032 11.2307 40.6632 11.2874 40.9295 11.3442C41.1895 11.4009 41.4431 11.4766 41.6967 11.5586C41.9503 11.6405 42.1723 11.754 42.3688 11.8991C42.5654 12.0441 42.7239 12.2207 42.8444 12.4351C42.9649 12.6495 43.0283 12.9206 43.0283 13.2359C43.0283 13.6206 42.9395 13.9422 42.762 14.2133C42.5844 14.4782 42.3562 14.6989 42.0772 14.8628C41.7982 15.0268 41.4811 15.1529 41.1387 15.2286C40.7963 15.3042 40.4539 15.3421 40.1179 15.3421C39.7057 15.3421 39.3253 15.2979 38.9765 15.2033C38.6278 15.1087 38.3235 14.97 38.0698 14.7871C37.8162 14.598 37.6133 14.3647 37.4675 14.0872C37.3216 13.8097 37.2455 13.4755 37.2328 13.0909H38.6785V13.0783ZM43.4087 8.68311H44.493V6.74091H45.926V8.68311H47.2195V9.74879H45.926V13.2044C45.926 13.3557 45.9323 13.4818 45.945 13.5953C45.9577 13.7025 45.9894 13.7971 46.0338 13.8728C46.0782 13.9485 46.1479 14.0052 46.243 14.0431C46.3381 14.0809 46.4586 14.0998 46.6235 14.0998C46.7249 14.0998 46.8264 14.0998 46.9278 14.0935C47.0293 14.0872 47.1307 14.0746 47.2322 14.0494V15.1529C47.0736 15.1718 46.9151 15.1844 46.7693 15.2033C46.6171 15.2222 46.4649 15.2286 46.3064 15.2286C45.926 15.2286 45.6216 15.1907 45.3934 15.1214C45.1651 15.052 44.9812 14.9448 44.8544 14.8061C44.7212 14.6673 44.6388 14.4971 44.5881 14.289C44.5437 14.0809 44.512 13.8413 44.5057 13.5764V9.7614H43.4214V8.68311H43.4087ZM48.234 8.68311H49.5909V9.55962H49.6163C49.8192 9.18127 50.0982 8.91642 50.4596 8.75247C50.821 8.58852 51.2078 8.50654 51.6326 8.50654C52.1462 8.50654 52.5901 8.59483 52.9705 8.77769C53.351 8.95426 53.668 9.20019 53.9216 9.51548C54.1753 9.83077 54.3591 10.1965 54.486 10.6127C54.6128 11.0289 54.6762 11.4766 54.6762 11.9495C54.6762 12.3846 54.6191 12.8071 54.505 13.2107C54.3908 13.6206 54.2196 13.98 53.9914 14.2953C53.7631 14.6106 53.4714 14.8565 53.1164 15.0457C52.7613 15.2349 52.3491 15.3294 51.8672 15.3294C51.658 15.3294 51.4487 15.3105 51.2395 15.2727C51.0303 15.2349 50.8274 15.1718 50.6371 15.0898C50.4469 15.0079 50.263 14.9007 50.1045 14.7682C49.9397 14.6358 49.8065 14.4845 49.6924 14.3142H49.667V17.5428H48.234V8.68311V8.68311ZM53.2432 11.9243C53.2432 11.6342 53.2051 11.3505 53.129 11.073C53.0529 10.7956 52.9388 10.5559 52.7866 10.3415C52.6345 10.1271 52.4442 9.95689 52.2223 9.83077C51.994 9.70465 51.7341 9.63529 51.4424 9.63529C50.84 9.63529 50.3835 9.84338 50.0792 10.2596C49.7748 10.6757 49.6226 11.2307 49.6226 11.9243C49.6226 12.2522 49.6607 12.5549 49.7431 12.8323C49.8255 13.1098 49.9397 13.3494 50.1045 13.5512C50.263 13.753 50.4533 13.9106 50.6752 14.0241C50.8971 14.144 51.1571 14.2007 51.4487 14.2007C51.7785 14.2007 52.0511 14.1313 52.2794 13.9989C52.5076 13.8665 52.6915 13.6899 52.8374 13.4818C52.9832 13.2674 53.091 13.0278 53.1544 12.7567C53.2115 12.4855 53.2432 12.2081 53.2432 11.9243ZM55.7731 6.21753H57.2061V7.56698H55.7731V6.21753V6.21753ZM55.7731 8.68311H57.2061V15.1529H55.7731V8.68311ZM58.4869 6.21753H59.92V15.1529H58.4869V6.21753V6.21753ZM64.3141 15.3294C63.7941 15.3294 63.3313 15.2412 62.9255 15.0709C62.5196 14.9007 62.1772 14.661 61.8919 14.3647C61.6129 14.062 61.3973 13.7025 61.2515 13.2864C61.1057 12.8702 61.0296 12.4099 61.0296 11.9117C61.0296 11.4198 61.1057 10.9658 61.2515 10.5496C61.3973 10.1334 61.6129 9.77402 61.8919 9.47134C62.1709 9.16866 62.5196 8.93534 62.9255 8.76508C63.3313 8.59483 63.7941 8.50655 64.3141 8.50655C64.834 8.50655 65.2969 8.59483 65.7027 8.76508C66.1085 8.93534 66.4509 9.17496 66.7362 9.47134C67.0152 9.77402 67.2308 10.1334 67.3766 10.5496C67.5225 10.9658 67.5986 11.4198 67.5986 11.9117C67.5986 12.4099 67.5225 12.8702 67.3766 13.2864C67.2308 13.7025 67.0152 14.062 66.7362 14.3647C66.4572 14.6673 66.1085 14.9007 65.7027 15.0709C65.2969 15.2412 64.834 15.3294 64.3141 15.3294ZM64.3141 14.2007C64.6311 14.2007 64.9101 14.1313 65.1447 13.9989C65.3793 13.8665 65.5695 13.6899 65.7217 13.4755C65.8739 13.2611 65.9817 13.0152 66.0578 12.7441C66.1275 12.4729 66.1656 12.1955 66.1656 11.9117C66.1656 11.6342 66.1275 11.3631 66.0578 11.0856C65.988 10.8082 65.8739 10.5686 65.7217 10.3542C65.5695 10.1398 65.3793 9.9695 65.1447 9.83707C64.9101 9.70465 64.6311 9.63529 64.3141 9.63529C63.997 9.63529 63.718 9.70465 63.4834 9.83707C63.2488 9.9695 63.0586 10.1461 62.9064 10.3542C62.7542 10.5686 62.6465 10.8082 62.5704 11.0856C62.5006 11.3631 62.4626 11.6342 62.4626 11.9117C62.4626 12.1955 62.5006 12.4729 62.5704 12.7441C62.6401 13.0152 62.7542 13.2611 62.9064 13.4755C63.0586 13.6899 63.2488 13.8665 63.4834 13.9989C63.718 14.1376 63.997 14.2007 64.3141 14.2007ZM68.017 8.68311H69.1013V6.74091H70.5343V8.68311H71.8278V9.74879H70.5343V13.2044C70.5343 13.3557 70.5407 13.4818 70.5533 13.5953C70.566 13.7025 70.5977 13.7971 70.6421 13.8728C70.6865 13.9485 70.7562 14.0052 70.8514 14.0431C70.9465 14.0809 71.0669 14.0998 71.2318 14.0998C71.3333 14.0998 71.4347 14.0998 71.5362 14.0935C71.6376 14.0872 71.7391 14.0746 71.8405 14.0494V15.1529C71.682 15.1718 71.5235 15.1844 71.3776 15.2033C71.2255 15.2222 71.0733 15.2286 70.9148 15.2286C70.5343 15.2286 70.23 15.1907 70.0017 15.1214C69.7734 15.052 69.5896 14.9448 69.4627 14.8061C69.3296 14.6673 69.2472 14.4971 69.1964 14.289C69.152 14.0809 69.1203 13.8413 69.114 13.5764V9.7614H68.0297V8.68311H68.017V8.68311Z" fill="#202027"/>
<path d="M17.2024 6.21755H10.6334L8.60436 0L6.56899 6.21755L0 6.21124L5.31987 10.0578L3.28449 16.269L8.60436 12.4288L13.9179 16.269L11.8889 10.0578L17.2024 6.21755V6.21755Z" fill="#00B67A"/>
<path d="M12.3445 11.4638L11.888 10.0576L8.60352 12.4286L12.3445 11.4638Z" fill="#005128"/>
<path d="M0.458984 37.7263H13.6539V24.5427H0.458984V37.7263Z" fill="#16E09E"/>
<path d="M11.7067 30.1518L4.22269 35.5838L5.31475 32.2266L2.45605 30.1518H5.98955L7.08138 26.7944L8.17322 30.1518H11.7067ZM7.08166 33.5092L9.12556 33.0797L9.9399 35.5838L7.08166 33.5092Z" fill="white"/>
<path d="M15.6539 37.7263H28.8489V24.5427H15.6539V37.7263Z" fill="#16E09E"/>
<path d="M15.6539 37.7263H22.2514V24.5427H15.6539V37.7263Z" fill="#16E09E"/>
<path d="M22.4092 33.4578L24.1619 33.0794L24.9725 35.6404L22.2239 33.5908L19.3682 35.6404L20.4766 32.271L17.5749 30.1887H21.1615L22.2694 26.8191L23.3778 30.1887H26.9642L22.4092 33.4578V33.4578Z" fill="white"/>
<path d="M30.8489 37.7263H44.0438V24.5427H30.8489V37.7263Z" fill="#16E09E"/>
<path d="M30.8489 37.7263H37.4464V24.5427H30.8489V37.7263Z" fill="#16E09E"/>
<path d="M42.0966 30.1518L34.6126 35.5838L35.7046 32.2266L32.8459 30.1518H36.3794L37.4713 26.7944L38.5631 30.1518H42.0966V30.1518ZM37.4715 33.5092L39.5155 33.0797L40.3298 35.5838L37.4715 33.5092Z" fill="white"/>
<path d="M46.0438 37.7263H59.2388V24.5427H46.0438V37.7263Z" fill="#16E09E"/>
<path d="M46.0438 37.7263H52.6413V24.5427H46.0438V37.7263Z" fill="#16E09E"/>
<path d="M57.2916 30.1518L49.8075 35.5838L50.8996 32.2266L48.0409 30.1518H51.5744L52.6662 26.7944L53.7581 30.1518H57.2916V30.1518ZM52.6665 33.5092L54.7104 33.0797L55.5247 35.5838L52.6665 33.5092Z" fill="white"/>
<path d="M61.2388 37.7263H74.4338V24.5427H61.2388V37.7263Z" fill="#DCDCE6"/>
<path d="M61.2388 37.7263H67.8363V24.5427H61.2388V37.7263Z" fill="#16E09E"/>
<path d="M72.4866 30.1518L65.0028 35.5838L66.0946 32.2266L63.2359 30.1518H66.7694L67.8612 26.7944L68.9531 30.1518H72.4866V30.1518ZM67.8615 33.5092L69.9054 33.0797L70.7197 35.5838L67.8615 33.5092Z" fill="white"/>
<rect opacity="0.3" x="98.4338" width="2" height="37.8936" rx="1" fill="#A0A6B1"/>
<path d="M183.746 28.0793L187.496 27.4733L189.514 24.1126L190.153 25.5686L191.12 26.5132L191.603 27.5835L194.961 28.4247L192.406 31.137L193.209 34.6905L191.603 34.0688L189.457 32.9276L185.938 34.5803L186.4 30.7789L183.746 28.0793ZM126.125 28.1895L129.875 27.5835L131.836 24.0024L133.624 27.5284L137.661 28.1895L134.835 30.8341L135.412 34.6905L131.836 33.0378L128.26 34.6905L128.721 30.8891L126.125 28.1895ZM140.487 28.1895L144.237 27.5835L146.198 24.0024L148.043 27.5284L152.023 28.1895L149.197 30.8341L149.831 34.6905L146.198 33.0378L142.679 34.6905L143.141 30.8891L140.487 28.1895ZM155.138 28.1895L158.887 27.5835L160.848 24.0024L162.636 27.5284L166.673 28.1895L163.847 30.8341L164.482 34.6905L160.848 33.0378L157.272 34.6905L157.733 30.8891L155.138 28.1895ZM169.327 28.1895L173.076 27.5835L175.037 24.0024L176.883 27.5284L180.862 28.1895L178.036 30.8341L178.671 34.6905L175.037 33.0378L171.519 34.6905L171.98 30.8891L169.327 28.1895Z" fill="#FF9D28"/>
<path d="M138.755 27.8612L133.968 27.2001L131.834 23.0681L129.7 27.2001L124.912 27.8612L128.373 31.0567L127.566 35.6295L131.834 33.4808L136.102 35.6295L135.294 31.0567L138.755 27.8612ZM131.834 32.4891L128.834 34.0317L129.411 30.8364L126.989 28.5775L130.392 28.0817L131.891 25.1618L133.391 28.0817L136.794 28.5775L134.372 30.8364L134.948 34.0317L131.834 32.4891ZM153.175 27.8612L148.388 27.2001L146.253 23.0681L144.119 27.2001L139.332 27.8612L142.793 31.0567L141.985 35.6295L146.253 33.4808L150.522 35.6295L149.714 31.0567L153.175 27.8612ZM146.253 32.4891L143.254 34.0317L143.831 30.8364L141.408 28.5775L144.811 28.0817L146.311 25.1618L147.811 28.0817L151.214 28.5775L148.791 30.8364L149.368 34.0317L146.253 32.4891ZM167.595 27.8612L162.807 27.2001L160.673 23.0681L158.539 27.2001L153.752 27.8612L157.212 31.0567L156.405 35.6295L160.673 33.4808L164.941 35.6295L164.134 31.0567L167.595 27.8612ZM160.673 32.4891L157.674 34.0317L158.25 30.8364L155.828 28.5775L159.231 28.0817L160.731 25.1618L162.23 28.0817L165.633 28.5775L163.211 30.8364L163.788 34.0317L160.673 32.4891ZM182.014 27.8612L177.227 27.2001L175.093 23.0681L172.959 27.2001L168.171 27.8612L171.632 31.0567L170.825 35.6295L175.093 33.4808L179.361 35.6295L178.553 31.0567L182.014 27.8612ZM175.093 32.4891L172.093 34.0317L172.67 30.8364L170.248 28.5775L173.651 28.0817L175.15 25.1618L176.65 28.0817L180.053 28.5775L177.631 30.8364L178.207 34.0317L175.093 32.4891ZM196.434 27.8612L191.647 27.2001L189.512 23.0681L187.378 27.2001L182.591 27.8612L186.052 31.0567L185.244 35.6295L189.512 33.4808L193.781 35.6295L192.973 31.0567L196.434 27.8612ZM189.512 32.4891L186.513 34.0317L187.09 30.8364L184.667 28.5775L188.07 28.0817L189.57 25.1618L191.07 28.0817L194.473 28.5775L192.05 30.8364L192.627 34.0317L189.512 32.4891Z" fill="#FF9D28"/>
<path d="M125.302 6.07447L131.201 6.07566L134.787 6.07627V2.52271L125.302 6.07447Z" fill="#FF9D28"/>
<path d="M134.787 2.51416V15.06L139.267 0.836182L134.787 2.51416Z" fill="#68C5ED"/>
<path d="M134.788 6.07582L131.201 6.0752L134.788 15.0681V6.07582Z" fill="#044D80"/>
<path d="M125.302 6.06641L132.12 8.37503L131.201 6.06759L125.302 6.06641Z" fill="#E54747"/>
<path d="M147.032 11.7555C146.98 11.8075 146.893 11.8724 146.772 11.9503C146.651 12.0283 146.493 12.1063 146.298 12.1843C146.103 12.2621 145.865 12.3292 145.583 12.3857C145.302 12.4418 144.979 12.4701 144.615 12.4701C143.914 12.4701 143.307 12.3574 142.796 12.1324C142.285 11.9073 141.863 11.593 141.53 11.1903C141.196 10.7875 140.952 10.3112 140.796 9.76105C140.64 9.21104 140.562 8.60693 140.562 7.94853C140.562 7.2904 140.646 6.68175 140.815 6.12306C140.984 5.56432 141.237 5.08161 141.575 4.6743C141.913 4.26729 142.335 3.94892 142.842 3.7193C143.349 3.48994 143.944 3.375 144.628 3.375C144.966 3.375 145.271 3.40542 145.544 3.46594C145.817 3.5266 146.055 3.59812 146.259 3.68033C146.462 3.76277 146.631 3.84921 146.766 3.94019C146.9 4.03113 147.002 4.1071 147.071 4.16754C147.149 4.23701 147.216 4.31923 147.272 4.4144C147.329 4.50983 147.357 4.61378 147.357 4.72627C147.357 4.89964 147.292 5.07279 147.162 5.24599C147.032 5.41936 146.889 5.57959 146.733 5.72675C146.629 5.6228 146.512 5.51685 146.382 5.40845C146.252 5.30019 146.107 5.20502 145.947 5.12258C145.787 5.04038 145.605 4.97113 145.401 4.9147C145.198 4.85845 144.97 4.83022 144.719 4.83022C144.278 4.83022 143.907 4.91915 143.608 5.09658C143.31 5.27423 143.069 5.50585 142.887 5.79172C142.706 6.07758 142.576 6.40461 142.498 6.77268C142.42 7.14094 142.381 7.51552 142.381 7.8966C142.381 8.30382 142.42 8.6936 142.498 9.06591C142.576 9.43839 142.71 9.76764 142.9 10.0534C143.091 10.3392 143.34 10.5688 143.648 10.742C143.955 10.9154 144.338 11.0019 144.797 11.0019C145.04 11.0019 145.263 10.9716 145.466 10.911C145.67 10.8504 145.85 10.7767 146.006 10.69C146.161 10.6036 146.298 10.5127 146.415 10.4173C146.532 10.322 146.629 10.2398 146.707 10.1703C146.759 10.2311 146.82 10.3048 146.889 10.3913C146.959 10.4787 147.024 10.5697 147.084 10.6641C147.144 10.7595 147.196 10.8547 147.24 10.9499C147.283 11.0453 147.305 11.1318 147.305 11.2097C147.305 11.3224 147.283 11.4176 147.24 11.4956C147.196 11.5736 147.127 11.6603 147.032 11.7555ZM153.727 10.759C153.727 11.4475 153.827 11.9485 154.028 12.2622C153.871 12.3231 153.725 12.3667 153.59 12.3929C153.455 12.4191 153.313 12.4321 153.165 12.4321C152.852 12.4321 152.614 12.3711 152.453 12.2492C152.292 12.1272 152.189 11.9529 152.146 11.7262C151.954 11.9269 151.701 12.0968 151.388 12.2362C151.074 12.3754 150.691 12.4453 150.238 12.4453C150.002 12.4453 149.767 12.4127 149.532 12.3477C149.296 12.2822 149.083 12.176 148.891 12.0286C148.7 11.8807 148.543 11.6831 148.421 11.4355C148.299 11.1879 148.238 10.8861 148.238 10.53C148.238 10.087 148.344 9.72639 148.558 9.44857C148.771 9.17046 149.039 8.95118 149.362 8.79042C149.684 8.62985 150.033 8.51931 150.408 8.45835C150.782 8.39748 151.126 8.3585 151.44 8.34092C151.545 8.33232 151.647 8.32782 151.747 8.32782H152.028V8.08992C152.028 7.75496 151.939 7.517 151.76 7.37609C151.582 7.23515 151.292 7.1645 150.891 7.1645C150.516 7.1645 150.183 7.22555 149.891 7.34747C149.599 7.46961 149.314 7.6089 149.035 7.76578C148.913 7.61767 148.815 7.45434 148.741 7.27561C148.667 7.09713 148.63 6.96417 148.63 6.87693C148.63 6.75501 148.697 6.63736 148.833 6.52399C148.968 6.41089 149.153 6.30834 149.388 6.21684C149.623 6.12533 149.893 6.0514 150.198 5.99463C150.503 5.93803 150.826 5.90967 151.166 5.90967C151.636 5.90967 152.035 5.95767 152.362 6.05346C152.688 6.14946 152.954 6.29752 153.159 6.49786C153.364 6.69845 153.509 6.94885 153.597 7.24946C153.684 7.55013 153.727 7.90101 153.727 8.30169V10.759ZM152.054 9.24277H151.871C151.81 9.24277 151.749 9.2473 151.688 9.25591C151.47 9.27345 151.255 9.29954 151.041 9.33423C150.828 9.36918 150.638 9.43019 150.473 9.51729C150.307 9.60448 150.172 9.71785 150.068 9.85709C149.963 9.9966 149.911 10.1753 149.911 10.3931C149.911 10.6371 149.98 10.8439 150.12 11.0139C150.259 11.1839 150.494 11.2688 150.826 11.2688C150.991 11.2688 151.148 11.2472 151.296 11.2034C151.444 11.16 151.575 11.1033 151.688 11.0336C151.802 10.9639 151.891 10.8877 151.956 10.8048C152.022 10.7221 152.054 10.6459 152.054 10.5761V9.24277H152.054ZM156.982 6.66774C157.121 6.5023 157.338 6.33443 157.633 6.16446C157.929 5.99454 158.302 5.90959 158.754 5.90959C159.075 5.90959 159.382 5.96409 159.673 6.07296C159.963 6.18201 160.222 6.35853 160.448 6.60236C160.674 6.84643 160.854 7.16891 160.989 7.56963C161.123 7.97057 161.191 8.46301 161.191 9.04666C161.191 9.72636 161.112 10.2864 160.956 10.7263C160.8 11.1666 160.598 11.5151 160.35 11.7721C160.103 12.0291 159.827 12.21 159.523 12.3145C159.219 12.4191 158.915 12.4715 158.611 12.4715C158.359 12.4715 158.139 12.4431 157.953 12.3865C157.766 12.3298 157.607 12.2667 157.477 12.1969C157.347 12.1273 157.247 12.0576 157.178 11.9878C157.108 11.9181 157.065 11.8701 157.047 11.8439V15.0571H155.27V6.09256C155.313 6.084 155.366 6.07523 155.428 6.06646C155.48 6.0579 155.542 6.05132 155.612 6.04682C155.682 6.04255 155.766 6.04032 155.862 6.04032C156.152 6.04032 156.398 6.08832 156.6 6.1841C156.802 6.28011 156.929 6.44121 156.982 6.66774ZM159.335 9.08585C159.335 8.82446 159.313 8.58062 159.27 8.35392C159.226 8.12745 159.155 7.93134 159.055 7.76573C158.955 7.60026 158.821 7.47162 158.652 7.38007C158.483 7.28861 158.277 7.24292 158.035 7.24292C157.671 7.24292 157.418 7.31274 157.275 7.45199C157.132 7.59149 157.06 7.74409 157.06 7.90952V10.6807C157.129 10.7505 157.253 10.8331 157.43 10.929C157.608 11.025 157.814 11.0727 158.048 11.0727C158.49 11.0727 158.815 10.8986 159.023 10.5499C159.231 10.2014 159.335 9.7133 159.335 9.08585ZM162.563 11.3342C162.502 11.16 162.462 10.9769 162.445 10.7852C162.427 10.5936 162.419 10.4019 162.419 10.2099V4.14494C162.48 4.13639 162.545 4.12761 162.615 4.11879C162.676 4.11025 162.741 4.10374 162.811 4.0992C162.881 4.09493 162.95 4.09271 163.02 4.09271C163.159 4.09271 163.299 4.1058 163.438 4.13188C163.578 4.15808 163.704 4.21035 163.817 4.28872C163.931 4.36714 164.022 4.47401 164.092 4.60898C164.162 4.74417 164.196 4.92068 164.196 5.13834V6.06638H166.026V7.38666H164.196V10.1741C164.196 10.7819 164.445 11.0858 164.941 11.0858C165.063 11.0858 165.179 11.0663 165.288 11.027C165.397 10.9878 165.495 10.9443 165.582 10.8963C165.669 10.8484 165.745 10.7983 165.811 10.746C165.876 10.6937 165.922 10.6545 165.948 10.6284C166.079 10.8202 166.179 10.9863 166.249 11.1264C166.318 11.2667 166.353 11.3983 166.353 11.5213C166.353 11.6358 166.307 11.748 166.216 11.8579C166.124 11.9678 165.996 12.0691 165.83 12.1614C165.665 12.2537 165.464 12.3284 165.229 12.3857C164.994 12.4429 164.737 12.4715 164.458 12.4715C163.917 12.4715 163.497 12.3669 163.196 12.1578C162.896 11.9485 162.684 11.674 162.563 11.3342ZM170.528 11.1642C170.747 11.1642 170.939 11.1404 171.106 11.0923C171.272 11.0446 171.42 10.9857 171.552 10.916C171.683 10.8463 171.796 10.7701 171.893 10.6873C171.989 10.6045 172.076 10.5283 172.155 10.4584C172.26 10.5891 172.369 10.757 172.483 10.9616C172.596 11.1666 172.653 11.3342 172.653 11.4649C172.653 11.6566 172.544 11.8309 172.327 11.9878C172.144 12.1273 171.884 12.2471 171.549 12.3472C171.213 12.4474 170.819 12.4975 170.366 12.4975C169.956 12.4975 169.553 12.4453 169.157 12.3407C168.76 12.2362 168.407 12.0531 168.098 11.7916C167.789 11.5303 167.538 11.1796 167.347 10.7395C167.155 10.2994 167.059 9.74403 167.059 9.07284C167.059 8.5238 167.144 8.05126 167.314 7.65464C167.484 7.25819 167.71 6.92921 167.994 6.66778C168.277 6.40635 168.597 6.21478 168.954 6.0926C169.312 5.97072 169.678 5.90962 170.052 5.90962C170.54 5.90962 170.954 5.98603 171.294 6.13837C171.634 6.29093 171.91 6.49576 172.124 6.75274C172.337 7.00981 172.492 7.30393 172.588 7.63505C172.684 7.96629 172.732 8.31473 172.732 8.68073V8.86369C172.732 8.9336 172.73 9.00747 172.725 9.08589C172.721 9.1644 172.717 9.24076 172.712 9.31464C172.708 9.38887 172.701 9.4476 172.693 9.49116H168.837C168.872 9.97046 169.02 10.3691 169.283 10.6873C169.545 11.0054 169.96 11.1642 170.528 11.1642ZM171.124 8.51076C171.124 8.09249 171.043 7.75264 170.881 7.49121C170.719 7.22983 170.427 7.09905 170.007 7.09905C169.647 7.09905 169.36 7.22328 169.146 7.47162C168.931 7.72001 168.824 8.06636 168.824 8.51071H171.124V8.51076ZM175.825 6.70077C175.877 6.62301 175.947 6.5366 176.034 6.44139C176.121 6.34626 176.228 6.25982 176.355 6.18206C176.481 6.10425 176.62 6.03928 176.773 5.98743C176.925 5.93555 177.089 5.90962 177.263 5.90962C177.368 5.90962 177.479 5.9184 177.596 5.93555C177.714 5.95291 177.823 5.98538 177.923 6.03277C178.023 6.08037 178.104 6.14509 178.165 6.22722C178.226 6.30934 178.256 6.41084 178.256 6.53177C178.256 6.72189 178.208 6.94025 178.113 7.18675C178.017 7.43349 177.921 7.64385 177.825 7.81806C177.677 7.69609 177.529 7.6024 177.381 7.53704C177.232 7.47171 177.058 7.43898 176.858 7.43898C176.588 7.43898 176.361 7.51766 176.178 7.67488C175.995 7.83215 175.904 8.02006 175.904 8.23854V12.47H174.126V6.09256C174.17 6.084 174.222 6.07523 174.283 6.06646C174.335 6.0579 174.396 6.05132 174.466 6.04682C174.536 6.04255 174.618 6.04032 174.714 6.04032C174.993 6.04032 175.235 6.09438 175.44 6.2023C175.644 6.31009 175.773 6.47634 175.825 6.70077ZM180.879 6.70077C180.931 6.62301 181.001 6.5366 181.088 6.44139C181.175 6.34626 181.282 6.25982 181.408 6.18206C181.535 6.10425 181.674 6.03928 181.827 5.98743C181.979 5.93555 182.142 5.90962 182.317 5.90962C182.421 5.90962 182.533 5.9184 182.65 5.93555C182.768 5.95291 182.877 5.98538 182.977 6.03277C183.077 6.08037 183.158 6.14509 183.219 6.22722C183.28 6.30934 183.31 6.41084 183.31 6.53177C183.31 6.72189 183.262 6.94025 183.167 7.18675C183.071 7.43349 182.975 7.64385 182.879 7.81806C182.731 7.69609 182.583 7.6024 182.434 7.53704C182.286 7.47171 182.112 7.43898 181.912 7.43898C181.642 7.43898 181.415 7.51766 181.232 7.67488C181.049 7.83215 180.958 8.02006 180.958 8.23854V12.47H179.18V6.09256C179.224 6.084 179.276 6.07523 179.337 6.06646C179.389 6.0579 179.45 6.05132 179.52 6.04682C179.589 6.04255 179.672 6.04032 179.768 6.04032C180.047 6.04032 180.289 6.09438 180.494 6.2023C180.698 6.31009 180.827 6.47634 180.879 6.70077ZM189.362 10.759C189.362 11.4475 189.462 11.9485 189.663 12.2622C189.506 12.3231 189.36 12.3667 189.225 12.3929C189.09 12.4191 188.948 12.4321 188.8 12.4321C188.486 12.4321 188.249 12.3711 188.088 12.2492C187.926 12.1272 187.824 11.9529 187.781 11.7262C187.589 11.9269 187.336 12.0968 187.022 12.2362C186.709 12.3754 186.325 12.4453 185.872 12.4453C185.637 12.4453 185.402 12.4127 185.166 12.3477C184.931 12.2822 184.718 12.176 184.526 12.0286C184.334 11.8807 184.177 11.6831 184.055 11.4355C183.933 11.1879 183.872 10.8861 183.872 10.53C183.872 10.087 183.979 9.72639 184.193 9.44857C184.406 9.17046 184.674 8.95118 184.997 8.79042C185.319 8.62985 185.667 8.51931 186.042 8.45835C186.417 8.39748 186.761 8.3585 187.075 8.34092C187.179 8.33232 187.282 8.32782 187.382 8.32782H187.663V8.08992C187.663 7.75496 187.573 7.517 187.395 7.37609C187.216 7.23515 186.926 7.1645 186.526 7.1645C186.151 7.1645 185.818 7.22555 185.526 7.34747C185.234 7.46961 184.949 7.6089 184.67 7.76578C184.548 7.61767 184.45 7.45434 184.376 7.27561C184.302 7.09713 184.265 6.96417 184.265 6.87693C184.265 6.75501 184.332 6.63736 184.467 6.52399C184.602 6.41089 184.787 6.30834 185.023 6.21684C185.258 6.12533 185.528 6.0514 185.833 5.99463C186.138 5.93803 186.46 5.90967 186.8 5.90967C187.271 5.90967 187.669 5.95767 187.996 6.05346C188.323 6.14946 188.589 6.29752 188.793 6.49786C188.998 6.69845 189.144 6.94885 189.231 7.24946C189.318 7.55013 189.362 7.90101 189.362 8.30169V10.759ZM187.689 9.24277H187.506C187.445 9.24277 187.384 9.2473 187.323 9.25591C187.105 9.27345 186.89 9.29954 186.676 9.33423C186.462 9.36918 186.273 9.43019 186.108 9.51729C185.942 9.60448 185.807 9.71785 185.702 9.85709C185.598 9.9966 185.545 10.1753 185.545 10.3931C185.545 10.6371 185.615 10.8439 185.755 11.0139C185.894 11.1839 186.129 11.2688 186.46 11.2688C186.626 11.2688 186.783 11.2472 186.931 11.2034C187.079 11.16 187.21 11.1033 187.323 11.0336C187.436 10.9639 187.526 10.8877 187.591 10.8048C187.656 10.7221 187.689 10.6459 187.689 10.5761V9.24277Z" fill="#044D80"/>
<rect opacity="0.3" x="220.434" width="2" height="37.8936" rx="1" fill="#A0A6B1"/>
<path d="M271.749 13.0711C271.115 13.0711 270.556 12.9485 270.074 12.7031C269.592 12.4492 269.219 12.0938 268.957 11.637C268.695 11.1801 268.564 10.6555 268.564 10.0632V6.99181C268.564 6.39107 268.695 5.86649 268.957 5.41805C269.219 4.96115 269.592 4.61002 270.074 4.36464C270.556 4.11081 271.115 3.98389 271.749 3.98389C272.375 3.98389 272.925 4.10658 273.399 4.35195C273.882 4.59732 274.254 4.93154 274.516 5.35459C274.778 5.77764 274.909 6.2557 274.909 6.78875V6.89028C274.909 6.93258 274.893 6.97066 274.859 7.0045C274.833 7.02989 274.799 7.04258 274.757 7.04258H273.602C273.56 7.04258 273.522 7.02989 273.488 7.0045C273.463 6.97066 273.45 6.93258 273.45 6.89028V6.82681C273.45 6.36992 273.293 5.9934 272.98 5.69726C272.676 5.40112 272.265 5.25306 271.749 5.25306C271.233 5.25306 270.819 5.40958 270.506 5.72264C270.192 6.02725 270.036 6.43338 270.036 6.94105V10.114C270.036 10.6216 270.201 11.032 270.531 11.345C270.861 11.6496 271.288 11.8019 271.813 11.8019C272.32 11.8019 272.718 11.6708 273.006 11.4085C273.302 11.1377 273.45 10.7697 273.45 10.3043V9.51745C273.45 9.47514 273.429 9.45399 273.386 9.45399H271.825C271.783 9.45399 271.745 9.4413 271.711 9.41591C271.686 9.38207 271.673 9.344 271.673 9.30169V8.36251C271.673 8.3202 271.686 8.28636 271.711 8.26097C271.745 8.22713 271.783 8.21021 271.825 8.21021H274.757C274.799 8.21021 274.833 8.22713 274.859 8.26097C274.893 8.28636 274.909 8.3202 274.909 8.36251V9.98704C274.909 10.9601 274.622 11.7174 274.047 12.2588C273.48 12.8003 272.714 13.0711 271.749 13.0711ZM278.238 11.6243C278.221 11.6411 278.213 11.6581 278.213 11.675C278.221 11.6919 278.238 11.7004 278.264 11.7004H281.881C281.923 11.7004 281.957 11.7174 281.982 11.7511C282.016 11.7765 282.033 11.8104 282.033 11.8527V12.8172C282.033 12.8596 282.016 12.8976 281.982 12.9315C281.957 12.9569 281.923 12.9696 281.881 12.9696H276.423C276.381 12.9696 276.343 12.9569 276.309 12.9315C276.284 12.8976 276.271 12.8596 276.271 12.8172V11.9035C276.271 11.8273 276.296 11.7639 276.347 11.7131C276.99 11.0277 277.735 10.1859 278.581 9.18746L279.177 8.48943C279.956 7.58409 280.345 6.89874 280.345 6.43338C280.345 6.08648 280.222 5.80302 279.977 5.58304C279.732 5.36305 279.414 5.25306 279.025 5.25306C278.636 5.25306 278.319 5.36305 278.073 5.58304C277.836 5.80302 277.718 6.09493 277.718 6.45876V6.78875C277.718 6.83105 277.701 6.86913 277.667 6.90297C277.642 6.92835 277.608 6.94105 277.566 6.94105H276.385C276.343 6.94105 276.305 6.92835 276.271 6.90297C276.246 6.86913 276.233 6.83105 276.233 6.78875V6.243C276.25 5.78611 276.381 5.38843 276.626 5.04999C276.872 4.71155 277.202 4.44925 277.616 4.26311C278.039 4.07697 278.509 3.98389 279.025 3.98389C279.592 3.98389 280.087 4.08966 280.51 4.30118C280.933 4.51271 281.259 4.80462 281.487 5.1769C281.716 5.54073 281.83 5.95109 281.83 6.408C281.83 7.10181 281.462 7.90137 280.726 8.80671C280.32 9.31438 279.651 10.0759 278.721 11.0912L278.238 11.6243Z" fill="#303B45"/>
<path d="M254.96 16.2682C259.159 16.2682 262.564 13.0184 262.564 9.0097C262.564 5.00095 259.159 1.75122 254.96 1.75122C250.76 1.75122 247.355 5.00095 247.355 9.0097C247.355 13.0184 250.76 16.2682 254.96 16.2682Z" fill="#FF492C"/>
<path d="M258.252 7.31309H256.953C256.988 7.11856 257.114 7.00969 257.37 6.88629L257.608 6.77015C258.036 6.56111 258.264 6.32448 258.264 5.93833C258.264 5.69591 258.165 5.50428 257.969 5.36637C257.773 5.22846 257.542 5.16023 257.271 5.16023C257.061 5.15787 256.856 5.21388 256.679 5.32137C256.501 5.42589 256.369 5.56089 256.287 5.72929L256.662 6.08931C256.808 5.80768 257.02 5.66977 257.298 5.66977C257.534 5.66977 257.678 5.78591 257.678 5.94705C257.678 6.08205 257.608 6.19383 257.338 6.32448L257.184 6.39562C256.851 6.55676 256.62 6.74113 256.486 6.95016C256.352 7.15921 256.287 7.42197 256.287 7.73989V7.82698H258.252V7.31309ZM258.078 8.41929H255.928L254.853 10.1962H257.003L258.078 11.9745L259.154 10.1962L258.078 8.41929Z" fill="white"/>
<path d="M255.035 11.3733C253.667 11.3733 252.552 10.3092 252.552 9.00272C252.552 7.69619 253.667 6.6321 255.035 6.6321L255.885 4.93507C255.606 4.88192 255.321 4.85518 255.035 4.85522C252.635 4.85522 250.69 6.71194 250.69 9.00272C250.69 11.2935 252.635 13.1502 255.035 13.1502C255.955 13.1519 256.851 12.8731 257.593 12.3546L256.653 10.7985C256.204 11.1692 255.629 11.3733 255.035 11.3733Z" fill="white"/>
<path d="M302.72 27.993L306.248 27.4228L308.148 24.2602L308.749 25.6303L309.659 26.5192L310.114 27.4228V33.6296L308.094 32.5556L304.782 34.1109L305.217 30.5335L302.72 27.993ZM248.495 28.0967L252.023 27.5265L253.869 24.1565L255.552 27.4746L259.351 28.0967L256.691 30.5854L257.234 34.2146L253.869 32.6592L250.504 34.2146L250.938 30.6372L248.495 28.0967ZM262.011 28.0967L265.539 27.5265L267.384 24.1565L269.121 27.4746L272.867 28.0967L270.207 30.5854L270.804 34.2146L267.384 32.6592L264.073 34.2146L264.508 30.6372L262.011 28.0967ZM275.798 28.0967L279.326 27.5265L281.171 24.1565L282.854 27.4746L286.653 28.0967L283.994 30.5854L284.591 34.2146L281.171 32.6592L277.806 34.2146L278.24 30.6372L275.798 28.0967ZM289.15 28.0967L292.678 27.5265L294.524 24.1565L296.261 27.4746L300.006 28.0967L297.346 30.5854L297.943 34.2146L294.524 32.6592L291.213 34.2146L291.647 30.6372L289.15 28.0967Z" fill="#FF492C"/>
<path d="M260.383 27.7789L255.877 27.1568L253.869 23.2683L251.861 27.1568L247.356 27.7789L250.612 30.7861L249.852 35.0893L253.869 33.0673L257.886 35.0893L257.126 30.7861L260.383 27.7789ZM253.869 32.134L251.047 33.5857L251.589 30.5787L249.31 28.453L252.512 27.9863L253.923 25.2384L255.335 27.9863L258.537 28.453L256.257 30.5787L256.8 33.5857L253.869 32.134ZM273.952 27.7789L269.447 27.1568L267.439 23.2683L265.431 27.1568L260.925 27.7789L264.182 30.7861L263.422 35.0893L267.439 33.0673L271.456 35.0893L270.696 30.7861L273.952 27.7789ZM267.439 32.134L264.616 33.5857L265.159 30.5787L262.879 28.453L266.082 27.9863L267.493 25.2384L268.904 27.9863L272.107 28.453L269.827 30.5787L270.37 33.5857L267.439 32.134ZM287.522 27.7789L283.017 27.1568L281.009 23.2683L279 27.1568L274.495 27.7789L277.752 30.7861L276.992 35.0893L281.009 33.0673L285.025 35.0893L284.265 30.7861L287.522 27.7789ZM281.009 32.134L278.186 33.5857L278.729 30.5787L276.449 28.453L279.652 27.9863L281.063 25.2384L282.474 27.9863L285.677 28.453L283.397 30.5787L283.94 33.5857L281.009 32.134ZM301.092 27.7789L296.587 27.1568L294.578 23.2683L292.57 27.1568L288.065 27.7789L291.322 30.7861L290.562 35.0893L294.578 33.0673L298.595 35.0893L297.835 30.7861L301.092 27.7789ZM294.578 32.134L291.756 33.5857L292.299 30.5787L290.019 28.453L293.221 27.9863L294.633 25.2384L296.044 27.9863L299.246 28.453L296.967 30.5787L297.509 33.5857L294.578 32.134ZM314.661 27.7789L310.156 27.1568L308.148 23.2683L306.14 27.1568L301.635 27.7789L304.891 30.7861L304.131 35.0893L308.148 33.0673L312.165 35.0893L311.405 30.7861L314.661 27.7789ZM308.148 32.134L305.326 33.5857L305.868 30.5787L303.589 28.453L306.791 27.9863L308.202 25.2384L309.614 27.9863L312.816 28.453L310.536 30.5787L311.079 33.5857L308.148 32.134Z" fill="#FF492C"/>
</svg>
