<svg width="109" height="37" viewBox="0 0 109 37" fill="none" xmlns="http://www.w3.org/2000/svg">
<path d="M60.4391 16.5368V21.6205C60.4391 23.0676 61.6147 24.2395 63.0661 24.2395C64.5175 24.2395 65.6929 23.0676 65.6929 21.6205V19.1558C65.6929 17.7087 64.5175 16.5368 63.0661 16.5368H60.4391ZM65.6929 13.1201V6.98358H70.0196V21.7746H70.0122C69.8504 25.0354 67.148 27.6286 63.8387 27.6286H62.2935C58.8791 27.6286 56.1125 24.8685 56.1125 21.4664V19.0017C56.1125 15.5978 58.881 12.8395 62.2935 12.8395H63.8387C64.4844 12.8395 65.108 12.9367 65.6929 13.1201ZM81.1471 16.5368V21.6205C81.1471 23.0676 82.3226 24.2395 83.774 24.2395C85.2254 24.2395 86.4009 23.0676 86.4009 21.6205V19.1558C86.4009 17.7087 85.2254 16.5368 83.774 16.5368H81.1471ZM90.6981 18.3854H90.7294V21.4664C90.7294 21.9066 90.6815 22.3358 90.5932 22.7503C89.6698 29.1693 84.1309 34.1008 77.4385 34.1008V29.7873H86.4027V27.6305H83.0033C79.589 27.6305 76.8224 24.8703 76.8224 21.4683V19.0017C76.8224 15.5978 79.5908 12.8395 83.0033 12.8395H84.5485C87.753 12.8395 90.3891 15.2713 90.6981 18.3854ZM96.2922 16.5368V21.6205C96.2922 23.0676 97.4677 24.2395 98.9192 24.2395C100.371 24.2395 101.546 23.0676 101.546 21.6205V19.1558C101.546 17.7087 100.371 16.5368 98.9192 16.5368H96.2922ZM91.9655 21.4664V19.0017C91.9655 15.5978 94.7341 12.8395 98.1466 12.8395H99.6918C103.106 12.8395 105.873 15.5997 105.873 19.0017V21.4664C105.873 24.8703 103.104 27.6286 99.6918 27.6286H98.1466C94.7341 27.6305 91.9655 24.8703 91.9655 21.4664ZM71.2576 12.8395H75.5843V27.6305H71.2576V12.8395ZM38.4932 11.2989C37.2974 11.2989 36.3298 10.3324 36.3298 9.14217C36.3298 7.95192 37.2993 6.98541 38.4932 6.98541C39.6871 6.98541 40.6565 7.95192 40.6565 9.14217C40.6565 10.3324 39.6889 11.2989 38.4932 11.2989ZM73.4209 11.2989C72.2253 11.2989 71.2576 10.3324 71.2576 9.14217C71.2576 7.95192 72.227 6.98541 73.4209 6.98541C74.6167 6.98541 75.5843 7.95192 75.5843 9.14217C75.5843 10.3324 74.6148 11.2989 73.4209 11.2989ZM36.3298 12.8395H40.6565V27.6305H36.3298V12.8395ZM48.6935 17.1531H46.2212V27.6305H41.8945V18.6936C41.8945 15.4602 44.5232 12.8395 47.7664 12.8395H48.6935C52.1077 12.8395 54.8744 15.5997 54.8744 19.0017V27.6305H50.5479V19.0017C50.5479 17.9802 49.7182 17.1531 48.6935 17.1531Z" fill="url(#paint0_linear_123_11524)"/>
<path d="M2.95081 3.90262V32.2522H23.3497C27.7886 32.2522 31.3867 28.665 31.3867 24.2395V3.90262H2.95081ZM11.49 15.1137C9.50517 15.1137 7.89555 13.4998 7.89555 11.51C7.89555 9.52009 9.50517 7.9062 11.49 7.9062C13.4749 7.9062 15.0846 9.52009 15.0846 11.51C15.0827 13.5017 13.4749 15.1137 11.49 15.1137ZM26.4421 23.0072C26.4421 25.6133 24.505 27.6288 22.1154 27.6288C19.7257 27.6288 17.7887 25.6114 17.7887 23.0072V14.3801H22.1154C24.505 14.3801 26.4421 16.3975 26.4421 19.0018V23.0072Z" fill="url(#paint1_linear_123_11524)"/>
<defs>
<linearGradient id="paint0_linear_123_11524" x1="30.6693" y1="20.5422" x2="98.9993" y2="20.5422" gradientUnits="userSpaceOnUse">
<stop stop-color="#5D0B99"/>
<stop offset="1" stop-color="#871BD7"/>
</linearGradient>
<linearGradient id="paint1_linear_123_11524" x1="0.636245" y1="18.0774" x2="28.5762" y2="18.0774" gradientUnits="userSpaceOnUse">
<stop stop-color="#5D0B99"/>
<stop offset="1" stop-color="#871BD7"/>
</linearGradient>
</defs>
</svg>
