<svg width="365" height="114" viewBox="0 0 365 114" fill="none" xmlns="http://www.w3.org/2000/svg">
<path d="M314.989 58.5C320.782 58.5 326.288 63 332.081 63C337.007 63 341 58.9706 341 54C341 49.0294 337.007 45 332.081 45C326.288 45 320.782 49.5 314.989 49.5L304.579 49.5C298.785 49.5 293.28 45 287.486 45C281.693 45 276.188 49.5 270.394 49.5L259.984 49.5C254.191 49.5 248.685 45 242.892 45C237.099 45 231.593 49.5 225.8 49.5L215.389 49.5C209.596 49.5 204.09 45 198.297 45C192.504 45 186.998 49.5 181.205 49.5L170.795 49.5C165.002 49.5 159.496 45 153.703 45C147.91 45 142.404 49.5 136.611 49.5L126.2 49.5C120.407 49.5 114.901 45 109.108 45C103.315 45 97.8092 49.5 92.016 49.5L81.6057 49.5C75.8125 49.5 70.3067 45 64.5135 45C58.7203 45 53.2146 49.5 47.4214 49.5L37.0111 49.5C31.2179 49.5 25.7121 45 19.9189 45C14.9956 45 11.0039 49.0255 11 53.9927L11 54C11 58.9705 14.9932 63 19.9189 63C25.7121 63 31.2179 58.5 37.0111 58.5L47.4214 58.5C53.2146 58.5 58.7203 63 64.5135 63C70.3067 63 75.8125 58.5 81.6057 58.5L92.016 58.5C97.8092 58.5 103.315 63 109.108 63C114.901 63 120.407 58.5 126.2 58.5L136.611 58.5C142.404 58.5 147.91 63 153.703 63C159.496 63 165.002 58.5 170.795 58.5L181.205 58.5C186.998 58.5 192.504 63 198.297 63C204.09 63 209.596 58.5 215.389 58.5L225.8 58.5C231.593 58.5 237.099 63 242.892 63C248.685 63 254.191 58.5 259.984 58.5L270.394 58.5C276.188 58.5 281.693 63 287.486 63C293.28 63 298.785 58.5 304.579 58.5L314.989 58.5Z" fill="#D1C8FB"/>
<path d="M207 53.9994C207 50.8582 205.241 47.7695 202.524 46.192C201.219 45.4337 199.705 45 198.09 45C192.302 45 186.802 49.5 181.014 49.5L170.621 49.5C164.833 49.5 159.333 45 153.545 45C147.757 45 142.257 49.5 136.469 49.5L126.076 49.5C120.288 49.5 114.788 45 109 45C103.211 45 97.7117 49.5 91.9234 49.5L81.5308 49.5C75.7425 49.5 70.2427 45 64.4544 45C58.6662 45 53.1664 49.5 47.3781 49.5L36.9854 49.5C31.1971 49.5 25.6973 45 19.9091 45C14.9911 45 11.0039 49.0255 11 53.9927L11 54C11 58.9706 14.9887 63 19.9091 63C25.6973 63 31.1972 58.5 36.9854 58.5L47.3781 58.5C53.1664 58.5 58.6662 63 64.4544 63C70.2427 63 75.7425 58.5 81.5308 58.5L91.9234 58.5C97.7117 58.5 103.211 63 109 63C114.788 63 120.288 58.5 126.076 58.5L136.469 58.5C142.257 58.5 147.757 63 153.545 63C159.333 63 164.833 58.5 170.621 58.5L181.014 58.5C186.802 58.5 192.302 63 198.09 63C199.704 63 201.218 62.5666 202.523 61.8086C205.24 60.2311 207 57.1414 207 53.9994Z" fill="#7C4EFF"/>
<path d="M207 53.9994C207 50.8582 205.241 47.7695 202.524 46.192C201.219 45.4337 199.705 45 198.09 45C192.302 45 186.802 49.5 181.014 49.5L170.621 49.5C164.833 49.5 159.333 45 153.545 45C147.757 45 142.257 49.5 136.469 49.5L126.076 49.5C120.288 49.5 114.788 45 109 45C103.211 45 97.7117 49.5 91.9234 49.5L81.5308 49.5C75.7425 49.5 70.2427 45 64.4544 45C58.6662 45 53.1664 49.5 47.3781 49.5L36.9854 49.5C31.1971 49.5 25.6973 45 19.9091 45C14.9911 45 11.0039 49.0255 11 53.9927L11 54C11 58.9706 14.9887 63 19.9091 63C25.6973 63 31.1972 58.5 36.9854 58.5L47.3781 58.5C53.1664 58.5 58.6662 63 64.4544 63C70.2427 63 75.7425 58.5 81.5308 58.5L91.9234 58.5C97.7117 58.5 103.211 63 109 63C114.788 63 120.288 58.5 126.076 58.5L136.469 58.5C142.257 58.5 147.757 63 153.545 63C159.333 63 164.833 58.5 170.621 58.5L181.014 58.5C186.802 58.5 192.302 63 198.09 63C199.704 63 201.218 62.5666 202.523 61.8086C205.24 60.2311 207 57.1414 207 53.9994Z" fill="url(#paint0_linear_123_10944)"/>
<path d="M169.198 20.2C167.931 20.2 166.844 19.9333 165.938 19.4C165.031 18.8533 164.338 18.0667 163.858 17.04C163.378 16.0133 163.138 14.7467 163.138 13.24C163.138 11.64 163.424 10.2867 163.998 9.18C164.584 8.07333 165.391 7.23333 166.418 6.66C167.458 6.08667 168.651 5.8 169.998 5.8C170.704 5.8 171.378 5.87333 172.018 6.02C172.671 6.16667 173.224 6.39333 173.678 6.7L172.718 8.66C172.331 8.40667 171.911 8.23333 171.458 8.14C171.018 8.03333 170.551 7.98 170.058 7.98C168.738 7.98 167.691 8.38667 166.918 9.2C166.144 10.0133 165.758 11.2133 165.758 12.8C165.758 13.0533 165.764 13.3533 165.778 13.7C165.791 14.0333 165.838 14.3733 165.918 14.72L165.118 13.84C165.358 13.2933 165.684 12.84 166.098 12.48C166.524 12.1067 167.024 11.8267 167.598 11.64C168.184 11.4533 168.818 11.36 169.498 11.36C170.418 11.36 171.238 11.54 171.958 11.9C172.678 12.2467 173.251 12.7467 173.678 13.4C174.104 14.04 174.318 14.7933 174.318 15.66C174.318 16.58 174.091 17.38 173.638 18.06C173.184 18.74 172.571 19.2667 171.798 19.64C171.024 20.0133 170.158 20.2 169.198 20.2ZM169.058 18.16C169.591 18.16 170.064 18.0667 170.478 17.88C170.891 17.68 171.211 17.4 171.438 17.04C171.678 16.68 171.798 16.26 171.798 15.78C171.798 15.0467 171.544 14.4667 171.038 14.04C170.531 13.6133 169.851 13.4 168.998 13.4C168.438 13.4 167.944 13.5067 167.518 13.72C167.104 13.92 166.771 14.2 166.518 14.56C166.278 14.92 166.158 15.3333 166.158 15.8C166.158 16.2267 166.271 16.62 166.498 16.98C166.724 17.34 167.051 17.6267 167.478 17.84C167.918 18.0533 168.444 18.16 169.058 18.16ZM175.477 16.82V15.02L182.377 6H185.157L178.357 15.02L177.057 14.62H188.157V16.82H175.477ZM183.157 20V16.82L183.237 14.62V11.8H185.677V20H183.157ZM195.091 20.2C193.984 20.2 192.984 19.92 192.091 19.36C191.211 18.8 190.518 17.9867 190.011 16.92C189.504 15.84 189.251 14.5333 189.251 13C189.251 11.4667 189.504 10.1667 190.011 9.1C190.518 8.02 191.211 7.2 192.091 6.64C192.984 6.08 193.984 5.8 195.091 5.8C196.211 5.8 197.211 6.08 198.091 6.64C198.971 7.2 199.664 8.02 200.171 9.1C200.691 10.1667 200.951 11.4667 200.951 13C200.951 14.5333 200.691 15.84 200.171 16.92C199.664 17.9867 198.971 18.8 198.091 19.36C197.211 19.92 196.211 20.2 195.091 20.2ZM195.091 17.94C195.744 17.94 196.311 17.7667 196.791 17.42C197.271 17.06 197.644 16.5133 197.911 15.78C198.191 15.0467 198.331 14.12 198.331 13C198.331 11.8667 198.191 10.94 197.911 10.22C197.644 9.48667 197.271 8.94667 196.791 8.6C196.311 8.24 195.744 8.06 195.091 8.06C194.464 8.06 193.904 8.24 193.411 8.6C192.931 8.94667 192.551 9.48667 192.271 10.22C192.004 10.94 191.871 11.8667 191.871 13C191.871 14.12 192.004 15.0467 192.271 15.78C192.551 16.5133 192.931 17.06 193.411 17.42C193.904 17.7667 194.464 17.94 195.091 17.94ZM213.002 20.2C211.909 20.2 210.902 20.0267 209.982 19.68C209.075 19.32 208.282 18.82 207.602 18.18C206.922 17.5267 206.395 16.76 206.022 15.88C205.649 15 205.462 14.04 205.462 13C205.462 11.96 205.649 11 206.022 10.12C206.395 9.24 206.922 8.48 207.602 7.84C208.295 7.18667 209.102 6.68667 210.022 6.34C210.942 5.98 211.949 5.8 213.042 5.8C214.229 5.8 215.295 5.99333 216.242 6.38C217.202 6.76667 218.009 7.33333 218.662 8.08L217.022 9.68C216.475 9.13333 215.882 8.73333 215.242 8.48C214.615 8.21333 213.922 8.08 213.162 8.08C212.429 8.08 211.749 8.2 211.122 8.44C210.495 8.68 209.955 9.02 209.502 9.46C209.049 9.9 208.695 10.42 208.442 11.02C208.202 11.62 208.082 12.28 208.082 13C208.082 13.7067 208.202 14.36 208.442 14.96C208.695 15.56 209.049 16.0867 209.502 16.54C209.955 16.98 210.489 17.32 211.102 17.56C211.715 17.8 212.395 17.92 213.142 17.92C213.835 17.92 214.502 17.8133 215.142 17.6C215.795 17.3733 216.415 17 217.002 16.48L218.482 18.42C217.749 19.0067 216.895 19.4533 215.922 19.76C214.962 20.0533 213.989 20.2 213.002 20.2ZM216.022 18.08V12.84H218.482V18.42L216.022 18.08ZM227.591 20.14C226.685 20.14 225.878 19.94 225.171 19.54C224.465 19.14 223.905 18.54 223.491 17.74C223.091 16.9267 222.891 15.9 222.891 14.66C222.891 13.4067 223.098 12.38 223.511 11.58C223.938 10.78 224.505 10.1867 225.211 9.8C225.931 9.4 226.725 9.2 227.591 9.2C228.645 9.2 229.571 9.42667 230.371 9.88C231.185 10.3333 231.825 10.9667 232.291 11.78C232.771 12.5933 233.011 13.5533 233.011 14.66C233.011 15.7667 232.771 16.7267 232.291 17.54C231.825 18.3533 231.185 18.9933 230.371 19.46C229.571 19.9133 228.645 20.14 227.591 20.14ZM221.671 20V5.16H224.171V11.8L223.971 14.64L224.051 17.48V20H221.671ZM227.311 18C227.911 18 228.445 17.8667 228.911 17.6C229.391 17.3333 229.771 16.9467 230.051 16.44C230.331 15.9333 230.471 15.34 230.471 14.66C230.471 13.9667 230.331 13.3733 230.051 12.88C229.771 12.3733 229.391 11.9867 228.911 11.72C228.445 11.4533 227.911 11.32 227.311 11.32C226.711 11.32 226.171 11.4533 225.691 11.72C225.211 11.9867 224.831 12.3733 224.551 12.88C224.271 13.3733 224.131 13.9667 224.131 14.66C224.131 15.34 224.271 15.9333 224.551 16.44C224.831 16.9467 225.211 17.3333 225.691 17.6C226.171 17.8667 226.711 18 227.311 18Z" fill="#7C4EFF"/>
<g filter="url(#filter0_ddd_123_10944)">
<circle cx="198" cy="54.0001" r="18" fill="url(#paint1_linear_123_10944)"/>
<circle cx="198" cy="54.0001" r="16.5" stroke="url(#paint2_linear_123_10944)" stroke-width="3"/>
</g>
<circle cx="198" cy="54" r="7.5" stroke="url(#paint3_linear_123_10944)" stroke-width="3"/>
<path d="M172.914 104.4V85.6001H174.554V104.4H172.914ZM173.534 102.2C172.441 102.2 171.394 102.047 170.394 101.74C169.394 101.42 168.601 101.013 168.014 100.52L168.914 98.5001C169.474 98.9401 170.168 99.3068 170.994 99.6001C171.821 99.8935 172.668 100.04 173.534 100.04C174.268 100.04 174.861 99.9601 175.314 99.8001C175.768 99.6401 176.101 99.4268 176.314 99.1601C176.528 98.8801 176.634 98.5668 176.634 98.2201C176.634 97.7935 176.481 97.4535 176.174 97.2001C175.868 96.9335 175.468 96.7268 174.974 96.5801C174.494 96.4201 173.954 96.2735 173.354 96.1401C172.768 96.0068 172.174 95.8535 171.574 95.6801C170.988 95.4935 170.448 95.2601 169.954 94.9801C169.474 94.6868 169.081 94.3001 168.774 93.8201C168.468 93.3401 168.314 92.7268 168.314 91.9801C168.314 91.2201 168.514 90.5268 168.914 89.9001C169.328 89.2601 169.948 88.7535 170.774 88.3801C171.614 87.9935 172.674 87.8001 173.954 87.8001C174.794 87.8001 175.628 87.9068 176.454 88.1201C177.281 88.3335 178.001 88.6401 178.614 89.0401L177.794 91.0601C177.168 90.6868 176.521 90.4135 175.854 90.2401C175.188 90.0535 174.548 89.9601 173.934 89.9601C173.214 89.9601 172.628 90.0468 172.174 90.2201C171.734 90.3935 171.408 90.6201 171.194 90.9001C170.994 91.1801 170.894 91.5001 170.894 91.8601C170.894 92.2868 171.041 92.6335 171.334 92.9001C171.641 93.1535 172.034 93.3535 172.514 93.5001C173.008 93.6468 173.554 93.7935 174.154 93.9401C174.754 94.0735 175.348 94.2268 175.934 94.4001C176.534 94.5735 177.074 94.8001 177.554 95.0801C178.048 95.3601 178.441 95.7401 178.734 96.2201C179.041 96.7001 179.194 97.3068 179.194 98.0401C179.194 98.7868 178.988 99.4801 178.574 100.12C178.174 100.747 177.554 101.253 176.714 101.64C175.874 102.013 174.814 102.2 173.534 102.2ZM183.017 102V89.0001L184.157 90.1801H180.057V88.0001H185.617V102H183.017ZM196.268 87.8001C197.548 87.8001 198.635 88.0735 199.528 88.6201C200.435 89.1535 201.128 89.9335 201.608 90.9601C202.088 91.9868 202.328 93.2535 202.328 94.7601C202.328 96.3601 202.035 97.7135 201.448 98.8201C200.875 99.9268 200.075 100.767 199.048 101.34C198.022 101.913 196.828 102.2 195.468 102.2C194.762 102.2 194.088 102.127 193.448 101.98C192.808 101.833 192.255 101.607 191.788 101.3L192.748 99.3401C193.135 99.5935 193.555 99.7735 194.008 99.8801C194.462 99.9735 194.928 100.02 195.408 100.02C196.728 100.02 197.775 99.6135 198.548 98.8001C199.322 97.9868 199.708 96.7868 199.708 95.2001C199.708 94.9468 199.702 94.6535 199.688 94.3201C199.675 93.9735 199.628 93.6268 199.548 93.2801L200.348 94.1601C200.122 94.7068 199.795 95.1668 199.368 95.5401C198.942 95.9001 198.442 96.1735 197.868 96.3601C197.295 96.5468 196.662 96.6401 195.968 96.6401C195.062 96.6401 194.242 96.4668 193.508 96.1201C192.788 95.7601 192.215 95.2601 191.788 94.6201C191.362 93.9668 191.148 93.2068 191.148 92.3401C191.148 91.4068 191.375 90.6068 191.828 89.9401C192.282 89.2601 192.895 88.7335 193.668 88.3601C194.455 87.9868 195.322 87.8001 196.268 87.8001ZM196.408 89.8401C195.875 89.8401 195.402 89.9401 194.988 90.1401C194.575 90.3268 194.248 90.6001 194.008 90.9601C193.782 91.3068 193.668 91.7268 193.668 92.2201C193.668 92.9535 193.922 93.5335 194.428 93.9601C194.935 94.3868 195.615 94.6001 196.468 94.6001C197.028 94.6001 197.522 94.5001 197.948 94.3001C198.375 94.0868 198.708 93.8001 198.948 93.4401C199.188 93.0668 199.308 92.6535 199.308 92.2001C199.308 91.7601 199.195 91.3668 198.968 91.0201C198.742 90.6601 198.415 90.3735 197.988 90.1601C197.562 89.9468 197.035 89.8401 196.408 89.8401ZM204.088 102V100.26L209.648 94.9801C210.115 94.5401 210.461 94.1535 210.688 93.8201C210.915 93.4868 211.061 93.1801 211.128 92.9001C211.208 92.6068 211.248 92.3335 211.248 92.0801C211.248 91.4401 211.028 90.9468 210.588 90.6001C210.148 90.2401 209.501 90.0601 208.648 90.0601C207.968 90.0601 207.348 90.1801 206.788 90.4201C206.241 90.6601 205.768 91.0268 205.368 91.5201L203.548 90.1201C204.095 89.3868 204.828 88.8201 205.748 88.4201C206.681 88.0068 207.721 87.8001 208.868 87.8001C209.881 87.8001 210.761 87.9668 211.508 88.3001C212.268 88.6201 212.848 89.0801 213.248 89.6801C213.661 90.2801 213.868 90.9935 213.868 91.8201C213.868 92.2735 213.808 92.7268 213.688 93.1801C213.568 93.6201 213.341 94.0868 213.008 94.5801C212.675 95.0735 212.188 95.6268 211.548 96.2401L206.768 100.78L206.228 99.8001H214.408V102H204.088ZM221.949 102.2C220.842 102.2 219.842 101.92 218.949 101.36C218.069 100.8 217.375 99.9868 216.869 98.9201C216.362 97.8401 216.109 96.5335 216.109 95.0001C216.109 93.4668 216.362 92.1668 216.869 91.1001C217.375 90.0201 218.069 89.2001 218.949 88.6401C219.842 88.0801 220.842 87.8001 221.949 87.8001C223.069 87.8001 224.069 88.0801 224.949 88.6401C225.829 89.2001 226.522 90.0201 227.029 91.1001C227.549 92.1668 227.809 93.4668 227.809 95.0001C227.809 96.5335 227.549 97.8401 227.029 98.9201C226.522 99.9868 225.829 100.8 224.949 101.36C224.069 101.92 223.069 102.2 221.949 102.2ZM221.949 99.9401C222.602 99.9401 223.169 99.7668 223.649 99.4201C224.129 99.0601 224.502 98.5135 224.769 97.7801C225.049 97.0468 225.189 96.1201 225.189 95.0001C225.189 93.8668 225.049 92.9401 224.769 92.2201C224.502 91.4868 224.129 90.9468 223.649 90.6001C223.169 90.2401 222.602 90.0601 221.949 90.0601C221.322 90.0601 220.762 90.2401 220.269 90.6001C219.789 90.9468 219.409 91.4868 219.129 92.2201C218.862 92.9401 218.729 93.8668 218.729 95.0001C218.729 96.1201 218.862 97.0468 219.129 97.7801C219.409 98.5135 219.789 99.0601 220.269 99.4201C220.762 99.7668 221.322 99.9401 221.949 99.9401Z" fill="#7C4EFF"/>
<defs>
<filter id="filter0_ddd_123_10944" x="154" y="26.0001" width="88" height="88" filterUnits="userSpaceOnUse" color-interpolation-filters="sRGB">
<feFlood flood-opacity="0" result="BackgroundImageFix"/>
<feColorMatrix in="SourceAlpha" type="matrix" values="0 0 0 0 0 0 0 0 0 0 0 0 0 0 0 0 0 0 127 0" result="hardAlpha"/>
<feMorphology radius="1" operator="erode" in="SourceAlpha" result="effect1_dropShadow_123_10944"/>
<feOffset dy="4"/>
<feGaussianBlur stdDeviation="4"/>
<feComposite in2="hardAlpha" operator="out"/>
<feColorMatrix type="matrix" values="0 0 0 0 0.027451 0 0 0 0 0 0 0 0 0 0.109804 0 0 0 0.03 0"/>
<feBlend mode="normal" in2="BackgroundImageFix" result="effect1_dropShadow_123_10944"/>
<feColorMatrix in="SourceAlpha" type="matrix" values="0 0 0 0 0 0 0 0 0 0 0 0 0 0 0 0 0 0 127 0" result="hardAlpha"/>
<feMorphology radius="3" operator="erode" in="SourceAlpha" result="effect2_dropShadow_123_10944"/>
<feOffset dy="8"/>
<feGaussianBlur stdDeviation="8"/>
<feComposite in2="hardAlpha" operator="out"/>
<feColorMatrix type="matrix" values="0 0 0 0 0.027451 0 0 0 0 0 0 0 0 0 0.109804 0 0 0 0.03 0"/>
<feBlend mode="normal" in2="effect1_dropShadow_123_10944" result="effect2_dropShadow_123_10944"/>
<feColorMatrix in="SourceAlpha" type="matrix" values="0 0 0 0 0 0 0 0 0 0 0 0 0 0 0 0 0 0 127 0" result="hardAlpha"/>
<feMorphology radius="6" operator="erode" in="SourceAlpha" result="effect3_dropShadow_123_10944"/>
<feOffset dy="16"/>
<feGaussianBlur stdDeviation="16"/>
<feComposite in2="hardAlpha" operator="out"/>
<feColorMatrix type="matrix" values="0 0 0 0 0.027451 0 0 0 0 0 0 0 0 0 0.109804 0 0 0 0.02 0"/>
<feBlend mode="normal" in2="effect2_dropShadow_123_10944" result="effect3_dropShadow_123_10944"/>
<feBlend mode="normal" in="SourceGraphic" in2="effect3_dropShadow_123_10944" result="shape"/>
</filter>
<linearGradient id="paint0_linear_123_10944" x1="197.86" y1="44.874" x2="10.9655" y2="62.637" gradientUnits="userSpaceOnUse">
<stop offset="0.0432567" stop-color="#672DE3"/>
<stop offset="0.258152" stop-color="#7C4EFF"/>
<stop offset="0.612945" stop-color="#7C4EFF"/>
<stop offset="0.918729" stop-color="#C64EFF"/>
<stop offset="1" stop-color="#FF4EA3"/>
</linearGradient>
<linearGradient id="paint1_linear_123_10944" x1="208.688" y1="65.2501" x2="186.81" y2="42.6745" gradientUnits="userSpaceOnUse">
<stop stop-color="#EEF2F7"/>
<stop offset="1" stop-color="#C6CBD3"/>
</linearGradient>
<linearGradient id="paint2_linear_123_10944" x1="188.438" y1="39.3751" x2="213.794" y2="63.086" gradientUnits="userSpaceOnUse">
<stop stop-color="#ECF0F8"/>
<stop offset="1" stop-color="#CFD5DE"/>
</linearGradient>
<linearGradient id="paint3_linear_123_10944" x1="193" y1="45" x2="207" y2="63" gradientUnits="userSpaceOnUse">
<stop stop-color="#693EE3"/>
<stop offset="1" stop-color="#A889FF"/>
</linearGradient>
</defs>
</svg>
