<svg width="104" height="177" viewBox="0 0 104 177" fill="none" xmlns="http://www.w3.org/2000/svg">
<path d="M52.3485 176.181C49.657 176.181 46.9655 175.54 44.9148 174.387L5.31117 151.573C3.2605 150.42 2.10699 148.753 2.10699 147.087C2.10699 145.421 3.2605 143.755 5.31117 142.601L44.9148 119.788C49.0161 117.353 55.6809 117.353 59.9104 119.788L99.514 142.601C101.565 143.755 102.718 145.421 102.718 147.087C102.718 148.753 101.565 150.42 99.514 151.573L59.9104 174.387C57.8597 175.669 55.1682 176.181 52.3485 176.181ZM45.2993 173.874C49.2725 176.181 55.5527 176.181 59.5258 173.874L99.1295 151.06C100.924 150.035 101.949 148.625 101.949 147.087C101.949 145.549 100.924 144.268 99.1295 143.114L59.5258 120.3C55.5527 117.993 49.2725 117.993 45.2993 120.3L5.69566 143.114C3.90132 144.139 2.87601 145.549 2.87601 147.087C2.87601 148.625 3.90132 149.907 5.69566 151.06L45.2993 173.874Z" fill="#16E09E"/>
<path opacity="0.4" d="M103.871 138.244V124.658L101.436 123.248C100.795 127.478 95.7969 130.297 91.5674 130.81L63.2425 147.472L50.8102 151.958L11.2066 131.579L12.1038 131.066C8.77142 129.528 6.84891 125.94 5.05457 122.607L2.36309 124.145L0.825073 124.53V138.372C0.825073 140.166 1.97859 141.832 4.2856 143.242L43.8892 166.056C48.5032 168.748 56.0651 168.748 60.6791 166.056L100.283 143.242C102.59 141.961 103.743 140.166 103.743 138.5C103.871 138.372 103.871 138.372 103.871 138.244Z" fill="#16E09E"/>
<path d="M103.871 126.196V117.225L101.436 115.815C100.795 120.044 95.7969 122.864 91.5674 123.377L63.2425 140.038L50.8102 144.524L11.2066 124.146L12.1038 123.633C8.77142 122.095 6.84891 118.506 5.05457 115.174L2.36309 116.712L0.825073 117.096V126.324C0.825073 128.119 1.97859 129.785 4.2856 131.195L43.8892 154.008C48.5032 156.7 56.0651 156.7 60.6791 154.008L100.283 131.195C102.59 129.913 103.743 128.119 103.743 126.453C103.871 126.324 103.871 126.324 103.871 126.196Z" fill="url(#paint0_linear_123_11999)"/>
<path opacity="0.3" d="M91.568 123.504L63.2431 140.166L52.4771 144.011V156.187C55.5531 156.187 58.6291 155.546 60.9361 154.136L100.54 131.323C102.847 130.041 104 128.247 104 126.58C104 126.452 104 126.452 104 126.324V117.352L101.693 116.071H101.437C100.668 120.172 95.6694 122.864 91.568 123.504Z" fill="#7C4EFF"/>
<path d="M44.0174 144.909L4.41376 122.095C-0.200257 119.403 -0.200257 115.046 4.41376 112.354L44.0174 89.5404C48.6314 86.8489 56.1933 86.8489 60.8073 89.5404L100.411 112.354C105.025 115.046 105.025 119.403 100.411 122.095L60.8073 144.909C56.1933 147.6 48.6314 147.6 44.0174 144.909Z" fill="url(#paint1_linear_123_11999)"/>
<path d="M44.0174 144.909L4.41376 122.095C-0.200257 119.403 -0.200257 115.046 4.41376 112.354L44.0174 89.5404C48.6314 86.8489 56.1933 86.8489 60.8073 89.5404L100.411 112.354C105.025 115.046 105.025 119.403 100.411 122.095L60.8073 144.909C56.1933 147.6 48.6314 147.6 44.0174 144.909Z" fill="#5C30D7"/>
<g opacity="0.51">
<path d="M44.0174 144.909L4.41376 122.095C-0.200257 119.403 -0.200257 115.046 4.41376 112.354L44.0174 89.5404C48.6314 86.8489 56.1933 86.8489 60.8073 89.5404L100.411 112.354C105.025 115.046 105.025 119.403 100.411 122.095L60.8073 144.909C56.1933 147.6 48.6314 147.6 44.0174 144.909Z" fill="#453C9E"/>
</g>
<path d="M100.41 122.095L60.8064 144.908C56.1923 147.6 48.6305 147.6 44.0165 144.908L4.41283 122.095C2.36216 120.941 1.20868 119.403 0.952344 117.737C0.69601 119.66 1.84949 121.71 4.41283 123.12L44.0165 145.934C48.6305 148.625 56.1923 148.625 60.8064 145.934L100.41 123.12C102.973 121.582 104.127 119.66 103.871 117.737C103.614 119.403 102.461 120.941 100.41 122.095Z" fill="white"/>
<mask id="mask0_123_11999" style="mask-type:alpha" maskUnits="userSpaceOnUse" x="0" y="87" width="104" height="60">
<path d="M44.0184 144.908L4.4147 122.095C-0.199311 119.403 -0.199311 115.045 4.4147 112.354L44.0184 89.5401C48.6324 86.8486 56.1942 86.8486 60.8082 89.5401L100.412 112.354C105.026 115.045 105.026 119.403 100.412 122.095L60.8082 144.908C56.1942 147.6 48.6324 147.6 44.0184 144.908Z" fill="#453C9E"/>
</mask>
<g mask="url(#mask0_123_11999)">
<g opacity="0.2">
<path d="M23.3834 118.634V165.928C23.3834 166.953 24.0242 167.978 25.3059 168.619L64.6532 191.305C67.4728 192.971 72.4714 192.715 75.6756 190.792C77.4699 189.767 78.3671 188.357 78.3671 187.075V139.782L23.3834 118.634Z" fill="url(#paint2_linear_123_11999)"/>
<path opacity="0.3" d="M67.602 192.33C70.2935 192.714 73.3695 192.202 75.6765 190.92C77.4708 189.895 78.368 188.485 78.368 187.203V139.909L67.7301 135.808H67.4738V192.33H67.602Z" fill="#5C30D7"/>
<path d="M64.6525 144.011L25.3052 121.326C22.4855 119.659 22.87 116.84 26.0742 114.917C29.4066 112.995 34.2769 112.867 37.0965 114.405L76.4439 137.09C79.2635 138.756 78.879 141.576 75.6749 143.498C72.4707 145.421 67.4722 145.677 64.6525 144.011Z" fill="url(#paint3_linear_123_11999)"/>
</g>
</g>
<path opacity="0.5" d="M64.6532 131.835L25.3059 109.15C22.4862 107.484 22.8707 104.664 26.0749 102.742C29.4073 100.819 34.2776 100.691 37.0973 102.229L76.4446 124.914C79.2642 126.581 78.8797 129.4 75.6756 131.323C72.4714 133.245 67.4729 133.502 64.6532 131.835Z" fill="#5C30D7"/>
<path d="M23.3841 46.8606V94.1543C23.3841 95.1796 24.0249 96.2049 25.3066 96.8458L64.6539 119.531C67.4735 121.198 72.4721 120.941 75.6763 119.019C77.4706 117.993 78.3678 116.583 78.3678 115.302V68.0082L23.3841 46.8606Z" fill="url(#paint4_linear_123_11999)"/>
<path opacity="0.3" d="M67.6027 120.557C70.2942 120.941 73.3702 120.428 75.6772 119.147C77.4715 118.121 78.3687 116.712 78.3687 115.43V68.1363L67.7308 64.0349H67.4745V120.557H67.6027Z" fill="#5C30D7"/>
<path d="M64.6532 72.2375L25.3059 49.5519C22.4862 47.8857 22.8707 45.066 26.0749 43.1435C29.4073 41.221 34.2776 41.0929 37.0973 42.6309L76.4446 65.3164C79.2642 66.9826 78.8797 69.8023 75.6756 71.7248C72.4714 73.6473 67.4729 73.9036 64.6532 72.2375Z" fill="url(#paint5_linear_123_11999)"/>
<path d="M68.626 69.1615C66.7035 69.1615 65.1655 67.6235 65.1655 65.701L65.1656 33.7872C65.1656 26.6098 59.9107 17.51 53.7587 13.9213L44.787 8.66645C42.3518 7.25662 40.3012 7.00028 38.8913 7.76928C37.4815 8.53828 36.7125 10.589 36.7125 13.2805V34.2999C36.7125 36.2224 35.1745 37.7604 33.252 37.7604C31.3295 37.7604 29.7915 36.2224 29.7915 34.2999V13.2805C29.7915 7.89745 31.714 3.92427 35.3026 1.87359C38.8913 -0.17708 43.3772 0.0792605 47.9912 2.77077L56.9629 8.02562C65.2937 12.896 71.8303 24.1747 71.8303 33.7872L71.8302 65.701C71.9584 67.7516 70.4204 69.1615 68.626 69.1615Z" fill="url(#paint6_linear_123_11999)"/>
<defs>
<linearGradient id="paint0_linear_123_11999" x1="11.1514" y1="99.3909" x2="92.8799" y2="146.577" gradientUnits="userSpaceOnUse">
<stop stop-color="#BCBEFF"/>
<stop offset="0.2271" stop-color="#AAADF8"/>
<stop offset="0.6802" stop-color="#7C83E5"/>
<stop offset="1" stop-color="#5761D7"/>
</linearGradient>
<linearGradient id="paint1_linear_123_11999" x1="0.90339" y1="117.227" x2="103.912" y2="117.227" gradientUnits="userSpaceOnUse">
<stop stop-color="#E9E9FD"/>
<stop offset="0.3601" stop-color="#D3D2F9"/>
<stop offset="0.7062" stop-color="#C5C4F7"/>
<stop offset="1" stop-color="#C0BFF6"/>
</linearGradient>
<linearGradient id="paint2_linear_123_11999" x1="30.2989" y1="155.508" x2="85.2803" y2="155.508" gradientUnits="userSpaceOnUse">
<stop stop-color="#BCBEFF"/>
<stop offset="0.1443" stop-color="#B4B7FC"/>
<stop offset="0.3696" stop-color="#9EA2F3"/>
<stop offset="0.6461" stop-color="#7A81E5"/>
<stop offset="0.873" stop-color="#5761D7"/>
</linearGradient>
<linearGradient id="paint3_linear_123_11999" x1="-27.6462" y1="129.244" x2="108.031" y2="129.244" gradientUnits="userSpaceOnUse">
<stop stop-color="#E9E9FD"/>
<stop offset="0.3601" stop-color="#D3D2F9"/>
<stop offset="0.7062" stop-color="#C5C4F7"/>
<stop offset="1" stop-color="#C0BFF6"/>
</linearGradient>
<linearGradient id="paint4_linear_123_11999" x1="30.2996" y1="83.7634" x2="85.281" y2="83.7634" gradientUnits="userSpaceOnUse">
<stop stop-color="#C9BCFF"/>
<stop offset="0.1443" stop-color="#C7B4FC"/>
<stop offset="0.3696" stop-color="#AF9EF3"/>
<stop offset="0.6461" stop-color="#897AE5"/>
<stop offset="0.873" stop-color="#7157D7"/>
</linearGradient>
<linearGradient id="paint5_linear_123_11999" x1="-27.6455" y1="57.4988" x2="108.032" y2="57.4988" gradientUnits="userSpaceOnUse">
<stop stop-color="#E9E9FD"/>
<stop offset="0.3601" stop-color="#D3D2F9"/>
<stop offset="0.7062" stop-color="#C5C4F7"/>
<stop offset="1" stop-color="#C0BFF6"/>
</linearGradient>
<linearGradient id="paint6_linear_123_11999" x1="9.84561" y1="32.6684" x2="108.107" y2="49.5436" gradientUnits="userSpaceOnUse">
<stop stop-color="#BDBCFF"/>
<stop offset="0.1443" stop-color="#C2B4FC"/>
<stop offset="0.3696" stop-color="#AA9EF3"/>
<stop offset="0.6461" stop-color="#8F7AE5"/>
<stop offset="0.873" stop-color="#6957D7"/>
</linearGradient>
</defs>
</svg>
