<svg width="151" height="148" viewBox="0 0 151 148" fill="none" xmlns="http://www.w3.org/2000/svg">
<g clip-path="url(#clip0_123_12332)">
<path d="M94.6073 0.794967C94.0736 0.439171 93.362 0.350225 92.4726 0.617072L48.3539 12.892L10.6395 45.9811L4.3241 51.4959C2.18933 53.3638 0.677193 56.566 0.94404 59.0566L6.10308 116.784C6.99257 126.48 10.9063 133.596 16.9549 137.243L26.9171 143.024L26.7392 140L30.3861 140.445L48.3539 142.491L72.1922 112.337C82.5992 99.1726 89.4483 82.717 90.6936 68.0404L95.4968 8.53353L103.68 6.13191L94.6073 0.794967Z" fill="#CFCEF9"/>
<path d="M10.7289 45.981L4.41354 51.4958C2.27877 53.3637 0.766632 56.5659 1.03348 59.0565L6.19252 116.784C7.08201 126.48 10.9958 133.596 17.0443 137.243L27.0066 143.024L26.8287 140L30.4756 140.445C31.2761 131.105 34.3894 122.566 36.9689 113.404C42.8395 87.6091 24.0713 67.6845 10.7289 45.981Z" fill="#5036BA"/>
<path d="M94.6081 0.794967C94.0744 0.439171 93.3628 0.350225 92.4733 0.617072L48.3546 12.892L10.6402 45.9811C23.9826 67.6846 42.7508 87.5202 36.8802 113.404C34.3007 122.477 31.1875 131.105 30.3869 140.445L48.3546 142.491L72.1929 112.337C82.6 99.1726 89.4491 82.717 90.6943 68.0404L95.4976 8.53353L103.681 6.13191L94.6081 0.794967Z" fill="#CFCEF9"/>
<path d="M2.0114 54.7871L11.9737 60.9245L57.6045 18.229L48.4428 12.8921L4.32408 51.4959C3.34564 52.3854 2.54509 53.5418 2.0114 54.7871Z" fill="#ABAFF9"/>
<path d="M17.5776 137.599C11.7069 133.952 7.97108 126.925 7.17054 117.496L2.01149 59.7684C1.8336 57.2779 3.25678 54.0757 5.39156 52.2078L11.7069 46.6929L49.4213 13.6039L93.54 1.32895C94.3405 1.0621 95.0521 1.15104 95.6748 1.50684L103.769 6.22114H103.858L94.7853 0.8842C94.2516 0.528404 93.54 0.439458 92.6505 0.706305L48.5318 12.9813L10.8174 46.0703L4.50207 51.5851C2.36729 53.453 0.855156 56.6552 1.122 59.1458L6.28105 116.874C7.17054 126.569 11.0843 133.685 17.1328 137.332L17.5776 137.599Z" fill="#9A9EF2"/>
<path d="M57.6046 18.229L13.4859 56.8328C11.3511 58.7008 9.83901 61.9029 10.1059 64.3935L15.2649 122.121C16.4212 135.375 23.2703 143.914 33.7663 145.07L57.6046 147.739L81.4429 117.585C91.8499 104.421 98.699 87.965 99.9443 73.2884L105.103 9.51199C105.281 6.84352 103.858 5.24243 101.723 5.86507L57.6046 18.229Z" fill="#7C4EFF"/>
<path d="M15.2651 122.21L10.106 64.4824C9.92813 61.9918 11.3513 58.7896 13.4861 56.9217L57.6048 18.3178L101.723 6.04287C102.524 5.86497 103.147 5.86497 103.68 6.13181C103.058 5.33127 102.079 4.97548 100.923 5.33128L56.8043 17.6062L12.6855 56.2101C10.5508 58.078 9.03864 61.2802 9.30548 63.7708L14.4645 121.499C15.2651 129.949 18.2893 136.442 23.0926 140.356C18.7341 136.353 15.9767 130.127 15.2651 122.21Z" fill="#9A9EF2"/>
<path d="M29.4079 57.5452L24.4267 61.9037C22.7367 63.4159 21.5804 65.9064 21.7583 67.8633L25.8499 113.316C26.5615 120.966 29.5858 126.57 34.389 129.416L42.2165 133.952L42.0386 131.551L44.974 131.907C45.5966 124.613 47.9982 117.853 50.0441 110.648C54.7584 90.2785 39.9039 74.6234 29.4079 57.5452Z" fill="#352784"/>
<path d="M95.4972 21.9654C95.0525 21.6985 94.5188 21.6096 93.8072 21.7875L59.117 31.394L29.4081 57.456C39.9041 74.5342 54.7585 90.1893 50.0443 110.559C47.9984 117.763 45.5079 124.524 44.9742 131.817L59.117 133.418L77.8853 109.669C86.0686 99.2621 91.4945 86.3645 92.384 74.8011L96.2088 27.925L102.613 26.0571L95.4972 21.9654Z" fill="#3D3BA8"/>
<path d="M22.5589 64.4826L30.3864 69.2859L66.3218 35.6631L59.1169 31.4825L24.4268 61.9031C23.6262 62.6147 23.0036 63.5042 22.5589 64.4826Z" fill="#4947BA"/>
<path d="M66.3216 35.6637L31.6315 66.0843C29.9414 67.5964 28.7851 70.087 28.963 72.0438L33.0546 117.497C34.0331 127.904 39.37 134.664 47.5533 135.553L66.3216 137.688L85.0898 113.939C93.2731 103.532 98.699 90.6342 99.5885 79.0708L103.68 28.9036C103.858 26.7688 102.702 25.5235 101.012 26.0572L66.3216 35.6637Z" fill="#2F2D85"/>
<g opacity="0.3">
<path opacity="0.4" d="M73.7037 42.8681L39.0135 73.2886C37.3235 74.8008 36.1672 77.2913 36.3451 79.2482L40.4367 124.701C41.4152 135.108 46.7521 141.868 54.9354 142.758L73.7037 144.893L92.4719 121.143C100.655 110.736 106.081 97.8385 106.971 86.2752L111.062 36.1079C111.24 33.9732 110.084 32.7279 108.394 33.2616L73.7037 42.8681Z" fill="#16E09E"/>
</g>
<path d="M73.9705 145.426L54.9355 143.291C46.4853 142.313 40.8815 135.375 39.9031 124.701L35.8114 79.2479C35.6335 77.1131 36.7899 74.4446 38.6578 72.8435L73.4368 42.334L108.305 32.6386C109.194 32.3717 110.084 32.5496 110.706 33.0833C111.418 33.706 111.774 34.7734 111.685 36.1076L107.593 86.2748C106.615 97.8382 101.189 111.003 92.9167 121.41L73.9705 145.426ZM73.9705 43.3125L39.3694 73.6441C37.7683 75.0673 36.7009 77.3799 36.8788 79.1589L40.9705 124.612C41.86 134.752 47.1079 141.334 55.0244 142.224L73.5258 144.27L92.1161 120.698C100.21 110.469 105.636 97.4824 106.526 86.0969L110.618 35.9297C110.706 34.9513 110.44 34.2397 109.995 33.7949C109.55 33.4391 109.016 33.5281 108.661 33.617L73.9705 43.3125Z" fill="url(#paint0_linear_123_12332)"/>
<mask id="mask0_123_12332" style="mask-type:alpha" maskUnits="userSpaceOnUse" x="72" y="87" width="79" height="46">
<path d="M149.311 132.884C149.133 132.884 149.044 132.884 148.866 132.795L72.5479 88.7655C72.1031 88.4986 72.0142 87.9649 72.1921 87.5202C72.4589 87.0754 72.9926 86.9865 73.4373 87.1644L149.756 131.194C150.2 131.461 150.289 131.995 150.111 132.439C149.933 132.706 149.578 132.884 149.311 132.884Z" fill="url(#paint1_linear_123_12332)"/>
</mask>
<g mask="url(#mask0_123_12332)">
<path d="M149.311 132.884C149.133 132.884 149.044 132.884 148.867 132.795L72.5484 88.7657C72.1036 88.4988 72.0147 87.9651 72.1926 87.5204C72.4594 87.0756 72.9931 86.9867 73.4379 87.1646L149.756 131.194C150.201 131.461 150.29 131.995 150.112 132.44C149.934 132.706 149.578 132.884 149.311 132.884Z" fill="url(#paint2_linear_123_12332)"/>
</g>
</g>
<defs>
<linearGradient id="paint0_linear_123_12332" x1="35.7999" y1="88.7653" x2="111.715" y2="88.7653" gradientUnits="userSpaceOnUse">
<stop stop-color="#5472D8"/>
<stop offset="0.2791" stop-color="#4E9CDB"/>
<stop offset="0.4801" stop-color="#49BDDD"/>
<stop offset="0.6715" stop-color="#45DFBA"/>
<stop offset="0.8493" stop-color="#43E3A9"/>
<stop offset="1" stop-color="#16E09E"/>
</linearGradient>
<linearGradient id="paint1_linear_123_12332" x1="150.203" y1="109.92" x2="72.0851" y2="109.92" gradientUnits="userSpaceOnUse">
<stop/>
<stop offset="1" stop-color="white"/>
</linearGradient>
<linearGradient id="paint2_linear_123_12332" x1="72.1133" y1="109.898" x2="150.215" y2="109.898" gradientUnits="userSpaceOnUse">
<stop stop-color="#5472D8"/>
<stop offset="0.2791" stop-color="#4E9CDB"/>
<stop offset="0.4801" stop-color="#49BDDD"/>
<stop offset="0.6715" stop-color="#45DFBA"/>
<stop offset="0.8493" stop-color="#43E3A9"/>
<stop offset="1" stop-color="#16E09E"/>
</linearGradient>
<clipPath id="clip0_123_12332">
<rect width="150.324" height="147.655" fill="white" transform="translate(0.675781 0.172119)"/>
</clipPath>
</defs>
</svg>
