<svg width="92" height="144" viewBox="0 0 92 144" fill="none" xmlns="http://www.w3.org/2000/svg">
<path opacity="0.1" d="M48.8761 15.4282C48.8761 1.68287 58.4978 -3.81527 70.34 3.05741C82.1821 9.93008 91.8039 26.5302 91.8039 40.2756C91.8039 54.0209 82.1821 59.5191 70.34 52.6464C58.4978 45.7737 48.8761 29.1736 48.8761 15.4282Z" fill="url(#paint0_linear_123_11567)"/>
<path opacity="0.3" d="M39.464 20.8208C39.464 7.07545 49.0858 1.57731 60.9279 8.44999C72.7701 15.3227 82.3918 31.9228 82.3918 45.6682C82.3918 59.4135 72.7701 64.9117 60.9279 58.039C49.0858 51.272 39.464 34.5661 39.464 20.8208Z" fill="url(#paint1_linear_123_11567)"/>
<path opacity="0.48" d="M29.9509 26.3189C29.9509 12.5735 39.5727 7.07535 51.4148 13.948C63.257 20.8207 72.8787 37.4209 72.8787 51.1662C72.8787 64.9116 63.257 70.4097 51.4148 63.537C39.5727 56.6644 29.9509 39.9585 29.9509 26.3189Z" fill="url(#paint2_linear_123_11567)"/>
<path d="M29.8448 106.993C28.0473 105.936 28.0473 104.244 29.8448 103.187C31.6423 102.129 34.7085 102.129 36.506 103.187C38.3035 104.244 38.3035 105.936 36.506 106.993C34.7085 108.051 31.748 108.051 29.8448 106.993Z" fill="url(#paint3_linear_123_11567)"/>
<path d="M29.8445 106.676C31.642 107.733 34.7082 107.733 36.5057 106.676C37.3516 106.147 37.7745 105.513 37.8802 104.878C37.986 105.619 37.4573 106.359 36.5057 106.887C34.7082 107.945 31.642 107.945 29.8445 106.887C28.8929 106.359 28.47 105.619 28.47 104.878C28.5757 105.619 28.9986 106.253 29.8445 106.676Z" fill="white"/>
<path d="M29.8448 116.086C28.0473 115.029 28.0473 113.337 29.8448 112.28C31.6423 111.223 34.7085 111.223 36.506 112.28C38.3035 113.337 38.3035 115.029 36.506 116.086C34.7085 117.144 31.748 117.144 29.8448 116.086Z" fill="url(#paint4_linear_123_11567)"/>
<path d="M29.8448 125.391C28.0473 124.334 28.0473 122.642 29.8448 121.585C31.6423 120.527 34.7085 120.527 36.506 121.585C38.3035 122.642 38.3035 124.334 36.506 125.391C34.7085 126.448 31.748 126.448 29.8448 125.391Z" fill="url(#paint5_linear_123_11567)"/>
<path d="M37.8802 104.984V100.226C37.8802 100.967 37.4573 101.601 36.5057 102.13C34.7082 103.187 31.642 103.187 29.8445 102.13C28.9986 101.601 28.47 100.967 28.47 100.226V80.1371H37.8802V139.348C37.8802 141.991 35.7656 144 33.228 144C30.5846 144 28.5757 141.885 28.5757 139.348V123.276C28.5757 124.016 28.9986 124.757 29.9502 125.285C31.7477 126.343 34.814 126.343 36.6114 125.285C37.563 124.757 37.986 124.016 37.986 123.382V118.624C37.986 119.364 37.563 119.999 36.6114 120.527C34.814 121.585 31.7477 121.585 29.9502 120.527C29.1043 119.999 28.5757 119.364 28.5757 118.624V113.972C28.5757 114.712 28.9986 115.452 29.9502 115.981C31.7477 117.038 34.814 117.038 36.6114 115.981C37.563 115.452 37.986 114.712 37.986 114.078V109.32C37.986 110.06 37.563 110.694 36.6114 111.223C34.814 112.28 31.7477 112.28 29.9502 111.223C29.1043 110.694 28.5757 110.06 28.5757 109.32V104.773C28.5757 105.513 28.9986 106.253 29.9502 106.782C31.7477 107.839 34.814 107.839 36.6114 106.782C37.4573 106.465 37.8802 105.725 37.8802 104.984Z" fill="url(#paint6_linear_123_11567)"/>
<path d="M29.8445 115.875C31.642 116.932 34.7082 116.932 36.5057 115.875C37.3516 115.346 37.7745 114.712 37.8802 114.078C37.986 114.818 37.4573 115.558 36.5057 116.086C34.7082 117.144 31.642 117.144 29.8445 116.086C28.8929 115.558 28.47 114.818 28.47 114.078C28.5757 114.712 28.9986 115.346 29.8445 115.875Z" fill="white"/>
<path d="M29.8445 125.179C31.642 126.237 34.7082 126.237 36.5057 125.179C37.3516 124.651 37.7745 124.016 37.8802 123.382C37.986 124.122 37.4573 124.862 36.5057 125.391C34.7082 126.448 31.642 126.448 29.8445 125.391C28.8929 124.862 28.47 124.122 28.47 123.382C28.5757 124.016 28.9986 124.651 29.8445 125.179Z" fill="white"/>
<path opacity="0.48" d="M29.8445 102.235C31.642 103.293 34.7082 103.293 36.5057 102.235C37.4573 101.707 37.8802 100.967 37.8802 100.332V105.09C37.8802 105.83 37.4573 106.465 36.5057 106.993C34.7082 108.051 31.642 108.051 29.8445 106.993C28.8929 106.465 28.47 105.725 28.47 104.984V100.332C28.5757 100.967 28.9986 101.707 29.8445 102.235Z" fill="url(#paint7_linear_123_11567)"/>
<path opacity="0.48" d="M29.8445 111.328C31.642 112.386 34.7082 112.386 36.5057 111.328C37.4573 110.8 37.8802 110.06 37.8802 109.425V114.183C37.8802 114.923 37.4573 115.558 36.5057 116.087C34.7082 117.144 31.642 117.144 29.8445 116.087C28.8929 115.558 28.47 114.818 28.47 114.078V109.425C28.5757 110.165 28.9986 110.8 29.8445 111.328Z" fill="url(#paint8_linear_123_11567)"/>
<path opacity="0.48" d="M29.8445 120.633C31.642 121.69 34.7082 121.69 36.5057 120.633C37.4573 120.104 37.8802 119.364 37.8802 118.729V123.487C37.8802 124.228 37.4573 124.862 36.5057 125.391C34.7082 126.448 31.642 126.448 29.8445 125.391C28.8929 124.862 28.47 124.122 28.47 123.382V118.729C28.5757 119.47 28.9986 120.104 29.8445 120.633Z" fill="url(#paint9_linear_123_11567)"/>
<path d="M50.2563 72.947C50.4678 72.8413 50.6792 72.7356 50.8907 72.5241L53.2168 59.5189L50.362 42.2843L42.3263 33.5084L34.0791 25.4727L20.9681 20.0803L20.6509 19.9746C20.0165 20.2918 19.4879 20.7147 18.8535 21.1376C15.5757 20.7147 12.298 20.2918 9.02026 19.8688C9.54893 18.4943 10.1833 17.3312 11.0292 16.1682L9.44319 15.5338L15.3643 12.1503C15.47 12.1503 15.47 12.0446 15.5757 12.0446L15.7872 11.9388C20.8624 9.18975 27.7351 9.71842 35.3479 14.0535C50.8907 23.0408 63.473 44.8219 63.473 62.6909C63.473 71.5725 60.4067 77.8108 55.3315 80.7713C55.2258 80.7713 55.2258 80.877 55.1201 80.877L48.8818 84.472L49.199 82.6745C48.4589 82.7802 47.613 82.7802 46.7671 82.6745C48.3531 79.714 50.6793 76.3305 50.2563 72.947Z" fill="url(#paint10_linear_123_11567)"/>
<path d="M7.11503 31.0767C7.11503 30.8652 7.11503 30.548 7.11503 30.3365C7.11503 26.3186 7.74943 22.7237 8.9125 19.8689C12.1902 20.2918 15.468 20.7148 18.7457 21.1377C15.5737 23.6753 13.6705 28.1161 13.6705 34.1429C13.6705 47.8883 23.2923 64.4884 35.1344 71.3611C40.9497 74.7446 46.2364 75.0618 50.1486 72.9471C50.6772 76.3306 48.3511 79.714 46.5536 82.7803C43.9103 82.6746 41.1612 81.9344 38.2007 80.5599L39.1523 81.6172C39.1523 81.6172 27.4159 77.5994 27.2044 77.2822C26.9929 77.0707 13.3533 63.3254 13.3533 63.3254L4.47169 44.1876L7.11503 31.0767Z" fill="url(#paint11_linear_123_11567)"/>
<path opacity="0.5" d="M9.86501 36.9977C9.86501 23.2523 19.4868 17.7542 31.3289 24.6269C43.1711 31.4995 52.7928 48.0997 52.7928 61.845C52.7928 75.5904 43.1711 81.0885 31.3289 74.2159C19.4868 67.3432 9.86501 50.743 9.86501 36.9977Z" fill="url(#paint12_linear_123_11567)"/>
<path opacity="0.48" d="M11.7654 35.9404C11.7654 22.1951 21.3872 16.6969 33.2293 23.5696C45.0715 30.4423 54.6932 47.0424 54.6932 60.7878C54.6932 74.5331 45.0715 80.0313 33.2293 73.1586C21.3872 66.3917 11.7654 49.6858 11.7654 35.9404Z" fill="url(#paint13_linear_123_11567)"/>
<path d="M0.876801 33.931C0.876801 51.9056 13.4591 73.6867 29.0019 82.5683C44.5447 91.5557 57.127 84.2601 57.127 66.3911C57.127 48.5222 44.5447 26.6353 29.0019 17.7537C13.4591 8.66065 0.876801 15.9563 0.876801 33.931ZM7.53801 37.7373C7.53801 23.992 17.1598 18.4939 29.0019 25.3665C40.8441 32.2392 50.4658 48.8394 50.4658 62.5847C50.4658 76.3301 40.8441 81.8282 29.0019 74.9555C17.1598 68.0829 7.53801 51.377 7.53801 37.7373Z" fill="#BCBEFF"/>
<path d="M0.876801 33.931C0.876801 51.9056 13.4591 73.6867 29.0019 82.5683C44.5447 91.5557 57.127 84.2601 57.127 66.3911C57.127 48.5222 44.5447 26.6353 29.0019 17.7537C13.4591 8.66065 0.876801 15.9563 0.876801 33.931ZM7.53801 37.7373C7.53801 23.992 17.1598 18.4939 29.0019 25.3665C40.8441 32.2392 50.4658 48.8394 50.4658 62.5847C50.4658 76.3301 40.8441 81.8282 29.0019 74.9555C17.1598 68.0829 7.53801 51.377 7.53801 37.7373Z" fill="#BCBEFF"/>
<path d="M56.7054 66.8148C56.7054 48.8401 44.1231 27.0591 28.5803 18.1774C19.0642 12.6793 10.6056 13.3137 5.53035 18.8118C10.6056 12.8908 19.17 12.0449 29.0032 17.7545C44.546 26.7419 57.1283 48.523 57.1283 66.3919C57.1283 73.2646 55.2251 78.5513 52.0531 82.0405C55.0136 78.5513 56.7054 73.3703 56.7054 66.8148Z" fill="white"/>
<path d="M28.5789 75.3792C16.7368 68.5065 7.11503 51.9064 7.11503 38.161C7.11503 32.8743 8.59529 28.7507 11.0272 26.2131C8.80676 28.8565 7.53796 32.7686 7.53796 37.7381C7.53796 51.4834 17.1597 68.0836 29.0019 74.9563C36.2975 79.1856 42.6415 78.6569 46.5536 74.5333C42.7472 79.0799 36.086 79.7143 28.5789 75.3792Z" fill="white"/>
<defs>
<linearGradient id="paint0_linear_123_11567" x1="91.8382" y1="27.8566" x2="48.876" y2="27.8566" gradientUnits="userSpaceOnUse">
<stop stop-color="#16E09E"/>
<stop offset="0.1507" stop-color="#43E3BD"/>
<stop offset="0.3285" stop-color="#45DFD6"/>
<stop offset="0.5199" stop-color="#49BDDD"/>
<stop offset="0.7209" stop-color="#4E9CDB"/>
<stop offset="0.9274" stop-color="#5472D8"/>
<stop offset="1" stop-color="#5761D7"/>
</linearGradient>
<linearGradient id="paint1_linear_123_11567" x1="82.3783" y1="33.2756" x2="39.416" y2="33.2756" gradientUnits="userSpaceOnUse">
<stop stop-color="#16E09E"/>
<stop offset="0.1507" stop-color="#43E3BD"/>
<stop offset="0.3285" stop-color="#45D5DF"/>
<stop offset="0.5199" stop-color="#49BDDD"/>
<stop offset="0.7209" stop-color="#4E9CDB"/>
<stop offset="0.9274" stop-color="#5472D8"/>
<stop offset="1" stop-color="#5761D7"/>
</linearGradient>
<linearGradient id="paint2_linear_123_11567" x1="72.9229" y1="38.6943" x2="29.9606" y2="38.6943" gradientUnits="userSpaceOnUse">
<stop stop-color="#16E09E"/>
<stop offset="0.1507" stop-color="#43E3C6"/>
<stop offset="0.3285" stop-color="#45D5DF"/>
<stop offset="0.5199" stop-color="#49BDDD"/>
<stop offset="0.7209" stop-color="#4E9CDB"/>
<stop offset="0.9274" stop-color="#5472D8"/>
<stop offset="1" stop-color="#5761D7"/>
</linearGradient>
<linearGradient id="paint3_linear_123_11567" x1="36.5427" y1="103.109" x2="33.2187" y2="108.866" gradientUnits="userSpaceOnUse">
<stop stop-color="#5761D7"/>
<stop offset="0.1645" stop-color="#5E67DA"/>
<stop offset="0.4051" stop-color="#727AE2"/>
<stop offset="0.6924" stop-color="#9297EE"/>
<stop offset="1" stop-color="#BCBEFF"/>
</linearGradient>
<linearGradient id="paint4_linear_123_11567" x1="36.5428" y1="112.238" x2="33.2188" y2="117.995" gradientUnits="userSpaceOnUse">
<stop stop-color="#5761D7"/>
<stop offset="0.1645" stop-color="#5E67DA"/>
<stop offset="0.4051" stop-color="#727AE2"/>
<stop offset="0.6924" stop-color="#9297EE"/>
<stop offset="1" stop-color="#BCBEFF"/>
</linearGradient>
<linearGradient id="paint5_linear_123_11567" x1="36.5429" y1="121.527" x2="33.2189" y2="127.284" gradientUnits="userSpaceOnUse">
<stop stop-color="#5761D7"/>
<stop offset="0.1645" stop-color="#5E67DA"/>
<stop offset="0.4051" stop-color="#727AE2"/>
<stop offset="0.6924" stop-color="#9297EE"/>
<stop offset="1" stop-color="#BCBEFF"/>
</linearGradient>
<linearGradient id="paint6_linear_123_11567" x1="50.5198" y1="112.187" x2="24.8301" y2="112.187" gradientUnits="userSpaceOnUse">
<stop stop-color="#5761D7"/>
<stop offset="0.1645" stop-color="#5E67DA"/>
<stop offset="0.4051" stop-color="#727AE2"/>
<stop offset="0.6924" stop-color="#9297EE"/>
<stop offset="1" stop-color="#BCBEFF"/>
</linearGradient>
<linearGradient id="paint7_linear_123_11567" x1="37.9173" y1="104.011" x2="28.5205" y2="104.011" gradientUnits="userSpaceOnUse">
<stop stop-color="#16E09E"/>
<stop offset="0.1507" stop-color="#43E3BD"/>
<stop offset="0.3285" stop-color="#45DFDF"/>
<stop offset="0.5199" stop-color="#49BDDD"/>
<stop offset="0.7209" stop-color="#4E9CDB"/>
<stop offset="0.9274" stop-color="#5472D8"/>
<stop offset="1" stop-color="#5761D7"/>
</linearGradient>
<linearGradient id="paint8_linear_123_11567" x1="37.9173" y1="113.14" x2="28.5205" y2="113.14" gradientUnits="userSpaceOnUse">
<stop stop-color="#16E09E"/>
<stop offset="0.1507" stop-color="#43E3BD"/>
<stop offset="0.3285" stop-color="#45D5DF"/>
<stop offset="0.5199" stop-color="#49BDDD"/>
<stop offset="0.7209" stop-color="#4E9CDB"/>
<stop offset="0.9274" stop-color="#5472D8"/>
<stop offset="1" stop-color="#5761D7"/>
</linearGradient>
<linearGradient id="paint9_linear_123_11567" x1="37.9171" y1="122.428" x2="28.5205" y2="122.428" gradientUnits="userSpaceOnUse">
<stop stop-color="#16E09E"/>
<stop offset="0.1507" stop-color="#43E3BD"/>
<stop offset="0.3285" stop-color="#45D5DF"/>
<stop offset="0.5199" stop-color="#49BDDD"/>
<stop offset="0.7209" stop-color="#4E9CDB"/>
<stop offset="0.9274" stop-color="#5472D8"/>
<stop offset="1" stop-color="#5761D7"/>
</linearGradient>
<linearGradient id="paint10_linear_123_11567" x1="66.9615" y1="63.8508" x2="6.23355" y2="28.6457" gradientUnits="userSpaceOnUse">
<stop stop-color="#5761D7"/>
<stop offset="0.1645" stop-color="#5E67DA"/>
<stop offset="0.4051" stop-color="#727AE2"/>
<stop offset="0.6924" stop-color="#9297EE"/>
<stop offset="1" stop-color="#BCBEFF"/>
</linearGradient>
<linearGradient id="paint11_linear_123_11567" x1="0.369236" y1="32.6321" x2="55.0439" y2="72.6626" gradientUnits="userSpaceOnUse">
<stop stop-color="#5761D7"/>
<stop offset="0.1645" stop-color="#5E67DA"/>
<stop offset="0.4051" stop-color="#727AE2"/>
<stop offset="0.6924" stop-color="#9297EE"/>
<stop offset="1" stop-color="#BCBEFF"/>
</linearGradient>
<linearGradient id="paint12_linear_123_11567" x1="52.8357" y1="49.4053" x2="9.87347" y2="49.4053" gradientUnits="userSpaceOnUse">
<stop stop-color="#16E09E"/>
<stop offset="0.1507" stop-color="#43E3C6"/>
<stop offset="0.3285" stop-color="#45D5DF"/>
<stop offset="0.5199" stop-color="#49BDDD"/>
<stop offset="0.7209" stop-color="#4E9CDB"/>
<stop offset="0.9274" stop-color="#5472D8"/>
<stop offset="1" stop-color="#5761D7"/>
</linearGradient>
<linearGradient id="paint13_linear_123_11567" x1="54.7014" y1="48.3912" x2="11.7391" y2="48.3912" gradientUnits="userSpaceOnUse">
<stop stop-color="#16E09E"/>
<stop offset="0.1507" stop-color="#43E3BD"/>
<stop offset="0.3285" stop-color="#45DFD6"/>
<stop offset="0.5199" stop-color="#49BDDD"/>
<stop offset="0.7209" stop-color="#4E9CDB"/>
<stop offset="0.9274" stop-color="#5472D8"/>
<stop offset="1" stop-color="#5761D7"/>
</linearGradient>
</defs>
</svg>
