<svg width="310" height="306" viewBox="0 0 310 306" fill="none" xmlns="http://www.w3.org/2000/svg">
<path d="M85.1918 161.672C82.0558 161.672 79.3198 161.048 76.9838 159.8C74.6798 158.552 72.8718 156.696 71.5598 154.232C70.2798 151.768 69.6398 148.728 69.6398 145.112C69.6398 141.208 70.3918 137.896 71.8958 135.176C73.4318 132.424 75.5278 130.328 78.1838 128.888C80.8718 127.448 83.9758 126.728 87.4958 126.728C89.3838 126.728 91.1918 126.952 92.9198 127.4C94.6798 127.816 96.1678 128.408 97.3838 129.176L93.9278 135.992C92.9678 135.32 91.9598 134.872 90.9038 134.648C89.8798 134.392 88.8238 134.264 87.7358 134.264C85.1438 134.264 83.0638 135.048 81.4958 136.616C79.9598 138.184 79.1918 140.472 79.1918 143.48C79.1918 144.024 79.1918 144.6 79.1918 145.208C79.2238 145.784 79.2878 146.376 79.3838 146.984L76.9838 145.016C77.6238 143.832 78.3918 142.84 79.2878 142.04C80.2158 141.24 81.3038 140.632 82.5518 140.216C83.8318 139.8 85.2558 139.592 86.8238 139.592C88.9358 139.592 90.8558 140.04 92.5838 140.936C94.3438 141.8 95.7518 143.032 96.8078 144.632C97.8638 146.2 98.3918 148.056 98.3918 150.2C98.3918 152.536 97.7998 154.568 96.6158 156.296C95.4318 157.992 93.8478 159.32 91.8638 160.28C89.8798 161.208 87.6558 161.672 85.1918 161.672ZM84.6158 154.904C85.5118 154.904 86.2958 154.728 86.9678 154.376C87.6718 154.024 88.2158 153.528 88.5998 152.888C88.9838 152.248 89.1758 151.496 89.1758 150.632C89.1758 149.352 88.7438 148.328 87.8798 147.56C87.0478 146.792 85.9438 146.408 84.5678 146.408C83.6398 146.408 82.8238 146.584 82.1198 146.936C81.4478 147.288 80.9038 147.784 80.4878 148.424C80.1038 149.064 79.9118 149.816 79.9118 150.68C79.9118 151.512 80.1038 152.248 80.4878 152.888C80.8718 153.496 81.4158 153.992 82.1198 154.376C82.8238 154.728 83.6558 154.904 84.6158 154.904ZM100.476 154.568V148.376L115.548 127.4H125.388L110.748 148.376L106.236 147.032H132.492V154.568H100.476ZM118.236 161V154.568L118.524 147.032V141.32H127.5V161H118.236ZM149.253 161.672C146.373 161.672 143.813 160.984 141.573 159.608C139.365 158.232 137.621 156.248 136.341 153.656C135.061 151.064 134.421 147.912 134.421 144.2C134.421 140.488 135.061 137.336 136.341 134.744C137.621 132.152 139.365 130.168 141.573 128.792C143.813 127.416 146.373 126.728 149.253 126.728C152.101 126.728 154.629 127.416 156.837 128.792C159.077 130.168 160.837 132.152 162.117 134.744C163.397 137.336 164.037 140.488 164.037 144.2C164.037 147.912 163.397 151.064 162.117 153.656C160.837 156.248 159.077 158.232 156.837 159.608C154.629 160.984 152.101 161.672 149.253 161.672ZM149.253 153.896C150.277 153.896 151.173 153.576 151.941 152.936C152.741 152.296 153.365 151.272 153.813 149.864C154.261 148.424 154.485 146.536 154.485 144.2C154.485 141.832 154.261 139.944 153.813 138.536C153.365 137.128 152.741 136.104 151.941 135.464C151.173 134.824 150.277 134.504 149.253 134.504C148.229 134.504 147.317 134.824 146.517 135.464C145.749 136.104 145.125 137.128 144.645 138.536C144.197 139.944 143.973 141.832 143.973 144.2C143.973 146.536 144.197 148.424 144.645 149.864C145.125 151.272 145.749 152.296 146.517 152.936C147.317 153.576 148.229 153.896 149.253 153.896ZM192.84 161.672C190.184 161.672 187.72 161.256 185.448 160.424C183.176 159.56 181.208 158.344 179.544 156.776C177.912 155.208 176.632 153.368 175.704 151.256C174.776 149.112 174.312 146.76 174.312 144.2C174.312 141.64 174.776 139.304 175.704 137.192C176.632 135.048 177.928 133.192 179.592 131.624C181.256 130.056 183.224 128.856 185.496 128.024C187.8 127.16 190.312 126.728 193.032 126.728C196.2 126.728 199.032 127.256 201.528 128.312C204.024 129.368 206.088 130.888 207.72 132.872L201.672 138.344C200.52 137.096 199.272 136.168 197.928 135.56C196.616 134.92 195.144 134.6 193.512 134.6C192.072 134.6 190.76 134.824 189.576 135.272C188.392 135.72 187.384 136.376 186.552 137.24C185.72 138.072 185.064 139.08 184.584 140.264C184.136 141.416 183.912 142.728 183.912 144.2C183.912 145.608 184.136 146.904 184.584 148.088C185.064 149.272 185.72 150.296 186.552 151.16C187.384 151.992 188.376 152.648 189.528 153.128C190.712 153.576 192.008 153.8 193.416 153.8C194.824 153.8 196.2 153.576 197.544 153.128C198.888 152.648 200.248 151.848 201.624 150.728L206.952 157.4C205.032 158.776 202.808 159.832 200.28 160.568C197.752 161.304 195.272 161.672 192.84 161.672ZM198.552 156.152V143.48H206.952V157.4L198.552 156.152ZM228.913 161.432C226.577 161.432 224.625 160.952 223.057 159.992C221.521 159.032 220.369 157.56 219.601 155.576C218.833 153.592 218.449 151.048 218.449 147.944C218.449 144.904 218.849 142.392 219.649 140.408C220.481 138.424 221.681 136.952 223.249 135.992C224.817 135.032 226.705 134.552 228.913 134.552C231.281 134.552 233.425 135.096 235.345 136.184C237.297 137.272 238.833 138.824 239.953 140.84C241.105 142.824 241.681 145.192 241.681 147.944C241.681 150.728 241.105 153.128 239.953 155.144C238.833 157.128 237.297 158.68 235.345 159.8C233.425 160.888 231.281 161.432 228.913 161.432ZM212.545 161V125.384H221.665V139.352L221.185 147.944L221.233 156.536V161H212.545ZM226.993 154.184C228.017 154.184 228.929 153.944 229.729 153.464C230.561 152.984 231.217 152.28 231.697 151.352C232.209 150.392 232.465 149.256 232.465 147.944C232.465 146.632 232.209 145.528 231.697 144.632C231.217 143.704 230.561 143 229.729 142.52C228.929 142.04 228.017 141.8 226.993 141.8C225.969 141.8 225.041 142.04 224.209 142.52C223.409 143 222.753 143.704 222.241 144.632C221.761 145.528 221.521 146.632 221.521 147.944C221.521 149.256 221.761 150.392 222.241 151.352C222.753 152.28 223.409 152.984 224.209 153.464C225.041 153.944 225.969 154.184 226.993 154.184Z" fill="#7C4EFF"/>
<rect x="139" y="182" width="32" height="3" rx="1.5" fill="#D1C8FB"/>
<path d="M126.044 229.88V207.32H127.58V229.88H126.044ZM126.644 227.192C125.364 227.192 124.14 227 122.972 226.616C121.804 226.216 120.884 225.704 120.212 225.08L121.1 223.208C121.74 223.768 122.556 224.232 123.548 224.6C124.54 224.968 125.572 225.152 126.644 225.152C127.62 225.152 128.412 225.04 129.02 224.816C129.628 224.592 130.076 224.288 130.364 223.904C130.652 223.504 130.796 223.056 130.796 222.56C130.796 221.984 130.604 221.52 130.22 221.168C129.852 220.816 129.364 220.536 128.756 220.328C128.164 220.104 127.508 219.912 126.788 219.752C126.068 219.592 125.34 219.408 124.604 219.2C123.884 218.976 123.22 218.696 122.612 218.36C122.02 218.024 121.54 217.576 121.172 217.016C120.804 216.44 120.62 215.704 120.62 214.808C120.62 213.944 120.844 213.152 121.292 212.432C121.756 211.696 122.46 211.112 123.404 210.68C124.364 210.232 125.58 210.008 127.052 210.008C128.028 210.008 128.996 210.136 129.956 210.392C130.916 210.648 131.748 211.016 132.452 211.496L131.66 213.416C130.94 212.936 130.18 212.592 129.38 212.384C128.58 212.16 127.804 212.048 127.052 212.048C126.108 212.048 125.332 212.168 124.724 212.408C124.116 212.648 123.668 212.968 123.38 213.368C123.108 213.768 122.972 214.216 122.972 214.712C122.972 215.304 123.156 215.776 123.524 216.128C123.908 216.48 124.396 216.76 124.988 216.968C125.596 217.176 126.26 217.368 126.98 217.544C127.7 217.704 128.42 217.888 129.14 218.096C129.876 218.304 130.54 218.576 131.132 218.912C131.74 219.248 132.228 219.696 132.596 220.256C132.964 220.816 133.148 221.536 133.148 222.416C133.148 223.264 132.916 224.056 132.452 224.792C131.988 225.512 131.268 226.096 130.292 226.544C129.332 226.976 128.116 227.192 126.644 227.192ZM138.124 227V211.16L139.156 212.288H134.332V210.2H140.5V227H138.124ZM153.314 210.008C154.834 210.008 156.114 210.336 157.154 210.992C158.21 211.648 159.01 212.6 159.554 213.848C160.098 215.08 160.37 216.592 160.37 218.384C160.37 220.288 160.034 221.896 159.362 223.208C158.69 224.52 157.762 225.512 156.578 226.184C155.394 226.856 154.01 227.192 152.426 227.192C151.642 227.192 150.882 227.112 150.146 226.952C149.426 226.792 148.794 226.544 148.25 226.208L149.162 224.336C149.61 224.624 150.106 224.832 150.65 224.96C151.21 225.072 151.794 225.128 152.402 225.128C154.098 225.128 155.45 224.6 156.458 223.544C157.466 222.472 157.97 220.888 157.97 218.792C157.97 218.456 157.954 218.056 157.922 217.592C157.89 217.128 157.818 216.672 157.706 216.224L158.498 217.04C158.274 217.776 157.898 218.4 157.37 218.912C156.858 219.408 156.234 219.784 155.498 220.04C154.778 220.28 153.986 220.4 153.122 220.4C152.018 220.4 151.034 220.192 150.17 219.776C149.306 219.36 148.626 218.776 148.13 218.024C147.634 217.256 147.386 216.352 147.386 215.312C147.386 214.224 147.642 213.288 148.154 212.504C148.682 211.704 149.394 211.088 150.29 210.656C151.202 210.224 152.21 210.008 153.314 210.008ZM153.41 211.952C152.69 211.952 152.05 212.088 151.49 212.36C150.93 212.632 150.49 213.008 150.17 213.488C149.866 213.968 149.714 214.544 149.714 215.216C149.714 216.208 150.058 217 150.746 217.592C151.434 218.168 152.362 218.456 153.53 218.456C154.298 218.456 154.97 218.312 155.546 218.024C156.138 217.736 156.594 217.344 156.914 216.848C157.25 216.352 157.418 215.8 157.418 215.192C157.418 214.6 157.266 214.064 156.962 213.584C156.658 213.104 156.21 212.712 155.618 212.408C155.026 212.104 154.29 211.952 153.41 211.952ZM162.654 227V225.368L169.494 218.768C170.102 218.192 170.55 217.688 170.838 217.256C171.142 216.808 171.342 216.4 171.438 216.032C171.55 215.648 171.606 215.28 171.606 214.928C171.606 214.064 171.302 213.384 170.694 212.888C170.086 212.392 169.198 212.144 168.03 212.144C167.134 212.144 166.326 212.296 165.606 212.6C164.886 212.888 164.262 213.344 163.734 213.968L162.102 212.552C162.742 211.736 163.598 211.112 164.67 210.68C165.758 210.232 166.95 210.008 168.246 210.008C169.414 210.008 170.43 210.2 171.294 210.584C172.158 210.952 172.822 211.488 173.286 212.192C173.766 212.896 174.006 213.728 174.006 214.688C174.006 215.232 173.934 215.768 173.79 216.296C173.646 216.824 173.374 217.384 172.974 217.976C172.574 218.568 171.998 219.232 171.246 219.968L165.15 225.848L164.574 224.912H174.726V227H162.654ZM183.78 227.192C182.468 227.192 181.292 226.856 180.252 226.184C179.228 225.512 178.412 224.536 177.804 223.256C177.212 221.976 176.916 220.424 176.916 218.6C176.916 216.776 177.212 215.224 177.804 213.944C178.412 212.664 179.228 211.688 180.252 211.016C181.292 210.344 182.468 210.008 183.78 210.008C185.076 210.008 186.244 210.344 187.284 211.016C188.324 211.688 189.14 212.664 189.732 213.944C190.324 215.224 190.62 216.776 190.62 218.6C190.62 220.424 190.324 221.976 189.732 223.256C189.14 224.536 188.324 225.512 187.284 226.184C186.244 226.856 185.076 227.192 183.78 227.192ZM183.78 225.056C184.66 225.056 185.428 224.816 186.084 224.336C186.756 223.856 187.276 223.136 187.644 222.176C188.028 221.216 188.22 220.024 188.22 218.6C188.22 217.176 188.028 215.984 187.644 215.024C187.276 214.064 186.756 213.344 186.084 212.864C185.428 212.384 184.66 212.144 183.78 212.144C182.9 212.144 182.124 212.384 181.452 212.864C180.78 213.344 180.252 214.064 179.868 215.024C179.5 215.984 179.316 217.176 179.316 218.6C179.316 220.024 179.5 221.216 179.868 222.176C180.252 223.136 180.78 223.856 181.452 224.336C182.124 224.816 182.9 225.056 183.78 225.056Z" fill="#7C4EFF"/>
<g filter="url(#filter0_ii_123_10945)">
<path d="M253.288 266C272.727 246.338 285.966 221.288 291.329 194.016C296.692 166.745 293.94 138.477 283.419 112.788C272.899 87.0985 255.083 65.1416 232.224 49.6935C209.366 34.2454 182.492 26 155 26C127.508 26 100.634 34.2454 77.7758 49.6935C54.9173 65.1416 37.1014 87.0985 26.5808 112.788C16.0602 138.477 13.3076 166.745 18.6709 194.016C24.0343 221.288 37.2727 246.338 56.7122 266" stroke="#D1C8FB" stroke-width="32" stroke-linecap="round"/>
</g>
<g filter="url(#filter1_ii_123_10945)">
<path d="M232 49.6935C209.165 34.2454 182.319 26 154.856 26C127.393 26 100.546 34.2454 77.7117 49.6935C54.877 65.1416 37.0795 87.0985 26.5698 112.788C16.0602 138.477 13.3104 166.745 18.6681 194.016C24.0259 221.288 37.2507 246.338 56.67 266" stroke="#7C4EFF" stroke-width="32" stroke-linecap="round"/>
</g>
<defs>
<filter id="filter0_ii_123_10945" x="-2" y="8" width="314" height="276" filterUnits="userSpaceOnUse" color-interpolation-filters="sRGB">
<feFlood flood-opacity="0" result="BackgroundImageFix"/>
<feBlend mode="normal" in="SourceGraphic" in2="BackgroundImageFix" result="shape"/>
<feColorMatrix in="SourceAlpha" type="matrix" values="0 0 0 0 0 0 0 0 0 0 0 0 0 0 0 0 0 0 127 0" result="hardAlpha"/>
<feOffset dx="-2" dy="-2"/>
<feGaussianBlur stdDeviation="4"/>
<feComposite in2="hardAlpha" operator="arithmetic" k2="-1" k3="1"/>
<feColorMatrix type="matrix" values="0 0 0 0 0.903922 0 0 0 0 0.883333 0 0 0 0 1 0 0 0 1 0"/>
<feBlend mode="normal" in2="shape" result="effect1_innerShadow_123_10945"/>
<feColorMatrix in="SourceAlpha" type="matrix" values="0 0 0 0 0 0 0 0 0 0 0 0 0 0 0 0 0 0 127 0" result="hardAlpha"/>
<feOffset dx="2" dy="2"/>
<feGaussianBlur stdDeviation="4"/>
<feComposite in2="hardAlpha" operator="arithmetic" k2="-1" k3="1"/>
<feColorMatrix type="matrix" values="0 0 0 0 0.0158536 0 0 0 0 0 0 0 0 0 0.1625 0 0 0 0.16 0"/>
<feBlend mode="normal" in2="effect1_innerShadow_123_10945" result="effect2_innerShadow_123_10945"/>
</filter>
<filter id="filter1_ii_123_10945" x="-2" y="8" width="252.002" height="276" filterUnits="userSpaceOnUse" color-interpolation-filters="sRGB">
<feFlood flood-opacity="0" result="BackgroundImageFix"/>
<feBlend mode="normal" in="SourceGraphic" in2="BackgroundImageFix" result="shape"/>
<feColorMatrix in="SourceAlpha" type="matrix" values="0 0 0 0 0 0 0 0 0 0 0 0 0 0 0 0 0 0 127 0" result="hardAlpha"/>
<feOffset dx="2" dy="2"/>
<feGaussianBlur stdDeviation="8"/>
<feComposite in2="hardAlpha" operator="arithmetic" k2="-1" k3="1"/>
<feColorMatrix type="matrix" values="0 0 0 0 1 0 0 0 0 1 0 0 0 0 1 0 0 0 0.3 0"/>
<feBlend mode="normal" in2="shape" result="effect1_innerShadow_123_10945"/>
<feColorMatrix in="SourceAlpha" type="matrix" values="0 0 0 0 0 0 0 0 0 0 0 0 0 0 0 0 0 0 127 0" result="hardAlpha"/>
<feOffset dx="-2" dy="-2"/>
<feGaussianBlur stdDeviation="8"/>
<feComposite in2="hardAlpha" operator="arithmetic" k2="-1" k3="1"/>
<feColorMatrix type="matrix" values="0 0 0 0 0 0 0 0 0 0.0226667 0 0 0 0 0.0666667 0 0 0 0.3 0"/>
<feBlend mode="normal" in2="effect1_innerShadow_123_10945" result="effect2_innerShadow_123_10945"/>
</filter>
</defs>
</svg>
