<svg width="217" height="208" viewBox="0 0 217 208" fill="none" xmlns="http://www.w3.org/2000/svg">
<g clip-path="url(#clip0_123_11725)">
<path d="M90.1349 179.316C89.5703 179.316 89.0058 179.175 88.5824 178.892L16.6738 137.328C16.2504 137.046 15.9681 136.693 15.9681 136.34C15.9681 136.058 16.1798 135.776 16.4621 135.564L59.3673 110.794C60.073 110.371 61.3432 110.442 62.1195 110.936L134.028 152.5C134.451 152.782 134.734 153.135 134.734 153.488C134.734 153.77 134.522 154.053 134.24 154.264L91.3345 179.034C91.0523 179.245 90.5583 179.316 90.1349 179.316ZM16.7444 137.187L88.653 178.751C89.4292 179.175 90.5583 179.245 91.1934 178.892L134.099 154.123C134.381 153.982 134.522 153.77 134.522 153.559C134.522 153.276 134.31 152.994 133.958 152.782L62.0489 111.218C61.2727 110.794 60.1436 110.724 59.5085 111.077L16.5327 135.917C16.2504 136.058 16.1093 136.269 16.1093 136.481C16.1798 136.693 16.3915 136.975 16.7444 137.187Z" fill="#16E09E"/>
<path d="M134.663 146.29L130.711 145.725L62.0484 106.066C61.2721 105.643 60.0724 105.572 59.3668 105.925L18.508 129.494L15.9676 129.142V132.458C15.9676 132.741 16.1793 133.093 16.6027 133.305L88.5113 174.87C89.2875 175.293 90.4872 175.364 91.1928 175.011L134.098 150.241C134.38 150.03 134.521 149.818 134.521 149.536V146.29H134.663Z" fill="url(#paint0_linear_123_11725)"/>
<path d="M16.6736 130.13L88.5823 171.695C89.3585 172.118 90.5582 172.189 91.2638 171.836L134.169 147.067C134.875 146.643 134.734 146.008 133.957 145.514L62.0488 103.95C61.2725 103.526 60.0729 103.456 59.3672 103.809L16.462 128.578C15.8268 129.001 15.8974 129.707 16.6736 130.13Z" fill="url(#paint1_linear_123_11725)"/>
<path opacity="0.3" d="M22.8832 130.976L87.1704 168.095C87.8761 168.518 88.9346 168.518 89.5697 168.166L127.959 146.007C128.594 145.654 128.523 145.019 127.817 144.667L63.5302 107.548C62.8245 107.124 61.766 107.124 61.1309 107.477L22.742 129.565C22.1069 129.918 22.248 130.553 22.8832 130.976Z" fill="#24126A"/>
<path d="M134.239 146.643L91.3342 171.412C90.6285 171.836 89.4288 171.765 88.6526 171.271L16.744 129.707C16.3912 129.495 16.1795 129.283 16.1089 129.001C15.9678 129.354 16.1795 129.777 16.744 130.06L88.6526 171.624C89.4288 172.048 90.6285 172.118 91.3342 171.765L134.239 146.996C134.592 146.784 134.733 146.431 134.663 146.149C134.592 146.361 134.451 146.502 134.239 146.643Z" fill="white"/>
<path d="M87.5946 109.383L87.4535 109.171L110.317 95.9751L50.2642 61.3263C48.5706 60.3384 46.4536 60.3384 44.76 61.3263L25.2127 72.6172L25.0715 72.4055L44.6188 61.1146C46.383 60.1267 48.5706 60.1267 50.3348 61.1146L110.741 95.9751L110.6 96.0457L87.5946 109.383Z" fill="#16E09E"/>
<path d="M217.087 128.013L205.443 121.52C202.832 120.039 200.574 116.863 199.727 113.546L189.636 71.9819C189.001 69.3709 187.589 67.1127 185.966 65.5602L184.555 69.8648C184.202 70.9234 183.567 71.6996 182.65 72.0524C181.591 72.4758 180.18 72.2641 178.839 71.4173L177.216 70.4999L175.734 74.9457C175.381 76.0042 174.746 76.7805 173.829 77.1333C172.77 77.5567 171.359 77.345 170.018 76.4982L167.901 75.2986C165.502 73.8872 163.243 70.8528 162.397 67.7478C161.62 64.9251 159.997 62.6669 158.233 61.2556L157.245 63.302C156.822 64.1488 156.187 64.784 155.41 64.9957C154.352 65.3485 153.082 65.0662 151.741 64.3605L150.612 63.7254L148.424 68.3829C148.001 69.2297 147.366 69.8648 146.589 70.0765C145.531 70.4294 144.261 70.1471 142.92 69.4414L140.521 68.0301C137.91 66.4776 135.651 63.2315 134.875 59.9148L124.855 15.0336C124.219 12.2109 122.667 9.88219 120.973 8.25913L106.507 47.8477C106.154 48.8356 105.519 49.5413 104.602 49.8941C103.543 50.247 102.202 50.0353 100.791 49.259L99.309 48.4122L97.686 52.9286C97.3332 53.9165 96.698 54.6222 95.7807 54.975C94.7221 55.3984 93.3814 55.1162 91.97 54.3399L83.5724 49.4707L83.7136 49.4002L92.6051 44.1781H92.6757L99.2385 47.9182L113.775 8.118C114.34 6.5655 115.469 5.78926 116.951 5.85983C118.151 5.93039 119.562 6.63607 120.832 7.69459L122.526 2.96654C123.09 1.48462 124.078 0.708374 125.49 0.708374C125.56 0.708374 125.631 0.708374 125.701 0.708374C128.665 0.920077 132.688 4.5896 133.817 9.67049L143.837 54.5516C144.543 57.7977 146.872 61.0439 149.342 62.5258L150.4 63.1609L151.388 60.9733C152.023 59.6325 153.082 58.9974 154.564 59.1385C155.622 59.2091 156.822 59.7736 158.021 60.691L160.28 55.963C160.915 54.6222 161.973 53.9871 163.455 54.1282C166.207 54.3399 169.947 57.586 171.359 62.4552C172.206 65.4896 174.393 68.4535 176.722 69.8648L176.934 70.006L178.416 65.4191C178.91 63.796 180.039 62.9492 181.591 63.0198C182.861 63.0903 184.343 63.796 185.755 64.9957L187.237 60.3382C187.731 58.7151 188.86 57.8683 190.412 57.9389C193.376 58.08 197.328 61.6084 198.598 66.6893L208.689 108.254C209.465 111.5 211.724 114.675 214.264 116.087L225.908 122.579L225.767 122.791L214.123 116.298C211.512 114.817 209.254 111.641 208.407 108.324L198.316 66.7598C197.116 61.8201 193.164 58.2917 190.342 58.1506C188.93 58.08 187.942 58.8563 187.448 60.4087L185.896 65.1368C187.589 66.6893 189.071 69.018 189.706 71.7702L199.798 113.335C200.574 116.581 202.832 119.756 205.372 121.168L217.016 127.66L217.087 128.013ZM158.374 60.9733C160.139 62.4552 161.832 64.784 162.608 67.6772C163.455 70.7116 165.643 73.6755 167.972 75.0869L170.089 76.2865C171.429 77.0628 172.7 77.2745 173.758 76.8511C174.605 76.5688 175.169 75.8631 175.522 74.8046L177.004 70.2882L176.722 70.1471C174.323 68.7357 172.064 65.7013 171.218 62.5963C169.877 57.7977 166.207 54.6222 163.526 54.4105C162.185 54.2693 161.197 54.9045 160.632 56.1041L158.374 60.9733ZM177.286 70.2177L178.98 71.2056C180.321 71.9819 181.591 72.1936 182.579 71.7702C183.426 71.4879 183.99 70.7822 184.343 69.7237L185.755 65.2779C184.414 64.0783 182.932 63.302 181.662 63.302C180.25 63.2315 179.262 64.0077 178.768 65.5602L177.286 70.2177ZM121.114 7.90629C122.879 9.52935 124.502 11.9287 125.137 14.8219L135.157 59.7031C135.863 62.9492 138.192 66.1953 140.662 67.6772L143.061 69.0886C144.331 69.7943 145.531 70.0765 146.519 69.7237C147.295 69.512 147.86 68.9474 148.283 68.1712L150.471 63.5137L149.342 62.8786C146.731 61.3261 144.472 58.08 143.696 54.7633L133.676 9.88219C132.546 4.94244 128.595 1.27292 125.772 1.13178C124.361 1.06121 123.302 1.76689 122.808 3.17825L121.114 7.90629ZM150.824 63.4432L151.953 64.0783C153.223 64.784 154.423 65.0662 155.41 64.7134C156.187 64.5017 156.751 63.9371 157.175 63.1609L158.163 61.0439C157.034 60.1265 155.834 59.6325 154.775 59.5619C153.435 59.4208 152.447 60.0559 151.882 61.2556L150.824 63.4432ZM84.0664 49.3296L92.1817 53.9871C93.5225 54.7633 94.7927 54.975 95.7807 54.6222C96.5569 54.3399 97.192 53.7048 97.5449 52.7169L99.2385 48.1299L92.7462 44.3899L84.0664 49.3296ZM99.4502 48.0594L101.003 48.9062C102.343 49.6824 103.614 49.8941 104.602 49.5413C105.378 49.259 106.013 48.6239 106.366 47.636L120.832 7.97686C119.562 6.84777 118.151 6.21266 117.022 6.1421C115.61 6.07153 114.552 6.77721 114.058 8.18856L99.4502 48.0594Z" fill="#16E09E"/>
<path d="M124.05 1.24291L115.174 6.3335L115.279 6.51713L124.155 1.42654L124.05 1.24291Z" fill="#16E09E"/>
<path d="M152.8 59.985L152.729 59.7733L161.692 54.6218L161.833 54.8335L152.8 59.985Z" fill="#16E09E"/>
<path d="M189.236 58.2965L179.869 63.6658L179.974 63.8494L189.341 58.4802L189.236 58.2965Z" fill="#16E09E"/>
<path d="M217.087 128.013L205.443 121.52C202.832 120.039 200.574 116.863 199.727 113.546L189.636 71.9819C189.001 69.3709 187.589 67.1127 185.966 65.5602L184.555 69.8648C184.202 70.9234 183.567 71.6996 182.65 72.0524C181.591 72.4758 180.18 72.2641 178.839 71.4173L177.216 70.4999L175.734 74.9457C175.381 76.0042 174.746 76.7805 173.829 77.1333C172.77 77.5567 171.359 77.345 170.018 76.4982L167.901 75.2986C165.502 73.8872 163.243 70.8528 162.397 67.7478C161.62 64.9251 159.997 62.6669 158.233 61.2556L157.245 63.302C156.822 64.1488 156.187 64.784 155.41 64.9957C154.352 65.3485 153.082 65.0662 151.741 64.3605L150.612 63.7254L148.424 68.3829C148.001 69.2297 147.366 69.8648 146.589 70.0765C145.531 70.4294 144.261 70.1471 142.92 69.4414L140.521 68.0301C137.91 66.4776 135.651 63.2315 134.875 59.9148L124.855 15.0336C124.219 12.2109 122.667 9.88219 120.973 8.25913L106.507 47.8477C106.154 48.8356 105.519 49.5413 104.602 49.8941C103.543 50.247 102.202 50.0353 100.791 49.259L99.309 48.4122L97.686 52.9286C97.3332 53.9165 96.698 54.6222 95.7807 54.975C94.7221 55.3984 93.3814 55.1162 91.97 54.3399L83.5724 49.4707L83.7136 49.4002L92.6051 44.1781H92.6757L99.2385 47.9182L113.775 8.118C114.34 6.5655 115.469 5.78926 116.951 5.85983C118.151 5.93039 119.562 6.63607 120.832 7.69459L122.526 2.96654C123.09 1.48462 124.078 0.708374 125.49 0.708374C125.56 0.708374 125.631 0.708374 125.701 0.708374C128.665 0.920077 132.688 4.5896 133.817 9.67049L143.837 54.5516C144.543 57.7977 146.872 61.0439 149.342 62.5258L150.4 63.1609L151.388 60.9733C152.023 59.6325 153.082 58.9974 154.564 59.1385C155.622 59.2091 156.822 59.7736 158.021 60.691L160.28 55.963C160.915 54.6222 161.973 53.9871 163.455 54.1282C166.207 54.3399 169.947 57.586 171.359 62.4552C172.206 65.4896 174.393 68.4535 176.722 69.8648L176.934 70.006L178.416 65.4191C178.91 63.796 180.039 62.9492 181.591 63.0198C182.861 63.0903 184.343 63.796 185.755 64.9957L187.237 60.3382C187.731 58.7151 188.86 57.8683 190.412 57.9389C193.376 58.08 197.328 61.6084 198.598 66.6893L208.689 108.254C209.465 111.5 211.724 114.675 214.264 116.087L225.908 122.579L225.767 122.791L214.123 116.298C211.512 114.817 209.254 111.641 208.407 108.324L198.316 66.7598C197.116 61.8201 193.164 58.2917 190.342 58.1506C188.93 58.08 187.942 58.8563 187.448 60.4087L185.896 65.1368C187.589 66.6893 189.071 69.018 189.706 71.7702L199.798 113.335C200.574 116.581 202.832 119.756 205.372 121.168L217.016 127.66L217.087 128.013ZM158.374 60.9733C160.139 62.4552 161.832 64.784 162.608 67.6772C163.455 70.7116 165.643 73.6755 167.972 75.0869L170.089 76.2865C171.429 77.0628 172.7 77.2745 173.758 76.8511C174.605 76.5688 175.169 75.8631 175.522 74.8046L177.004 70.2882L176.722 70.1471C174.323 68.7357 172.064 65.7013 171.218 62.5963C169.877 57.7977 166.207 54.6222 163.526 54.4105C162.185 54.2693 161.197 54.9045 160.632 56.1041L158.374 60.9733ZM177.286 70.2177L178.98 71.2056C180.321 71.9819 181.591 72.1936 182.579 71.7702C183.426 71.4879 183.99 70.7822 184.343 69.7237L185.755 65.2779C184.414 64.0783 182.932 63.302 181.662 63.302C180.25 63.2315 179.262 64.0077 178.768 65.5602L177.286 70.2177ZM121.114 7.90629C122.879 9.52935 124.502 11.9287 125.137 14.8219L135.157 59.7031C135.863 62.9492 138.192 66.1953 140.662 67.6772L143.061 69.0886C144.331 69.7943 145.531 70.0765 146.519 69.7237C147.295 69.512 147.86 68.9474 148.283 68.1712L150.471 63.5137L149.342 62.8786C146.731 61.3261 144.472 58.08 143.696 54.7633L133.676 9.88219C132.546 4.94244 128.595 1.27292 125.772 1.13178C124.361 1.06121 123.302 1.76689 122.808 3.17825L121.114 7.90629ZM150.824 63.4432L151.953 64.0783C153.223 64.784 154.423 65.0662 155.41 64.7134C156.187 64.5017 156.751 63.9371 157.175 63.1609L158.163 61.0439C157.034 60.1265 155.834 59.6325 154.775 59.5619C153.435 59.4208 152.447 60.0559 151.882 61.2556L150.824 63.4432ZM84.0664 49.3296L92.1817 53.9871C93.5225 54.7633 94.7927 54.975 95.7807 54.6222C96.5569 54.3399 97.192 53.7048 97.5449 52.7169L99.2385 48.1299L92.7462 44.3899L84.0664 49.3296ZM99.4502 48.0594L101.003 48.9062C102.343 49.6824 103.614 49.8941 104.602 49.5413C105.378 49.259 106.013 48.6239 106.366 47.636L120.832 7.97686C119.562 6.84777 118.151 6.21266 117.022 6.1421C115.61 6.07153 114.552 6.77721 114.058 8.18856L99.4502 48.0594Z" fill="#16E09E"/>
<path opacity="0.5" d="M92.6066 44.3189L100.863 49.1176C103.333 50.5289 105.521 50.0349 106.367 47.7768L122.669 3.1779C124.503 -1.90298 132.125 2.68393 133.748 9.88185L143.768 54.763C144.474 58.0797 146.803 61.3258 149.343 62.8077L151.742 64.2191C154.071 65.5599 156.188 65.207 157.106 63.2311L160.422 56.1743C162.469 51.7991 169.384 55.8921 171.219 62.6666C172.066 65.7716 174.254 68.7354 176.653 70.1468L178.77 71.3464C181.31 72.8283 183.569 72.1932 184.345 69.8645L187.379 60.5495C189.073 55.257 196.765 59.7027 198.458 66.9006L208.55 108.465C209.326 111.711 211.655 114.957 214.195 116.369L225.839 122.861L92.6066 44.3189Z" fill="url(#paint2_linear_123_11725)"/>
<path opacity="0.5" d="M83.7854 49.2592L92.0418 54.0579C94.5117 55.4692 96.6993 54.9752 97.5461 52.7171L113.847 8.11821C115.682 3.03733 123.303 7.62424 124.926 14.8222L134.947 59.7033C135.653 63.02 137.981 66.2661 140.522 67.748L142.921 69.1594C145.25 70.5002 147.367 70.1473 148.284 68.1714L151.601 61.1146C153.648 56.7394 160.563 60.8324 162.398 67.6069C163.245 70.7119 165.432 73.6757 167.832 75.0871L169.949 76.2867C172.489 77.7686 174.747 77.1335 175.524 74.8048L178.558 65.4898C180.252 60.1973 187.943 64.643 189.637 71.841L199.869 113.335C200.646 116.581 202.974 119.827 205.515 121.238L217.159 127.731L83.7854 49.2592Z" fill="url(#paint3_linear_123_11725)"/>
<path d="M20.0604 116.088C18.9313 116.088 17.8728 115.876 17.0259 115.382L3.05352 107.337C2.2067 106.843 1.78329 106.208 1.78329 105.502C1.78329 104.797 2.2067 104.162 3.05352 103.668L17.0259 95.623C18.7196 94.635 21.4011 94.635 23.0948 95.623L37.0672 103.668C37.914 104.162 38.3374 104.797 38.3374 105.502C38.3374 106.208 37.914 106.843 37.0672 107.337L23.0948 115.382C22.248 115.876 21.1895 116.088 20.0604 116.088ZM17.1671 115.17C18.7901 116.088 21.4011 116.088 22.9536 115.17L36.9261 107.126C37.7023 106.702 38.1257 106.138 38.1257 105.502C38.1257 104.867 37.7023 104.303 36.9261 103.879L22.9536 95.8347C21.3306 94.9173 18.7196 94.9173 17.1671 95.8347L3.19465 103.879C2.41841 104.303 2.06556 104.867 2.06556 105.502C2.06556 106.138 2.48897 106.702 3.26521 107.126L17.1671 115.17Z" fill="#16E09E"/>
<path d="M61.9791 90.9642L71.0824 36.9799L70.3767 36.6976L71.5058 36.0625C71.7175 35.9213 71.9997 35.9213 72.3526 36.133L145.037 78.1209C145.602 78.4737 146.096 79.3205 145.955 79.9557L136.781 134.363C136.71 134.646 136.569 134.857 136.428 134.928L135.37 135.563L135.158 134.575H135.229L62.9671 92.8696C62.332 92.4462 61.838 91.5993 61.9791 90.9642Z" fill="url(#paint4_linear_123_11725)"/>
<path d="M144.542 79.6024L145.742 79.1084C145.883 79.3907 145.954 79.7435 145.883 80.0258L136.709 134.434C136.639 134.716 136.498 134.928 136.357 134.998L135.298 135.633L135.086 134.645H135.157L131.487 132.528L144.542 79.6024Z" fill="url(#paint5_linear_123_11725)"/>
<path d="M61.767 93.5036L134.452 135.491C135.016 135.844 135.51 135.633 135.581 135.068L144.755 80.6603C144.825 80.0252 144.402 79.1784 143.837 78.8255L71.1525 36.8377C70.5879 36.4848 70.094 36.6965 70.0234 37.2611L60.8496 91.6689C60.7084 92.2334 61.1318 93.1508 61.767 93.5036Z" fill="#24126A"/>
<g opacity="0.51">
<path d="M70.8705 37.8259L143.908 79.9549L134.664 134.504L61.6967 92.3749L70.8705 37.8259Z" fill="#453C9E"/>
</g>
<path d="M16.109 119.192L20.0608 121.238L59.8611 98.3035C60.4962 97.9507 61.6958 97.9507 62.4721 98.4447L131.064 138.033C131.699 137.68 134.734 136.198 134.734 136.198L133.252 138.527C133.181 138.668 133.04 138.88 132.828 138.951L90.9109 163.155C90.2758 163.508 89.0761 163.508 88.2999 163.014L18.0849 122.508C17.8026 122.297 17.5909 122.085 17.5204 121.873L16.109 119.192Z" fill="url(#paint6_linear_123_11725)"/>
<path d="M16.6744 119.897L88.583 161.461C89.3593 161.885 90.5589 161.955 91.2646 161.603L134.17 136.833C134.876 136.41 134.734 135.775 133.958 135.281L62.0495 93.7163C61.2733 93.2929 60.0736 93.2223 59.368 93.5752L16.4627 118.344C15.8276 118.697 15.8982 119.403 16.6744 119.897Z" fill="url(#paint7_linear_123_11725)"/>
<path d="M16.6732 119.544L88.5818 161.108C89.358 161.532 90.5577 161.602 91.2634 161.249L134.169 136.48C134.38 136.339 134.521 136.198 134.592 135.986C134.663 136.268 134.521 136.621 134.169 136.833L91.2634 161.602C90.5577 162.026 89.358 161.955 88.5818 161.461L16.6732 119.897C16.1792 119.614 15.9675 119.191 16.0381 118.838C16.1086 119.12 16.3203 119.332 16.6732 119.544Z" fill="white"/>
<g opacity="0.15">
<path d="M61.6976 93.1527L65.6494 95.1991L105.45 72.2646C106.085 71.9117 107.284 71.9117 108.061 72.4057L176.582 111.924C177.217 111.571 180.251 110.089 180.251 110.089L178.77 112.418C178.699 112.559 178.558 112.771 178.346 112.841L136.429 137.046C135.794 137.399 134.594 137.399 133.818 136.905L63.6029 96.3988C63.3206 96.1871 63.1089 95.9754 63.0384 95.7637L61.6976 93.1527Z" fill="url(#paint8_linear_123_11725)"/>
<path d="M62.2629 93.7872L134.242 135.281C135.018 135.705 136.218 135.775 136.924 135.422L179.829 110.653C180.535 110.23 180.393 109.594 179.617 109.1L107.709 67.536C106.932 67.1126 105.733 67.042 105.027 67.3949L62.1217 92.1642C61.416 92.6581 61.4866 93.2933 62.2629 93.7872Z" fill="url(#paint9_linear_123_11725)"/>
<path d="M179.617 109.101L107.708 67.5363C107.214 67.2541 106.509 67.1129 105.944 67.1835C106.368 67.1835 106.862 67.3246 107.215 67.5363L179.123 109.101C179.899 109.524 179.97 110.23 179.335 110.653L136.359 135.423C136.147 135.564 135.794 135.634 135.442 135.705C135.936 135.775 136.5 135.634 136.853 135.423L179.758 110.653C180.534 110.23 180.393 109.524 179.617 109.101Z" fill="white"/>
<g opacity="0.5">
<path d="M99.9451 86.6599L97.6164 85.3192C97.4047 85.178 97.1224 85.2486 96.9107 85.3192L94.3703 86.8011C94.1586 86.9422 94.1586 87.0833 94.3703 87.2245L96.699 88.5653C96.9107 88.7064 97.193 88.6358 97.4047 88.5653L99.9451 87.0834C100.157 86.9422 100.157 86.7305 99.9451 86.6599Z" fill="#24126A"/>
<path d="M103.544 88.7063L101.216 87.3655C101.004 87.2244 100.722 87.295 100.51 87.3655L97.9695 88.8475C97.7578 88.9886 97.7578 89.1297 97.9695 89.2709L100.298 90.6117C100.51 90.7528 100.792 90.6822 101.004 90.6117L103.544 89.1297C103.685 88.9886 103.685 88.7769 103.544 88.7063Z" fill="#24126A"/>
<path d="M107.073 90.7532L104.744 89.4124C104.533 89.2713 104.25 89.3418 104.039 89.4124L101.498 90.8943C101.287 91.0355 101.287 91.1766 101.498 91.3177L103.827 92.6585C104.039 92.7997 104.321 92.7291 104.533 92.6585L107.073 91.1766C107.285 91.0355 107.285 90.8238 107.073 90.7532Z" fill="#24126A"/>
<path d="M104.391 93.5053L102.063 92.1646C101.851 92.0234 101.569 92.094 101.357 92.1646L99.2398 93.4348C99.0281 93.5759 99.0281 93.717 99.2398 93.8582L101.569 95.199C101.78 95.3401 102.063 95.2695 102.274 95.199L104.391 93.9287C104.532 93.7876 104.603 93.5759 104.391 93.5053Z" fill="#24126A"/>
<path d="M107.919 95.5515L105.59 94.2107C105.379 94.0696 105.096 94.1401 104.885 94.2107L102.768 95.4809C102.556 95.6221 102.556 95.7632 102.768 95.9043L105.096 97.2451C105.308 97.3863 105.59 97.3157 105.802 97.2451L107.919 95.9749C108.131 95.8338 108.131 95.6221 107.919 95.5515Z" fill="#24126A"/>
<path d="M111.518 97.5985L109.19 96.2578C108.978 96.1166 108.696 96.1872 108.484 96.2578L106.367 97.528C106.155 97.6691 106.155 97.8102 106.367 97.9514L108.696 99.2922C108.907 99.4333 109.19 99.3627 109.401 99.2922L111.518 98.0219C111.66 97.8808 111.66 97.6691 111.518 97.5985Z" fill="#24126A"/>
<path d="M115.047 99.6445L112.718 98.3037C112.507 98.1626 112.225 98.2331 112.013 98.3037L109.896 99.5739C109.684 99.7151 109.684 99.8562 109.896 99.9973L112.225 101.338C112.436 101.479 112.718 101.409 112.93 101.338L115.047 100.068C115.259 99.9268 115.259 99.7151 115.047 99.6445Z" fill="#24126A"/>
<path d="M118.645 101.691L116.317 100.35C116.105 100.209 115.823 100.279 115.611 100.35L113.494 101.62C113.282 101.761 113.282 101.902 113.494 102.043L115.823 103.384C116.034 103.525 116.317 103.455 116.528 103.384L118.645 102.114C118.787 101.973 118.787 101.832 118.645 101.691Z" fill="#24126A"/>
<path d="M122.174 103.738L119.846 102.397C119.634 102.256 119.352 102.326 119.14 102.397L117.023 103.667C116.811 103.808 116.811 103.949 117.023 104.091L119.352 105.431C119.563 105.573 119.846 105.502 120.057 105.431L122.174 104.161C122.386 104.02 122.386 103.879 122.174 103.738Z" fill="#24126A"/>
<path d="M125.774 105.785L123.446 104.444C123.234 104.303 122.952 104.373 122.74 104.444L120.623 105.714C120.411 105.855 120.411 105.996 120.623 106.137L122.952 107.478C123.163 107.619 123.446 107.549 123.657 107.478L125.774 106.208C125.916 106.067 125.916 105.926 125.774 105.785Z" fill="#24126A"/>
<path d="M129.301 107.902L126.973 106.561C126.761 106.42 126.479 106.49 126.267 106.561L124.15 107.831C123.938 107.972 123.938 108.113 124.15 108.254L126.479 109.595C126.69 109.736 126.973 109.666 127.184 109.595L129.301 108.325C129.513 108.184 129.513 107.972 129.301 107.902Z" fill="#24126A"/>
<path d="M132.9 109.947L130.571 108.607C130.359 108.466 130.077 108.536 129.865 108.607L127.748 109.877C127.537 110.018 127.537 110.159 127.748 110.3L130.077 111.641C130.289 111.782 130.571 111.712 130.783 111.641L132.9 110.371C133.041 110.23 133.041 110.018 132.9 109.947Z" fill="#24126A"/>
<path d="M136.429 111.994L134.101 110.653C133.889 110.512 133.607 110.583 133.395 110.653L131.278 111.923C131.066 112.064 131.066 112.206 131.278 112.347L133.607 113.687C133.818 113.829 134.101 113.758 134.312 113.687L136.429 112.417C136.641 112.276 136.641 112.064 136.429 111.994Z" fill="#24126A"/>
<path d="M102.908 96.3983L100.579 95.0575C100.368 94.9164 100.085 94.9869 99.8737 95.0575L97.7567 96.3277C97.545 96.4688 97.545 96.61 97.7567 96.7511L100.085 98.0919C100.297 98.233 100.579 98.1625 100.791 98.0919L102.908 96.8217C103.049 96.6806 103.049 96.5394 102.908 96.3983Z" fill="#24126A"/>
<path d="M99.3108 94.3522L96.9821 93.0114C96.7704 92.8702 96.4881 92.9408 96.2764 93.0114L94.1593 94.2816C93.9476 94.4227 93.9476 94.5639 94.1593 94.705L96.4881 96.0458C96.6998 96.1869 96.982 96.1163 97.1937 96.0458L99.3108 94.7756C99.4519 94.6344 99.4519 94.4227 99.3108 94.3522Z" fill="#24126A"/>
<path d="M95.6394 92.2356L90.6997 89.3423C90.488 89.2012 90.2057 89.2718 89.994 89.3423L87.877 90.6126C87.6653 90.7537 87.6653 90.8948 87.877 91.036L92.8167 93.9293C93.0284 94.0704 93.3107 93.9998 93.5224 93.9293L95.6394 92.659C95.8511 92.5179 95.8511 92.3062 95.6394 92.2356Z" fill="#24126A"/>
<path d="M91.4772 93.5761L87.4549 91.2474C87.2432 91.1062 86.9609 91.1768 86.7492 91.2474L84.6322 92.5176C84.4205 92.6587 84.4205 92.7999 84.6322 92.941L88.6545 95.2697C88.8662 95.4109 89.1485 95.3403 89.3602 95.2697L91.4772 93.9995C91.6184 93.8584 91.6184 93.7173 91.4772 93.5761Z" fill="#24126A"/>
<path d="M106.437 98.4452L104.108 97.1044C103.897 96.9632 103.614 97.0338 103.403 97.1044L101.286 98.3746C101.074 98.5157 101.074 98.6569 101.286 98.798L103.614 100.139C103.826 100.28 104.108 100.209 104.32 100.139L106.437 98.8686C106.649 98.7274 106.649 98.5863 106.437 98.4452Z" fill="#24126A"/>
<path d="M110.037 100.491L107.708 99.1505C107.497 99.0094 107.214 99.0799 107.003 99.1505L104.886 100.421C104.674 100.562 104.674 100.703 104.886 100.844L107.214 102.185C107.426 102.326 107.708 102.256 107.92 102.185L110.037 100.915C110.178 100.844 110.178 100.632 110.037 100.491Z" fill="#24126A"/>
<path d="M113.565 102.608L111.236 101.268C111.025 101.127 110.742 101.197 110.531 101.268L108.414 102.538C108.202 102.679 108.202 102.82 108.414 102.961L110.742 104.302C110.954 104.443 111.236 104.373 111.448 104.302L113.565 103.032C113.777 102.891 113.777 102.679 113.565 102.608Z" fill="#24126A"/>
<path d="M117.163 104.655L114.835 103.315C114.623 103.173 114.341 103.244 114.129 103.315L112.012 104.585C111.8 104.726 111.8 104.867 112.012 105.008L114.341 106.349C114.552 106.49 114.834 106.42 115.046 106.349L117.163 105.079C117.304 104.938 117.304 104.726 117.163 104.655Z" fill="#24126A"/>
<path d="M120.692 106.701L118.363 105.36C118.152 105.219 117.869 105.289 117.658 105.36L115.541 106.63C115.329 106.771 115.329 106.913 115.541 107.054L117.869 108.394C118.081 108.536 118.363 108.465 118.575 108.394L120.692 107.124C120.904 106.983 120.904 106.771 120.692 106.701Z" fill="#24126A"/>
<path d="M124.291 108.748L121.963 107.407C121.751 107.266 121.469 107.337 121.257 107.407L119.14 108.677C118.928 108.818 118.928 108.96 119.14 109.101L121.469 110.442C121.68 110.583 121.963 110.512 122.174 110.442L124.291 109.171C124.432 109.03 124.432 108.889 124.291 108.748Z" fill="#24126A"/>
<path d="M127.819 110.795L125.49 109.454C125.279 109.313 124.996 109.383 124.785 109.454L122.668 110.724C122.456 110.865 122.456 111.006 122.668 111.147L124.996 112.488C125.208 112.629 125.49 112.559 125.702 112.488L127.819 111.218C128.031 111.077 128.031 110.936 127.819 110.795Z" fill="#24126A"/>
<path d="M131.418 112.841L129.09 111.5C128.878 111.359 128.596 111.43 128.384 111.5L126.267 112.77C126.055 112.911 126.055 113.053 126.267 113.194L128.596 114.535C128.807 114.676 129.09 114.605 129.301 114.535L131.418 113.264C131.56 113.123 131.56 112.982 131.418 112.841Z" fill="#24126A"/>
<path d="M134.947 114.887L132.618 113.546C132.407 113.405 132.125 113.476 131.913 113.546L129.796 114.816C129.584 114.957 129.584 115.099 129.796 115.24L132.125 116.581C132.336 116.722 132.618 116.651 132.83 116.581L134.947 115.31C135.159 115.169 135.159 115.028 134.947 114.887Z" fill="#24126A"/>
<path d="M141.296 118.557L136.286 115.663C136.074 115.522 135.792 115.593 135.58 115.663L133.463 116.933C133.252 117.075 133.252 117.216 133.463 117.357L138.474 120.25C138.685 120.391 138.968 120.321 139.179 120.25L141.296 118.98C141.438 118.839 141.438 118.698 141.296 118.557Z" fill="#24126A"/>
<path d="M134.735 122.368L130.501 119.898C130.289 119.757 130.007 119.828 129.795 119.898L127.678 121.168C127.466 121.309 127.466 121.451 127.678 121.592L131.912 124.062C132.124 124.203 132.406 124.132 132.618 124.062L134.735 122.791C134.946 122.65 134.946 122.509 134.735 122.368Z" fill="#24126A"/>
<path d="M105.943 101.973L103.614 100.633C103.402 100.491 103.12 100.562 102.908 100.633L100.791 101.903C100.58 102.044 100.58 102.185 100.791 102.326L103.12 103.667C103.332 103.808 103.614 103.737 103.826 103.667L105.943 102.397C106.155 102.256 106.155 102.114 105.943 101.973Z" fill="#24126A"/>
<path d="M102.345 99.8564L100.016 98.5156C99.8042 98.3744 99.5219 98.445 99.3102 98.5156L97.1932 99.7858C96.9815 99.9269 96.9815 100.068 97.1932 100.209L99.5219 101.55C99.7336 101.691 100.016 101.621 100.228 101.55L102.345 100.28C102.486 100.139 102.486 99.9975 102.345 99.8564Z" fill="#24126A"/>
<path d="M98.6742 97.7394L96.3455 96.3986C96.1338 96.2575 95.8515 96.3281 95.6398 96.3986L93.5228 97.6688C93.3111 97.81 93.3111 97.9511 93.5228 98.0922L95.8515 99.433C96.0632 99.5742 96.3455 99.5036 96.5572 99.433L98.6742 98.1628C98.8154 98.0217 98.8859 97.8805 98.6742 97.7394Z" fill="#24126A"/>
<path d="M95.0047 95.6223L92.676 94.2815C92.4643 94.1404 92.182 94.2109 91.9703 94.2815L89.8533 95.5517C89.6416 95.6929 89.6416 95.834 89.8533 95.9751L92.182 97.3159C92.3937 97.4571 92.676 97.3865 92.8877 97.3159L95.0047 96.0457C95.2164 95.9046 95.2164 95.7634 95.0047 95.6223Z" fill="#24126A"/>
<path d="M109.543 104.02L107.214 102.679C107.003 102.538 106.72 102.609 106.509 102.679L104.392 103.95C104.18 104.091 104.18 104.232 104.392 104.373L106.72 105.714C106.932 105.855 107.214 105.784 107.426 105.714L109.543 104.444C109.684 104.302 109.684 104.161 109.543 104.02Z" fill="#24126A"/>
<path d="M113.071 106.066L110.742 104.725C110.53 104.584 110.248 104.655 110.036 104.725L107.919 105.995C107.708 106.136 107.708 106.278 107.919 106.419L110.248 107.76C110.46 107.901 110.742 107.83 110.954 107.76L113.071 106.489C113.283 106.348 113.283 106.207 113.071 106.066Z" fill="#24126A"/>
<path d="M116.669 108.113L114.34 106.772C114.129 106.631 113.846 106.701 113.635 106.772L111.518 108.042C111.306 108.183 111.306 108.324 111.518 108.466L113.846 109.806C114.058 109.947 114.34 109.877 114.552 109.806L116.669 108.536C116.81 108.395 116.81 108.254 116.669 108.113Z" fill="#24126A"/>
<path d="M120.198 110.23L117.869 108.889C117.658 108.748 117.375 108.819 117.164 108.889L115.047 110.159C114.835 110.3 114.835 110.442 115.047 110.583L117.375 111.924C117.587 112.065 117.869 111.994 118.081 111.924L120.198 110.653C120.41 110.512 120.41 110.3 120.198 110.23Z" fill="#24126A"/>
<path d="M123.797 112.276L121.468 110.935C121.257 110.794 120.974 110.864 120.763 110.935L118.646 112.205C118.434 112.346 118.434 112.487 118.646 112.628L120.974 113.969C121.186 114.11 121.468 114.04 121.68 113.969L123.797 112.699C123.938 112.558 123.938 112.346 123.797 112.276Z" fill="#24126A"/>
<path d="M127.325 114.323L124.996 112.982C124.785 112.841 124.502 112.912 124.291 112.982L122.174 114.252C121.962 114.393 121.962 114.535 122.174 114.676L124.502 116.017C124.714 116.158 124.996 116.087 125.208 116.017L127.325 114.746C127.537 114.605 127.537 114.393 127.325 114.323Z" fill="#24126A"/>
<path d="M130.925 116.369L128.596 115.028C128.385 114.887 128.103 114.958 127.891 115.028L125.774 116.298C125.562 116.439 125.562 116.581 125.774 116.722L128.102 118.062C128.314 118.204 128.596 118.133 128.808 118.062L130.925 116.792C131.066 116.651 131.066 116.439 130.925 116.369Z" fill="#24126A"/>
<path d="M134.453 118.416L132.124 117.075C131.913 116.934 131.63 117.005 131.419 117.075L129.302 118.345C129.09 118.486 129.09 118.628 129.302 118.769L131.63 120.11C131.842 120.251 132.124 120.18 132.336 120.11L134.453 118.839C134.594 118.698 134.665 118.557 134.453 118.416Z" fill="#24126A"/>
<path d="M138.051 120.462L135.723 119.121C135.511 118.98 135.229 119.051 135.017 119.121L132.9 120.391C132.688 120.532 132.688 120.674 132.9 120.815L135.229 122.156C135.44 122.297 135.723 122.226 135.934 122.156L138.051 120.885C138.193 120.744 138.193 120.603 138.051 120.462Z" fill="#24126A"/>
<path d="M97.3354 100.773L95.0067 99.4325C94.795 99.2914 94.5127 99.3619 94.301 99.4325L92.184 100.703C91.9723 100.844 91.9723 100.985 92.184 101.126L94.5127 102.467C94.7244 102.608 95.0067 102.537 95.2184 102.467L97.3354 101.197C97.5471 101.056 97.5471 100.914 97.3354 100.773Z" fill="#24126A"/>
<path d="M93.8047 98.7273L91.476 97.3865C91.2643 97.2454 90.982 97.316 90.7703 97.3865L88.6533 98.6568C88.4416 98.7979 88.4416 98.939 88.6533 99.0802L90.982 100.421C91.1937 100.562 91.476 100.492 91.6877 100.421L93.8047 99.1507C94.0164 99.0096 94.0164 98.8685 93.8047 98.7273Z" fill="#24126A"/>
<path d="M90.2777 96.6812L87.949 95.3404C87.7373 95.1993 87.455 95.2698 87.2433 95.3404L85.1262 96.6106C84.9145 96.7518 84.9145 96.8929 85.1262 97.034L87.455 98.3748C87.6667 98.5159 87.949 98.4454 88.1607 98.3748L90.2777 97.1046C90.4188 96.9635 90.4894 96.8223 90.2777 96.6812Z" fill="#24126A"/>
<path d="M86.7498 94.6336L84.421 93.2928C84.2093 93.1517 83.927 93.2223 83.7153 93.2928L81.5983 94.5631C81.3866 94.7042 81.3866 94.8453 81.5983 94.9865L83.9271 96.3273C84.1388 96.4684 84.421 96.3978 84.6327 96.3273L86.7498 95.057C86.8909 94.9159 86.8909 94.7748 86.7498 94.6336Z" fill="#24126A"/>
<path d="M83.2908 96.6812L80.9621 95.3404C80.7504 95.1993 80.4681 95.2698 80.2564 95.3404L79.5508 95.7638C79.3391 95.9049 79.3391 96.0461 79.5508 96.1872L81.8795 97.528C82.0912 97.6691 82.3735 97.5986 82.5852 97.528L83.2908 97.1046C83.5025 96.9635 83.5025 96.7517 83.2908 96.6812Z" fill="#24126A"/>
<path d="M87.9485 99.3623L85.6198 98.0215C85.4081 97.8804 85.1258 97.9509 84.9141 98.0215L84.2084 98.4449C83.9967 98.586 83.9967 98.7272 84.2084 98.8683L86.5371 100.209C86.7488 100.35 87.0311 100.28 87.2428 100.209L87.9485 99.7857C88.0896 99.6445 88.0896 99.4328 87.9485 99.3623Z" fill="#24126A"/>
<path d="M91.4774 101.338L89.1486 99.9976C88.9369 99.8564 88.6547 99.927 88.4429 99.9976L87.7373 100.421C87.5256 100.562 87.5256 100.703 87.7373 100.844L90.066 102.185C90.2777 102.326 90.56 102.256 90.7717 102.185L91.4774 101.762C91.6185 101.691 91.6185 101.479 91.4774 101.338Z" fill="#24126A"/>
<path d="M95.0053 103.385L92.6765 102.044C92.4648 101.903 92.1826 101.974 91.9709 102.044L91.2652 102.468C91.0535 102.609 91.0535 102.75 91.2652 102.891L93.5939 104.232C93.8056 104.373 94.0879 104.303 94.2996 104.232L95.0053 103.809C95.1464 103.667 95.1464 103.526 95.0053 103.385Z" fill="#24126A"/>
<path d="M98.5341 105.431L96.2054 104.09C95.9937 103.949 95.7114 104.02 95.4997 104.09L94.794 104.514C94.5823 104.655 94.5823 104.796 94.794 104.937L97.1228 106.278C97.3345 106.419 97.6168 106.348 97.8285 106.278L98.5341 105.854C98.6753 105.713 98.6753 105.572 98.5341 105.431Z" fill="#24126A"/>
<path d="M118.221 116.793L115.893 115.452C115.681 115.311 115.399 115.381 115.187 115.452L114.481 115.875C114.27 116.017 114.27 116.158 114.481 116.299L116.81 117.64C117.022 117.781 117.304 117.71 117.516 117.64L118.221 117.216C118.362 117.075 118.362 116.934 118.221 116.793Z" fill="#24126A"/>
<path d="M121.751 118.839L119.422 117.498C119.211 117.357 118.928 117.428 118.717 117.498L118.011 117.922C117.799 118.063 117.799 118.204 118.011 118.345L120.34 119.686C120.551 119.827 120.834 119.757 121.045 119.686L121.751 119.263C121.892 119.122 121.892 118.98 121.751 118.839Z" fill="#24126A"/>
<path d="M125.279 120.886L122.95 119.545C122.739 119.404 122.456 119.475 122.245 119.545L121.539 119.969C121.327 120.11 121.327 120.251 121.539 120.392L123.868 121.733C124.079 121.874 124.362 121.803 124.573 121.733L125.279 121.309C125.42 121.168 125.42 121.027 125.279 120.886Z" fill="#24126A"/>
<path d="M128.808 122.932L126.479 121.591C126.267 121.45 125.985 121.521 125.773 121.591L125.068 122.015C124.856 122.156 124.856 122.297 125.068 122.438L127.397 123.779C127.608 123.92 127.891 123.849 128.102 123.779L128.808 123.355C128.949 123.214 128.949 123.003 128.808 122.932Z" fill="#24126A"/>
<path d="M100.933 102.82L98.604 101.479C98.3923 101.338 98.11 101.408 97.8983 101.479L95.7813 102.749C95.5696 102.89 95.5696 103.031 95.7813 103.173L98.11 104.513C98.3217 104.654 98.604 104.584 98.8157 104.513L100.933 103.243C101.074 103.173 101.074 102.961 100.933 102.82Z" fill="#24126A"/>
<path d="M104.461 104.937L102.132 103.596C101.92 103.455 101.638 103.525 101.426 103.596L99.3092 104.866C99.0975 105.007 99.0975 105.148 99.3092 105.289L101.638 106.63C101.85 106.771 102.132 106.701 102.344 106.63L104.461 105.36C104.672 105.219 104.672 105.007 104.461 104.937Z" fill="#24126A"/>
<path d="M108.061 106.983L105.732 105.643C105.52 105.502 105.238 105.572 105.026 105.643L102.909 106.913C102.698 107.054 102.698 107.195 102.909 107.336L105.238 108.677C105.45 108.818 105.732 108.748 105.944 108.677L108.061 107.407C108.202 107.266 108.202 107.054 108.061 106.983Z" fill="#24126A"/>
<path d="M111.589 109.03L109.26 107.69C109.048 107.548 108.766 107.619 108.554 107.69L106.437 108.96C106.226 109.101 106.226 109.242 106.437 109.383L108.766 110.724C108.978 110.865 109.26 110.795 109.472 110.724L111.589 109.454C111.8 109.313 111.8 109.101 111.589 109.03Z" fill="#24126A"/>
<path d="M115.188 111.077L112.859 109.736C112.647 109.595 112.365 109.665 112.153 109.736L110.036 111.006C109.825 111.147 109.825 111.288 110.036 111.43L112.365 112.77C112.577 112.912 112.859 112.841 113.071 112.77L115.188 111.5C115.329 111.359 115.329 111.218 115.188 111.077Z" fill="#24126A"/>
<path d="M118.717 113.123L116.388 111.782C116.176 111.641 115.894 111.711 115.682 111.782L113.565 113.052C113.354 113.193 113.354 113.334 113.565 113.475L115.894 114.816C116.106 114.957 116.388 114.887 116.6 114.816L118.717 113.546C118.928 113.405 118.928 113.264 118.717 113.123Z" fill="#24126A"/>
<path d="M122.315 115.17L119.986 113.829C119.775 113.688 119.492 113.758 119.281 113.829L117.164 115.099C116.952 115.24 116.952 115.381 117.164 115.522L119.492 116.863C119.704 117.004 119.986 116.934 120.198 116.863L122.315 115.593C122.456 115.452 122.456 115.311 122.315 115.17Z" fill="#24126A"/>
<path d="M125.843 117.216L123.514 115.875C123.302 115.734 123.02 115.805 122.808 115.875L120.691 117.145C120.48 117.286 120.48 117.428 120.691 117.569L123.02 118.91C123.232 119.051 123.514 118.98 123.726 118.91L125.843 117.639C126.055 117.498 126.055 117.357 125.843 117.216Z" fill="#24126A"/>
<path d="M129.441 119.333L127.112 117.992C126.901 117.851 126.618 117.922 126.407 117.992L124.29 119.262C124.078 119.403 124.078 119.545 124.29 119.686L126.618 121.026C126.83 121.168 127.112 121.097 127.324 121.026L129.441 119.756C129.582 119.615 129.582 119.403 129.441 119.333Z" fill="#24126A"/>
<path d="M100.721 91.3879L93.9463 87.4361C93.7346 87.295 93.4524 87.3655 93.2407 87.4361L91.1236 88.7063C90.9119 88.8475 90.9119 88.9886 91.1236 89.1297L97.8982 93.0815C98.1099 93.2227 98.3921 93.1521 98.6038 93.0815L100.721 91.8113C100.933 91.6702 100.933 91.4585 100.721 91.3879Z" fill="#24126A"/>
<path d="M144.473 116.651L137.699 112.699C137.487 112.558 137.205 112.629 136.993 112.699L134.876 113.969C134.665 114.111 134.665 114.252 134.876 114.393L141.651 118.345C141.862 118.486 142.145 118.415 142.356 118.345L144.473 117.074C144.685 116.933 144.685 116.722 144.473 116.651Z" fill="#24126A"/>
<path d="M137.911 108.537L135.583 107.196C135.371 107.055 135.089 107.125 134.877 107.196L132.336 108.678C132.125 108.819 132.125 108.96 132.336 109.101L134.665 110.442C134.877 110.583 135.159 110.513 135.371 110.442L137.911 108.96C138.052 108.819 138.052 108.607 137.911 108.537Z" fill="#24126A"/>
<path d="M112.013 93.5763L108.344 91.4593C108.132 91.3182 107.85 91.3887 107.638 91.4593L105.097 92.9412C104.886 93.0824 104.886 93.2235 105.097 93.3646L108.767 95.4817C108.979 95.6228 109.261 95.5522 109.473 95.4817L112.013 93.9997C112.225 93.8586 112.225 93.7175 112.013 93.5763Z" fill="#24126A"/>
<path d="M134.453 106.561L130.783 104.444C130.572 104.303 130.289 104.373 130.078 104.444L127.537 105.926C127.326 106.067 127.326 106.208 127.537 106.349L131.207 108.466C131.419 108.607 131.701 108.537 131.912 108.466L134.453 106.984C134.665 106.843 134.665 106.631 134.453 106.561Z" fill="#24126A"/>
<path d="M117.164 96.5396L113.494 94.4225C113.283 94.2814 113 94.352 112.789 94.4225L110.248 95.9045C110.037 96.0456 110.037 96.1867 110.248 96.3279L113.918 98.4449C114.13 98.586 114.412 98.5155 114.623 98.4449L117.164 96.963C117.376 96.8219 117.376 96.6807 117.164 96.5396Z" fill="#24126A"/>
<path d="M110.248 96.3986L126.267 105.643C126.478 105.784 126.761 105.784 126.972 105.643L129.583 104.091C129.795 103.949 129.795 103.808 129.583 103.667L113.564 94.4227L110.248 96.3986Z" fill="#24126A"/>
<path d="M144.474 114.253L147.015 115.735C147.156 115.805 147.438 115.805 147.579 115.735L148.638 115.1C148.779 115.029 148.779 114.888 148.638 114.747L146.098 113.265C145.956 113.194 145.674 113.194 145.533 113.265L144.474 113.9C144.333 113.971 144.333 114.112 144.474 114.253Z" fill="#24126A"/>
<path d="M140.875 112.135L143.416 113.617C143.557 113.687 143.839 113.687 143.98 113.617L145.039 112.982C145.18 112.911 145.18 112.77 145.039 112.629L142.498 111.147C142.357 111.076 142.075 111.076 141.934 111.147L140.875 111.782C140.734 111.923 140.734 112.064 140.875 112.135Z" fill="#24126A"/>
<path d="M137.275 110.089L139.816 111.571C139.957 111.641 140.239 111.641 140.38 111.571L141.439 110.935C141.58 110.865 141.58 110.724 141.439 110.583L138.898 109.101C138.757 109.03 138.475 109.03 138.334 109.101L137.275 109.736C137.134 109.877 137.134 110.018 137.275 110.089Z" fill="#24126A"/>
<path d="M139.039 113.264L141.579 114.746C141.72 114.817 142.003 114.817 142.144 114.746L143.202 114.111C143.343 114.04 143.343 113.899 143.202 113.758L140.662 112.276C140.521 112.206 140.238 112.206 140.097 112.276L139.039 112.911C138.898 112.982 138.898 113.123 139.039 113.264Z" fill="#24126A"/>
</g>
</g>
<g opacity="0.8">
<path d="M49.7696 115.24L47.5114 113.899C47.2997 113.758 47.3703 113.617 47.582 113.476L50.2636 111.923C50.4753 111.782 50.8281 111.782 50.9692 111.923L53.2274 113.264C53.4391 113.334 53.3685 113.546 53.1568 113.687L50.4753 115.24C50.2635 115.381 49.9813 115.381 49.7696 115.24Z" fill="#24126A"/>
<path d="M53.2984 117.287L51.0403 115.946C50.8286 115.805 50.8991 115.664 51.1108 115.522L53.7924 113.97C54.0041 113.829 54.357 113.829 54.4981 113.97L56.7563 115.311C56.968 115.452 56.8974 115.593 56.6857 115.734L54.0041 117.287C53.7924 117.428 53.5101 117.428 53.2984 117.287Z" fill="#24126A"/>
<path d="M56.8273 119.333L54.5691 117.992C54.3574 117.851 54.428 117.71 54.6397 117.569L57.3213 116.016C57.533 115.875 57.8858 115.875 58.0269 116.016L60.2851 117.357C60.4968 117.498 60.4263 117.639 60.2145 117.781L57.533 119.333C57.3213 119.474 57.039 119.474 56.8273 119.333Z" fill="#24126A"/>
<path d="M61.6959 117.639L59.4377 116.299C59.226 116.228 59.2966 116.016 59.5083 115.875L61.7665 114.534C61.9782 114.393 62.331 114.393 62.4721 114.534L64.7303 115.875C64.942 116.016 64.8714 116.157 64.6597 116.299L62.4016 117.639C62.1899 117.78 61.9076 117.78 61.6959 117.639Z" fill="#24126A"/>
<path d="M65.2248 119.685L62.9666 118.344C62.7549 118.274 62.8255 118.062 63.0372 117.921L65.2953 116.58C65.507 116.439 65.8599 116.439 66.001 116.58L68.2592 117.921C68.4709 117.992 68.4003 118.203 68.1886 118.344L65.9304 119.685C65.7187 119.826 65.4365 119.826 65.2248 119.685Z" fill="#24126A"/>
<path d="M68.7527 121.732L66.4945 120.391C66.2828 120.25 66.3534 120.109 66.5651 119.968L68.8232 118.627C69.0349 118.486 69.3878 118.486 69.5289 118.627L71.7871 119.968C71.9988 120.038 71.9282 120.25 71.7165 120.391L69.4584 121.732C69.2467 121.803 68.9644 121.873 68.7527 121.732Z" fill="#24126A"/>
<path d="M72.2806 123.779L70.0224 122.438C69.8107 122.368 69.8813 122.156 70.093 122.015L72.3512 120.674C72.5629 120.533 72.9157 120.533 73.0569 120.674L75.315 122.015C75.5267 122.156 75.4562 122.297 75.2445 122.438L72.9863 123.779C72.7746 123.85 72.4923 123.85 72.2806 123.779Z" fill="#24126A"/>
<path d="M75.8085 125.824L73.5504 124.484C73.3387 124.413 73.4092 124.201 73.6209 124.06L75.8791 122.719C76.0908 122.578 76.4436 122.578 76.5848 122.719L78.843 124.06C79.0547 124.131 78.9841 124.342 78.7724 124.484L76.5142 125.824C76.3025 125.895 76.0203 125.895 75.8085 125.824Z" fill="#24126A"/>
<path d="M79.3374 127.871L77.0792 126.531C76.8675 126.39 76.9381 126.248 77.1498 126.107L79.408 124.766C79.6197 124.625 79.9725 124.625 80.1136 124.766L82.3718 126.107C82.5835 126.178 82.5129 126.39 82.3012 126.531L80.0431 127.871C79.8314 127.942 79.5491 127.942 79.3374 127.871Z" fill="#24126A"/>
<path d="M82.8663 129.918L80.6081 128.577C80.3964 128.436 80.4669 128.295 80.6787 128.153L82.9368 126.813C83.1485 126.672 83.5014 126.672 83.6425 126.813L85.9007 128.153C86.1124 128.295 86.0418 128.436 85.8301 128.577L83.5719 129.918C83.3602 129.988 83.078 129.988 82.8663 129.918Z" fill="#24126A"/>
<path d="M86.3951 131.894L84.1369 130.553C83.9252 130.412 83.9958 130.271 84.2075 130.13L86.4657 128.789C86.6774 128.648 87.0302 128.648 87.1713 128.789L89.4295 130.13C89.6412 130.271 89.5707 130.412 89.3589 130.553L87.1008 131.894C86.8891 132.035 86.6068 132.035 86.3951 131.894Z" fill="#24126A"/>
<path d="M89.9231 133.941L87.6649 132.6C87.4532 132.529 87.5237 132.318 87.7354 132.177L89.9936 130.836C90.2053 130.695 90.5581 130.695 90.6993 130.836L92.9575 132.177C93.1692 132.318 93.0986 132.459 92.8869 132.6L90.6287 133.941C90.417 134.082 90.1348 134.082 89.9231 133.941Z" fill="#24126A"/>
<path d="M93.4501 135.987L91.1919 134.646C90.9802 134.575 91.0507 134.363 91.2625 134.222L93.5206 132.882C93.7323 132.74 94.0852 132.74 94.2263 132.882L96.4845 134.222C96.6962 134.293 96.6256 134.505 96.4139 134.646L94.1557 135.987C93.944 136.057 93.6618 136.128 93.4501 135.987Z" fill="#24126A"/>
<path d="M66.9179 116.722L64.6598 115.381C64.4481 115.24 64.5186 115.099 64.7303 114.958L66.9885 113.617C67.2002 113.476 67.5531 113.476 67.6942 113.617L69.9523 114.958C70.1641 115.029 70.0935 115.24 69.8818 115.381L67.6236 116.722C67.4119 116.793 67.0591 116.793 66.9179 116.722Z" fill="#24126A"/>
<path d="M63.3197 114.605L61.0615 113.264C60.8498 113.194 60.9204 112.982 61.1321 112.841L63.3903 111.5C63.602 111.359 63.9548 111.359 64.0959 111.5L66.3541 112.841C66.5658 112.982 66.4952 113.123 66.2835 113.264L64.0254 114.605C63.8137 114.746 63.5314 114.746 63.3197 114.605Z" fill="#24126A"/>
<path d="M59.7217 112.559L54.7819 109.736C54.5702 109.595 54.6408 109.454 54.8525 109.313L57.1107 107.972C57.3224 107.831 57.6752 107.831 57.8164 107.972L62.7561 110.795C62.9678 110.865 62.8972 111.077 62.6855 111.218L60.4273 112.559C60.2156 112.63 59.9334 112.7 59.7217 112.559Z" fill="#24126A"/>
<path d="M62.2601 110.018L58.2377 107.689C58.026 107.619 58.0966 107.407 58.3083 107.266L60.5664 105.925C60.7781 105.784 61.131 105.784 61.2721 105.925L65.2945 108.254C65.5062 108.395 65.4356 108.536 65.2239 108.677L62.9657 110.018C62.754 110.159 62.4012 110.159 62.2601 110.018Z" fill="#24126A"/>
<path d="M70.4459 118.768L68.1877 117.428C67.976 117.286 68.0466 117.145 68.2583 117.004L70.5165 115.663C70.7282 115.522 71.081 115.522 71.2221 115.663L73.4803 117.004C73.692 117.145 73.6214 117.286 73.4097 117.428L71.1516 118.768C70.9399 118.839 70.587 118.839 70.4459 118.768Z" fill="#24126A"/>
<path d="M73.9738 120.744L71.7156 119.404C71.5039 119.262 71.5745 119.121 71.7862 118.98L74.0444 117.639C74.2561 117.498 74.6089 117.498 74.7501 117.639L77.0082 118.98C77.2199 119.121 77.1493 119.262 76.9376 119.404L74.6795 120.744C74.4678 120.886 74.1149 120.886 73.9738 120.744Z" fill="#24126A"/>
<path d="M77.5027 122.791L75.2445 121.45C75.0328 121.309 75.1033 121.167 75.315 121.026L77.5732 119.686C77.7849 119.544 78.1378 119.544 78.2789 119.686L80.5371 121.026C80.7488 121.167 80.6782 121.309 80.4665 121.45L78.2083 122.791C77.9966 122.932 77.6438 122.932 77.5027 122.791Z" fill="#24126A"/>
<path d="M81.0315 124.837L78.7733 123.497C78.5616 123.355 78.6322 123.214 78.8439 123.073L81.1021 121.732C81.3138 121.591 81.6666 121.591 81.8078 121.732L84.0659 123.073C84.2776 123.214 84.2071 123.355 83.9953 123.497L81.7372 124.837C81.5255 124.908 81.1726 124.979 81.0315 124.837Z" fill="#24126A"/>
<path d="M84.5604 126.884L82.3022 125.543C82.0905 125.402 82.1611 125.261 82.3728 125.119L84.6309 123.779C84.8426 123.637 85.1955 123.637 85.3366 123.779L87.5948 125.119C87.8065 125.261 87.7359 125.402 87.5242 125.543L85.266 126.884C85.0543 126.954 84.7015 126.954 84.5604 126.884Z" fill="#24126A"/>
<path d="M88.0883 128.931L85.8301 127.59C85.6184 127.519 85.689 127.308 85.9007 127.166L88.1589 125.826C88.3706 125.685 88.7234 125.685 88.8646 125.826L91.1227 127.166C91.3344 127.308 91.2638 127.449 91.0521 127.59L88.794 128.931C88.5823 129.001 88.2294 129.001 88.0883 128.931Z" fill="#24126A"/>
<path d="M91.6172 130.977L89.359 129.636C89.1473 129.565 89.2178 129.354 89.4296 129.212L91.6877 127.872C91.8994 127.73 92.2523 127.73 92.3934 127.872L94.6516 129.212C94.8633 129.283 94.7927 129.495 94.581 129.636L92.3228 130.977C92.1111 131.047 91.7583 131.047 91.6172 130.977Z" fill="#24126A"/>
<path d="M95.1451 133.023L92.8869 131.682C92.6752 131.541 92.7458 131.4 92.9575 131.259L95.2157 129.918C95.4274 129.777 95.7802 129.777 95.9213 129.918L98.1795 131.259C98.3912 131.329 98.3206 131.541 98.1089 131.682L95.8508 133.023C95.6391 133.093 95.2862 133.093 95.1451 133.023Z" fill="#24126A"/>
<path d="M98.673 134.999L96.4148 133.658C96.2031 133.587 96.2737 133.376 96.4854 133.234L98.7436 131.894C98.9553 131.752 99.3081 131.752 99.4493 131.894L101.707 133.234C101.919 133.376 101.849 133.517 101.637 133.658L99.3787 134.999C99.167 135.14 98.8142 135.14 98.673 134.999Z" fill="#24126A"/>
<path d="M104.954 138.669L99.9437 135.776C99.732 135.635 99.8026 135.494 100.014 135.353L102.272 134.012C102.484 133.871 102.837 133.871 102.978 134.012L107.988 136.905C108.2 137.046 108.13 137.187 107.918 137.328L105.66 138.669C105.448 138.74 105.095 138.74 104.954 138.669Z" fill="#24126A"/>
<path d="M111.799 134.717L107.565 132.318C107.353 132.176 107.424 132.035 107.635 131.894L109.894 130.553C110.105 130.412 110.458 130.412 110.599 130.553L114.833 132.953C115.045 133.094 114.974 133.235 114.763 133.376L112.505 134.717C112.293 134.787 111.94 134.787 111.799 134.717Z" fill="#24126A"/>
<path d="M76.5867 118.345L74.3285 117.004C74.1168 116.863 74.1874 116.722 74.3991 116.581L76.6572 115.24C76.8689 115.099 77.2218 115.099 77.3629 115.24L79.6211 116.581C79.8328 116.651 79.7622 116.863 79.5505 117.004L77.2923 118.345C77.1512 118.416 76.7984 118.416 76.5867 118.345Z" fill="#24126A"/>
<path d="M72.9866 116.228L70.7284 114.887C70.5167 114.746 70.5873 114.605 70.799 114.464L73.0571 113.123C73.2688 112.982 73.6217 112.982 73.7628 113.123L76.021 114.464C76.2327 114.534 76.1621 114.746 75.9504 114.887L73.6923 116.228C73.4805 116.369 73.1983 116.369 72.9866 116.228Z" fill="#24126A"/>
<path d="M69.3874 114.181L67.1292 112.84C66.9175 112.77 66.9881 112.558 67.1998 112.417L69.458 111.076C69.6697 110.935 70.0225 110.935 70.1637 111.076L72.4218 112.417C72.6335 112.558 72.5629 112.699 72.3512 112.84L70.0931 114.181C69.8814 114.252 69.5991 114.252 69.3874 114.181Z" fill="#24126A"/>
<path d="M65.7892 112.065L63.531 110.724C63.3193 110.583 63.3898 110.442 63.6015 110.301L65.8597 108.96C66.0714 108.819 66.4243 108.819 66.5654 108.96L68.8236 110.301C69.0353 110.371 68.9647 110.583 68.753 110.724L66.4948 112.065C66.2831 112.206 65.9303 112.206 65.7892 112.065Z" fill="#24126A"/>
<path d="M80.1137 120.391L77.8555 119.051C77.6438 118.91 77.7144 118.768 77.9261 118.627L80.1842 117.286C80.3959 117.145 80.7488 117.145 80.8899 117.286L83.1481 118.627C83.3598 118.768 83.2892 118.91 83.0775 119.051L80.8193 120.391C80.6782 120.462 80.3254 120.462 80.1137 120.391Z" fill="#24126A"/>
<path d="M83.6416 122.437L81.3834 121.097C81.1717 120.955 81.2423 120.814 81.454 120.673L83.7122 119.332C83.9239 119.191 84.2767 119.191 84.4178 119.332L86.676 120.673C86.8877 120.814 86.8172 120.955 86.6055 121.097L84.3473 122.437C84.1356 122.508 83.8533 122.508 83.6416 122.437Z" fill="#24126A"/>
<path d="M87.1714 124.414L84.9132 123.074C84.7015 123.003 84.7721 122.791 84.9838 122.65L87.2419 121.309C87.4536 121.168 87.8065 121.168 87.9476 121.309L90.2058 122.65C90.4175 122.791 90.3469 122.932 90.1352 123.074L87.877 124.414C87.6653 124.555 87.3831 124.555 87.1714 124.414Z" fill="#24126A"/>
<path d="M90.6993 126.459L88.4411 125.119C88.2294 125.048 88.3 124.836 88.5117 124.695L90.7699 123.354C90.9816 123.213 91.3344 123.213 91.4756 123.354L93.7337 124.695C93.9454 124.766 93.8749 124.977 93.6632 125.119L91.405 126.459C91.1933 126.601 90.911 126.601 90.6993 126.459Z" fill="#24126A"/>
<path d="M94.2282 128.506L91.97 127.166C91.7583 127.025 91.8289 126.883 92.0406 126.742L94.2987 125.401C94.5104 125.26 94.8633 125.26 95.0044 125.401L97.2626 126.742C97.4743 126.813 97.4037 127.025 97.192 127.166L94.9338 128.506C94.7221 128.648 94.4399 128.648 94.2282 128.506Z" fill="#24126A"/>
<path d="M97.7561 130.553L95.4979 129.213C95.2862 129.142 95.3568 128.93 95.5685 128.789L97.8267 127.448C98.0384 127.307 98.3912 127.307 98.5323 127.448L100.791 128.789C101.002 128.93 100.932 129.071 100.72 129.213L98.4618 130.553C98.2501 130.624 97.9678 130.694 97.7561 130.553Z" fill="#24126A"/>
<path d="M101.285 132.599L99.0268 131.259C98.8151 131.188 98.8856 130.976 99.0974 130.835L101.356 129.494C101.567 129.353 101.92 129.353 102.061 129.494L104.319 130.835C104.531 130.906 104.46 131.118 104.249 131.259L101.991 132.599C101.779 132.67 101.497 132.67 101.285 132.599Z" fill="#24126A"/>
<path d="M104.814 134.646L102.556 133.305C102.344 133.164 102.415 133.023 102.626 132.882L104.884 131.541C105.096 131.4 105.449 131.4 105.59 131.541L107.848 132.882C108.06 132.952 107.989 133.164 107.778 133.305L105.519 134.646C105.308 134.716 105.025 134.716 104.814 134.646Z" fill="#24126A"/>
<path d="M108.341 136.693L106.083 135.352C105.871 135.281 105.942 135.07 106.153 134.929L108.411 133.588C108.623 133.447 108.976 133.447 109.117 133.588L111.375 134.929C111.587 135.07 111.516 135.211 111.305 135.352L109.046 136.693C108.835 136.763 108.553 136.763 108.341 136.693Z" fill="#24126A"/>
<path d="M74.7519 113.335L72.4937 111.994C72.282 111.853 72.3526 111.712 72.5643 111.571L74.8225 110.23C75.0342 110.089 75.387 110.089 75.5282 110.23L77.7863 111.571C77.998 111.712 77.9275 111.853 77.7158 111.994L75.4576 113.335C75.2459 113.405 74.9636 113.405 74.7519 113.335Z" fill="#24126A"/>
<path d="M71.2231 111.288L68.9649 109.947C68.7532 109.877 68.8238 109.665 69.0355 109.524L71.2936 108.183C71.5053 108.042 71.8582 108.042 71.9993 108.183L74.2575 109.524C74.4692 109.594 74.3986 109.806 74.1869 109.947L71.9287 111.288C71.717 111.359 71.4348 111.359 71.2231 111.288Z" fill="#24126A"/>
<path d="M67.7645 109.241L65.5063 107.9C65.2946 107.83 65.3652 107.618 65.5769 107.477L67.8351 106.136C68.0468 105.995 68.3996 105.995 68.5408 106.136L70.7989 107.477C71.0106 107.618 70.9401 107.759 70.7284 107.9L68.4702 109.241C68.2585 109.312 67.9056 109.382 67.7645 109.241Z" fill="#24126A"/>
<path d="M64.2366 107.195L61.9784 105.854C61.7667 105.713 61.8373 105.572 62.049 105.431L64.3072 104.09C64.5189 103.949 64.8717 103.949 65.0128 104.09L67.271 105.431C67.4827 105.572 67.4121 105.713 67.2004 105.854L64.9423 107.195C64.7306 107.336 64.3777 107.336 64.2366 107.195Z" fill="#24126A"/>
<path d="M67.8348 105.149L65.5767 103.808C65.365 103.667 65.4355 103.526 65.6472 103.385L66.4235 102.961C66.6352 102.82 66.988 102.82 67.1292 102.961L69.3873 104.302C69.599 104.373 69.5285 104.584 69.3168 104.725L68.5405 105.149C68.3288 105.219 68.0465 105.219 67.8348 105.149Z" fill="#24126A"/>
<path d="M72.4231 107.76L70.1649 106.42C69.9532 106.349 70.0238 106.137 70.2355 105.996L71.0117 105.573C71.2234 105.432 71.5763 105.432 71.7174 105.573L73.9756 106.913C74.1873 107.055 74.1167 107.196 73.905 107.337L73.1288 107.76C72.9171 107.901 72.6348 107.901 72.4231 107.76Z" fill="#24126A"/>
<path d="M75.8816 109.806L73.6235 108.465C73.4118 108.395 73.4823 108.183 73.694 108.042L74.4703 107.618C74.682 107.477 75.0348 107.477 75.1759 107.618L77.4341 108.959C77.6458 109.1 77.5752 109.241 77.3635 109.383L76.5873 109.806C76.4462 109.877 76.0933 109.877 75.8816 109.806Z" fill="#24126A"/>
<path d="M79.4086 111.853L77.1505 110.512C76.9388 110.371 77.0093 110.23 77.221 110.089L77.9973 109.665C78.209 109.524 78.5618 109.524 78.7029 109.665L80.9611 111.006C81.1728 111.077 81.1023 111.288 80.8906 111.429L80.1143 111.853C79.9026 111.923 79.6203 111.923 79.4086 111.853Z" fill="#24126A"/>
<path d="M82.8663 113.829L80.6081 112.488C80.3964 112.347 80.4669 112.206 80.6787 112.064L81.4549 111.641C81.6666 111.5 82.0194 111.5 82.1606 111.641L84.4187 112.982C84.6304 113.052 84.5599 113.264 84.3482 113.405L83.5719 113.829C83.4308 113.899 83.078 113.97 82.8663 113.829Z" fill="#24126A"/>
<path d="M102.414 125.119L100.156 123.779C99.9439 123.708 100.014 123.496 100.226 123.355L101.002 122.932C101.214 122.791 101.567 122.791 101.708 122.932L103.966 124.273C104.178 124.414 104.107 124.555 103.896 124.696L103.119 125.119C102.908 125.19 102.625 125.19 102.414 125.119Z" fill="#24126A"/>
<path d="M105.871 127.095L103.613 125.754C103.401 125.613 103.472 125.472 103.684 125.331L104.46 124.908C104.672 124.766 105.025 124.766 105.166 124.908L107.424 126.248C107.636 126.39 107.565 126.531 107.353 126.672L106.577 127.095C106.436 127.236 106.083 127.236 105.871 127.095Z" fill="#24126A"/>
<path d="M109.399 129.142L107.141 127.801C106.929 127.731 107 127.519 107.212 127.378L107.988 126.954C108.2 126.813 108.552 126.813 108.694 126.954L110.952 128.295C111.163 128.436 111.093 128.578 110.881 128.719L110.105 129.142C109.893 129.213 109.611 129.213 109.399 129.142Z" fill="#24126A"/>
<path d="M112.929 131.188L110.671 129.848C110.459 129.777 110.53 129.565 110.741 129.424L111.518 129.001C111.729 128.86 112.082 128.86 112.223 129.001L114.482 130.342C114.693 130.483 114.623 130.624 114.411 130.765L113.635 131.188C113.423 131.259 113.07 131.259 112.929 131.188Z" fill="#24126A"/>
<path d="M78.2799 115.31L76.0217 113.97C75.81 113.829 75.8806 113.687 76.0923 113.546L78.3504 112.205C78.5621 112.064 78.915 112.064 79.0561 112.205L81.3143 113.546C81.526 113.687 81.4554 113.829 81.2437 113.97L78.9855 115.31C78.7738 115.452 78.4916 115.452 78.2799 115.31Z" fill="#24126A"/>
<path d="M81.8069 117.357L79.5487 116.017C79.337 115.946 79.4076 115.734 79.6193 115.593L81.8774 114.252C82.0891 114.111 82.442 114.111 82.5831 114.252L84.8413 115.593C85.053 115.734 84.9824 115.875 84.7707 116.017L82.5125 117.357C82.3008 117.498 82.0186 117.498 81.8069 117.357Z" fill="#24126A"/>
<path d="M85.3366 119.404L83.0785 118.063C82.8668 117.992 82.9373 117.78 83.149 117.639L85.4072 116.299C85.6189 116.157 85.9717 116.157 86.1129 116.299L88.371 117.639C88.5828 117.71 88.5122 117.922 88.3005 118.063L86.0423 119.404C85.8306 119.474 85.5483 119.545 85.3366 119.404Z" fill="#24126A"/>
<path d="M88.8646 121.449L86.6064 120.109C86.3947 119.967 86.4653 119.826 86.677 119.685L88.9351 118.344C89.1468 118.203 89.4997 118.203 89.6408 118.344L91.899 119.685C92.1107 119.756 92.0401 119.967 91.8284 120.109L89.5703 121.449C89.3586 121.52 89.0763 121.52 88.8646 121.449Z" fill="#24126A"/>
<path d="M92.3934 123.497L90.1353 122.156C89.9236 122.015 89.9941 121.873 90.2058 121.732L92.464 120.392C92.6757 120.25 93.0285 120.25 93.1697 120.392L95.4278 121.732C95.6395 121.873 95.569 122.015 95.3573 122.156L93.0991 123.497C92.8874 123.567 92.6051 123.567 92.3934 123.497Z" fill="#24126A"/>
<path d="M95.9214 125.544L93.6632 124.203C93.4515 124.132 93.522 123.921 93.7338 123.779L95.9919 122.439C96.2036 122.297 96.5565 122.297 96.6976 122.439L98.9558 123.779C99.1675 123.921 99.0969 124.062 98.8852 124.203L96.627 125.544C96.4153 125.614 96.1331 125.614 95.9214 125.544Z" fill="#24126A"/>
<path d="M99.4493 127.589L97.1911 126.248C96.9794 126.107 97.05 125.966 97.2617 125.824L99.5198 124.484C99.7316 124.342 100.084 124.342 100.226 124.484L102.484 125.824C102.695 125.895 102.625 126.107 102.413 126.248L100.155 127.589C99.9433 127.659 99.661 127.659 99.4493 127.589Z" fill="#24126A"/>
<path d="M102.978 129.566L100.72 128.225C100.508 128.084 100.579 127.943 100.791 127.801L103.049 126.461C103.26 126.32 103.613 126.32 103.754 126.461L106.013 127.801C106.224 127.943 106.154 128.084 105.942 128.225L103.684 129.566C103.472 129.707 103.19 129.707 102.978 129.566Z" fill="#24126A"/>
<path d="M106.506 131.612L104.248 130.271C104.036 130.13 104.107 129.988 104.318 129.847L106.577 128.507C106.788 128.365 107.141 128.365 107.282 128.507L109.54 129.847C109.752 129.988 109.682 130.13 109.47 130.271L107.212 131.612C107 131.753 106.647 131.753 106.506 131.612Z" fill="#24126A"/>
<path d="M58.0967 115.593L51.3928 111.711C51.1811 111.57 51.2516 111.429 51.4633 111.288L53.7215 109.947C53.9332 109.806 54.286 109.806 54.4272 109.947L61.1311 113.828C61.3428 113.97 61.2723 114.111 61.0606 114.252L58.8024 115.593C58.5907 115.663 58.3084 115.663 58.0967 115.593Z" fill="#24126A"/>
<path d="M101.427 140.573L94.7226 136.692C94.5109 136.551 94.5814 136.41 94.7932 136.269L97.0513 134.928C97.263 134.787 97.6159 134.787 97.757 134.928L104.461 138.809C104.673 138.95 104.602 139.091 104.39 139.233L102.132 140.573C101.92 140.714 101.638 140.714 101.427 140.573Z" fill="#24126A"/>
<path d="M87.312 136.975L85.0538 135.634C84.8421 135.493 84.9127 135.352 85.1244 135.211L87.806 133.658C88.0177 133.517 88.3706 133.517 88.5117 133.658L90.7698 134.999C90.9815 135.14 90.911 135.281 90.6993 135.422L88.0177 136.975C87.8766 137.045 87.5237 137.045 87.312 136.975Z" fill="#24126A"/>
<path d="M61.6963 122.155L58.0267 120.038C57.815 119.968 57.8856 119.756 58.0973 119.615L60.7789 118.062C60.9906 117.921 61.3434 117.921 61.4846 118.062L65.1541 120.179C65.3658 120.32 65.2952 120.462 65.0835 120.603L62.4019 122.155C62.2608 122.296 61.908 122.296 61.6963 122.155Z" fill="#24126A"/>
<path d="M83.9251 134.999L80.2556 132.882C80.0439 132.741 80.1144 132.6 80.3261 132.458L83.0077 130.906C83.2194 130.765 83.5723 130.765 83.7134 130.906L87.3829 133.023C87.5946 133.164 87.5241 133.305 87.3124 133.446L84.6308 134.999C84.4191 135.069 84.1368 135.14 83.9251 134.999Z" fill="#24126A"/>
<path d="M66.848 125.119L63.1785 123.002C62.9667 122.932 63.0373 122.72 63.249 122.579L65.9306 121.026C66.1423 120.885 66.4952 120.885 66.6363 121.026L70.3058 123.143C70.5175 123.285 70.4469 123.426 70.2352 123.567L67.5537 125.119C67.342 125.19 66.9891 125.19 66.848 125.119Z" fill="#24126A"/>
<path d="M66.6352 121.026L82.513 130.2C82.7247 130.341 82.7247 130.482 82.513 130.624L79.7608 132.176C79.5491 132.317 79.2669 132.317 79.0552 132.176L63.1774 123.002L66.6352 121.026Z" fill="#24126A"/>
<path d="M97.1919 140.644L99.7324 142.126C99.8735 142.197 99.8735 142.338 99.6618 142.479L98.5327 143.114C98.3916 143.185 98.1093 143.255 97.9682 143.114L95.4278 141.632C95.2866 141.562 95.2866 141.421 95.4983 141.279L96.6274 140.644C96.7685 140.574 97.0508 140.574 97.1919 140.644Z" fill="#24126A"/>
<path d="M93.6631 138.598L96.2035 140.08C96.3447 140.151 96.3447 140.292 96.133 140.433L95.0039 141.068C94.8627 141.139 94.5805 141.209 94.4393 141.068L91.8989 139.586C91.7578 139.516 91.7578 139.374 91.9695 139.233L93.0986 138.598C93.2397 138.528 93.522 138.528 93.6631 138.598Z" fill="#24126A"/>
<path d="M90.1352 136.551L92.6756 138.033C92.8168 138.104 92.8167 138.245 92.605 138.386L91.476 139.021C91.3348 139.092 91.0526 139.162 90.9114 139.021L88.371 137.539C88.2298 137.469 88.2298 137.328 88.4415 137.186L89.5706 136.551C89.7118 136.481 89.994 136.481 90.1352 136.551Z" fill="#24126A"/>
<path d="M95.5682 137.469L98.1086 138.951C98.2497 139.021 98.2497 139.163 98.038 139.304L96.9089 139.939C96.7678 140.009 96.4855 140.08 96.3444 139.939L93.804 138.457C93.6628 138.386 93.6628 138.245 93.8745 138.104L95.0036 137.469C95.1447 137.398 95.427 137.398 95.5682 137.469Z" fill="#24126A"/>
</g>
<path d="M131.559 82.567C131.418 82.567 131.206 82.4965 130.994 82.4259C130.43 82.1436 130.147 81.438 130.218 80.8734C130.289 80.5911 130.43 80.3794 130.641 80.3089C130.924 80.1677 131.206 80.2383 131.488 80.3794C132.053 80.6617 132.335 81.3674 132.264 81.9319C132.194 82.2142 132.053 82.4259 131.841 82.4965C131.77 82.567 131.7 82.567 131.559 82.567ZM131.065 80.5206C130.994 80.5206 130.924 80.5206 130.853 80.5911C130.712 80.6617 130.571 80.8028 130.571 81.0145C130.43 81.4379 130.712 82.0731 131.206 82.3553C131.418 82.4965 131.629 82.4965 131.841 82.4259C131.982 82.3553 132.123 82.2142 132.123 82.0025C132.264 81.5085 131.982 80.944 131.488 80.6617C131.347 80.5206 131.206 80.5206 131.065 80.5206Z" fill="#16E09E"/>
<path d="M134.452 84.2603C134.311 84.2603 134.099 84.1898 133.888 84.1192C133.323 83.8369 133.041 83.1312 133.111 82.5667C133.182 82.2844 133.323 82.0727 133.535 82.0022C133.817 81.861 134.099 81.9316 134.382 82.0727C134.946 82.355 135.228 83.0607 135.158 83.6252C135.087 83.9075 134.946 84.1192 134.734 84.1898C134.734 84.2603 134.593 84.2603 134.452 84.2603ZM133.958 82.1433C133.888 82.1433 133.817 82.1433 133.746 82.2139C133.605 82.2844 133.464 82.4256 133.464 82.6373C133.323 83.0607 133.605 83.6958 134.099 83.9781C134.311 84.1192 134.523 84.1192 134.734 84.0486C134.876 83.9781 135.017 83.8369 135.017 83.6252C135.087 83.2018 134.805 82.5667 134.382 82.2844C134.24 82.2139 134.099 82.1433 133.958 82.1433Z" fill="#16E09E"/>
<path d="M138.051 85.3193C137.91 85.8133 137.416 86.025 136.922 85.7427C136.428 85.4604 136.146 84.8253 136.216 84.3313C136.358 83.8374 136.852 83.6257 137.346 83.9079C137.84 84.1196 138.122 84.8253 138.051 85.3193Z" fill="#16E09E"/>
<path d="M82.3021 53.2108L80.7497 52.2934L80.8202 51.5878L82.3727 52.5052L82.3021 53.2108Z" fill="#16E09E"/>
<path d="M84.5607 54.4808L83.0082 53.634L83.0788 52.9283L84.6313 53.7752L84.5607 54.4808Z" fill="#16E09E"/>
<path d="M80.0446 51.9407L76.6573 49.9648L76.7279 49.2592L80.1857 51.1645L80.0446 51.9407Z" fill="#16E09E"/>
<path d="M162.042 186.797C161.054 186.797 160.136 186.585 159.431 186.161L145.458 178.117C144.753 177.693 144.329 177.129 144.329 176.494C144.329 175.859 144.753 175.294 145.458 174.871L159.431 166.826C160.913 165.979 163.241 165.979 164.723 166.826L178.696 174.871C179.401 175.294 179.825 175.859 179.825 176.494C179.825 177.129 179.401 177.693 178.696 178.117L164.723 186.161C163.947 186.585 163.03 186.797 162.042 186.797ZM159.572 185.95C160.983 186.726 163.241 186.726 164.582 185.95L178.555 177.905C179.19 177.552 179.543 177.058 179.543 176.494C179.543 176 179.19 175.506 178.555 175.082L164.582 167.108C163.171 166.332 160.913 166.332 159.572 167.108L145.599 175.153C144.964 175.506 144.611 176 144.611 176.564C144.611 177.058 144.964 177.552 145.599 177.976L159.572 185.95Z" fill="#16E09E"/>
<path opacity="0.4" d="M180.179 173.459V168.66L179.332 168.166C179.05 169.648 177.356 170.636 175.874 170.848L165.854 176.705L161.478 178.257L147.577 171.059L147.929 170.848C146.73 170.283 146.095 169.013 145.459 167.884L144.542 168.448L143.978 168.59V173.459C143.978 174.094 144.401 174.729 145.177 175.152L159.15 183.197C160.773 184.115 163.454 184.115 165.077 183.197L179.05 175.152C179.826 174.658 180.249 174.094 180.249 173.459C180.179 173.459 180.179 173.459 180.179 173.459Z" fill="#16E09E"/>
<path d="M180.178 169.154V165.978L179.331 165.484C179.049 166.966 177.355 167.954 175.873 168.166L165.853 174.023L161.477 175.576L147.576 168.378L147.928 168.166C146.729 167.601 146.094 166.331 145.459 165.202L144.541 165.767L143.977 165.908V169.154C143.977 169.789 144.4 170.424 145.176 170.848L159.149 178.892C160.772 179.81 163.453 179.81 165.076 178.892L179.049 170.848C179.825 170.354 180.249 169.789 180.249 169.154C180.178 169.225 180.178 169.225 180.178 169.154Z" fill="url(#paint10_linear_123_11725)"/>
<path opacity="0.3" d="M175.873 168.236L165.853 174.094L162.042 175.434V179.739C163.1 179.739 164.159 179.527 165.006 179.033L178.978 170.989C179.754 170.495 180.178 169.93 180.178 169.295V169.224V166.049L179.402 165.555H179.331C179.049 167.037 177.285 168.025 175.873 168.236Z" fill="#0F054C"/>
<path d="M147.857 168.237L161.053 160.616C161.547 160.334 162.394 160.334 162.958 160.616L175.943 168.096L175.802 168.167C177.284 167.955 179.048 166.967 179.259 165.485L164.652 157.37L160.418 156.241L156.96 158.287L145.316 165.203C146.022 166.402 146.657 167.743 147.857 168.237Z" fill="url(#paint11_linear_123_11725)"/>
<path opacity="0.3" d="M162.042 156.734L160.489 156.311L157.031 158.357L145.388 165.273C146.023 166.402 146.658 167.672 147.858 168.237L161.054 160.615C161.336 160.474 161.689 160.404 161.971 160.404V156.734H162.042Z" fill="#0F054C"/>
<path d="M159.078 175.788L145.105 167.743C143.482 166.825 143.482 165.273 145.105 164.285L159.078 156.24C160.701 155.323 163.382 155.323 165.005 156.24L178.978 164.285C180.601 165.202 180.601 166.755 178.978 167.672L165.005 175.717C163.382 176.705 160.701 176.705 159.078 175.788ZM163.029 157.44C162.535 157.158 161.689 157.158 161.124 157.44L147.152 165.485C146.658 165.767 146.658 166.261 147.152 166.614L161.124 174.658C161.618 174.941 162.465 174.941 163.029 174.658L177.002 166.614C177.496 166.331 177.496 165.837 177.002 165.485L163.029 157.44Z" fill="url(#paint12_linear_123_11725)"/>
<path d="M176.93 165.484L162.958 157.44C162.464 157.157 161.617 157.157 161.053 157.44L147.08 165.484C146.727 165.696 146.586 165.978 146.727 166.261C146.798 166.119 146.868 165.978 147.08 165.908L161.053 157.863C161.547 157.581 162.393 157.581 162.958 157.863L176.93 165.908C177.071 165.978 177.213 166.119 177.283 166.261C177.424 165.978 177.283 165.696 176.93 165.484Z" fill="white"/>
<path d="M178.978 167.743L165.005 175.788C163.382 176.705 160.7 176.705 159.077 175.788L145.105 167.743C144.399 167.32 143.976 166.755 143.905 166.261C143.835 166.967 144.188 167.672 145.105 168.166L159.077 176.211C160.7 177.128 163.382 177.128 165.005 176.211L178.978 168.166C179.895 167.672 180.318 166.967 180.177 166.261C180.107 166.755 179.683 167.32 178.978 167.743Z" fill="white"/>
<path d="M159.501 175.576L145.528 167.531C144.117 166.685 144.117 165.414 145.528 164.568L159.501 156.523C160.912 155.676 163.241 155.676 164.652 156.523L178.625 164.568C180.036 165.414 180.036 166.685 178.625 167.531L164.652 175.576C163.17 176.352 160.912 176.352 159.501 175.576ZM163.382 157.158C162.676 156.735 161.406 156.735 160.7 157.158L146.728 165.203C146.022 165.626 146.022 166.332 146.728 166.755L160.7 174.8C161.406 175.223 162.676 175.223 163.382 174.8L177.354 166.755C178.06 166.332 178.06 165.626 177.354 165.203L163.382 157.158Z" fill="url(#paint13_linear_123_11725)"/>
<path opacity="0.4" d="M163.03 157.44C162.536 157.157 161.689 157.157 161.125 157.44L147.152 165.484C146.658 165.767 146.658 166.261 147.152 166.613L161.125 174.658C161.619 174.94 162.466 174.94 163.03 174.658L177.003 166.613C177.497 166.331 177.497 165.837 177.003 165.484L163.03 157.44Z" fill="#16E09E"/>
<path opacity="0.5" d="M177.355 165.978V116.228H146.728V165.978C146.728 166.19 146.869 166.402 147.152 166.543L161.124 174.587C161.618 174.87 162.465 174.87 163.029 174.587L177.002 166.543C177.214 166.402 177.355 166.19 177.355 165.978Z" fill="url(#paint14_linear_123_11725)"/>
<path d="M20.0598 84.8258C19.0719 84.8258 18.1545 84.6141 17.4488 84.1907L3.47637 76.1459C2.77069 75.7225 2.34729 75.158 2.34729 74.5229C2.34729 73.8878 2.77069 73.3232 3.47637 72.8998L17.4488 64.8551C18.9307 64.0083 21.2595 64.0083 22.7414 64.8551L36.7138 72.8998C37.4195 73.3232 37.8429 73.8878 37.8429 74.5229C37.8429 75.158 37.4195 75.7225 36.7138 76.1459L22.7414 84.1907C21.9651 84.6141 21.0478 84.8258 20.0598 84.8258ZM17.5899 83.979C19.0013 84.7552 21.1889 84.7552 22.6002 83.979L36.5727 75.9342C37.2078 75.5814 37.5606 75.0874 37.5606 74.5229C37.5606 74.0289 37.2078 73.5349 36.5727 73.1115L22.6002 65.0668C21.1889 64.2905 19.0013 64.2905 17.5899 65.0668L3.6175 73.1115C2.98239 73.4644 2.62956 73.9583 2.62956 74.5229C2.62956 75.0168 2.98239 75.5108 3.6175 75.9342L17.5899 83.979Z" fill="#16E09E"/>
<path opacity="0.4" d="M38.1954 71.4878V66.6892L37.3486 66.1952C37.0663 67.6772 35.3727 68.6651 33.8907 68.8768L23.8701 74.7339L19.4949 76.2864L5.59304 69.0885L5.94588 68.8768C4.74623 68.3123 4.11111 67.042 3.476 65.913L2.55861 66.4775L1.99408 66.6186V71.4878C1.99408 72.1229 2.41748 72.758 3.19373 73.1814L17.1662 81.2262C18.7892 82.1436 21.4708 82.1436 23.0939 81.2262L37.0663 73.1814C37.8425 72.6875 38.2659 72.1229 38.2659 71.4878C38.1954 71.5584 38.1954 71.4878 38.1954 71.4878Z" fill="#16E09E"/>
<path d="M38.1949 67.2533V64.0778L37.3481 63.5838C37.0659 65.0657 35.3722 66.0537 33.8903 66.2654L23.8697 72.1225L19.4945 73.675L5.59262 66.4771L5.94546 66.2654C4.7458 65.7008 4.11068 64.4306 3.47557 63.3015L2.55819 63.8661L1.99365 64.0072V67.2533C1.99365 67.8884 2.41706 68.5235 3.1933 68.9469L17.1657 76.9917C18.7888 77.9091 21.4704 77.9091 23.0934 76.9917L37.0658 68.9469C37.8421 68.453 38.2655 67.8884 38.2655 67.2533C38.1949 67.2533 38.1949 67.2533 38.1949 67.2533Z" fill="url(#paint15_linear_123_11725)"/>
<path opacity="0.3" d="M33.8902 66.2656L23.8696 72.1227L20.0589 73.4635V77.7681C21.1174 77.7681 22.176 77.5564 23.0228 77.0624L36.9952 69.0177C37.7715 68.5237 38.1948 67.9592 38.1948 67.3241V67.2535V64.0779L37.4186 63.6545H37.348C37.0658 65.0659 35.3016 66.0538 33.8902 66.2656Z" fill="#0F054C"/>
<path d="M17.0948 73.8167L3.12238 65.772C1.49933 64.8546 1.49933 63.3021 3.12238 62.3142L17.0948 54.2695C18.7179 53.3521 21.3994 53.3521 23.0225 54.2695L36.9949 62.3142C38.618 63.2316 38.618 64.7841 36.9949 65.7014L23.0225 73.8167C21.3994 74.8047 18.7179 74.8047 17.0948 73.8167Z" fill="url(#paint16_linear_123_11725)"/>
<path d="M36.9941 65.7718L23.0217 73.8166C21.3986 74.734 18.7171 74.734 17.094 73.8166L3.12157 65.7718C2.41589 65.3484 1.99249 64.7839 1.92192 64.2899C1.85135 64.9956 2.20419 65.7013 3.12157 66.1952L17.094 74.24C18.7171 75.1574 21.3986 75.1574 23.0217 74.24L36.9941 66.1952C37.9115 65.7013 38.3349 64.9956 38.1938 64.2899C38.1232 64.7839 37.6998 65.3484 36.9941 65.7718Z" fill="white"/>
<path d="M110.952 95.4108C110.599 95.4108 110.247 95.3402 109.894 95.1285L90.417 83.9082C89.2173 83.2025 88.5822 81.5795 88.935 80.2387C89.1467 79.533 89.4996 79.039 90.0641 78.8273C90.6287 78.6156 91.1932 78.6862 91.8283 78.9685L111.305 90.1887C112.505 90.8944 113.14 92.5175 112.787 93.8583C112.575 94.5639 112.222 95.0579 111.658 95.2696C111.376 95.4107 111.164 95.4108 110.952 95.4108ZM90.7698 78.8979C90.5581 78.8979 90.3464 78.9684 90.2053 79.039C89.7113 79.2507 89.3584 79.6741 89.2173 80.2387C88.8645 81.5089 89.4996 82.9908 90.5581 83.6259L110.035 94.8462C110.529 95.1285 111.093 95.199 111.587 94.9873C112.081 94.7756 112.434 94.3522 112.575 93.7171C112.928 92.4469 112.293 90.965 111.234 90.3299L91.7577 79.1096C91.4049 79.039 91.0521 78.8979 90.7698 78.8979Z" fill="#16E09E"/>
<path d="M108.34 206.626C107.141 206.626 106.012 206.344 105.094 205.85L48.9928 173.459C48.0754 172.965 47.6519 172.259 47.6519 171.554C47.6519 170.848 48.1459 170.142 48.9928 169.648L60.8481 162.803L60.9893 163.015L49.1339 169.86C48.3576 170.354 47.8637 170.919 47.8637 171.554C47.8637 172.189 48.2871 172.824 49.1339 173.247L105.235 205.638C106.929 206.626 109.752 206.626 111.445 205.638L152.516 181.998L152.657 182.209L111.586 205.85C110.669 206.414 109.54 206.626 108.34 206.626Z" fill="#16E09E"/>
</g>
<defs>
<linearGradient id="paint0_linear_123_11725" x1="132.454" y1="140.56" x2="13.8082" y2="140.56" gradientUnits="userSpaceOnUse">
<stop stop-color="#5761D7"/>
<stop offset="0.1779" stop-color="#5C66D9"/>
<stop offset="0.3876" stop-color="#6A73DF"/>
<stop offset="0.6134" stop-color="#8289E8"/>
<stop offset="0.849" stop-color="#A3A7F5"/>
<stop offset="1" stop-color="#BCBEFF"/>
</linearGradient>
<linearGradient id="paint1_linear_123_11725" x1="94.8133" y1="137.799" x2="-23.8329" y2="137.799" gradientUnits="userSpaceOnUse">
<stop stop-color="#C0BFF6"/>
<stop offset="0.2938" stop-color="#C5C4F7"/>
<stop offset="0.6399" stop-color="#D3D2F9"/>
<stop offset="1" stop-color="#E9E9FD"/>
</linearGradient>
<linearGradient id="paint2_linear_123_11725" x1="183.992" y1="4.66007" x2="170.937" y2="87.9301" gradientUnits="userSpaceOnUse">
<stop stop-color="#16E09E"/>
<stop offset="0.1055" stop-color="#37BF9E"/>
<stop offset="1" stop-color="#16E09E" stop-opacity="0"/>
</linearGradient>
<linearGradient id="paint3_linear_123_11725" x1="201.986" y1="-9.45293" x2="177.288" y2="100.986" gradientUnits="userSpaceOnUse">
<stop stop-color="#16E09E"/>
<stop offset="0.1055" stop-color="#37BF9E"/>
<stop offset="1" stop-color="#16E09E" stop-opacity="0"/>
</linearGradient>
<linearGradient id="paint4_linear_123_11725" x1="145.908" y1="85.752" x2="61.9447" y2="85.752" gradientUnits="userSpaceOnUse">
<stop stop-color="#C0BFF6"/>
<stop offset="0.2938" stop-color="#C5C4F7"/>
<stop offset="0.6399" stop-color="#D3D2F9"/>
<stop offset="1" stop-color="#E9E9FD"/>
</linearGradient>
<linearGradient id="paint5_linear_123_11725" x1="145.906" y1="107.284" x2="131.489" y2="107.284" gradientUnits="userSpaceOnUse">
<stop stop-color="#5761D7"/>
<stop offset="0.1779" stop-color="#5C66D9"/>
<stop offset="0.3876" stop-color="#6A73DF"/>
<stop offset="0.6134" stop-color="#8289E8"/>
<stop offset="0.849" stop-color="#A3A7F5"/>
<stop offset="1" stop-color="#BCBEFF"/>
</linearGradient>
<linearGradient id="paint6_linear_123_11725" x1="134.657" y1="130.779" x2="16.0744" y2="130.779" gradientUnits="userSpaceOnUse">
<stop stop-color="#5761D7"/>
<stop offset="0.1779" stop-color="#5C66D9"/>
<stop offset="0.3876" stop-color="#6A73DF"/>
<stop offset="0.6134" stop-color="#8289E8"/>
<stop offset="0.849" stop-color="#A3A7F5"/>
<stop offset="1" stop-color="#BCBEFF"/>
</linearGradient>
<linearGradient id="paint7_linear_123_11725" x1="94.814" y1="127.536" x2="-23.8321" y2="127.536" gradientUnits="userSpaceOnUse">
<stop stop-color="#C0BFF6"/>
<stop offset="0.2938" stop-color="#C5C4F7"/>
<stop offset="0.6399" stop-color="#D3D2F9"/>
<stop offset="1" stop-color="#E9E9FD"/>
</linearGradient>
<linearGradient id="paint8_linear_123_11725" x1="180.258" y1="104.681" x2="61.6751" y2="104.681" gradientUnits="userSpaceOnUse">
<stop stop-color="#5761D7"/>
<stop offset="0.1779" stop-color="#5C66D9"/>
<stop offset="0.3876" stop-color="#6A73DF"/>
<stop offset="0.6134" stop-color="#8289E8"/>
<stop offset="0.849" stop-color="#A3A7F5"/>
<stop offset="1" stop-color="#BCBEFF"/>
</linearGradient>
<linearGradient id="paint9_linear_123_11725" x1="140.415" y1="101.439" x2="21.7684" y2="101.439" gradientUnits="userSpaceOnUse">
<stop stop-color="#C0BFF6"/>
<stop offset="0.2938" stop-color="#C5C4F7"/>
<stop offset="0.6399" stop-color="#D3D2F9"/>
<stop offset="1" stop-color="#E9E9FD"/>
</linearGradient>
<linearGradient id="paint10_linear_123_11725" x1="147.514" y1="159.736" x2="176.313" y2="176.363" gradientUnits="userSpaceOnUse">
<stop stop-color="#BCBEFF"/>
<stop offset="0.2271" stop-color="#AAADF8"/>
<stop offset="0.6802" stop-color="#7C83E5"/>
<stop offset="1" stop-color="#5761D7"/>
</linearGradient>
<linearGradient id="paint11_linear_123_11725" x1="149.242" y1="158.617" x2="174.924" y2="173.445" gradientUnits="userSpaceOnUse">
<stop offset="0.2421" stop-color="#5761D7"/>
<stop offset="0.3923" stop-color="#7A82E5"/>
<stop offset="0.5463" stop-color="#979CF0"/>
<stop offset="0.7" stop-color="#ACAFF8"/>
<stop offset="0.8519" stop-color="#B8BAFD"/>
<stop offset="1" stop-color="#BCBEFF"/>
</linearGradient>
<linearGradient id="paint12_linear_123_11725" x1="143.903" y1="166.021" x2="180.2" y2="166.021" gradientUnits="userSpaceOnUse">
<stop stop-color="#E9E9FD"/>
<stop offset="0.3601" stop-color="#D3D2F9"/>
<stop offset="0.7062" stop-color="#C5C4F7"/>
<stop offset="1" stop-color="#C0BFF6"/>
</linearGradient>
<linearGradient id="paint13_linear_123_11725" x1="144.46" y1="166.022" x2="179.642" y2="166.022" gradientUnits="userSpaceOnUse">
<stop stop-color="#E9E9FD"/>
<stop offset="0.3601" stop-color="#D3D2F9"/>
<stop offset="0.7062" stop-color="#C5C4F7"/>
<stop offset="1" stop-color="#C0BFF6"/>
</linearGradient>
<linearGradient id="paint14_linear_123_11725" x1="162.05" y1="174.854" x2="162.05" y2="127.448" gradientUnits="userSpaceOnUse">
<stop stop-color="#16E09E"/>
<stop offset="0.1055" stop-color="#37BF8E"/>
<stop offset="1" stop-color="#16E09E" stop-opacity="0"/>
</linearGradient>
<linearGradient id="paint15_linear_123_11725" x1="5.52607" y1="57.7775" x2="34.3246" y2="74.4044" gradientUnits="userSpaceOnUse">
<stop stop-color="#BCBEFF"/>
<stop offset="0.2271" stop-color="#AAADF8"/>
<stop offset="0.6802" stop-color="#7C83E5"/>
<stop offset="1" stop-color="#5761D7"/>
</linearGradient>
<linearGradient id="paint16_linear_123_11725" x1="1.91469" y1="64.0631" x2="38.2117" y2="64.0631" gradientUnits="userSpaceOnUse">
<stop stop-color="#E9E9FD"/>
<stop offset="0.3601" stop-color="#D3D2F9"/>
<stop offset="0.7062" stop-color="#C5C4F7"/>
<stop offset="1" stop-color="#C0BFF6"/>
</linearGradient>
<clipPath id="clip0_123_11725">
<rect width="216.324" height="207.147" fill="white" transform="translate(0.675781 0.426514)"/>
</clipPath>
</defs>
</svg>
