<svg width="105" height="32" viewBox="0 0 105 32" fill="none" xmlns="http://www.w3.org/2000/svg">
<path d="M22.4987 25.9988L17.6654 21.1655M20.2761 14.8879C20.2761 19.7971 16.2964 23.7768 11.3872 23.7768C6.47803 23.7768 2.49834 19.7971 2.49834 14.8879C2.49834 9.97872 6.47803 5.99902 11.3872 5.99902C16.2964 5.99902 20.2761 9.97872 20.2761 14.8879Z" stroke="#727D99" stroke-width="2.4" stroke-linecap="round" stroke-linejoin="round"/>
<path d="M34.6 23V9H36.6V23H34.6ZM46.1714 12.3C47.0381 12.3 47.7981 12.4667 48.4514 12.8C49.1181 13.1333 49.6381 13.64 50.0114 14.32C50.3847 15 50.5714 15.86 50.5714 16.9V23H48.6514V17.12C48.6514 16.0933 48.3981 15.32 47.8914 14.8C47.3981 14.28 46.6981 14.02 45.7914 14.02C45.1114 14.02 44.5181 14.1533 44.0114 14.42C43.5047 14.6867 43.1114 15.08 42.8314 15.6C42.5647 16.12 42.4314 16.7667 42.4314 17.54V23H40.5114V12.4H42.3514V15.26L42.0514 14.5C42.3981 13.8067 42.9314 13.2667 43.6514 12.88C44.3714 12.4933 45.2114 12.3 46.1714 12.3ZM58.5047 23.12C57.478 23.12 56.558 22.8933 55.7447 22.44C54.9447 21.9867 54.3114 21.3533 53.8447 20.54C53.378 19.7267 53.1447 18.78 53.1447 17.7C53.1447 16.62 53.378 15.68 53.8447 14.88C54.3114 14.0667 54.9447 13.4333 55.7447 12.98C56.558 12.5267 57.478 12.3 58.5047 12.3C59.398 12.3 60.2047 12.5 60.9247 12.9C61.6447 13.3 62.218 13.9 62.6447 14.7C63.0847 15.5 63.3047 16.5 63.3047 17.7C63.3047 18.9 63.0914 19.9 62.6647 20.7C62.2514 21.5 61.6847 22.1067 60.9647 22.52C60.2447 22.92 59.4247 23.12 58.5047 23.12ZM58.6647 21.44C59.3314 21.44 59.9314 21.2867 60.4647 20.98C61.0114 20.6733 61.438 20.24 61.7447 19.68C62.0647 19.1067 62.2247 18.4467 62.2247 17.7C62.2247 16.94 62.0647 16.2867 61.7447 15.74C61.438 15.18 61.0114 14.7467 60.4647 14.44C59.9314 14.1333 59.3314 13.98 58.6647 13.98C57.9847 13.98 57.378 14.1333 56.8447 14.44C56.3114 14.7467 55.8847 15.18 55.5647 15.74C55.2447 16.2867 55.0847 16.94 55.0847 17.7C55.0847 18.4467 55.2447 19.1067 55.5647 19.68C55.8847 20.24 56.3114 20.6733 56.8447 20.98C57.378 21.2867 57.9847 21.44 58.6647 21.44ZM62.2847 23V20.14L62.4047 17.68L62.2047 15.22V8.16H64.1247V23H62.2847ZM67.7575 23V12.4H69.6775V23H67.7575ZM68.7175 10.36C68.3442 10.36 68.0308 10.24 67.7775 10C67.5375 9.76 67.4175 9.46667 67.4175 9.12C67.4175 8.76 67.5375 8.46 67.7775 8.22C68.0308 7.98 68.3442 7.86 68.7175 7.86C69.0908 7.86 69.3975 7.98 69.6375 8.22C69.8908 8.44667 70.0175 8.73333 70.0175 9.08C70.0175 9.44 69.8975 9.74667 69.6575 10C69.4175 10.24 69.1042 10.36 68.7175 10.36ZM77.9834 27C77.0101 27 76.0634 26.86 75.1434 26.58C74.2368 26.3133 73.4968 25.9267 72.9234 25.42L73.8434 23.94C74.3368 24.3667 74.9434 24.7 75.6634 24.94C76.3834 25.1933 77.1368 25.32 77.9234 25.32C79.1768 25.32 80.0968 25.0267 80.6834 24.44C81.2701 23.8533 81.5634 22.96 81.5634 21.76V19.52L81.7634 17.42L81.6634 15.3V12.4H83.4834V21.56C83.4834 23.4267 83.0168 24.8 82.0834 25.68C81.1501 26.56 79.7834 27 77.9834 27ZM77.7434 22.56C76.7168 22.56 75.7968 22.3467 74.9834 21.92C74.1834 21.48 73.5434 20.8733 73.0634 20.1C72.5968 19.3267 72.3634 18.4333 72.3634 17.42C72.3634 16.3933 72.5968 15.5 73.0634 14.74C73.5434 13.9667 74.1834 13.3667 74.9834 12.94C75.7968 12.5133 76.7168 12.3 77.7434 12.3C78.6501 12.3 79.4768 12.4867 80.2234 12.86C80.9701 13.22 81.5634 13.78 82.0034 14.54C82.4568 15.3 82.6834 16.26 82.6834 17.42C82.6834 18.5667 82.4568 19.52 82.0034 20.28C81.5634 21.04 80.9701 21.6133 80.2234 22C79.4768 22.3733 78.6501 22.56 77.7434 22.56ZM77.9634 20.88C78.6701 20.88 79.2968 20.7333 79.8434 20.44C80.3901 20.1467 80.8168 19.74 81.1234 19.22C81.4434 18.7 81.6034 18.1 81.6034 17.42C81.6034 16.74 81.4434 16.14 81.1234 15.62C80.8168 15.1 80.3901 14.7 79.8434 14.42C79.2968 14.1267 78.6701 13.98 77.9634 13.98C77.2568 13.98 76.6234 14.1267 76.0634 14.42C75.5168 14.7 75.0834 15.1 74.7634 15.62C74.4568 16.14 74.3034 16.74 74.3034 17.42C74.3034 18.1 74.4568 18.7 74.7634 19.22C75.0834 19.74 75.5168 20.1467 76.0634 20.44C76.6234 20.7333 77.2568 20.88 77.9634 20.88ZM91.692 23.12C90.6254 23.12 89.6787 22.8867 88.852 22.42C88.0254 21.9533 87.372 21.3133 86.892 20.5C86.412 19.6733 86.172 18.74 86.172 17.7C86.172 16.6467 86.412 15.7133 86.892 14.9C87.372 14.0867 88.0254 13.4533 88.852 13C89.6787 12.5333 90.6254 12.3 91.692 12.3C92.7454 12.3 93.6854 12.5333 94.512 13C95.352 13.4533 96.0054 14.0867 96.472 14.9C96.952 15.7 97.192 16.6333 97.192 17.7C97.192 18.7533 96.952 19.6867 96.472 20.5C96.0054 21.3133 95.352 21.9533 94.512 22.42C93.6854 22.8867 92.7454 23.12 91.692 23.12ZM91.692 21.44C92.372 21.44 92.9787 21.2867 93.512 20.98C94.0587 20.6733 94.4854 20.24 94.792 19.68C95.0987 19.1067 95.252 18.4467 95.252 17.7C95.252 16.94 95.0987 16.2867 94.792 15.74C94.4854 15.18 94.0587 14.7467 93.512 14.44C92.9787 14.1333 92.372 13.98 91.692 13.98C91.012 13.98 90.4054 14.1333 89.872 14.44C89.3387 14.7467 88.912 15.18 88.592 15.74C88.272 16.2867 88.112 16.94 88.112 17.7C88.112 18.4467 88.272 19.1067 88.592 19.68C88.912 20.24 89.3387 20.6733 89.872 20.98C90.4054 21.2867 91.012 21.44 91.692 21.44ZM100.127 26.88V8.16H101.907V26.88H100.127Z" fill="#7C4EFF"/>
</svg>
