<svg width="167" height="28" viewBox="0 0 167 28" fill="none" xmlns="http://www.w3.org/2000/svg">
<path d="M38.584 6.44006H43.3553C45.637 6.44006 47.3657 7.01748 48.5412 8.17098C49.7165 9.32554 50.3044 10.9737 50.3044 13.1154V14.2763C50.3044 16.3909 49.7096 18.0328 48.5201 19.2003C47.3306 20.3682 45.609 20.9522 43.355 20.9522H38.584V6.44006ZM41.0733 8.6374V18.7543H43.3553C44.7934 18.7543 45.8755 18.3881 46.6015 17.6559C47.3279 16.9232 47.6904 15.7968 47.6904 14.2763V13.1154C47.6904 11.6097 47.324 10.4863 46.5911 9.74654C45.8582 9.0078 44.7791 8.6374 43.355 8.6374H41.0733Z" fill="#28334A"/>
<path d="M56.938 21.1387C55.3751 21.1387 54.1549 20.6964 53.2768 19.8119C52.3983 18.9275 51.9597 17.6901 51.9597 16.1009V15.4371C51.9597 14.6494 52.0738 13.9449 52.3018 13.3225C52.5299 12.7007 52.862 12.172 53.2975 11.7368C53.7331 11.3016 54.2552 10.9698 54.8637 10.7417C55.4719 10.5138 56.1634 10.3993 56.938 10.3993C58.5007 10.3993 59.721 10.8422 60.5994 11.7262C61.4776 12.6106 61.917 13.8479 61.917 15.4371V16.1009C61.917 16.8887 61.803 17.5932 61.5746 18.2155C61.3463 18.8373 61.0147 19.366 60.5789 19.8013C60.1431 20.2365 59.6174 20.5682 59.0021 20.7963C58.3868 21.024 57.6985 21.1387 56.938 21.1387ZM56.938 18.8992C57.7262 18.8992 58.3314 18.6713 58.7532 18.2153C59.175 17.7589 59.3861 17.0544 59.3861 16.1006V15.4369C59.3861 14.4974 59.1679 13.7958 58.7327 13.3329C58.2971 12.87 57.6985 12.6385 56.9382 12.6385C56.1499 12.6385 55.5448 12.8664 55.1233 13.3225C54.7011 13.7789 54.4907 14.4834 54.4907 15.4371V16.1009C54.4907 17.0404 54.708 17.7419 55.1438 18.2048C55.5796 18.6678 56.1776 18.8992 56.938 18.8992Z" fill="#28334A"/>
<path d="M64.8713 20.0713C64.2835 19.4838 63.9896 18.6376 63.9896 17.5315V6.44006H66.3958V17.2828C66.3958 17.8213 66.5134 18.2158 66.7486 18.4645C66.9837 18.7132 67.343 18.8379 67.8273 18.8379H68.3459V20.9525H67.3915C66.299 20.9522 65.4589 20.6583 64.8713 20.0713Z" fill="#28334A"/>
<path d="M75.3392 21.1388C74.0389 21.1388 73.0295 20.7307 72.3103 19.9152V25.0983H69.9041V10.5858H71.7917L72.02 11.996C72.3794 11.4569 72.8393 11.0559 73.3992 10.793C73.9594 10.5308 74.6057 10.399 75.3392 10.399C75.9337 10.399 76.4835 10.5064 76.9887 10.7204C77.4932 10.9354 77.9246 11.2531 78.2845 11.6741C78.6444 12.0963 78.9275 12.6214 79.1352 13.2503C79.3421 13.8792 79.4464 14.6078 79.4464 15.4369V16.1006C79.4464 16.9298 79.3421 17.6554 79.1352 18.2774C78.9275 18.8992 78.6406 19.4249 78.2739 19.8531C77.9079 20.2818 77.4757 20.603 76.9773 20.8167C76.4797 21.0312 75.9337 21.1388 75.3392 21.1388ZM74.6129 18.8992C75.3455 18.8992 75.9128 18.6785 76.3138 18.2361C76.7148 17.7938 76.9157 17.0821 76.9157 16.1006V15.4369C76.9157 14.4832 76.708 13.7787 76.2933 13.3223C75.8786 12.8665 75.3187 12.6383 74.6131 12.6383C73.9496 12.6383 73.4066 12.8662 72.9845 13.3223C72.5627 13.7787 72.338 14.4421 72.3103 15.3129V16.1006C72.3103 17.0126 72.5284 17.7069 72.9637 18.1841C73.3992 18.6609 73.9493 18.8992 74.6129 18.8992Z" fill="#28334A"/>
<path d="M81.5177 6.44006H83.9244V11.4779C84.6152 10.7592 85.5762 10.3995 86.8073 10.3995C88.0795 10.3995 89.0717 10.7762 89.7839 11.5297C90.4961 12.2832 90.8522 13.4195 90.8522 14.94V20.9522H88.4463V14.94C88.4463 14.1799 88.2629 13.606 87.8962 13.2193C87.5294 12.8324 87.0288 12.6388 86.3927 12.6388C85.6455 12.6388 85.0543 12.8391 84.6191 13.2401C84.1831 13.6411 83.951 14.173 83.9244 14.8362V20.9522H81.5177V6.44006Z" fill="#28334A"/>
<path d="M94.7591 9.34244C94.3162 9.34244 93.9465 9.19422 93.6489 8.89649C93.3514 8.59959 93.2031 8.22981 93.2031 7.78743C93.2031 7.34501 93.3514 6.9755 93.6489 6.6783C93.9465 6.38137 94.3162 6.23236 94.7591 6.23236C95.1875 6.23236 95.5542 6.3811 95.8585 6.6783C96.1621 6.97522 96.3143 7.34501 96.3143 7.78743C96.3143 8.22981 96.1621 8.59929 95.8585 8.89649C95.5542 9.19422 95.1875 9.34244 94.7591 9.34244ZM93.5561 10.586H95.962V20.9521H93.5561V10.586Z" fill="#28334A"/>
<path d="M98.7621 10.5858H100.65L100.836 11.7467C101.61 10.8486 102.682 10.399 104.052 10.399C105.323 10.399 106.316 10.7757 107.028 11.5293C107.74 12.2828 108.097 13.419 108.097 14.9395V20.952H105.69V14.9398C105.69 14.1796 105.507 13.6058 105.14 13.219C104.774 12.8323 104.272 12.6386 103.637 12.6386C102.89 12.6386 102.299 12.8388 101.863 13.2399C101.427 13.6409 101.195 14.1728 101.168 14.836V20.952H98.7621V10.5858Z" fill="#28334A"/>
<path d="M116.804 7.76723H115.849C114.273 7.76723 113.484 8.59636 113.484 10.2552V12.9497C113.484 13.5721 113.392 14.1284 113.204 14.6187C113.018 15.1101 112.606 15.4933 111.97 15.7697C112.288 15.922 112.548 16.0945 112.748 16.2882C112.949 16.4819 113.104 16.6991 113.214 16.9407C113.325 17.1828 113.398 17.442 113.433 17.7183C113.467 17.9947 113.484 18.2854 113.484 18.5889V21.2839C113.484 22.9428 114.273 23.7719 115.849 23.7719H116.804V25.0987H115.849C113.305 25.0987 112.033 23.8267 112.033 21.2839V18.5886C112.033 17.8564 111.87 17.3277 111.545 17.0029C111.22 16.678 110.829 16.4813 110.373 16.4118V15.1268C110.829 15.0578 111.22 14.8605 111.545 14.5357C111.87 14.2108 112.033 13.6825 112.033 12.9494V10.2549C112.033 7.71214 113.305 6.44006 115.849 6.44006H116.804V7.76723Z" fill="#28334A"/>
<path d="M121.889 21.097C120.852 21.097 120.056 20.8313 119.504 20.299C118.951 19.7671 118.674 19.0311 118.674 18.091C118.674 17.5933 118.754 17.1408 118.913 16.7326C119.072 16.325 119.327 15.9832 119.68 15.7068C120.033 15.4305 120.485 15.216 121.039 15.0636C121.592 14.9119 122.256 14.8358 123.03 14.8358H125.395V13.9028C125.395 13.1569 125.211 12.6072 124.846 12.2546C124.478 11.9026 123.874 11.726 123.03 11.726C122.27 11.726 121.699 11.8747 121.318 12.1719C120.939 12.4696 120.72 12.8734 120.666 13.3848H119.193C119.22 12.9562 119.317 12.5628 119.482 12.2032C119.648 11.8435 119.89 11.5328 120.209 11.2702C120.527 11.0075 120.921 10.8037 121.392 10.6585C121.862 10.5139 122.407 10.4413 123.03 10.4413C124.261 10.4413 125.191 10.7453 125.821 11.3532C126.449 11.9615 126.764 12.8118 126.764 13.9031V20.9521H125.706L125.499 19.0034C125.139 19.6666 124.645 20.1816 124.016 20.5478C123.386 20.9138 122.677 21.097 121.889 21.097ZM121.993 19.8118C122.463 19.8118 122.906 19.7255 123.32 19.5526C123.735 19.3801 124.099 19.145 124.409 18.8476C124.72 18.5506 124.962 18.2049 125.136 17.811C125.309 17.4172 125.395 16.9992 125.395 16.5568V16.0802H123.03C121.964 16.0802 121.207 16.2668 120.758 16.6395C120.309 17.0129 120.084 17.4969 120.084 18.091C120.084 18.6161 120.246 19.0341 120.572 19.3453C120.897 19.6559 121.37 19.8118 121.993 19.8118Z" fill="#28334A"/>
<path d="M130.185 10.5859H131.243L131.409 12.2861C131.755 11.692 132.221 11.2363 132.809 10.9179C133.397 10.6002 134.078 10.4413 134.852 10.4413C136.042 10.4413 136.978 10.801 137.663 11.5189C138.348 12.2377 138.689 13.3087 138.689 14.7325V20.9521H137.321V14.7328C137.321 13.7242 137.086 12.9707 136.615 12.4727C136.145 11.975 135.488 11.7263 134.645 11.7263C133.732 11.7263 132.996 11.9889 132.436 12.5141C131.875 13.0397 131.581 13.7371 131.554 14.6082V20.9521H130.185V10.5859Z" fill="#28334A"/>
<path d="M140.66 10.5864H142.526V7.68457H143.896V10.5864H146.675V11.8305H143.896V18.0501C143.896 19.1556 144.407 19.7084 145.43 19.7084H146.883V20.9525H145.265C144.366 20.9525 143.684 20.7211 143.222 20.2582C142.758 19.7952 142.526 19.1143 142.526 18.2161V11.8308H140.66V10.5864Z" fill="#28334A"/>
<path d="M152.836 20.9524L148.541 10.5863H150.077L153.582 19.2522L156.84 10.5863H158.291L152.691 25.0988H151.238L152.836 20.9524Z" fill="#28334A"/>
<path d="M159.616 23.7713H160.571C162.147 23.7713 162.935 22.9422 162.935 21.2834V18.5883C162.935 17.9665 163.028 17.4102 163.215 16.9193C163.402 16.4293 163.813 16.0453 164.45 15.7688C164.131 15.6171 163.872 15.444 163.672 15.2504C163.471 15.0573 163.316 14.8395 163.205 14.5973C163.094 14.3557 163.022 14.0966 162.988 13.8202C162.953 13.5439 162.935 13.2541 162.935 12.9492V10.2547C162.935 8.59578 162.147 7.76665 160.571 7.76665H159.616V6.44006H160.571C163.115 6.44006 164.388 7.71217 164.388 10.2549V12.9495C164.388 13.6822 164.55 14.2114 164.875 14.5362C165.2 14.8606 165.591 15.0578 166.047 15.1268V16.4118C165.591 16.4813 165.2 16.678 164.875 17.0028C164.55 17.3272 164.388 17.8561 164.388 18.5886V21.2836C164.388 23.8264 163.115 25.0985 160.571 25.0985H159.616V23.7713Z" fill="#28334A"/>
<path d="M0.0467529 13.6959C0.0467529 0 0.0467529 0 13.751 0C27.4552 0 27.4552 0 27.4552 13.6959C27.4552 27.3918 27.4552 27.3918 13.751 27.3918C0.0467529 27.3918 0.0467529 27.3918 0.0467529 13.6959Z" fill="url(#paint0_linear_3268_63)"/>
<path d="M19.3824 13.1172V14.2836C19.3824 16.3911 18.7861 18.0324 17.5935 19.207C16.4092 20.3733 14.6893 20.9524 12.4333 20.9524H8.62167C9.62398 20.5205 10.1252 19.5875 10.1252 18.1535V15.9767C10.1252 15.3806 10.2549 14.9572 10.5144 14.6898C10.7825 14.4304 11.0936 14.2748 11.465 14.2146V13.1783C11.0936 13.1175 10.7825 12.9625 10.5144 12.7031C10.2549 12.4352 10.1252 12.0123 10.1252 11.4162V9.23885C10.1252 7.8052 9.62398 6.87221 8.62167 6.44025H12.4331C14.7151 6.44025 16.4438 7.01903 17.619 8.17659C18.7951 9.32483 19.3824 10.975 19.3824 13.1172Z" fill="white"/>
<defs>
<linearGradient id="paint0_linear_3268_63" x1="13.751" y1="0" x2="13.751" y2="27.3918" gradientUnits="userSpaceOnUse">
<stop offset="0.0056" stop-color="#B645EE"/>
<stop offset="1" stop-color="#9B26B6"/>
</linearGradient>
</defs>
</svg>
