<svg width="108" height="28" viewBox="0 0 108 28" fill="none" xmlns="http://www.w3.org/2000/svg">
<g clip-path="url(#clip0_123_11534)">
<path d="M41.5345 21.8936C41.3829 21.8936 41.2541 21.8406 41.148 21.7344C41.0418 21.6283 40.9888 21.4995 40.9888 21.3479V6.52116C40.9888 6.35439 41.0418 6.22553 41.148 6.13457C41.2541 6.02845 41.3829 5.97539 41.5345 5.97539H43.6494C43.8161 5.97539 43.945 6.02845 44.036 6.13457C44.1421 6.22553 44.1952 6.35439 44.1952 6.52116V19.1875H51.4038C51.5706 19.1875 51.707 19.2406 51.8132 19.3467C51.9193 19.4528 51.9723 19.5893 51.9723 19.756V21.3479C51.9723 21.5146 51.9193 21.651 51.8132 21.7572C51.707 21.8481 51.5706 21.8936 51.4038 21.8936H41.5345ZM60.0975 22.121C58.0355 22.121 56.4284 21.598 55.2763 20.5519C54.1241 19.5059 53.5177 17.952 53.4571 15.8902C53.4419 15.4505 53.4343 14.8062 53.4343 13.9572C53.4343 13.0931 53.4419 12.4412 53.4571 12.0016C53.5177 9.98525 54.1393 8.43891 55.3218 7.36255C56.5043 6.28617 58.0963 5.74799 60.0975 5.74799C62.0986 5.74799 63.6904 6.28617 64.8729 7.36255C66.0702 8.43891 66.6996 9.98525 66.7604 12.0016C66.7905 12.8809 66.8059 13.5327 66.8059 13.9572C66.8059 14.3666 66.7905 15.0109 66.7604 15.8902C66.6842 17.952 66.0702 19.5059 64.9184 20.5519C63.766 21.598 62.1589 22.121 60.0975 22.121ZM60.0975 19.5059C61.1128 19.5059 61.9241 19.2027 62.5307 18.5963C63.1367 17.9747 63.463 17.0347 63.5085 15.7765C63.5386 14.8669 63.554 14.2529 63.554 13.9345C63.554 13.5858 63.5386 12.9718 63.5085 12.0925C63.463 10.8343 63.1367 9.9019 62.5307 9.29548C61.9241 8.67393 61.1128 8.36312 60.0975 8.36312C59.0969 8.36312 58.293 8.67393 57.687 9.29548C57.0803 9.9019 56.7544 10.8343 56.7089 12.0925C56.6937 12.5322 56.6862 13.1462 56.6862 13.9345C56.6862 14.7077 56.6937 15.3217 56.7089 15.7765C56.7544 17.0347 57.0728 17.9747 57.6643 18.5963C58.2703 19.2027 59.0815 19.5059 60.0975 19.5059ZM75.977 22.121C73.9003 22.121 72.2778 21.5828 71.1106 20.5065C69.9582 19.4301 69.3443 17.9292 69.2686 16.0039C69.2533 15.5642 69.2459 14.8593 69.2459 13.889C69.2459 12.9188 69.2533 12.2138 69.2686 11.7742C69.3443 9.89429 69.9662 8.42378 71.1333 7.36255C72.3158 6.28617 73.9304 5.74799 75.977 5.74799C77.3716 5.74799 78.5694 5.98297 79.57 6.45294C80.5706 6.92292 81.3284 7.51417 81.844 8.22668C82.3597 8.92407 82.6326 9.61384 82.6627 10.2961V10.3415C82.6627 10.4628 82.6172 10.5689 82.5263 10.6599C82.4353 10.7357 82.3216 10.7736 82.1851 10.7736H79.8429C79.6911 10.7736 79.5774 10.7509 79.5018 10.7054C79.4262 10.6447 79.358 10.5462 79.2971 10.4098C79.0851 9.84881 78.7133 9.37126 78.1829 8.97711C77.6524 8.56779 76.9168 8.36312 75.977 8.36312C74.9156 8.36312 74.0822 8.65119 73.4756 9.22726C72.8844 9.80333 72.566 10.6902 72.5205 11.8879C72.5052 12.3275 72.4978 12.9946 72.4978 13.889C72.4978 14.7683 72.5052 15.4354 72.5205 15.8902C72.6115 18.3006 73.7786 19.5059 76.0225 19.5059C77.0987 19.5059 77.9628 19.2178 78.6149 18.6418C79.267 18.0505 79.5928 17.1788 79.5928 16.0266V15.3217H76.8184C76.6519 15.3217 76.5154 15.2686 76.4091 15.1625C76.3181 15.0563 76.2727 14.9199 76.2727 14.7532V13.5479C76.2727 13.3812 76.3181 13.2447 76.4091 13.1386C76.5154 13.0325 76.6519 12.9794 76.8184 12.9794H82.2534C82.4199 12.9794 82.549 13.0325 82.64 13.1386C82.7463 13.2447 82.7991 13.3812 82.7991 13.5479V15.9357C82.7991 17.1939 82.5189 18.2931 81.9577 19.233C81.412 20.1578 80.6235 20.8703 79.5928 21.3706C78.562 21.8709 77.3568 22.121 75.977 22.121ZM86.2602 21.8936C86.1084 21.8936 85.9799 21.8406 85.8736 21.7344C85.7673 21.6283 85.7145 21.4995 85.7145 21.3479V6.52116C85.7145 6.35439 85.7673 6.22553 85.8736 6.13457C85.9799 6.02845 86.1084 5.97539 86.2602 5.97539H88.3978C88.5644 5.97539 88.6934 6.02845 88.7844 6.13457C88.8907 6.22553 88.9436 6.35439 88.9436 6.52116V21.3479C88.9436 21.4995 88.8907 21.6283 88.7844 21.7344C88.6934 21.8406 88.5644 21.8936 88.3978 21.8936H86.2602ZM93.0556 21.8936C92.9038 21.8936 92.7753 21.8406 92.669 21.7344C92.5627 21.6283 92.5098 21.4995 92.5098 21.3479V6.5439C92.5098 6.37714 92.5553 6.24069 92.6463 6.13457C92.7526 6.02845 92.889 5.97539 93.0556 5.97539H94.8066C94.9885 5.97539 95.125 6.01329 95.2159 6.08909C95.3069 6.14973 95.3905 6.23311 95.4661 6.33923L102.015 16.5269V6.5439C102.015 6.37714 102.061 6.24069 102.152 6.13457C102.258 6.02845 102.394 5.97539 102.561 5.97539H104.471C104.638 5.97539 104.774 6.02845 104.881 6.13457C104.987 6.24069 105.04 6.37714 105.04 6.5439V21.3251C105.04 21.4919 104.987 21.6283 104.881 21.7344C104.774 21.8406 104.646 21.8936 104.494 21.8936H102.72C102.463 21.8936 102.243 21.7724 102.061 21.5298L95.5343 11.5695V21.3479C95.5343 21.5146 95.4814 21.651 95.3751 21.7572C95.2688 21.8481 95.1324 21.8936 94.9658 21.8936H93.0556Z" fill="#36364F"/>
<path d="M7.51338 22.5929C4.53049 21.9619 2.26199 20.168 1.20919 17.6069C0.369471 15.5409 0.331871 12.8561 1.134 10.8643C2.11159 8.38983 4.49289 6.3361 7.175 5.63089C8.42833 5.29685 11.1606 5.33396 12.5643 5.70513C13.7675 6.02679 15.284 6.75673 15.9733 7.36299C16.4872 7.82075 22.4153 14.4892 23.1298 15.4295C23.769 16.2708 25.298 17.7926 25.9121 18.2132C27.5415 19.3267 28.9577 19.5865 30.5745 19.0916C34.9987 17.7307 35.3621 11.3344 31.126 9.26823C30.5102 8.97414 30.3037 8.82439 29.5959 8.77488C29.4105 8.76191 29.1907 8.75583 28.9201 8.75583C28.5771 8.75583 28.3155 8.76578 28.1014 8.78738C27.5099 8.84713 27.2815 8.99574 26.7017 9.26823C25.1602 9.9858 24.145 11.3591 23.8442 13.1654C23.7564 13.6479 23.7314 14.2542 23.769 14.514C23.8065 14.7862 23.8191 14.9965 23.794 14.9965C23.7188 14.9965 20.4477 11.3962 20.385 11.2354C20.197 10.7653 21.4503 8.82286 22.6159 7.7589C24.5209 6.01442 26.8772 5.22262 29.6094 5.39582C32.1035 5.54429 34.2592 6.52167 35.7757 8.19187C39.6987 12.4726 38.4328 19.2153 33.219 21.8134C31.8779 22.4815 30.7249 22.729 28.9201 22.729C27.0777 22.729 26.2004 22.5434 24.7841 21.8753C23.1674 21.1082 22.7663 20.7247 18.317 15.5532C13.8176 10.3322 13.216 9.73838 11.7872 9.18164C11.1104 8.92184 10.7971 8.87232 9.61896 8.87232C8.31554 8.87232 8.19018 8.89711 7.41315 9.26823C6.3854 9.77551 5.53315 10.6415 5.00675 11.755C4.63076 12.5344 4.60569 12.6582 4.60569 14.0067C4.60569 15.6769 4.74356 16.1842 5.43289 17.211C6.03447 18.1142 7.06221 18.8812 8.05232 19.1658C9.50617 19.6112 12.0629 19.3019 12.9904 18.572C13.3163 18.3245 13.3288 18.275 13.2912 17.174L13.2536 16.0481L11.3485 16.011L9.43095 15.9738V14.3779V12.7695H12.1632L14.8829 12.7819L15.9231 13.9944L16.9509 15.2191V17.6812V20.1308L16.2239 20.6504C13.8051 22.4196 10.3333 23.1867 7.51338 22.5929Z" fill="#36364F"/>
</g>
<defs>
<clipPath id="clip0_123_11534">
<rect width="106.88" height="26.1514" fill="white" transform="translate(0.555176 0.858826)"/>
</clipPath>
</defs>
</svg>
