<svg width="137" height="31" viewBox="0 0 137 31" fill="none" xmlns="http://www.w3.org/2000/svg">
<g clip-path="url(#clip0_123_11529)">
<path fill-rule="evenodd" clip-rule="evenodd" d="M12.1067 1.35196C15.9356 1.3622 19.1226 3.47607 20.5773 6.7788C20.97 7.67037 21.2258 8.62823 21.3367 9.62331C21.42 10.3704 21.4331 10.8635 21.3847 11.5601C21.1508 14.9375 19.3817 17.891 16.5981 19.9913C16.5803 20.0048 16.5823 20.0304 16.6018 20.0413C16.6821 20.0857 16.7621 20.1301 16.8415 20.1751C18.7986 21.2771 20.3836 22.4274 21.6007 23.7372C21.6848 23.8276 21.7669 23.9188 21.8471 24.0103C21.8602 24.0255 21.8843 24.0253 21.8972 24.0103C21.9763 23.9178 22.0574 23.826 22.1406 23.7349C23.3449 22.4144 24.9185 21.2505 26.8646 20.1313C27.5879 19.7154 28.3331 19.322 29.1864 18.8975C29.3165 18.8329 29.4731 18.9211 29.4739 19.0591L29.4949 23.3462C29.4953 23.4228 29.445 23.4917 29.3688 23.5188C26.3683 24.5813 24.2298 27.2789 24.1167 29.2118C24.1111 29.3087 24.0254 29.3843 23.9222 29.3847L19.9023 29.4022C19.784 29.4026 19.685 29.317 19.6771 29.206C19.5428 27.3271 17.802 25.4965 14.5964 23.6913C13.9635 23.335 13.2991 22.991 12.5282 22.6158C12.523 22.6131 12.5175 22.6102 12.5123 22.6076C11.3357 22.0009 9.58598 21.3593 7.36743 19.7551C4.76917 17.6983 3.11233 14.8696 2.85681 11.6409C2.80189 10.9446 2.8097 10.4516 2.88563 9.70365C2.98684 8.70762 3.23341 7.74756 3.61708 6.85258C5.03892 3.53717 8.20503 1.39598 12.0335 1.3525L12.0519 1.35202L12.1067 1.35196ZM6.18945 21.9849C7.10805 22.6723 8.25841 23.3166 9.64071 23.9181C9.8471 24.0077 9.86543 24.2589 9.67396 24.3711C6.97795 25.9505 5.51638 27.5226 5.39495 29.1423C5.38465 29.2794 5.25448 29.3858 5.09793 29.3867L1.21676 29.4022C1.0479 29.4028 0.910916 29.2814 0.916065 29.1336C0.98025 27.2524 1.85257 25.5343 3.3665 23.986C4.06167 23.2752 4.87676 22.6118 5.81277 21.977C5.92438 21.901 6.08198 21.9043 6.18945 21.9849ZM12.0905 5.45201C10.0643 5.47375 8.4455 6.56861 7.66678 8.38427C7.44117 8.91069 7.29358 9.48578 7.2319 10.0929C7.1788 10.6165 7.17456 10.8784 7.21073 11.3369C7.42907 14.0958 9.25742 16.4428 12.1298 17.8331C12.132 17.8338 12.1343 17.835 12.1364 17.8361C12.146 17.8406 12.1572 17.8408 12.1668 17.836C12.169 17.8348 12.1714 17.8337 12.1735 17.8327C15.032 16.4177 16.837 14.0551 17.0281 11.2945C17.0599 10.8353 17.0532 10.5733 16.9947 10.0504C16.9271 9.44394 16.7738 8.87003 16.5428 8.34561C15.746 6.53687 14.1169 5.45594 12.0905 5.45201Z" fill="#005FF9"/>
<path d="M41.6682 20.9913C41.6682 21.1442 41.6156 21.2796 41.5127 21.3888C41.4056 21.5023 41.2612 21.5592 41.0916 21.5592H39.6509C39.4931 21.5592 39.3537 21.5027 39.2427 21.3934C39.1317 21.284 39.0743 21.1468 39.0743 20.9913V10.2505C39.0743 10.0877 39.126 9.94667 39.2299 9.8366C39.3369 9.7231 39.4813 9.66617 39.6509 9.66617H41.0078C41.2853 9.66617 41.5087 9.80555 41.664 10.07L44.7437 15.696L47.8259 10.0654C47.9787 9.80555 48.2021 9.66617 48.4795 9.66617H49.8197C49.9875 9.66617 50.1328 9.72178 50.2447 9.83204C50.3566 9.9422 50.413 10.0852 50.413 10.2505V20.9913C50.413 21.1584 50.3553 21.3006 50.24 21.406C50.1282 21.5083 49.985 21.5592 49.8197 21.5592H48.379C48.2212 21.5592 48.0818 21.5027 47.9708 21.3934C47.8598 21.284 47.8025 21.1468 47.8025 20.9913V14.5921L45.8044 18.3294C45.6529 18.6277 45.4097 18.7873 45.0955 18.7873H44.3919C44.0916 18.7873 43.847 18.6315 43.6679 18.3326L41.6682 14.5921V20.9913ZM57.2634 21.7242C55.7036 21.7242 54.4832 21.3311 53.6105 20.5404C52.7333 19.7456 52.2977 18.5501 52.2977 16.9656V10.2505C52.2977 10.0877 52.3494 9.94667 52.4532 9.8366C52.5603 9.7231 52.7046 9.66617 52.8743 9.66617H54.4155C54.5833 9.66617 54.7285 9.72178 54.8404 9.83204C54.9523 9.9422 55.0088 10.0852 55.0088 10.2505V16.9656C55.0088 17.7944 55.2048 18.407 55.5898 18.8115C55.9733 19.2143 56.5216 19.4171 57.2467 19.4171C57.9718 19.4171 58.5201 19.2143 58.9035 18.8115C59.2885 18.407 59.4845 17.7944 59.4845 16.9656V10.2505C59.4845 10.0852 59.541 9.9422 59.6529 9.83204C59.7648 9.72178 59.91 9.66617 60.0779 9.66617H61.6191C61.7887 9.66617 61.9331 9.7231 62.0402 9.8366C62.1439 9.94667 62.1957 10.0877 62.1957 10.2505V16.9656C62.1957 18.5499 61.7631 19.7451 60.8917 20.54C60.0246 21.3309 58.8122 21.7242 57.2634 21.7242ZM71.9442 19.2356C72.1121 19.2356 72.2573 19.2912 72.3692 19.4014C72.4802 19.5108 72.5376 19.648 72.5376 19.8035V20.9913C72.5376 21.1468 72.4802 21.284 72.3692 21.3934C72.2573 21.5036 72.1121 21.5592 71.9442 21.5592H64.6569C64.499 21.5592 64.3597 21.5027 64.2487 21.3934C64.1377 21.284 64.0803 21.1468 64.0803 20.9913V10.234C64.0803 10.067 64.1381 9.92475 64.2534 9.81932C64.3642 9.71792 64.5017 9.66617 64.6569 9.66617H66.2316C66.3987 9.66617 66.5411 9.71827 66.6482 9.8237C66.7553 9.92922 66.8082 10.0695 66.8082 10.234V19.2356H71.9442ZM76.9491 20.9913C76.9491 21.1442 76.8966 21.2796 76.7936 21.3888C76.6866 21.5023 76.5421 21.5592 76.3725 21.5592H74.7978C74.6399 21.5592 74.5006 21.5027 74.3896 21.3934C74.2786 21.284 74.2212 21.1468 74.2212 20.9913V12.0723H71.2965C71.1387 12.0723 70.9993 12.0158 70.8883 11.9064C70.7764 11.7962 70.7199 11.6533 70.7199 11.4879V10.2505C70.7199 10.0877 70.7716 9.94667 70.8755 9.8366C70.9825 9.7231 71.1269 9.66617 71.2965 9.66617H79.8571C80.0249 9.66617 80.1701 9.72178 80.282 9.83204C80.394 9.9422 80.4503 10.0852 80.4503 10.2505V11.4879C80.4503 11.6533 80.394 11.7962 80.282 11.9064C80.1701 12.0167 80.0249 12.0723 79.8571 12.0723H76.9491V20.9913ZM82.7887 21.5592C82.6309 21.5592 82.4916 21.5027 82.3806 21.3934C82.2696 21.284 82.2122 21.1468 82.2122 20.9913V10.234C82.2122 10.067 82.27 9.92475 82.3853 9.81932C82.4961 9.71792 82.6336 9.66617 82.7887 9.66617H84.397C84.564 9.66617 84.7064 9.71827 84.8135 9.8237C84.9206 9.92922 84.9736 10.0695 84.9736 10.234V20.9913C84.9736 21.1442 84.921 21.2796 84.818 21.3888C84.711 21.5023 84.5665 21.5592 84.397 21.5592H82.7887ZM94.8222 19.2356C94.9906 19.2356 95.1354 19.2912 95.2476 19.4014C95.359 19.5108 95.416 19.648 95.416 19.8035V20.9913C95.416 21.1468 95.359 21.284 95.2476 21.3934C95.1354 21.5036 94.9906 21.5592 94.8222 21.5592H87.5353C87.3775 21.5592 87.2381 21.5027 87.1271 21.3934C87.0161 21.284 86.9588 21.1468 86.9588 20.9913V10.234C86.9588 10.067 87.0165 9.92475 87.1317 9.81932C87.2426 9.71792 87.3801 9.66617 87.5353 9.66617H89.1096C89.2771 9.66617 89.4192 9.71827 89.5262 9.8237C89.6341 9.92922 89.6868 10.0695 89.6868 10.234V19.2356H94.8222ZM101.438 21.7242C99.8674 21.7242 98.6368 21.3314 97.7527 20.5411C96.8659 19.748 96.401 18.5762 96.3554 17.0375C96.344 16.7162 96.3388 16.247 96.3388 15.6292C96.3388 15.0004 96.344 14.5257 96.3554 14.2051C96.4019 12.6983 96.8773 11.532 97.786 10.7174C98.692 9.90554 99.9121 9.50119 101.438 9.50119C102.954 9.50119 104.17 9.90554 105.082 10.717C105.997 11.5316 106.476 12.6981 106.521 14.2043C106.544 14.8441 106.554 15.3188 106.554 15.6292C106.554 15.9286 106.544 16.3977 106.521 17.0366C106.476 18.5764 106.008 19.7484 105.115 20.5416C104.226 21.3314 102.998 21.7242 101.438 21.7242ZM101.438 19.4666C102.142 19.4666 102.688 19.2635 103.089 18.8585C103.491 18.453 103.711 17.8167 103.743 16.9434C103.765 16.2853 103.777 15.8411 103.777 15.6127C103.777 15.3622 103.765 14.9183 103.743 14.2826C103.712 13.4202 103.485 12.7872 103.073 12.3759C102.661 11.9644 102.119 11.7588 101.438 11.7588C100.746 11.7588 100.199 11.9646 99.7867 12.3759C99.3753 12.7867 99.1552 13.4188 99.1332 14.2822C99.1227 14.5989 99.1166 15.0425 99.1166 15.6127C99.1166 16.1719 99.1227 16.6156 99.1332 16.945C99.1552 17.8069 99.3727 18.4395 99.7788 18.8502C100.186 19.2609 100.735 19.4666 101.438 19.4666ZM113.456 16.791C113.298 16.791 113.158 16.7345 113.048 16.6252C112.936 16.5159 112.879 16.3786 112.879 16.2232V15.3157C112.879 15.1602 112.936 15.023 113.048 14.9137C113.158 14.8044 113.298 14.7479 113.456 14.7479H117.476C117.644 14.7479 117.789 14.8035 117.901 14.9137C118.012 15.023 118.069 15.1602 118.069 15.3157V17.0646C118.069 18.0077 117.855 18.833 117.424 19.5373C116.994 20.2427 116.382 20.7851 115.592 21.1625C114.808 21.5374 113.894 21.7242 112.852 21.7242C111.27 21.7242 110.03 21.3199 109.14 20.5069C108.25 19.6931 107.777 18.5609 107.719 17.12C107.708 16.7986 107.703 16.2855 107.703 15.5797C107.703 14.8739 107.708 14.3608 107.719 14.0397C107.766 12.6312 108.242 11.5171 109.151 10.7087C110.056 9.90247 111.293 9.50119 112.852 9.50119C113.905 9.50119 114.815 9.67933 115.583 10.0375C116.35 10.3955 116.934 10.842 117.332 11.3782C117.731 11.9155 117.945 12.4505 117.969 12.9894C117.969 13.1332 117.917 13.2596 117.817 13.3584C117.716 13.4582 117.582 13.5077 117.426 13.5077H115.667C115.519 13.5077 115.397 13.4758 115.306 13.4041C115.226 13.3407 115.161 13.2472 115.102 13.1162C114.957 12.7408 114.705 12.4207 114.34 12.1538C113.982 11.892 113.488 11.7588 112.852 11.7588C112.113 11.7588 111.544 11.9504 111.138 12.3303C110.735 12.7076 110.518 13.3051 110.497 14.1337C110.487 14.4503 110.48 14.9325 110.48 15.5797C110.48 16.2159 110.487 16.6981 110.497 17.0273C110.519 17.8767 110.737 18.4911 111.147 18.8794C111.559 19.2698 112.13 19.4666 112.869 19.4666C113.622 19.4666 114.217 19.2711 114.663 18.8827C115.103 18.5003 115.325 17.9206 115.325 17.1306V16.791H113.456ZM120.145 21.5592C119.987 21.5592 119.848 21.5027 119.737 21.3934C119.626 21.284 119.569 21.1468 119.569 20.9913V10.234C119.569 10.067 119.627 9.92475 119.742 9.81932C119.852 9.71792 119.99 9.66617 120.145 9.66617H121.754C121.921 9.66617 122.064 9.71827 122.171 9.8237C122.278 9.92922 122.33 10.0695 122.33 10.234V20.9913C122.33 21.1442 122.278 21.2796 122.175 21.3888C122.068 21.5023 121.923 21.5592 121.754 21.5592H120.145ZM126.91 20.9913C126.91 21.1442 126.857 21.2796 126.753 21.3888C126.646 21.5023 126.503 21.5592 126.332 21.5592H124.892C124.734 21.5592 124.595 21.5027 124.483 21.3934C124.373 21.284 124.315 21.1468 124.315 20.9913V10.2505C124.315 10.0877 124.367 9.94667 124.471 9.8366C124.578 9.7231 124.722 9.66617 124.892 9.66617H126.199C126.474 9.66617 126.692 9.79248 126.831 10.0254L131.301 16.8599V10.2505C131.301 10.0877 131.353 9.94667 131.456 9.8366C131.564 9.7231 131.708 9.66617 131.878 9.66617H133.319C133.486 9.66617 133.632 9.72178 133.743 9.83204C133.855 9.9422 133.912 10.0852 133.912 10.2505V20.9748C133.912 21.1402 133.855 21.2831 133.743 21.3934C133.633 21.5027 133.493 21.5592 133.335 21.5592H132.012C131.727 21.5592 131.502 21.4337 131.364 21.2012L126.91 14.5211V20.9913Z" fill="#1F1F1F"/>
</g>
<defs>
<clipPath id="clip0_123_11529">
<rect width="135.952" height="29.8217" fill="white" transform="translate(0.477417 0.466248)"/>
</clipPath>
</defs>
</svg>
