<svg width="186" height="196" viewBox="0 0 186 196" fill="none" xmlns="http://www.w3.org/2000/svg">
<g clip-path="url(#clip0_123_12036)">
<g opacity="0.3">
<path d="M113.131 81.4228C114.328 80.7294 115.274 81.2968 115.274 82.6835C115.274 84.0703 114.328 85.7093 113.131 86.4026C111.933 87.096 110.987 86.5287 110.987 85.1419C110.987 83.7552 111.996 82.1162 113.131 81.4228Z" fill="url(#paint0_linear_123_12036)"/>
<path d="M113.257 81.4862C112.059 82.1796 111.113 83.8185 111.113 85.2053C111.113 85.8356 111.303 86.3399 111.681 86.529C111.24 86.3399 110.987 85.8356 110.987 85.0792C110.987 83.6924 111.933 82.0535 113.131 81.3601C113.761 80.9819 114.328 80.9819 114.706 81.234C114.328 81.1079 113.824 81.171 113.257 81.4862Z" fill="white"/>
<path d="M108.024 78.4601C109.221 77.7667 110.167 78.334 110.167 79.7208C110.167 81.1076 109.221 82.7465 108.024 83.4399C106.826 84.1333 105.88 83.5659 105.88 82.1792C105.88 80.7924 106.826 79.1535 108.024 78.4601Z" fill="url(#paint1_linear_123_12036)"/>
<path d="M102.792 75.4347C103.99 74.7413 104.935 75.3087 104.935 76.6954C104.935 78.0822 103.99 79.7212 102.792 80.4145C101.595 81.1079 100.649 80.5406 100.649 79.1538C100.649 77.8301 101.595 76.1281 102.792 75.4347Z" fill="url(#paint2_linear_123_12036)"/>
<path d="M111.617 86.5289L114.265 88.0417C113.887 87.7896 113.634 87.3483 113.634 86.655C113.634 85.2682 114.58 83.6293 115.778 82.9359C116.345 82.6207 116.849 82.5576 117.29 82.7467L128.574 89.2394L125.548 94.5344L92.2653 75.4346C90.8155 74.6152 90.3112 72.7241 91.1307 71.2743C91.9501 69.8245 93.8412 69.3202 95.291 70.1396L104.305 75.3085C103.927 75.0564 103.36 75.0564 102.729 75.4346C101.532 76.128 100.586 77.7669 100.586 79.1537C100.586 79.8471 100.838 80.3514 101.216 80.5405L103.864 82.0534C103.486 81.8012 103.234 81.36 103.234 80.6666C103.234 79.2798 104.179 77.6409 105.377 76.9475C105.944 76.6323 106.448 76.5693 106.89 76.7584L109.537 78.2712C109.159 78.0191 108.592 78.0191 107.961 78.3973C106.763 79.0907 105.818 80.7296 105.818 82.1164C105.818 82.8098 106.07 83.3141 106.448 83.5032L109.096 85.016C108.718 84.7639 108.465 84.3226 108.465 83.6292C108.465 82.2425 109.411 80.6035 110.609 79.9101C111.176 79.595 111.68 79.5319 112.122 79.721L114.643 81.1709C114.265 80.9187 113.697 80.9187 113.067 81.2969C111.869 81.9903 110.924 83.6292 110.924 85.016C110.987 85.8355 111.239 86.2767 111.617 86.5289Z" fill="#BCBEFF"/>
<path d="M108.15 78.5234C106.952 79.2168 106.006 80.8557 106.006 82.2425C106.006 82.8729 106.195 83.3771 106.574 83.5662C106.132 83.3771 105.88 82.8729 105.88 82.1164C105.88 80.7296 106.826 79.0907 108.024 78.3973C108.654 78.0191 109.221 78.0191 109.599 78.2712C109.221 78.1452 108.717 78.2082 108.15 78.5234Z" fill="white"/>
<path d="M102.918 75.4976C101.721 76.191 100.775 77.8299 100.775 79.2167C100.775 79.8471 100.964 80.3514 101.342 80.5405C100.901 80.3514 100.649 79.8471 100.649 79.0907C100.649 77.7039 101.595 76.065 102.792 75.3716C103.423 74.9934 103.99 74.9933 104.368 75.2455C103.99 75.1825 103.486 75.1825 102.918 75.4976Z" fill="white"/>
<path opacity="0.48" d="M115.84 82.9359C114.643 83.6293 113.697 85.2682 113.697 86.655C113.697 87.3484 113.949 87.8527 114.327 88.0418L111.68 86.529C111.302 86.2768 111.049 85.8356 111.049 85.1422C111.049 83.7554 111.995 82.1165 113.193 81.4231C113.823 81.0449 114.327 81.0449 114.769 81.297L117.353 82.8099C116.912 82.5577 116.407 82.6208 115.84 82.9359Z" fill="url(#paint3_linear_123_12036)"/>
<path opacity="0.48" d="M110.671 79.9732C109.473 80.6665 108.528 82.3055 108.528 83.6923C108.528 84.3857 108.78 84.8899 109.158 85.079L106.511 83.5662C106.132 83.3141 105.88 82.8728 105.88 82.1794C105.88 80.7926 106.826 79.1537 108.024 78.4603C108.654 78.0821 109.158 78.0821 109.599 78.3342L112.184 79.8471C111.806 79.5949 111.301 79.658 110.671 79.9732Z" fill="url(#paint4_linear_123_12036)"/>
<path opacity="0.48" d="M105.504 77.0106C104.306 77.704 103.36 79.3429 103.36 80.7297C103.36 81.4231 103.613 81.9274 103.991 82.1165L101.343 80.6036C100.965 80.3515 100.713 79.9102 100.713 79.2168C100.713 77.83 101.658 76.1911 102.856 75.4977C103.486 75.1195 103.991 75.1195 104.432 75.3717L107.016 76.8845C106.575 76.6324 106.071 76.6324 105.504 77.0106Z" fill="url(#paint5_linear_123_12036)"/>
<path d="M125.737 103.8C125.737 103.989 125.737 104.115 125.737 104.304L132.292 109.789L142.945 113.76L150.447 112.058L157.633 109.978L164.945 104.367L165.134 104.241C165.134 103.8 165.134 103.359 165.071 102.918C166.332 101.216 167.655 99.5137 168.916 97.7487C169.484 98.5051 169.988 99.2616 170.366 100.018L171.248 99.3246V103.737C171.248 103.8 171.248 103.863 171.248 103.863V104.052C171.122 107.771 168.664 111.49 163.747 114.327C153.662 120.189 137.398 120.189 127.313 114.39C122.333 111.49 119.811 107.771 119.748 103.989C119.748 103.926 119.748 103.926 119.748 103.863V99.1985L120.694 99.955C120.883 99.5137 121.198 99.0725 121.45 98.5682C122.459 100.585 123.594 102.981 125.737 103.8Z" fill="url(#paint6_linear_123_12036)"/>
<path d="M163.182 93.084C163.308 93.1471 163.434 93.2101 163.623 93.3362C165.892 94.6599 167.657 96.1728 168.918 97.7487C167.657 99.4506 166.333 101.153 165.073 102.918C164.694 100.333 162.803 97.8117 159.399 95.8576C151.709 91.4451 139.228 91.4451 131.538 95.9206C127.756 98.1269 125.864 100.963 125.801 103.863C123.721 103.044 122.587 100.648 121.389 98.6942C122.334 97.3074 123.658 95.9206 125.36 94.723L124.478 94.9121C124.478 94.9121 130.529 89.6801 130.781 89.6171C131.033 89.554 143.136 86.3392 143.136 86.3392L156.815 87.5369L163.182 93.084Z" fill="url(#paint7_linear_123_12036)"/>
<path opacity="0.5" d="M158.958 92.7693C166.649 97.1818 166.649 104.368 158.958 108.843C151.268 113.319 138.787 113.319 131.097 108.906C123.406 104.494 123.406 97.3078 131.097 92.8323C138.787 88.3568 151.268 88.2937 158.958 92.7693Z" fill="url(#paint8_linear_123_12036)"/>
<path opacity="0.48" d="M158.894 94.1561C166.584 98.5686 166.584 105.755 158.894 110.23C151.203 114.706 138.722 114.706 131.032 110.293C123.341 105.881 123.341 98.6947 131.032 94.2191C138.722 89.7436 151.203 89.6806 158.894 94.1561Z" fill="url(#paint9_linear_123_12036)"/>
<path d="M163.623 88.7348C153.537 82.9355 137.211 82.9985 127.188 88.7978C117.166 94.5971 117.166 104.052 127.251 109.852C137.337 115.651 153.663 115.588 163.686 109.789C173.709 103.926 173.709 94.471 163.623 88.7348ZM159.337 91.1931C167.027 95.6056 167.027 102.792 159.337 107.267C151.646 111.743 139.165 111.743 131.475 107.33C123.784 102.918 123.784 95.7317 131.475 91.2562C139.165 86.7807 151.583 86.7806 159.337 91.1931Z" fill="#BCBEFF"/>
<path d="M163.623 88.7348C153.537 82.9355 137.211 82.9985 127.188 88.7978C117.166 94.5971 117.166 104.052 127.251 109.852C137.337 115.651 153.663 115.588 163.686 109.789C173.709 103.926 173.709 94.471 163.623 88.7348ZM159.337 91.1931C167.027 95.6056 167.027 102.792 159.337 107.267C151.646 111.743 139.165 111.743 131.475 107.33C123.784 102.918 123.784 95.7317 131.475 91.2562C139.165 86.7807 151.583 86.7806 159.337 91.1931Z" fill="#BCBEFF"/>
<path d="M127.062 109.411C137.148 115.21 153.474 115.147 163.496 109.347C169.674 105.754 172.069 100.838 170.619 96.173C172.321 100.901 169.989 106.07 163.623 109.726C153.537 115.588 137.274 115.588 127.188 109.789C123.343 107.582 120.947 104.809 120.002 101.909C121.01 104.683 123.343 107.33 127.062 109.411Z" fill="white"/>
<path d="M131.348 90.8776C139.038 86.4021 151.519 86.4021 159.21 90.8146C162.173 92.5166 164.001 94.6598 164.694 96.866C163.938 94.7858 162.173 92.8317 159.336 91.1928C151.646 86.7803 139.165 86.7803 131.474 91.2558C126.746 93.9664 124.981 97.7485 125.99 101.279C124.666 97.6224 126.431 93.7142 131.348 90.8776Z" fill="white"/>
</g>
<path d="M81.1716 178.182C80.6043 178.182 79.9739 178.056 79.4697 177.741L1.68371 132.797C1.17943 132.544 0.927277 132.103 0.927277 131.725C0.927277 131.41 1.11638 131.095 1.49459 130.906L47.9518 104.115C48.7083 103.674 50.095 103.737 50.9775 104.241L128.763 149.186C129.268 149.438 129.52 149.879 129.52 150.257C129.52 150.573 129.331 150.888 128.953 151.077L82.4953 177.867C82.1171 178.119 81.6759 178.182 81.1716 178.182ZM1.80977 132.607L79.5957 177.552C80.4152 177.993 81.6129 178.056 82.3693 177.678L128.827 150.888C129.079 150.699 129.268 150.51 129.268 150.257C129.268 149.942 129.016 149.69 128.637 149.438L50.8515 104.494C50.032 104.052 48.8344 103.989 48.0779 104.368L1.62067 131.158C1.36853 131.347 1.17942 131.536 1.17942 131.788C1.11638 132.103 1.36852 132.418 1.80977 132.607Z" fill="#16E09E"/>
<path d="M129.331 142.504L125.045 141.874L50.789 99.0099C49.9065 98.5056 48.6458 98.4426 47.8894 98.8838L3.70143 124.413L0.990906 124.035V127.628C0.990906 127.943 1.24305 128.321 1.6843 128.574L79.4702 173.518C80.3527 174.022 81.6134 174.085 82.3699 173.644L128.827 146.854C129.142 146.665 129.331 146.413 129.331 146.097V142.504Z" fill="url(#paint10_linear_123_12036)"/>
<path d="M1.7478 124.981L79.5337 169.925C80.4162 170.429 81.6769 170.492 82.4334 170.051L128.891 143.261C129.647 142.82 129.521 142.063 128.702 141.622L50.9156 96.6777C50.0331 96.1735 48.7724 96.1104 48.0159 96.5517L1.55868 123.342C0.802252 123.783 0.865299 124.476 1.7478 124.981Z" fill="url(#paint11_linear_123_12036)"/>
<path opacity="0.3" d="M8.42857 125.863L77.9569 166.017C78.7133 166.458 79.8479 166.521 80.5413 166.143L122.019 142.189C122.649 141.811 122.586 141.118 121.83 140.676L52.3644 100.523C51.608 100.081 50.4733 100.018 49.7799 100.397L8.30251 124.35C7.60912 124.791 7.67214 125.422 8.42857 125.863Z" fill="#1D008D"/>
<path d="M128.827 142.819L82.3702 169.609C81.6138 170.051 80.3531 169.988 79.4706 169.483L1.68462 124.539C1.30641 124.35 1.1173 124.035 0.991227 123.783C0.865156 124.161 1.1173 124.602 1.68462 124.917L79.4706 169.862C80.3531 170.366 81.6138 170.429 82.3702 169.988L128.827 143.198C129.269 142.945 129.395 142.63 129.269 142.252C129.206 142.504 129.08 142.693 128.827 142.819Z" fill="white"/>
<path d="M50.6642 82.62L60.4978 24.249L59.6783 23.9338L60.876 23.2405C61.1282 23.1144 61.4433 23.1144 61.8216 23.3035L140.427 68.6891C141.057 69.0673 141.562 70.0129 141.436 70.7063L131.539 129.518C131.476 129.834 131.35 130.023 131.098 130.086L129.963 130.779L129.774 129.708H129.837L51.7359 84.5741C51.0425 84.2589 50.5382 83.3134 50.6642 82.62Z" fill="url(#paint12_linear_123_12036)"/>
<path d="M139.987 70.3281L141.311 69.7608C141.437 70.076 141.5 70.4542 141.5 70.7063L131.54 129.519C131.477 129.834 131.351 130.023 131.099 130.086L129.964 130.779L129.775 129.708H129.838L125.867 127.438L139.987 70.3281Z" fill="url(#paint13_linear_123_12036)"/>
<path d="M50.476 85.3303L129.081 130.716C129.712 131.094 130.216 130.842 130.342 130.212L140.239 71.3995C140.365 70.7061 139.86 69.7605 139.23 69.3823L60.6247 23.9967C59.9944 23.6185 59.4901 23.8706 59.364 24.501L49.4674 83.3132C49.3413 84.0066 49.8456 84.9521 50.476 85.3303Z" fill="#1D008D"/>
<g opacity="0.51">
<path d="M60.3095 25.1313L139.293 70.7061L129.334 129.707L50.4129 84.1327L60.3095 25.1313Z" fill="#7C4EFF"/>
</g>
<path d="M1.05682 113.192L5.34324 115.462L48.3335 90.6256C49.0269 90.1843 50.2876 90.2474 51.1701 90.7517L125.363 133.553C126.056 133.175 129.334 131.599 129.334 131.599L127.758 134.12C127.695 134.309 127.569 134.498 127.317 134.624L81.9945 160.784C81.3011 161.225 80.0404 161.162 79.1579 160.658L3.26307 116.848C2.94789 116.659 2.69575 116.407 2.63271 116.155L1.05682 113.192Z" fill="url(#paint14_linear_123_12036)"/>
<path d="M1.74984 113.886L79.5358 158.83C80.4183 159.334 81.679 159.397 82.4354 158.956L128.893 132.166C129.649 131.725 129.523 130.968 128.704 130.527L50.9176 85.5826C50.0351 85.0783 48.7744 85.0153 48.018 85.4565L1.56072 112.247C0.804296 112.688 0.867344 113.381 1.74984 113.886Z" fill="url(#paint15_linear_123_12036)"/>
<path d="M1.75008 113.57L79.536 158.514C80.4185 159.019 81.6792 159.082 82.4357 158.641L128.893 131.85C129.145 131.724 129.334 131.535 129.334 131.283C129.397 131.598 129.271 131.913 128.893 132.166L82.4357 158.956C81.6792 159.397 80.4185 159.334 79.536 158.83L1.75008 113.885C1.18276 113.57 0.993653 113.129 1.05669 112.751C1.11972 113.066 1.30883 113.318 1.75008 113.57Z" fill="white"/>
<g opacity="0.15">
<path d="M50.3507 84.9513L54.6372 87.2206L97.6274 62.3846C98.3208 61.9433 99.5815 62.0063 100.464 62.5106L174.657 105.312C175.35 104.934 178.628 103.358 178.628 103.358L177.052 105.879C176.989 106.068 176.863 106.257 176.611 106.383L131.288 132.543C130.595 132.984 129.334 132.921 128.452 132.417L52.557 88.6074C52.2418 88.4183 51.9897 88.1661 51.9266 87.914L50.3507 84.9513Z" fill="url(#paint16_linear_123_12036)"/>
<path d="M51.0437 85.6454L128.83 130.59C129.712 131.094 130.973 131.157 131.729 130.716L178.187 103.926C178.943 103.484 178.817 102.728 177.997 102.287L100.211 57.3424C99.329 56.8381 98.0683 56.7751 97.3118 57.2163L50.8546 84.0065C50.0982 84.4477 50.1612 85.2041 51.0437 85.6454Z" fill="url(#paint17_linear_123_12036)"/>
<path d="M177.933 102.223L100.148 57.279C99.5802 56.9638 98.8868 56.8377 98.1934 56.9008C98.6977 56.9638 99.1389 57.0899 99.5172 57.279L177.303 102.223C178.186 102.728 178.249 103.484 177.492 103.862L131.161 130.715C130.909 130.842 130.594 130.968 130.216 130.968C130.783 131.031 131.35 130.905 131.728 130.715L178.186 103.925C178.879 103.484 178.816 102.728 177.933 102.223Z" fill="white"/>
<g opacity="0.5">
<path d="M91.7639 77.9549L89.2425 76.5051C89.0534 76.379 88.6752 76.379 88.4861 76.5051L85.7125 78.144C85.5234 78.2701 85.4604 78.4592 85.6495 78.5853L88.1709 80.0351C88.36 80.1611 88.7382 80.1611 88.9273 80.0351L91.7009 78.3961C91.953 78.2701 92.0161 78.081 91.7639 77.9549Z" fill="#1D008D"/>
<path d="M95.6714 80.1611L93.15 78.7113C92.9609 78.5852 92.5826 78.5852 92.3935 78.7113L89.62 80.3502C89.4309 80.4763 89.3678 80.6654 89.5569 80.7914L92.0784 82.2413C92.2675 82.3673 92.6457 82.3673 92.8348 82.2413L95.6084 80.6023C95.7975 80.4762 95.8605 80.2871 95.6714 80.1611Z" fill="#1D008D"/>
<path d="M99.5167 82.367L96.9953 80.9172C96.8062 80.7911 96.428 80.7911 96.2389 80.9172L93.4653 82.5561C93.2762 82.6822 93.2132 82.8713 93.4023 82.9974L95.9237 84.4472C96.1128 84.5733 96.491 84.5733 96.6801 84.4472L99.4537 82.8083C99.7059 82.6822 99.7058 82.4931 99.5167 82.367Z" fill="#1D008D"/>
<path d="M96.5539 85.3298L94.0325 83.88C93.8434 83.7539 93.4652 83.7539 93.2761 83.88L90.9438 85.2667C90.7547 85.3928 90.6916 85.5819 90.8807 85.708L93.4021 87.1578C93.5913 87.2839 93.9695 87.2839 94.1586 87.1578L96.4909 85.771C96.743 85.645 96.743 85.4558 96.5539 85.3298Z" fill="#1D008D"/>
<path d="M100.399 87.5364L97.8779 86.0866C97.6888 85.9605 97.3105 85.9605 97.1214 86.0866L94.7891 87.4733C94.6 87.5994 94.537 87.7885 94.7261 87.9146L97.2475 89.3644C97.4366 89.4905 97.8148 89.4905 98.0039 89.3644L100.336 87.9776C100.588 87.8516 100.588 87.6624 100.399 87.5364Z" fill="#1D008D"/>
<path d="M104.245 89.8054L101.723 88.3555C101.534 88.2295 101.156 88.2295 100.967 88.3555L98.6345 89.7423C98.4454 89.8684 98.3823 90.0575 98.5715 90.1836L101.093 91.6334C101.282 91.7595 101.66 91.7595 101.849 91.6334L104.182 90.2466C104.434 90.1205 104.434 89.9314 104.245 89.8054Z" fill="#1D008D"/>
<path d="M108.089 92.0115L105.568 90.5617C105.379 90.4356 105 90.4356 104.811 90.5617L102.479 91.9484C102.29 92.0745 102.227 92.2636 102.416 92.3897L104.937 93.8395C105.126 93.9656 105.505 93.9656 105.694 93.8395L108.026 92.4527C108.278 92.3267 108.341 92.1375 108.089 92.0115Z" fill="#1D008D"/>
<path d="M111.998 94.2181L109.476 92.7683C109.287 92.6422 108.909 92.6422 108.72 92.7683L106.387 94.1551C106.198 94.2812 106.135 94.4703 106.324 94.5964L108.846 96.0462C109.035 96.1722 109.413 96.1722 109.602 96.0462L111.934 94.6594C112.124 94.5333 112.187 94.3442 111.998 94.2181Z" fill="#1D008D"/>
<path d="M115.843 96.4871L113.321 95.0372C113.132 94.9112 112.754 94.9112 112.565 95.0372L110.233 96.424C110.044 96.5501 109.981 96.7392 110.17 96.8653L112.691 98.3151C112.88 98.4412 113.258 98.4412 113.448 98.3151L115.78 96.9283C116.032 96.8022 116.032 96.5501 115.843 96.4871Z" fill="#1D008D"/>
<path d="M119.687 98.6937L117.166 97.2438C116.977 97.1178 116.599 97.1178 116.41 97.2438L114.077 98.6306C113.888 98.7567 113.825 98.9458 114.014 99.0719L116.536 100.522C116.725 100.648 117.103 100.648 117.292 100.522L119.624 99.1349C119.877 99.0088 119.876 98.8197 119.687 98.6937Z" fill="#1D008D"/>
<path d="M123.535 100.899L121.013 99.4495C120.824 99.3235 120.446 99.3235 120.257 99.4495L117.924 100.836C117.735 100.962 117.672 101.151 117.861 101.278L120.383 102.727C120.572 102.853 120.95 102.853 121.139 102.727L123.472 101.341C123.724 101.215 123.724 101.025 123.535 100.899Z" fill="#1D008D"/>
<path d="M127.378 103.106L124.857 101.656C124.668 101.53 124.289 101.53 124.1 101.656L121.768 103.043C121.579 103.169 121.516 103.358 121.705 103.484L124.226 104.934C124.415 105.06 124.794 105.06 124.983 104.934L127.315 103.547C127.567 103.421 127.567 103.232 127.378 103.106Z" fill="#1D008D"/>
<path d="M131.224 105.375L128.703 103.925C128.514 103.799 128.136 103.799 127.947 103.925L125.614 105.312C125.425 105.438 125.362 105.627 125.551 105.753L128.073 107.203C128.262 107.329 128.64 107.329 128.829 107.203L131.161 105.816C131.414 105.69 131.414 105.501 131.224 105.375Z" fill="#1D008D"/>
<path d="M94.9782 88.5447L92.4567 87.0949C92.2676 86.9688 91.8894 86.9688 91.7003 87.0949L89.368 88.4817C89.1789 88.6078 89.1158 88.7969 89.3049 88.923L91.8264 90.3728C92.0155 90.4988 92.3937 90.4988 92.5828 90.3728L94.9151 88.986C95.1673 88.7969 95.1673 88.6078 94.9782 88.5447Z" fill="#1D008D"/>
<path d="M91.0707 86.2758L88.5493 84.826C88.3601 84.6999 87.9819 84.6999 87.7928 84.826L85.4605 86.2128C85.2714 86.3389 85.2084 86.528 85.3975 86.654L87.9189 88.1038C88.108 88.2299 88.4862 88.2299 88.6753 88.1038L91.0076 86.7171C91.2598 86.591 91.2598 86.4019 91.0707 86.2758Z" fill="#1D008D"/>
<path d="M87.1624 84.0059L81.8043 80.9172C81.6152 80.7911 81.237 80.7911 81.0479 80.9172L78.7156 82.304C78.5265 82.43 78.4634 82.6192 78.6525 82.7452L84.0106 85.834C84.1997 85.96 84.5779 85.96 84.767 85.834L87.0993 84.4472C87.2884 84.3211 87.3515 84.132 87.1624 84.0059Z" fill="#1D008D"/>
<path d="M82.5604 85.4562L78.2109 82.9348C78.0218 82.8088 77.6436 82.8088 77.4545 82.9348L75.1222 84.3216C74.9331 84.4477 74.87 84.6368 75.0591 84.7629L79.4086 87.2843C79.5977 87.4103 79.9759 87.4103 80.165 87.2843L82.4973 85.8975C82.7495 85.7714 82.8125 85.5823 82.5604 85.4562Z" fill="#1D008D"/>
<path d="M98.8235 90.7509L96.3021 89.3011C96.113 89.175 95.7348 89.175 95.5457 89.3011L93.2133 90.6879C93.0242 90.8139 92.9612 91.0031 93.1503 91.1291L95.6717 92.5789C95.8609 92.705 96.2391 92.705 96.4282 92.5789L98.7605 91.1922C99.0126 91.0661 99.0126 90.877 98.8235 90.7509Z" fill="#1D008D"/>
<path d="M102.669 92.9571L100.147 91.5073C99.9584 91.3812 99.5802 91.3812 99.3911 91.5073L97.0588 92.8941C96.8696 93.0201 96.8066 93.2092 96.9957 93.3353L99.5171 94.7851C99.7062 94.9112 100.084 94.9112 100.274 94.7851L102.606 93.3983C102.858 93.2723 102.858 93.0832 102.669 92.9571Z" fill="#1D008D"/>
<path d="M106.513 95.1635L103.992 93.7137C103.803 93.5876 103.425 93.5876 103.236 93.7137L100.903 95.1005C100.714 95.2265 100.651 95.4157 100.84 95.5417L103.362 96.9915C103.551 97.1176 103.929 97.1176 104.118 96.9915L106.45 95.6048C106.703 95.4787 106.703 95.2896 106.513 95.1635Z" fill="#1D008D"/>
<path d="M110.359 97.4329L107.837 95.983C107.648 95.857 107.27 95.857 107.081 95.983L104.749 97.3698C104.559 97.4959 104.496 97.685 104.686 97.8111L107.207 99.2609C107.396 99.387 107.774 99.387 107.963 99.2609L110.296 97.8741C110.548 97.748 110.548 97.4959 110.359 97.4329Z" fill="#1D008D"/>
<path d="M114.204 99.6388L111.683 98.189C111.494 98.0629 111.115 98.0629 110.926 98.189L108.594 99.5758C108.405 99.7018 108.342 99.8909 108.531 100.017L111.052 101.467C111.241 101.593 111.62 101.593 111.809 101.467L114.141 100.08C114.393 99.954 114.393 99.7649 114.204 99.6388Z" fill="#1D008D"/>
<path d="M118.049 101.845L115.527 100.396C115.338 100.27 114.96 100.27 114.771 100.396L112.438 101.782C112.249 101.908 112.186 102.098 112.375 102.224L114.897 103.673C115.086 103.799 115.464 103.799 115.653 103.673L117.986 102.287C118.238 102.161 118.238 101.971 118.049 101.845Z" fill="#1D008D"/>
<path d="M121.894 104.051L119.373 102.602C119.183 102.476 118.805 102.476 118.616 102.602L116.284 103.988C116.095 104.114 116.032 104.304 116.221 104.43L118.742 105.879C118.931 106.005 119.31 106.005 119.499 105.879L121.831 104.493C122.083 104.367 122.146 104.177 121.894 104.051Z" fill="#1D008D"/>
<path d="M125.739 106.321L123.218 104.871C123.029 104.745 122.651 104.745 122.462 104.871L120.129 106.258C119.94 106.384 119.877 106.573 120.066 106.699L122.588 108.149C122.777 108.275 123.155 108.275 123.344 108.149L125.676 106.762C125.928 106.636 125.992 106.447 125.739 106.321Z" fill="#1D008D"/>
<path d="M129.647 108.527L127.125 107.077C126.936 106.951 126.558 106.951 126.369 107.077L124.037 108.464C123.848 108.59 123.785 108.779 123.974 108.905L126.495 110.355C126.684 110.481 127.062 110.481 127.251 110.355L129.584 108.968C129.836 108.842 129.836 108.653 129.647 108.527Z" fill="#1D008D"/>
<path d="M136.456 112.498L131.035 109.347C130.846 109.22 130.467 109.22 130.278 109.347L127.946 110.733C127.757 110.859 127.694 111.048 127.883 111.175L133.304 114.326C133.493 114.452 133.871 114.452 134.06 114.326L136.393 112.94C136.645 112.813 136.645 112.624 136.456 112.498Z" fill="#1D008D"/>
<path d="M129.395 116.596L124.794 113.948C124.605 113.822 124.226 113.822 124.037 113.948L121.705 115.335C121.516 115.461 121.453 115.65 121.642 115.776L126.244 118.424C126.433 118.55 126.811 118.55 127 118.424L129.332 117.037C129.584 116.911 129.584 116.722 129.395 116.596Z" fill="#1D008D"/>
<path d="M98.2566 94.5328L95.7351 93.083C95.546 92.9569 95.1678 92.9569 94.9787 93.083L92.6464 94.4698C92.4573 94.5959 92.3943 94.785 92.5834 94.9111L95.1048 96.3609C95.2939 96.4869 95.6721 96.4869 95.8612 96.3609L98.1935 94.9741C98.4457 94.848 98.4457 94.6589 98.2566 94.5328Z" fill="#1D008D"/>
<path d="M94.3473 92.2639L91.8259 90.8141C91.6368 90.688 91.2585 90.688 91.0694 90.8141L88.7371 92.2009C88.548 92.3269 88.485 92.5161 88.6741 92.6421L91.1955 94.0919C91.3846 94.218 91.7628 94.218 91.9519 94.0919L94.2843 92.7052C94.5364 92.5791 94.5364 92.39 94.3473 92.2639Z" fill="#1D008D"/>
<path d="M90.3768 89.9948L87.8554 88.5449C87.6663 88.4189 87.2881 88.4189 87.099 88.5449L84.7667 89.9317C84.5776 90.0578 84.5145 90.2469 84.7036 90.373L87.2251 91.8228C87.4142 91.9489 87.7924 91.9489 87.9815 91.8228L90.3138 90.436C90.566 90.3099 90.5659 90.1208 90.3768 89.9948Z" fill="#1D008D"/>
<path d="M86.4055 87.7252L83.884 86.2753C83.6949 86.1493 83.3167 86.1493 83.1276 86.2753L80.7953 87.6621C80.6062 87.7882 80.5431 87.9773 80.7323 88.1034L83.2537 89.5532C83.4428 89.6793 83.821 89.6793 84.0101 89.5532L86.3424 88.1664C86.5946 87.9773 86.6576 87.7882 86.4055 87.7252Z" fill="#1D008D"/>
<path d="M102.1 96.7393L99.5787 95.2894C99.3896 95.1634 99.0114 95.1634 98.8223 95.2894L96.49 96.6762C96.3009 96.8023 96.2378 96.9914 96.427 97.1175L98.9484 98.5673C99.1375 98.6934 99.5157 98.6934 99.7048 98.5673L102.037 97.1805C102.289 97.0544 102.352 96.8653 102.1 96.7393Z" fill="#1D008D"/>
<path d="M105.947 99.0089L103.426 97.559C103.237 97.433 102.859 97.433 102.669 97.559L100.337 98.9458C100.148 99.0719 100.085 99.261 100.274 99.3871L102.796 100.837C102.985 100.963 103.363 100.963 103.552 100.837L105.884 99.4501C106.136 99.261 106.199 99.0719 105.947 99.0089Z" fill="#1D008D"/>
<path d="M109.855 101.215L107.333 99.765C107.144 99.6389 106.766 99.6389 106.577 99.765L104.245 101.152C104.056 101.278 103.992 101.467 104.182 101.593L106.703 103.043C106.892 103.169 107.27 103.169 107.459 103.043L109.792 101.656C110.044 101.53 110.044 101.341 109.855 101.215Z" fill="#1D008D"/>
<path d="M113.7 103.421L111.179 101.971C110.99 101.845 110.611 101.845 110.422 101.971L108.09 103.358C107.901 103.484 107.838 103.673 108.027 103.799L110.548 105.249C110.738 105.375 111.116 105.375 111.305 105.249L113.637 103.862C113.889 103.736 113.889 103.547 113.7 103.421Z" fill="#1D008D"/>
<path d="M117.545 105.628L115.023 104.178C114.834 104.052 114.456 104.052 114.267 104.178L111.934 105.565C111.745 105.691 111.682 105.88 111.871 106.006L114.393 107.456C114.582 107.582 114.96 107.582 115.149 107.456L117.482 106.069C117.734 105.943 117.734 105.754 117.545 105.628Z" fill="#1D008D"/>
<path d="M121.39 107.897L118.869 106.447C118.68 106.321 118.301 106.321 118.112 106.447L115.78 107.834C115.591 107.96 115.528 108.149 115.717 108.275L118.238 109.725C118.427 109.851 118.806 109.851 118.995 109.725L121.327 108.338C121.579 108.212 121.579 107.96 121.39 107.897Z" fill="#1D008D"/>
<path d="M125.235 110.103L122.714 108.653C122.525 108.527 122.147 108.527 121.958 108.653L119.625 110.04C119.436 110.166 119.373 110.355 119.562 110.481L122.084 111.931C122.273 112.057 122.651 112.057 122.84 111.931L125.172 110.544C125.425 110.418 125.425 110.229 125.235 110.103Z" fill="#1D008D"/>
<path d="M129.081 112.309L126.559 110.859C126.37 110.733 125.992 110.733 125.803 110.859L123.471 112.246C123.282 112.372 123.219 112.561 123.408 112.687L125.929 114.137C126.118 114.263 126.496 114.263 126.685 114.137L129.018 112.75C129.27 112.624 129.27 112.435 129.081 112.309Z" fill="#1D008D"/>
<path d="M132.925 114.515L130.404 113.066C130.215 112.94 129.837 112.94 129.647 113.066L127.315 114.452C127.126 114.578 127.063 114.768 127.252 114.894L129.773 116.343C129.963 116.47 130.341 116.47 130.53 116.343L132.862 114.957C133.114 114.831 133.114 114.642 132.925 114.515Z" fill="#1D008D"/>
<path d="M88.9901 93.2721L86.4686 91.8223C86.2795 91.6962 85.9013 91.6962 85.7122 91.8223L83.3799 93.2091C83.1908 93.3351 83.1277 93.5242 83.3168 93.6503L85.8383 95.1001C86.0274 95.2262 86.4056 95.2262 86.5947 95.1001L88.927 93.7133C89.1792 93.5873 89.1792 93.3982 88.9901 93.2721Z" fill="#1D008D"/>
<path d="M85.1438 91.0659L82.6223 89.6161C82.4332 89.49 82.055 89.49 81.8659 89.6161L79.5336 91.0029C79.3445 91.129 79.2815 91.3181 79.4706 91.4441L81.992 92.8939C82.1811 93.02 82.5593 93.02 82.7484 92.8939L85.0807 91.5072C85.3329 91.3811 85.3329 91.192 85.1438 91.0659Z" fill="#1D008D"/>
<path d="M81.3002 88.86L78.7788 87.4102C78.5897 87.2841 78.2115 87.2841 78.0224 87.4102L75.69 88.7969C75.5009 88.923 75.4379 89.1121 75.627 89.2382L78.1484 90.688C78.3375 90.8141 78.7158 90.8141 78.9049 90.688L81.2372 89.3012C81.4893 89.1752 81.4893 88.923 81.3002 88.86Z" fill="#1D008D"/>
<path d="M77.4539 86.5906L74.9325 85.1408C74.7434 85.0147 74.3652 85.0147 74.1761 85.1408L71.8438 86.5275C71.6546 86.6536 71.5916 86.8427 71.7807 86.9688L74.3021 88.4186C74.4912 88.5447 74.8695 88.5447 75.0586 88.4186L77.3909 87.0318C77.643 86.9058 77.643 86.7166 77.4539 86.5906Z" fill="#1D008D"/>
<path d="M73.7353 88.7969L71.2139 87.3471C71.0248 87.221 70.6466 87.221 70.4575 87.3471L69.701 87.7884C69.5119 87.9144 69.4489 88.1035 69.638 88.2296L72.1594 89.6794C72.3485 89.8055 72.7267 89.8055 72.9158 89.6794L73.6723 89.2382C73.9244 89.1121 73.9874 88.923 73.7353 88.7969Z" fill="#1D008D"/>
<path d="M78.7776 91.6963L76.2561 90.2465C76.067 90.1204 75.6888 90.1204 75.4997 90.2465L74.7433 90.6877C74.5542 90.8138 74.4911 91.0029 74.6803 91.129L77.2017 92.5788C77.3908 92.7049 77.769 92.7049 77.9581 92.5788L78.7145 92.1375C78.9667 92.0115 78.9667 91.8224 78.7776 91.6963Z" fill="#1D008D"/>
<path d="M82.56 93.9029L80.0386 92.4531C79.8494 92.327 79.4712 92.327 79.2821 92.4531L78.5257 92.8943C78.3366 93.0204 78.2736 93.2095 78.4627 93.3356L80.9841 94.7854C81.1732 94.9115 81.5514 94.9115 81.7405 94.7854L82.4969 94.3441C82.7491 94.2181 82.7491 93.9659 82.56 93.9029Z" fill="#1D008D"/>
<path d="M86.4053 96.1086L83.8839 94.6588C83.6948 94.5328 83.3166 94.5328 83.1275 94.6588L82.3711 95.1001C82.182 95.2261 82.1189 95.4153 82.308 95.5413L84.8295 96.9911C85.0186 97.1172 85.3968 97.1172 85.5859 96.9911L86.3423 96.5499C86.5944 96.4238 86.5944 96.1717 86.4053 96.1086Z" fill="#1D008D"/>
<path d="M90.1877 98.3152L87.6663 96.8654C87.4772 96.7394 87.099 96.7394 86.9099 96.8654L86.1534 97.3067C85.9643 97.4327 85.9013 97.6219 86.0904 97.7479L88.6118 99.1977C88.8009 99.3238 89.1792 99.3238 89.3683 99.1977L90.1247 98.7565C90.3768 98.5674 90.4399 98.3783 90.1877 98.3152Z" fill="#1D008D"/>
<path d="M111.493 110.607L108.972 109.157C108.783 109.031 108.405 109.031 108.216 109.157L107.459 109.599C107.27 109.725 107.207 109.914 107.396 110.04L109.918 111.49C110.107 111.616 110.485 111.616 110.674 111.49L111.43 111.049C111.683 110.922 111.746 110.733 111.493 110.607Z" fill="#1D008D"/>
<path d="M115.339 112.813L112.817 111.363C112.628 111.237 112.25 111.237 112.061 111.363L111.305 111.805C111.115 111.931 111.052 112.12 111.241 112.246L113.763 113.696C113.952 113.822 114.33 113.822 114.519 113.696L115.276 113.254C115.528 113.128 115.528 112.876 115.339 112.813Z" fill="#1D008D"/>
<path d="M119.121 115.019L116.6 113.57C116.411 113.444 116.032 113.444 115.843 113.57L115.087 114.011C114.898 114.137 114.835 114.326 115.024 114.452L117.545 115.902C117.734 116.028 118.113 116.028 118.302 115.902L119.058 115.461C119.31 115.335 119.373 115.082 119.121 115.019Z" fill="#1D008D"/>
<path d="M122.967 117.226L120.445 115.776C120.256 115.65 119.878 115.65 119.689 115.776L118.932 116.217C118.743 116.344 118.68 116.533 118.869 116.659L121.391 118.109C121.58 118.235 121.958 118.235 122.147 118.109L122.904 117.667C123.156 117.541 123.156 117.289 122.967 117.226Z" fill="#1D008D"/>
<path d="M92.8345 95.4787L90.3131 94.0289C90.124 93.9028 89.7458 93.9028 89.5567 94.0289L87.2244 95.4157C87.0353 95.5417 86.9722 95.7308 87.1613 95.8569L89.6828 97.3067C89.8719 97.4328 90.2501 97.4328 90.4392 97.3067L92.7715 95.9199C93.0236 95.7939 93.0236 95.6048 92.8345 95.4787Z" fill="#1D008D"/>
<path d="M96.6808 97.6846L94.1594 96.2348C93.9703 96.1087 93.5921 96.1087 93.403 96.2348L91.0707 97.6216C90.8815 97.7477 90.8185 97.9368 91.0076 98.0629L93.529 99.5127C93.7181 99.6387 94.0964 99.6387 94.2855 99.5127L96.6178 98.1259C96.8699 97.9998 96.8699 97.8107 96.6808 97.6846Z" fill="#1D008D"/>
<path d="M100.526 99.9542L98.0048 98.5044C97.8157 98.3783 97.4375 98.3783 97.2483 98.5044L94.916 99.8912C94.7269 100.017 94.6639 100.206 94.853 100.332L97.3744 101.782C97.5635 101.908 97.9417 101.908 98.1308 101.782L100.463 100.395C100.715 100.269 100.715 100.017 100.526 99.9542Z" fill="#1D008D"/>
<path d="M104.371 102.16L101.849 100.71C101.66 100.584 101.282 100.584 101.093 100.71L98.7605 102.097C98.5714 102.223 98.5084 102.412 98.6975 102.538L101.219 103.988C101.408 104.114 101.786 104.114 101.975 103.988L104.308 102.601C104.56 102.475 104.56 102.286 104.371 102.16Z" fill="#1D008D"/>
<path d="M108.216 104.367L105.695 102.917C105.506 102.791 105.127 102.791 104.938 102.917L102.606 104.304C102.417 104.43 102.354 104.619 102.543 104.745L105.064 106.195C105.253 106.321 105.632 106.321 105.821 106.195L108.153 104.808C108.405 104.682 108.405 104.493 108.216 104.367Z" fill="#1D008D"/>
<path d="M112.061 106.573L109.54 105.123C109.351 104.997 108.973 104.997 108.784 105.123L106.451 106.51C106.262 106.636 106.199 106.825 106.388 106.951L108.91 108.401C109.099 108.527 109.477 108.527 109.666 108.401L111.998 107.014C112.251 106.888 112.251 106.699 112.061 106.573Z" fill="#1D008D"/>
<path d="M115.907 108.842L113.385 107.392C113.196 107.266 112.818 107.266 112.629 107.392L110.297 108.779C110.108 108.905 110.044 109.094 110.234 109.22L112.755 110.67C112.944 110.796 113.322 110.796 113.511 110.67L115.844 109.283C116.096 109.157 116.159 108.968 115.907 108.842Z" fill="#1D008D"/>
<path d="M119.751 111.048L117.23 109.598C117.041 109.472 116.663 109.472 116.473 109.598L114.141 110.985C113.952 111.111 113.889 111.3 114.078 111.426L116.6 112.876C116.789 113.002 117.167 113.002 117.356 112.876L119.688 111.49C119.94 111.363 120.003 111.174 119.751 111.048Z" fill="#1D008D"/>
<path d="M123.66 113.255L121.138 111.805C120.949 111.679 120.571 111.679 120.382 111.805L118.049 113.192C117.86 113.318 117.797 113.507 117.986 113.633L120.508 115.083C120.697 115.209 121.075 115.209 121.264 115.083L123.597 113.696C123.786 113.57 123.849 113.381 123.66 113.255Z" fill="#1D008D"/>
<path d="M92.646 83.0606L85.2708 78.8372C85.0817 78.7112 84.7035 78.7112 84.5144 78.8372L82.1821 80.224C81.993 80.3501 81.9299 80.5392 82.119 80.6653L89.4942 84.8886C89.6833 85.0147 90.0615 85.0147 90.2506 84.8886L92.5829 83.5019C92.8351 83.3758 92.8351 83.1867 92.646 83.0606Z" fill="#1D008D"/>
<path d="M139.922 110.418L132.547 106.195C132.357 106.069 131.979 106.069 131.79 106.195L129.458 107.581C129.269 107.708 129.206 107.897 129.395 108.023L136.77 112.246C136.959 112.372 137.337 112.372 137.526 112.246L139.859 110.859C140.111 110.733 140.174 110.481 139.922 110.418Z" fill="#1D008D"/>
<path d="M132.799 101.593L130.277 100.143C130.088 100.017 129.71 100.017 129.521 100.143L126.747 101.782C126.558 101.908 126.495 102.097 126.684 102.223L129.206 103.673C129.395 103.799 129.773 103.799 129.962 103.673L132.736 102.034C132.988 101.908 132.988 101.719 132.799 101.593Z" fill="#1D008D"/>
<path d="M104.812 85.4561L100.841 83.1238C100.652 82.9977 100.273 82.9977 100.084 83.1238L97.3107 84.7627C97.1216 84.8888 97.0586 85.0779 97.2477 85.204L101.219 87.5363C101.408 87.6624 101.786 87.6624 101.975 87.5363L104.749 85.8974C105.001 85.7713 105.064 85.5822 104.812 85.4561Z" fill="#1D008D"/>
<path d="M129.081 99.4502L125.11 97.1179C124.921 96.9918 124.543 96.9918 124.353 97.1179L121.58 98.7568C121.391 98.8829 121.328 99.072 121.517 99.198L125.488 101.53C125.677 101.656 126.055 101.656 126.245 101.53L129.018 99.8914C129.27 99.7654 129.27 99.5763 129.081 99.4502Z" fill="#1D008D"/>
<path d="M110.422 88.6709L106.451 86.3386C106.262 86.2125 105.884 86.2125 105.694 86.3386L102.921 87.9775C102.732 88.1036 102.669 88.2927 102.858 88.4187L106.829 90.7511C107.018 90.8771 107.396 90.8771 107.585 90.7511L110.359 89.1121C110.611 88.9861 110.611 88.797 110.422 88.6709Z" fill="#1D008D"/>
<path d="M102.858 88.4819L120.193 98.5046C120.382 98.6306 120.76 98.6306 120.949 98.5046L123.786 96.8656C123.975 96.7396 123.975 96.5505 123.786 96.4244L106.451 86.4017L102.858 88.4819Z" fill="#1D008D"/>
<path d="M139.923 107.771L142.696 109.347C142.885 109.473 143.138 109.41 143.327 109.347L144.461 108.653C144.65 108.527 144.65 108.401 144.461 108.275L141.688 106.699C141.499 106.573 141.247 106.636 141.057 106.699L139.923 107.393C139.734 107.519 139.734 107.708 139.923 107.771Z" fill="#1D008D"/>
<path d="M136.014 105.564L138.788 107.14C138.977 107.266 139.229 107.203 139.418 107.14L140.553 106.447C140.742 106.321 140.742 106.195 140.553 106.068L137.779 104.493C137.59 104.367 137.338 104.43 137.149 104.493L136.014 105.186C135.888 105.312 135.825 105.438 136.014 105.564Z" fill="#1D008D"/>
<path d="M132.169 103.295L134.943 104.871C135.132 104.997 135.384 104.934 135.573 104.871L136.708 104.178C136.897 104.052 136.897 103.926 136.708 103.8L133.934 102.224C133.745 102.098 133.493 102.161 133.304 102.224L132.169 102.917C132.043 103.043 131.98 103.232 132.169 103.295Z" fill="#1D008D"/>
<path d="M133.997 106.699L136.771 108.275C136.96 108.401 137.212 108.338 137.401 108.275L138.536 107.582C138.725 107.456 138.725 107.33 138.536 107.203L135.762 105.628C135.573 105.502 135.321 105.565 135.132 105.628L133.997 106.321C133.871 106.447 133.871 106.636 133.997 106.699Z" fill="#1D008D"/>
</g>
</g>
<g opacity="0.8">
<path d="M37.4894 108.907L35.031 107.457C34.8419 107.331 34.8419 107.142 35.094 107.016L37.9937 105.314C38.2458 105.188 38.561 105.188 38.7501 105.251L41.2085 106.701C41.3976 106.827 41.3976 107.016 41.1454 107.142L38.2458 108.844C38.0567 109.033 37.6785 109.033 37.4894 108.907Z" fill="#1D008D"/>
<path d="M41.3347 111.113L38.8763 109.663C38.6872 109.537 38.6872 109.348 38.9394 109.222L41.839 107.52C42.0911 107.394 42.4063 107.394 42.5954 107.457L45.0538 108.907C45.2429 109.033 45.2429 109.222 44.9908 109.348L42.0912 111.05C41.839 111.239 41.5238 111.239 41.3347 111.113Z" fill="#1D008D"/>
<path d="M45.1171 113.32L42.6588 111.87C42.4696 111.744 42.4696 111.555 42.7218 111.429L45.6214 109.727C45.8736 109.601 46.1887 109.601 46.3778 109.664L48.8362 111.113C49.0253 111.239 49.0253 111.429 48.7732 111.555L45.8736 113.257C45.6845 113.446 45.3062 113.446 45.1171 113.32Z" fill="#1D008D"/>
<path d="M50.4114 111.491L47.953 110.041C47.7639 109.915 47.7639 109.726 48.016 109.6L50.4744 108.213C50.7266 108.087 51.0418 108.087 51.2309 108.15L53.6892 109.6C53.8784 109.726 53.8784 109.915 53.6262 110.041L51.1678 111.428C50.9787 111.617 50.6005 111.617 50.4114 111.491Z" fill="#1D008D"/>
<path d="M54.2568 113.698L51.7984 112.248C51.6093 112.122 51.6093 111.933 51.8614 111.807L54.3198 110.42C54.5719 110.294 54.8871 110.294 55.0762 110.357L57.5346 111.807C57.7237 111.933 57.7237 112.122 57.4716 112.248L55.0132 113.635C54.761 113.824 54.4459 113.824 54.2568 113.698Z" fill="#1D008D"/>
<path d="M58.0391 115.904L55.5807 114.454C55.3916 114.328 55.3916 114.139 55.6438 114.013L58.1022 112.626C58.3543 112.5 58.6695 112.5 58.8586 112.563L61.317 114.013C61.5061 114.139 61.5061 114.328 61.254 114.454L58.7956 115.841C58.6065 116.03 58.2282 116.03 58.0391 115.904Z" fill="#1D008D"/>
<path d="M61.8845 118.11L59.4262 116.66C59.237 116.534 59.237 116.345 59.4892 116.219L61.9476 114.832C62.1997 114.706 62.5149 114.706 62.704 114.769L65.1624 116.219C65.3515 116.345 65.3515 116.534 65.0994 116.66L62.641 118.047C62.3888 118.236 62.0736 118.236 61.8845 118.11Z" fill="#1D008D"/>
<path d="M65.6669 120.316L63.2085 118.867C63.0194 118.74 63.0194 118.551 63.2716 118.425L65.73 117.039C65.9821 116.912 66.2973 116.912 66.4864 116.975L68.9448 118.425C69.1339 118.551 69.1339 118.74 68.8817 118.867L66.4233 120.253C66.2342 120.442 65.856 120.442 65.6669 120.316Z" fill="#1D008D"/>
<path d="M69.5123 122.523L67.0539 121.073C66.8648 120.947 66.8648 120.758 67.1169 120.631L69.5753 119.245C69.8275 119.119 70.1426 119.119 70.3318 119.182L72.7901 120.631C72.9792 120.758 72.9792 120.947 72.7271 121.073L70.2687 122.46C70.0166 122.586 69.7014 122.649 69.5123 122.523Z" fill="#1D008D"/>
<path d="M73.2929 124.729L70.8345 123.279C70.6454 123.153 70.6454 122.964 70.8975 122.838L73.3559 121.451C73.6081 121.325 73.9233 121.325 74.1124 121.388L76.5707 122.838C76.7599 122.964 76.7599 123.153 76.5077 123.279L74.0493 124.666C73.8602 124.792 73.482 124.855 73.2929 124.729Z" fill="#1D008D"/>
<path d="M77.1383 126.935L74.6799 125.485C74.4908 125.359 74.4908 125.17 74.7429 125.044L77.2013 123.657C77.4534 123.531 77.7686 123.531 77.9577 123.594L80.4161 125.044C80.6052 125.17 80.6052 125.359 80.3531 125.485L77.8947 126.872C77.6425 126.998 77.3274 127.061 77.1383 126.935Z" fill="#1D008D"/>
<path d="M80.9206 129.141L78.4622 127.691C78.2731 127.565 78.2731 127.376 78.5253 127.25L80.9837 125.863C81.2358 125.737 81.551 125.737 81.7401 125.8L84.1985 127.25C84.3876 127.376 84.3876 127.565 84.1355 127.691L81.6771 129.078C81.488 129.204 81.1097 129.267 80.9206 129.141Z" fill="#1D008D"/>
<path d="M84.766 131.347L82.3076 129.897C82.1185 129.771 82.1185 129.582 82.3707 129.456L84.829 128.069C85.0812 127.943 85.3964 127.943 85.5855 128.006L88.0439 129.456C88.233 129.582 88.233 129.771 87.9808 129.897L85.5224 131.284C85.2703 131.41 84.9551 131.41 84.766 131.347Z" fill="#1D008D"/>
<path d="M56.0215 110.482L53.5631 109.033C53.374 108.907 53.374 108.717 53.6262 108.591L56.0846 107.205C56.3367 107.079 56.6519 107.079 56.841 107.142L59.2994 108.591C59.4885 108.717 59.4885 108.907 59.2363 109.033L56.778 110.419C56.5889 110.545 56.2106 110.545 56.0215 110.482Z" fill="#1D008D"/>
<path d="M52.1771 108.214L49.7187 106.764C49.5296 106.638 49.5296 106.449 49.7817 106.322L52.2401 104.936C52.4922 104.81 52.8074 104.81 52.9965 104.873L55.4549 106.322C55.644 106.449 55.644 106.638 55.3919 106.764L52.9335 108.151C52.6813 108.34 52.3662 108.34 52.1771 108.214Z" fill="#1D008D"/>
<path d="M48.2678 106.008L42.9728 102.919C42.7837 102.793 42.7837 102.604 43.0358 102.478L45.4942 101.091C45.7464 100.965 46.0615 100.965 46.2506 101.028L51.5457 104.117C51.7348 104.243 51.7348 104.432 51.4826 104.558L49.0242 105.945C48.8351 106.071 48.4569 106.134 48.2678 106.008Z" fill="#1D008D"/>
<path d="M50.9795 103.297L46.6931 100.775C46.504 100.649 46.504 100.46 46.7562 100.334L49.2145 98.9471C49.4667 98.821 49.7819 98.821 49.971 98.8841L54.2574 101.405C54.4465 101.532 54.4465 101.721 54.1943 101.847L51.736 103.234C51.5469 103.36 51.1686 103.36 50.9795 103.297Z" fill="#1D008D"/>
<path d="M59.8669 112.689L57.4085 111.239C57.2194 111.113 57.2194 110.924 57.4715 110.798L59.9299 109.411C60.1821 109.285 60.4973 109.285 60.6864 109.348L63.1448 110.798C63.3339 110.924 63.3339 111.113 63.0817 111.239L60.6233 112.626C60.3712 112.752 60.056 112.752 59.8669 112.689Z" fill="#1D008D"/>
<path d="M63.6493 114.895L61.1909 113.445C61.0018 113.319 61.0018 113.13 61.2539 113.004L63.7123 111.617C63.9645 111.491 64.2796 111.491 64.4687 111.554L66.9271 113.004C67.1162 113.13 67.1162 113.319 66.8641 113.445L64.4057 114.832C64.2166 114.958 63.8384 114.958 63.6493 114.895Z" fill="#1D008D"/>
<path d="M67.4947 117.038L65.0363 115.588C64.8472 115.462 64.8472 115.273 65.0993 115.147L67.5577 113.76C67.8099 113.634 68.125 113.634 68.3141 113.697L70.7725 115.147C70.9616 115.273 70.9616 115.462 70.7095 115.588L68.2511 116.975C67.999 117.164 67.6838 117.164 67.4947 117.038Z" fill="#1D008D"/>
<path d="M71.277 119.244L68.8187 117.795C68.6296 117.668 68.6296 117.479 68.8817 117.353L71.3401 115.967C71.5922 115.84 71.9074 115.84 72.0965 115.903L74.5549 117.353C74.744 117.479 74.744 117.668 74.4919 117.795L72.0335 119.181C71.8444 119.37 71.4662 119.37 71.277 119.244Z" fill="#1D008D"/>
<path d="M75.1224 121.451L72.664 120.001C72.4749 119.875 72.4749 119.686 72.7271 119.56L75.1855 118.173C75.4376 118.047 75.7528 118.047 75.9419 118.11L78.4003 119.56C78.5894 119.686 78.5894 119.875 78.3372 120.001L75.8788 121.388C75.6267 121.577 75.3115 121.577 75.1224 121.451Z" fill="#1D008D"/>
<path d="M78.903 123.657L76.4446 122.207C76.2555 122.081 76.2555 121.892 76.5076 121.766L78.966 120.379C79.2182 120.253 79.5334 120.253 79.7225 120.316L82.1808 121.766C82.37 121.892 82.37 122.081 82.1178 122.207L79.6594 123.594C79.4703 123.783 79.0921 123.783 78.903 123.657Z" fill="#1D008D"/>
<path d="M82.7484 125.863L80.29 124.414C80.1009 124.288 80.1009 124.098 80.353 123.972L82.8114 122.586C83.0636 122.46 83.3788 122.46 83.5679 122.523L86.0263 123.972C86.2154 124.098 86.2154 124.288 85.9632 124.414L83.5048 125.8C83.2527 125.99 82.9375 125.99 82.7484 125.863Z" fill="#1D008D"/>
<path d="M86.5308 128.07L84.0724 126.62C83.8833 126.494 83.8833 126.305 84.1354 126.179L86.5938 124.792C86.846 124.666 87.1611 124.666 87.3502 124.729L89.8086 126.179C89.9977 126.305 89.9977 126.494 89.7456 126.62L87.2872 128.007C87.0981 128.196 86.7199 128.196 86.5308 128.07Z" fill="#1D008D"/>
<path d="M90.3761 130.275L87.9178 128.825C87.7286 128.699 87.7287 128.51 87.9808 128.384L90.4392 126.997C90.6913 126.871 91.0065 126.871 91.1956 126.934L93.654 128.384C93.8431 128.51 93.8431 128.699 93.591 128.825L91.1326 130.212C90.8804 130.401 90.5652 130.401 90.3761 130.275Z" fill="#1D008D"/>
<path d="M97.1212 134.184L91.7632 131.095C91.574 130.969 91.5741 130.78 91.8262 130.654L94.2846 129.267C94.5367 129.141 94.8519 129.141 95.041 129.204L100.399 132.293C100.588 132.419 100.588 132.608 100.336 132.734L97.8776 134.121C97.6885 134.31 97.3733 134.31 97.1212 134.184Z" fill="#1D008D"/>
<path d="M104.559 129.898L100.021 127.25C99.8317 127.124 99.8317 126.935 100.084 126.809L102.542 125.422C102.794 125.296 103.11 125.296 103.299 125.359L107.837 128.007C108.026 128.133 108.026 128.322 107.774 128.448L105.316 129.835C105.127 130.024 104.749 130.024 104.559 129.898Z" fill="#1D008D"/>
<path d="M66.5479 112.248L64.0895 110.798C63.9004 110.672 63.9004 110.483 64.1526 110.357L66.611 108.97C66.8631 108.844 67.1783 108.844 67.3674 108.907L69.8258 110.357C70.0149 110.483 70.0149 110.672 69.7627 110.798L67.3044 112.185C67.0522 112.311 66.737 112.374 66.5479 112.248Z" fill="#1D008D"/>
<path d="M62.6405 109.978L60.1821 108.529C59.993 108.403 59.993 108.213 60.2451 108.087L62.7035 106.701C62.9556 106.575 63.2708 106.575 63.4599 106.638L65.9183 108.087C66.1074 108.213 66.1074 108.403 65.8553 108.529L63.3969 109.915C63.1447 110.105 62.8296 110.105 62.6405 109.978Z" fill="#1D008D"/>
<path d="M58.7321 107.709L56.2737 106.26C56.0846 106.133 56.0846 105.944 56.3367 105.818L58.7951 104.431C59.0473 104.305 59.3625 104.305 59.5516 104.368L62.0099 105.818C62.1991 105.944 62.1991 106.133 61.9469 106.26L59.4885 107.646C59.2364 107.835 58.9212 107.835 58.7321 107.709Z" fill="#1D008D"/>
<path d="M54.8246 105.44L52.3662 103.99C52.1771 103.864 52.1771 103.675 52.4293 103.549L54.8877 102.162C55.1398 102.036 55.455 102.036 55.6441 102.099L58.1025 103.549C58.2916 103.675 58.2916 103.864 58.0394 103.99L55.5811 105.377C55.3289 105.566 55.0137 105.566 54.8246 105.44Z" fill="#1D008D"/>
<path d="M70.3303 114.454L67.8719 113.004C67.6828 112.878 67.6828 112.689 67.935 112.563L70.3933 111.176C70.6455 111.05 70.9607 111.05 71.1498 111.113L73.6082 112.563C73.7973 112.689 73.7973 112.878 73.5451 113.004L71.0867 114.391C70.8976 114.517 70.5194 114.58 70.3303 114.454Z" fill="#1D008D"/>
<path d="M74.1757 116.661L71.7173 115.211C71.5282 115.085 71.5282 114.896 71.7803 114.77L74.2387 113.383C74.4909 113.257 74.8061 113.257 74.9952 113.32L77.4535 114.77C77.6427 114.896 77.6427 115.085 77.3905 115.211L74.9321 116.598C74.68 116.724 74.3648 116.724 74.1757 116.661Z" fill="#1D008D"/>
<path d="M77.9581 118.867L75.4997 117.417C75.3106 117.291 75.3106 117.102 75.5627 116.976L78.0211 115.589C78.2733 115.463 78.5884 115.463 78.7775 115.526L81.2359 116.976C81.425 117.102 81.4251 117.291 81.1729 117.417L78.7145 118.804C78.5254 118.93 78.1472 118.93 77.9581 118.867Z" fill="#1D008D"/>
<path d="M81.8035 121.073L79.3451 119.623C79.156 119.497 79.156 119.308 79.4081 119.182L81.8665 117.795C82.1186 117.669 82.4338 117.669 82.6229 117.732L85.0813 119.182C85.2704 119.308 85.2704 119.497 85.0183 119.623L82.5599 121.01C82.3077 121.136 81.9926 121.136 81.8035 121.073Z" fill="#1D008D"/>
<path d="M85.5859 123.216L83.1275 121.766C82.9384 121.64 82.9384 121.451 83.1905 121.325L85.6489 119.938C85.901 119.812 86.2162 119.812 86.4053 119.875L88.8637 121.325C89.0528 121.451 89.0528 121.64 88.8007 121.766L86.4053 123.216C86.1532 123.342 85.775 123.342 85.5859 123.216Z" fill="#1D008D"/>
<path d="M89.4312 125.423L86.9728 123.973C86.7837 123.847 86.7837 123.658 87.0359 123.532L89.4943 122.145C89.7464 122.019 90.0616 122.019 90.2507 122.082L92.7091 123.532C92.8982 123.658 92.8982 123.847 92.646 123.973L90.1877 125.36C89.9355 125.549 89.6203 125.549 89.4312 125.423Z" fill="#1D008D"/>
<path d="M93.2136 127.629L90.7552 126.179C90.5661 126.053 90.5661 125.864 90.8183 125.738L93.2766 124.351C93.5288 124.225 93.844 124.225 94.0331 124.288L96.4915 125.738C96.6806 125.864 96.6806 126.053 96.4284 126.179L93.97 127.566C93.7809 127.755 93.4027 127.755 93.2136 127.629Z" fill="#1D008D"/>
<path d="M97.0572 129.835L94.5988 128.385C94.4097 128.259 94.4097 128.07 94.6618 127.944L97.1202 126.557C97.3724 126.431 97.6875 126.431 97.8766 126.494L100.335 127.944C100.524 128.07 100.524 128.259 100.272 128.385L97.8136 129.772C97.5615 129.961 97.2463 129.961 97.0572 129.835Z" fill="#1D008D"/>
<path d="M100.84 132.041L98.3812 130.591C98.1921 130.465 98.1921 130.276 98.4442 130.15L100.903 128.763C101.155 128.637 101.47 128.637 101.659 128.7L104.117 130.15C104.307 130.276 104.307 130.465 104.054 130.591L101.596 131.978C101.407 132.167 101.029 132.167 100.84 132.041Z" fill="#1D008D"/>
<path d="M64.5321 106.764L62.0737 105.314C61.8846 105.188 61.8846 104.999 62.1368 104.873L64.5952 103.486C64.8473 103.36 65.1625 103.36 65.3516 103.423L67.81 104.873C67.9991 104.999 67.9991 105.188 67.7469 105.314L65.2886 106.701C65.0364 106.89 64.7212 106.89 64.5321 106.764Z" fill="#1D008D"/>
<path d="M60.7497 104.621L58.2913 103.171C58.1022 103.045 58.1022 102.856 58.3544 102.73L60.8127 101.343C61.0649 101.217 61.3801 101.217 61.5692 101.28L64.0276 102.73C64.2167 102.856 64.2167 103.045 63.9645 103.171L61.5061 104.558C61.254 104.684 60.9388 104.684 60.7497 104.621Z" fill="#1D008D"/>
<path d="M56.9044 102.414L54.446 100.964C54.2568 100.838 54.2569 100.649 54.509 100.523L56.9674 99.1363C57.2195 99.0102 57.5347 99.0102 57.7238 99.0733L60.1822 100.523C60.3713 100.649 60.3713 100.838 60.1192 100.964L57.6608 102.351C57.4717 102.477 57.1565 102.54 56.9044 102.414Z" fill="#1D008D"/>
<path d="M53.122 100.208L50.6636 98.7582C50.4745 98.6321 50.4745 98.443 50.7266 98.317L53.185 96.9302C53.4371 96.8041 53.7523 96.8041 53.9414 96.8671L56.3998 98.317C56.5889 98.443 56.5889 98.6321 56.3368 98.7582L53.8784 100.145C53.6893 100.334 53.3111 100.334 53.122 100.208Z" fill="#1D008D"/>
<path d="M57.0294 97.9385L54.571 96.4887C54.3819 96.3626 54.3819 96.1735 54.6341 96.0474L55.4535 95.6061C55.7057 95.4801 56.0209 95.4801 56.21 95.5431L58.6684 96.9929C58.8575 97.119 58.8575 97.3081 58.6053 97.4342L57.7859 97.8754C57.5968 98.0645 57.2185 98.0645 57.0294 97.9385Z" fill="#1D008D"/>
<path d="M62.0105 100.838L59.5521 99.3887C59.363 99.2626 59.363 99.0735 59.6152 98.9474L60.4346 98.5062C60.6868 98.3801 61.0019 98.3801 61.1911 98.4431L63.6494 99.893C63.8385 100.019 63.8385 100.208 63.5864 100.334L62.7669 100.775C62.5148 100.902 62.1996 100.965 62.0105 100.838Z" fill="#1D008D"/>
<path d="M65.792 102.982L63.3336 101.532C63.1445 101.406 63.1445 101.217 63.3967 101.091L64.2161 100.649C64.4683 100.523 64.7834 100.523 64.9725 100.586L67.4309 102.036C67.62 102.162 67.62 102.351 67.3679 102.477L66.5484 102.919C66.2963 103.108 65.9811 103.108 65.792 102.982Z" fill="#1D008D"/>
<path d="M69.5744 105.188L67.116 103.738C66.9269 103.612 66.9269 103.423 67.179 103.297L67.9985 102.855C68.2506 102.729 68.5658 102.729 68.7549 102.792L71.2133 104.242C71.4024 104.368 71.4024 104.557 71.1503 104.684L70.3308 105.125C70.0787 105.314 69.7635 105.314 69.5744 105.188Z" fill="#1D008D"/>
<path d="M73.3568 107.394L70.8984 105.945C70.7093 105.819 70.7093 105.629 70.9614 105.503L71.7809 105.062C72.033 104.936 72.3482 104.936 72.5373 104.999L74.9957 106.449C75.1848 106.575 75.1848 106.764 74.9327 106.89L74.1132 107.331C73.8611 107.457 73.5459 107.457 73.3568 107.394Z" fill="#1D008D"/>
<path d="M94.4105 119.56L91.9521 118.11C91.763 117.984 91.763 117.795 92.0152 117.669L92.8346 117.228C93.0868 117.102 93.4019 117.102 93.591 117.165L96.0494 118.615C96.2385 118.741 96.2386 118.93 95.9864 119.056L95.1669 119.497C94.9778 119.623 94.5996 119.686 94.4105 119.56Z" fill="#1D008D"/>
<path d="M98.192 121.703L95.7336 120.253C95.5445 120.127 95.5445 119.938 95.7967 119.812L96.6161 119.371C96.8683 119.245 97.1834 119.245 97.3725 119.308L99.8309 120.757C100.02 120.884 100.02 121.073 99.7679 121.199L98.9484 121.64C98.7593 121.829 98.3811 121.829 98.192 121.703Z" fill="#1D008D"/>
<path d="M101.974 123.909L99.516 122.46C99.3269 122.334 99.3269 122.144 99.579 122.018L100.399 121.577C100.651 121.451 100.966 121.451 101.155 121.514L103.613 122.964C103.802 123.09 103.802 123.279 103.55 123.405L102.731 123.846C102.542 124.035 102.164 124.035 101.974 123.909Z" fill="#1D008D"/>
<path d="M105.757 126.116L103.298 124.666C103.109 124.54 103.109 124.351 103.361 124.225L104.181 123.783C104.433 123.657 104.748 123.657 104.937 123.72L107.396 125.17C107.585 125.296 107.585 125.485 107.333 125.611L106.513 126.053C106.324 126.179 105.946 126.179 105.757 126.116Z" fill="#1D008D"/>
<path d="M68.3136 108.97L65.8552 107.52C65.6661 107.394 65.6661 107.205 65.9182 107.079L68.3766 105.692C68.6288 105.566 68.9439 105.566 69.1331 105.629L71.5914 107.079C71.7805 107.205 71.7805 107.394 71.5284 107.52L69.07 108.907C68.8809 109.096 68.5027 109.096 68.3136 108.97Z" fill="#1D008D"/>
<path d="M72.1581 111.176L69.6997 109.726C69.5106 109.6 69.5106 109.411 69.7627 109.285L72.2211 107.898C72.4732 107.772 72.7884 107.772 72.9775 107.835L75.4359 109.285C75.625 109.411 75.625 109.6 75.3729 109.726L72.9145 111.113C72.6624 111.302 72.3472 111.302 72.1581 111.176Z" fill="#1D008D"/>
<path d="M75.9404 113.382L73.4821 111.933C73.2929 111.807 73.293 111.617 73.5451 111.491L76.0035 110.105C76.2556 109.979 76.5708 109.979 76.7599 110.042L79.2183 111.491C79.4074 111.617 79.4074 111.807 79.1553 111.933L76.6969 113.319C76.5078 113.509 76.1295 113.509 75.9404 113.382Z" fill="#1D008D"/>
<path d="M79.7858 115.589L77.3275 114.139C77.1383 114.013 77.1384 113.824 77.3905 113.698L79.8489 112.311C80.101 112.185 80.4162 112.185 80.6053 112.248L83.0637 113.698C83.2528 113.824 83.2528 114.013 83.0007 114.139L80.5423 115.526C80.3532 115.715 79.9749 115.715 79.7858 115.589Z" fill="#1D008D"/>
<path d="M83.5682 117.795L81.1098 116.345C80.9207 116.219 80.9207 116.03 81.1729 115.904L83.6313 114.517C83.8834 114.391 84.1986 114.391 84.3877 114.454L86.8461 115.904C87.0352 116.03 87.0352 116.219 86.783 116.345L84.3247 117.732C84.1355 117.921 83.8204 117.921 83.5682 117.795Z" fill="#1D008D"/>
<path d="M87.4136 120.001L84.9552 118.551C84.7661 118.425 84.7661 118.236 85.0182 118.11L87.4766 116.723C87.7288 116.597 88.0439 116.597 88.233 116.66L90.6914 118.11C90.8805 118.236 90.8806 118.425 90.6284 118.551L88.17 119.938C87.9809 120.127 87.6027 120.127 87.4136 120.001Z" fill="#1D008D"/>
<path d="M91.196 122.207L88.7376 120.758C88.5485 120.631 88.5485 120.442 88.8006 120.316L91.259 118.93C91.5112 118.803 91.8263 118.803 92.0154 118.866L94.4738 120.316C94.6629 120.442 94.6629 120.631 94.4108 120.758L91.9524 122.144C91.7633 122.333 91.4481 122.333 91.196 122.207Z" fill="#1D008D"/>
<path d="M95.0414 124.414L92.583 122.964C92.3939 122.838 92.3939 122.649 92.646 122.523L95.1044 121.136C95.3565 121.01 95.6717 121.01 95.8608 121.073L98.3192 122.523C98.5083 122.649 98.5083 122.838 98.2562 122.964L95.7978 124.351C95.6087 124.477 95.2305 124.54 95.0414 124.414Z" fill="#1D008D"/>
<path d="M98.8229 126.62L96.3645 125.17C96.1754 125.044 96.1754 124.855 96.4275 124.729L98.8859 123.342C99.138 123.216 99.4532 123.216 99.6423 123.279L102.101 124.729C102.29 124.855 102.29 125.044 102.038 125.17L99.5793 126.557C99.3902 126.683 99.075 126.746 98.8229 126.62Z" fill="#1D008D"/>
<path d="M46.5043 109.285L39.2552 105.062C39.0661 104.935 39.0661 104.746 39.3182 104.62L41.7767 103.233C42.0288 103.107 42.344 103.107 42.5331 103.17L49.7822 107.394C49.9713 107.52 49.9713 107.709 49.7191 107.835L47.2607 109.222C47.0716 109.348 46.7565 109.348 46.5043 109.285Z" fill="#1D008D"/>
<path d="M93.4012 136.327L86.1521 132.104C85.963 131.977 85.963 131.788 86.2151 131.662L88.6735 130.276C88.9257 130.149 89.2408 130.149 89.4299 130.212L96.679 134.436C96.8681 134.562 96.8682 134.751 96.616 134.877L94.1576 136.264C93.9055 136.39 93.5903 136.453 93.4012 136.327Z" fill="#1D008D"/>
<path d="M78.1471 132.356L75.6887 130.906C75.4996 130.78 75.4996 130.591 75.7517 130.465L78.6514 128.763C78.9035 128.637 79.2187 128.637 79.4078 128.7L81.8662 130.15C82.0553 130.276 82.0553 130.465 81.8032 130.591L78.9035 132.293C78.6514 132.482 78.3362 132.482 78.1471 132.356Z" fill="#1D008D"/>
<path d="M50.4106 116.408L46.4393 114.139C46.2502 114.013 46.2502 113.823 46.5024 113.697L49.402 111.995C49.6541 111.869 49.9693 111.869 50.1584 111.932L54.1297 114.202C54.3188 114.328 54.3188 114.517 54.0666 114.643L51.167 116.345C50.9779 116.471 50.5997 116.471 50.4106 116.408Z" fill="#1D008D"/>
<path d="M74.4287 130.276L70.4574 128.007C70.2683 127.881 70.2683 127.691 70.5205 127.565L73.4201 125.863C73.6722 125.737 73.9874 125.737 74.1765 125.8L78.1478 128.07C78.3369 128.196 78.3369 128.385 78.0847 128.511L75.1851 130.213C74.996 130.339 74.6808 130.339 74.4287 130.276Z" fill="#1D008D"/>
<path d="M55.9586 119.56L51.9874 117.291C51.7983 117.164 51.7983 116.975 52.0504 116.849L54.95 115.147C55.2022 115.021 55.5174 115.021 55.7065 115.084L59.6777 117.354C59.8668 117.48 59.8668 117.669 59.6147 117.795L56.715 119.497C56.4629 119.686 56.1477 119.686 55.9586 119.56Z" fill="#1D008D"/>
<path d="M55.7696 115.147L72.9153 125.044C73.1044 125.17 73.1044 125.359 72.9153 125.485L69.9526 127.187C69.7635 127.313 69.3853 127.313 69.1962 127.187L52.0505 117.29L55.7696 115.147Z" fill="#1D008D"/>
<path d="M88.8001 136.39L91.5737 137.966C91.7628 138.029 91.6998 138.218 91.5107 138.344L90.313 139.037C90.1239 139.163 89.8717 139.163 89.6826 139.037L86.909 137.461C86.7199 137.398 86.783 137.209 86.9721 137.083L88.1698 136.39C88.3589 136.264 88.611 136.264 88.8001 136.39Z" fill="#1D008D"/>
<path d="M84.9547 134.121L87.7283 135.697C87.9174 135.76 87.8544 135.949 87.6652 136.075L86.4676 136.768C86.2785 136.894 86.0263 136.894 85.8372 136.768L83.0637 135.192C82.8745 135.129 82.9376 134.94 83.1267 134.814L84.3244 134.121C84.5135 134.058 84.7656 134.058 84.9547 134.121Z" fill="#1D008D"/>
<path d="M81.1093 131.915L83.8829 133.491C84.072 133.554 84.009 133.743 83.8199 133.869L82.6222 134.562C82.4331 134.688 82.1809 134.688 81.9918 134.562L79.2183 132.986C79.0292 132.923 79.0922 132.734 79.2813 132.608L80.479 131.915C80.6681 131.852 80.9833 131.852 81.1093 131.915Z" fill="#1D008D"/>
<path d="M87.0345 132.923L89.808 134.499C89.9971 134.562 89.9341 134.751 89.745 134.877L88.5473 135.571C88.3582 135.697 88.1061 135.697 87.9169 135.571L85.1434 133.995C84.9543 133.932 85.0173 133.743 85.2064 133.616L86.4041 132.923C86.5932 132.86 86.9084 132.86 87.0345 132.923Z" fill="#1D008D"/>
</g>
<path d="M125.99 73.6061C125.801 73.6061 125.612 73.543 125.423 73.4169C124.856 73.1018 124.477 72.3453 124.604 71.715C124.667 71.3998 124.856 71.2107 125.108 71.0846C125.36 70.9586 125.738 71.0216 126.053 71.2107C126.621 71.5259 126.999 72.2823 126.873 72.9127C126.81 73.2278 126.621 73.4169 126.369 73.543C126.179 73.543 126.116 73.6061 125.99 73.6061ZM125.423 71.2737C125.36 71.2737 125.234 71.2737 125.171 71.3368C124.982 71.3998 124.856 71.5889 124.856 71.778C124.73 72.2823 125.045 72.9127 125.549 73.1648C125.801 73.2909 126.053 73.3539 126.242 73.2278C126.432 73.1648 126.558 72.9757 126.558 72.7866C126.684 72.2823 126.369 71.652 125.864 71.3998C125.675 71.3368 125.549 71.2737 125.423 71.2737Z" fill="#16E09E"/>
<path d="M129.142 75.3713C128.953 75.3713 128.764 75.3082 128.575 75.1821C128.007 74.867 127.629 74.1105 127.755 73.4802C127.818 73.165 128.007 72.9759 128.259 72.8498C128.511 72.7238 128.89 72.7868 129.205 72.9759C129.772 73.2911 130.15 74.0475 130.024 74.6779C129.961 74.993 129.772 75.1821 129.52 75.3082C129.331 75.3713 129.205 75.3713 129.142 75.3713ZM128.575 73.102C128.511 73.102 128.385 73.102 128.322 73.165C128.133 73.228 128.007 73.4171 128.007 73.6063C127.881 74.1105 128.196 74.7409 128.701 74.993C128.953 75.1191 129.205 75.1821 129.394 75.0561C129.583 74.993 129.709 74.8039 129.709 74.6148C129.835 74.1105 129.52 73.4802 129.016 73.228C128.827 73.165 128.701 73.102 128.575 73.102Z" fill="#16E09E"/>
<path d="M132.924 76.506C132.798 77.0733 132.231 77.2624 131.727 76.9472C131.159 76.6321 130.844 75.9387 130.97 75.3713C131.096 74.804 131.664 74.6149 132.168 74.9301C132.735 75.2453 133.05 75.9387 132.924 76.506Z" fill="#16E09E"/>
<path d="M72.6632 41.7729L70.9612 40.8274L71.0873 40.0709L72.7892 41.0165L72.6632 41.7729Z" fill="#16E09E"/>
<path d="M75.1218 43.2229L73.4198 42.2143L73.5459 41.4579L75.2478 42.4034L75.1218 43.2229Z" fill="#16E09E"/>
<path d="M70.2049 40.3865L66.5489 38.2432L66.675 37.4868L70.331 39.63L70.2049 40.3865Z" fill="#16E09E"/>
<path d="M125.865 109.284L120.065 106.069C118.742 105.312 117.607 103.737 117.229 102.098L112.186 81.3589C111.619 78.9005 109.602 77.1356 108.215 77.0725H108.152C107.458 77.0725 107.017 77.4507 106.765 78.2072L105.252 82.8718C105.063 83.3761 104.748 83.7543 104.307 83.9434C103.739 84.1325 103.109 84.0695 102.416 83.6282L101.344 82.9979C100.146 82.3045 99.0116 80.7916 98.6334 79.2157C97.94 76.8204 96.112 75.2445 94.7882 75.1184C94.7252 75.1184 94.6622 75.1184 94.6622 75.1184C94.0948 75.1184 93.6536 75.4336 93.3384 76.0009L91.6995 79.5309C91.5104 79.9721 91.1952 80.2243 90.7539 80.3504C90.2496 80.5395 89.6193 80.4134 88.9259 80.0352L87.7282 79.3418C86.4045 78.5854 85.2698 76.9464 84.8916 75.3075L79.8488 52.9299C79.2815 50.4715 77.3273 48.6435 75.8775 48.5804C75.1841 48.5174 74.6799 48.8956 74.3647 49.589L66.2331 71.8406C66.044 72.3448 65.7288 72.66 65.2875 72.8491C64.7833 73.0382 64.0899 72.9122 63.3965 72.534L59.2992 70.1386L59.3622 70.0756L63.4595 72.4709C64.0899 72.8491 64.7202 72.9752 65.2245 72.7861C65.6027 72.66 65.9179 72.3448 66.107 71.8406L74.2386 49.589C74.4908 48.8956 74.995 48.4543 75.6884 48.4543C75.7515 48.4543 75.7515 48.4543 75.8145 48.4543C77.2643 48.5804 79.2815 50.4084 79.8488 52.9299L84.8916 75.3075C85.2698 76.9464 86.4045 78.5854 87.6652 79.2788L88.8629 79.9721C89.4932 80.3504 90.1236 80.4764 90.6279 80.2873C91.0061 80.1613 91.3213 79.9091 91.5104 79.4679L93.1493 75.9379C93.4645 75.3075 94.0318 74.9293 94.7252 74.9923C96.112 75.1184 98.003 76.7573 98.6334 79.1527C99.0746 80.6655 100.146 82.1784 101.344 82.8718L102.416 83.5021C103.109 83.8804 103.739 84.0064 104.244 83.8173C104.685 83.6282 104.937 83.313 105.126 82.8088L106.639 78.1441C106.891 77.3247 107.458 76.9464 108.215 76.9464C109.665 77.0095 111.682 78.7745 112.312 81.2959L117.355 102.035C117.733 103.674 118.868 105.249 120.129 105.943L125.928 109.158L125.865 109.284Z" fill="#16E09E"/>
<path d="M121.452 111.805L115.652 108.591C114.329 107.834 113.194 106.258 112.816 104.619L107.773 83.8805C107.205 81.4222 105.188 79.6572 103.802 79.5941C103.108 79.5941 102.604 79.9723 102.352 80.7288L100.839 85.3934C100.65 85.8977 100.335 86.2759 99.8934 86.465C99.326 86.6541 98.6957 86.5911 98.0023 86.1498L96.9307 85.5195C95.733 84.8261 94.5984 83.3132 94.2201 81.7373C93.5268 79.342 91.6987 77.7661 90.375 77.64C89.6816 77.577 89.1773 77.8922 88.9252 78.5225L87.2862 82.0525C87.0971 82.4938 86.7819 82.7459 86.3407 82.872C85.8364 83.0611 85.2061 82.935 84.5127 82.5568L83.315 81.8634C81.9912 81.107 80.8566 79.468 80.4784 77.8291L75.4355 55.4515C74.8682 52.9931 72.9141 51.1651 71.4643 51.102C70.7709 51.039 70.2666 51.4172 69.9514 52.1106L61.8198 74.3622C61.6307 74.8664 61.3156 75.1816 60.8743 75.3707C60.37 75.5598 59.6766 75.4338 58.9832 75.0556L54.8859 72.6602L54.949 72.5972L59.0463 74.9925C59.6766 75.3707 60.307 75.4968 60.8113 75.3077C61.1895 75.1816 61.5047 74.8664 61.6938 74.3622L69.8254 52.1106C70.0775 51.3542 70.6448 50.976 71.4013 50.976C72.8511 51.102 74.8682 52.9301 75.4355 55.4515L80.4784 77.8291C80.8566 79.468 81.9912 81.107 83.252 81.8004L84.4496 82.4938C85.08 82.872 85.7104 82.998 86.2146 82.8089C86.5928 82.6829 86.908 82.4307 87.0971 81.9895L88.7361 78.4595C89.0512 77.8291 89.6186 77.4509 90.312 77.5139C91.6987 77.64 93.5898 79.2789 94.2201 81.6743C94.6614 83.1872 95.733 84.7 96.9307 85.3934L98.0023 86.0238C98.6957 86.402 99.326 86.528 99.8303 86.3389C100.272 86.1498 100.524 85.8346 100.713 85.3304L102.226 80.6657C102.478 79.9093 102.982 79.4681 103.739 79.4681H103.802C105.251 79.5311 107.269 81.2961 107.899 83.8175L112.942 104.556C113.32 106.195 114.455 107.771 115.715 108.464L121.515 111.679L121.452 111.805Z" fill="#16E09E"/>
<path d="M75.0171 48.5335L70.5887 51.0747L70.7142 51.2934L75.1425 48.7522L75.0171 48.5335Z" fill="#16E09E"/>
<path d="M93.7933 75.1495L89.3134 77.7278L89.4392 77.9463L93.9191 75.3681L93.7933 75.1495Z" fill="#16E09E"/>
<path d="M107.538 77.0029L102.836 79.7004L102.961 79.9191L107.663 77.2216L107.538 77.0029Z" fill="#16E09E"/>
<path d="M125.8 109.347L120.001 106.132C118.677 105.376 117.542 103.8 117.101 102.098L112.058 81.3592C111.491 78.9638 109.537 77.1988 108.15 77.1358C107.457 77.1358 107.015 77.451 106.763 78.2074L105.313 82.872C105.124 83.4394 104.809 83.8176 104.305 84.0067C103.738 84.1958 103.044 84.1327 102.351 83.6915L101.279 83.0611C100.018 82.3677 98.9468 80.8549 98.5056 79.279C97.8752 76.9467 96.0472 75.3708 94.7234 75.2447C94.0931 75.1817 93.5888 75.4969 93.3366 76.0642L91.6977 79.5942C91.5086 80.0354 91.1304 80.3506 90.6891 80.4767C90.1218 80.6658 89.4915 80.5397 88.7981 80.1615L87.6004 79.4681C86.2767 78.7117 85.142 77.0728 84.7638 75.3708L79.721 52.9931C79.1536 50.5348 77.2626 48.7698 75.8128 48.7067C75.1194 48.6437 74.6781 49.0219 74.426 49.7153L66.2944 71.9669C66.1053 72.4711 65.7901 72.8494 65.2858 73.0385C64.7185 73.2276 64.0251 73.1015 63.3317 72.7233L59.2344 70.3279L59.3605 70.0758L63.4578 72.4712C64.0881 72.8494 64.7185 72.9124 65.1597 72.7863C65.5379 72.6603 65.8531 72.3451 65.9792 71.9038L74.1108 49.6523C74.426 48.8328 74.9933 48.4546 75.8128 48.5176C77.3256 48.6437 79.3427 50.4717 79.9101 53.0562L84.9529 75.4338C85.3311 77.0097 86.4027 78.6486 87.6634 79.342L88.8611 80.0354C89.4915 80.4136 90.0588 80.4767 90.5631 80.3506C90.9413 80.2245 91.1934 79.9724 91.3825 79.5942L93.0215 76.0642C93.3366 75.3708 93.904 75.0556 94.6604 75.1186C96.0472 75.2447 98.0013 76.8836 98.6316 79.342C99.0729 80.8549 100.145 82.3047 101.279 82.9981L102.351 83.6285C102.981 84.0067 103.611 84.1327 104.116 83.9436C104.494 83.8176 104.809 83.4393 104.935 82.9981L106.448 78.3335C106.7 77.514 107.331 77.0728 108.087 77.0728C109.6 77.1358 111.617 78.9008 112.247 81.4852L117.29 102.224C117.668 103.8 118.803 105.376 120.064 106.069L125.863 109.284L125.8 109.347Z" fill="#16E09E"/>
<path d="M121.389 111.931L115.589 108.716C114.266 107.96 113.131 106.384 112.69 104.682L107.647 83.9433C107.079 81.548 105.125 79.783 103.739 79.7199C103.045 79.7199 102.604 80.0351 102.352 80.7915L100.902 85.3931C100.713 85.9605 100.398 86.3387 99.8934 86.5278C99.3261 86.7169 98.6327 86.6539 97.9393 86.2126L96.8677 85.5823C95.607 84.8889 94.5354 83.376 94.0941 81.8001C93.4638 79.4678 91.6357 77.8919 90.312 77.7658C89.6816 77.7028 89.1774 78.018 88.9252 78.5853L87.2863 82.1153C87.0972 82.5565 86.719 82.8717 86.2777 82.9978C85.7104 83.1869 85.08 83.0608 84.3866 82.6826L83.189 81.9892C81.8652 81.2328 80.7306 79.5939 80.3524 77.8919L75.3095 55.5143C74.7422 53.0559 72.8511 51.2909 71.4013 51.2278C70.7079 51.1648 70.2667 51.543 70.0145 52.2364L61.8829 74.488C61.6938 74.9923 61.3786 75.3705 60.8744 75.5596C60.307 75.7487 59.6136 75.6226 58.9203 75.2444L54.8229 72.8491L54.949 72.5969L59.0463 74.9923C59.6767 75.3705 60.307 75.4335 60.7483 75.3074C61.1265 75.1814 61.4417 74.8662 61.5678 74.425L69.6993 52.1734C70.0145 51.3539 70.5819 50.9757 71.4013 51.0387C72.9142 51.1648 74.9313 52.9928 75.4986 55.5773L80.5415 77.9549C80.9197 79.5308 81.9913 81.1698 83.252 81.8631L84.4497 82.5565C85.08 82.9348 85.6474 82.9978 86.1516 82.8717C86.5299 82.7457 86.782 82.4935 86.9711 82.1153L88.61 78.5853C88.9252 77.8919 89.4925 77.5767 90.249 77.6398C91.6357 77.7658 93.5898 79.4048 94.2202 81.8631C94.6614 83.376 95.7331 84.8258 96.8677 85.5192L97.9393 86.1496C98.5697 86.5278 99.2 86.6539 99.7043 86.4647C100.083 86.3387 100.398 85.9605 100.524 85.5192L102.037 80.8546C102.289 80.0351 102.856 79.5939 103.613 79.5939H103.676C105.188 79.6569 107.206 81.4219 107.836 84.0064L112.879 104.745C113.257 106.321 114.392 107.897 115.652 108.59L121.452 111.805L121.389 111.931Z" fill="#16E09E"/>
<path opacity="0.5" d="M59.3617 70.0751L63.459 72.4705C64.7197 73.1639 65.7913 72.9118 66.2326 71.7771L74.3642 49.5255C75.3097 47.0041 79.0918 49.2734 79.9113 52.8664L84.9542 75.2441C85.3324 76.883 86.467 78.5219 87.7277 79.2784L88.9254 79.9717C90.06 80.6651 91.1316 80.476 91.5729 79.4675L93.2118 75.9375C94.2204 73.7312 97.6873 75.8114 98.6329 79.1523C99.0741 80.7282 100.146 82.178 101.343 82.8714L102.415 83.5017C103.676 84.2582 104.81 83.943 105.189 82.7453L106.701 78.0807C107.584 75.4332 111.366 77.6394 112.249 81.2325L117.291 101.971C117.67 103.61 118.804 105.186 120.128 105.942L125.927 109.157L59.3617 70.0751Z" fill="url(#paint18_linear_123_12036)"/>
<path opacity="0.5" d="M55.0124 72.5338L59.1097 74.9291C60.3704 75.6225 61.442 75.3704 61.8832 74.2357L70.0148 51.9842C70.9604 49.4627 74.7425 51.732 75.562 55.3251L80.6048 77.7027C80.983 79.3416 82.1177 80.9805 83.3784 81.737L84.5761 82.4304C85.7107 83.1238 86.7823 82.9346 87.2235 81.9261L88.8625 78.3961C89.871 76.1898 93.338 78.27 94.2835 81.6109C94.7248 83.1868 95.7964 84.6366 96.9941 85.33L98.0657 85.9604C99.3264 86.7168 100.461 86.4016 100.839 85.2039L102.352 80.5393C103.235 77.8918 107.017 80.098 107.899 83.6911L112.942 104.43C113.32 106.069 114.455 107.645 115.779 108.401L121.578 111.616L55.0124 72.5338Z" fill="url(#paint19_linear_123_12036)"/>
<path d="M145.342 57.4062C138.724 57.4062 132.168 55.9564 127.125 53.0567C122.208 50.2201 119.498 46.438 119.498 42.4037C119.498 38.3695 122.208 34.5873 127.125 31.7507C137.211 25.8884 153.6 25.8884 163.686 31.6877C168.603 34.5243 171.313 38.3064 171.313 42.3407C171.313 46.375 168.603 50.1571 163.686 52.9937C158.643 55.8933 152.024 57.4062 145.342 57.4062ZM145.468 27.6534C138.85 27.6534 132.231 29.1032 127.251 32.0029C122.46 34.7764 119.75 38.4955 119.813 42.4037C119.813 46.3119 122.46 50.031 127.314 52.8046C137.337 58.5408 153.663 58.5408 163.623 52.7416C168.413 49.968 171.124 46.2489 171.061 42.3407C171.061 38.4325 168.413 34.7134 163.56 31.9398C158.58 29.0402 152.024 27.6534 145.468 27.6534Z" fill="#16E09E"/>
<path d="M113.131 12.7137C114.328 12.0203 115.274 12.5876 115.274 13.9744C115.274 15.3612 114.328 17.0001 113.131 17.6935C111.933 18.3869 110.987 17.8195 110.987 16.4328C110.987 15.046 111.996 13.4071 113.131 12.7137Z" fill="url(#paint20_linear_123_12036)"/>
<path d="M113.257 12.7767C112.059 13.4701 111.113 15.1091 111.113 16.4958C111.113 17.1262 111.302 17.6305 111.681 17.8196C111.239 17.6305 110.987 17.1262 110.987 16.3698C110.987 14.983 111.933 13.3441 113.131 12.6507C113.761 12.2725 114.328 12.2725 114.706 12.5246C114.328 12.3985 113.824 12.4616 113.257 12.7767Z" fill="white"/>
<path d="M108.025 9.75077C109.223 9.05738 110.168 9.6247 110.168 11.0115C110.168 12.3983 109.223 14.0372 108.025 14.7306C106.828 15.424 105.882 14.8567 105.882 13.4699C105.882 12.0831 106.828 10.4442 108.025 9.75077Z" fill="url(#paint21_linear_123_12036)"/>
<path d="M102.793 6.72526C103.991 6.03186 104.936 6.59919 104.936 7.98597C104.936 9.37275 103.991 11.0117 102.793 11.7051C101.595 12.3985 100.65 11.8311 100.65 10.4444C100.65 9.12061 101.595 7.41865 102.793 6.72526Z" fill="url(#paint22_linear_123_12036)"/>
<path d="M111.618 17.8196L114.265 19.3325C113.887 19.0803 113.635 18.6391 113.635 17.9457C113.635 16.5589 114.581 14.92 115.778 14.2266C116.346 13.9114 116.85 13.8484 117.291 14.0375L128.638 20.5301L125.612 25.8251L92.329 6.72533C90.8792 5.90587 90.3749 4.0148 91.1944 2.56498C92.0138 1.11516 93.9049 0.610877 95.3547 1.43034L104.369 6.59926C103.991 6.34712 103.423 6.34712 102.793 6.72533C101.595 7.41872 100.65 9.05765 100.65 10.4444C100.65 11.1378 100.902 11.6421 101.28 11.8312L103.928 13.3441C103.549 13.0919 103.297 12.6507 103.297 11.9573C103.297 10.5705 104.243 8.93158 105.44 8.23818C106.008 7.92301 106.512 7.85997 106.953 8.04908L109.601 9.56193C109.223 9.30979 108.655 9.30979 108.025 9.68801C106.827 10.3814 105.882 12.0203 105.882 13.4071C105.882 14.1005 106.134 14.6048 106.512 14.7939L109.16 16.3067C108.781 16.0546 108.529 15.6134 108.529 14.92C108.529 13.5332 109.475 11.8942 110.672 11.2009C111.24 10.8857 111.744 10.8226 112.185 11.0118L114.707 12.4616C114.328 12.2094 113.761 12.2094 113.131 12.5876C111.933 13.281 110.988 14.92 110.988 16.3067C110.988 17.1262 111.24 17.6305 111.618 17.8196Z" fill="#BCBEFF"/>
<path d="M108.151 9.81398C106.954 10.5074 106.008 12.1463 106.008 13.5331C106.008 14.1634 106.197 14.6677 106.575 14.8568C106.134 14.6677 105.882 14.1634 105.882 13.407C105.882 12.0202 106.828 10.3813 108.025 9.68791C108.656 9.30969 109.223 9.30969 109.601 9.56184C109.223 9.43576 108.719 9.4988 108.151 9.81398Z" fill="white"/>
<path d="M102.919 6.78834C101.721 7.48174 100.776 9.12066 100.776 10.5074C100.776 11.1378 100.965 11.6421 101.343 11.8312C100.902 11.6421 100.65 11.1378 100.65 10.3814C100.65 8.99459 101.595 7.35566 102.793 6.66227C103.423 6.28406 103.991 6.28406 104.369 6.5362C103.991 6.47317 103.486 6.47317 102.919 6.78834Z" fill="white"/>
<path opacity="0.48" d="M115.842 14.2265C114.644 14.9199 113.699 16.5588 113.699 17.9456C113.699 18.639 113.951 19.1433 114.329 19.3324L111.682 17.8195C111.303 17.5674 111.051 17.1262 111.051 16.4328C111.051 15.046 111.997 13.4071 113.194 12.7137C113.825 12.3355 114.329 12.3355 114.77 12.5876L117.355 14.1004C116.914 13.8483 116.409 13.9113 115.842 14.2265Z" fill="url(#paint23_linear_123_12036)"/>
<path opacity="0.48" d="M110.673 11.2638C109.475 11.9571 108.53 13.5961 108.53 14.9829C108.53 15.6762 108.782 16.1805 109.16 16.3696L106.512 14.8568C106.134 14.6046 105.882 14.1634 105.882 13.47C105.882 12.0832 106.828 10.4443 108.025 9.7509C108.656 9.37268 109.16 9.37268 109.601 9.62482L112.186 11.1377C111.807 10.8855 111.303 10.9486 110.673 11.2638Z" fill="url(#paint24_linear_123_12036)"/>
<path opacity="0.48" d="M105.504 8.30135C104.306 8.99474 103.36 10.6337 103.36 12.0204C103.36 12.7138 103.613 13.2181 103.991 13.4072L101.343 11.8944C100.965 11.6422 100.713 11.201 100.713 10.5076C100.713 9.12081 101.658 7.48189 102.856 6.78849C103.486 6.41028 103.991 6.41028 104.432 6.66242L107.016 8.17528C106.575 7.92314 106.071 7.92314 105.504 8.30135Z" fill="url(#paint25_linear_123_12036)"/>
<path d="M125.737 35.0916C125.737 35.2807 125.737 35.4068 125.737 35.5959L132.293 41.08L142.946 45.0512L150.447 43.3492L157.633 41.2691L164.946 35.6589L165.135 35.5328C165.135 35.0916 165.135 34.6503 165.072 34.2091C166.332 32.5071 167.656 30.8052 168.917 29.0402C169.484 29.7966 169.988 30.553 170.367 31.3094L171.249 30.6161V35.0285C171.249 35.0916 171.249 35.1546 171.249 35.1546V35.3437C171.123 39.0628 168.665 42.7819 163.748 45.6185C153.662 51.4808 137.399 51.4808 127.313 45.6816C122.334 42.7819 119.812 39.0628 119.749 35.2807C119.749 35.2177 119.749 35.2177 119.749 35.1546V30.49L120.695 31.2464C120.884 30.8052 121.199 30.3639 121.451 29.8596C122.46 31.8768 123.594 34.2721 125.737 35.0916Z" fill="url(#paint26_linear_123_12036)"/>
<path d="M163.18 24.3751C163.307 24.4381 163.433 24.5011 163.622 24.6272C165.891 25.9509 167.656 27.4638 168.917 29.0397C167.656 30.7417 166.332 32.4436 165.072 34.2086C164.693 31.6242 162.802 29.1027 159.398 27.1486C151.708 22.7361 139.227 22.7361 131.537 27.2117C127.754 29.4179 125.863 32.2545 125.8 35.1542C123.72 34.3347 122.586 31.9393 121.388 29.9852C122.333 28.5984 123.657 27.2117 125.359 26.014L124.477 26.2031C124.477 26.2031 130.528 20.9711 130.78 20.9081C131.032 20.8451 143.135 17.6302 143.135 17.6302L156.814 18.8279L163.18 24.3751Z" fill="url(#paint27_linear_123_12036)"/>
<path opacity="0.5" d="M158.957 24.0602C166.648 28.4727 166.648 35.6587 158.957 40.1343C151.267 44.6098 138.786 44.6098 131.095 40.1973C123.405 35.7848 123.405 28.5988 131.095 24.1232C138.786 19.6477 151.267 19.6477 158.957 24.0602Z" fill="url(#paint28_linear_123_12036)"/>
<path opacity="0.48" d="M158.894 25.4471C166.585 29.8596 166.585 37.0457 158.894 41.5212C151.204 45.9967 138.723 45.9967 131.032 41.5842C123.342 37.1717 123.342 29.9857 131.032 25.5102C138.723 21.0346 151.204 20.9716 158.894 25.4471Z" fill="url(#paint29_linear_123_12036)"/>
<path d="M163.622 20.0258C153.536 14.2266 137.21 14.2896 127.187 20.0889C117.102 25.9512 117.165 35.3435 127.25 41.1428C137.336 46.942 153.662 46.879 163.685 41.0797C173.708 35.2174 173.708 25.8251 163.622 20.0258ZM159.336 22.4842C167.026 26.8967 167.026 34.0828 159.336 38.5583C151.645 43.0338 139.164 43.0338 131.474 38.6213C123.783 34.2088 123.783 27.0228 131.474 22.5473C139.164 18.0717 151.582 18.0717 159.336 22.4842Z" fill="#BCBEFF"/>
<path d="M163.622 20.0258C153.536 14.2266 137.21 14.2896 127.187 20.0889C117.102 25.9512 117.165 35.3435 127.25 41.1428C137.336 46.942 153.662 46.879 163.685 41.0797C173.708 35.2174 173.708 25.8251 163.622 20.0258ZM159.336 22.4842C167.026 26.8967 167.026 34.0828 159.336 38.5583C151.645 43.0338 139.164 43.0338 131.474 38.6213C123.783 34.2088 123.783 27.0228 131.474 22.5473C139.164 18.0717 151.582 18.0717 159.336 22.4842Z" fill="#BCBEFF"/>
<path d="M127.061 40.701C137.147 46.5003 153.473 46.4372 163.496 40.6379C169.673 37.0449 172.068 32.1281 170.619 27.4635C172.32 32.1912 169.988 37.3601 163.622 41.0162C153.536 46.8785 137.273 46.8785 127.187 41.0792C123.342 38.8729 120.946 36.0994 120.001 33.1997C121.01 35.9733 123.342 38.6208 127.061 40.701Z" fill="white"/>
<path d="M131.347 22.1685C139.038 17.693 151.519 17.693 159.209 22.1055C162.172 23.8074 164 25.9507 164.693 28.1569C163.937 26.0767 162.172 24.1226 159.335 22.4837C151.645 18.0712 139.164 18.0712 131.473 22.5467C126.746 25.2573 124.981 29.0394 125.989 32.5694C124.665 28.9133 126.43 25.0051 131.347 22.1685Z" fill="white"/>
<path d="M107.035 163.53L106.911 163.75L120.754 171.541L120.877 171.322L107.035 163.53Z" fill="#16E09E"/>
<path d="M129.332 195.328C128.701 195.328 128.008 195.139 127.441 194.824L105.378 182.09C105 181.901 104.811 181.523 104.811 181.145C104.811 180.767 105 180.389 105.378 180.199L138.031 161.352C139.165 160.658 140.615 160.658 141.813 161.352L163.875 174.085C164.254 174.274 164.443 174.652 164.443 175.031C164.443 175.409 164.254 175.787 163.875 175.976L131.223 194.824C130.656 195.139 129.962 195.328 129.332 195.328ZM139.922 161.1C139.291 161.1 138.724 161.226 138.157 161.541L105.504 180.389C105.252 180.515 105.063 180.83 105.063 181.145C105.063 181.46 105.252 181.712 105.504 181.901L127.567 194.635C128.638 195.265 129.962 195.265 131.097 194.635L163.749 175.787C164.001 175.661 164.191 175.346 164.191 175.031C164.191 174.715 164.064 174.463 163.749 174.274L141.687 161.541C141.12 161.226 140.489 161.1 139.922 161.1Z" fill="#16E09E"/>
<path d="M134.628 173.896L131.161 171.879L132.043 171.438L135.51 173.392L134.628 173.896Z" fill="#16E09E"/>
<path opacity="0.5" d="M137.589 175.598L135.824 174.59L136.707 174.085L138.472 175.094L137.589 175.598Z" fill="#16E09E"/>
<path opacity="0.5" d="M132.61 175.094L129.143 173.076L130.026 172.572L133.493 174.589L132.61 175.094Z" fill="#16E09E"/>
<path opacity="0.5" d="M135.573 176.796L133.809 175.787L134.691 175.283L136.456 176.291L135.573 176.796Z" fill="#16E09E"/>
<path d="M130.594 176.228L127.127 174.211L128.009 173.707L131.476 175.724L130.594 176.228Z" fill="#16E09E"/>
<path d="M133.555 177.93L131.79 176.922L132.672 176.417L134.437 177.426L133.555 177.93Z" fill="#16E09E"/>
<path d="M128.576 177.426L125.109 175.409L125.991 174.904L129.458 176.921L128.576 177.426Z" fill="#16E09E"/>
<path d="M131.539 179.128L129.774 178.119L130.657 177.615L132.422 178.623L131.539 179.128Z" fill="#16E09E"/>
<path d="M126.559 178.56L123.092 176.543L123.975 176.039L127.442 178.056L126.559 178.56Z" fill="#16E09E"/>
<path d="M129.522 180.262L127.757 179.254L128.64 178.75L130.405 179.758L129.522 180.262Z" fill="#16E09E"/>
<path d="M124.542 179.695L121.075 177.741L121.957 177.237L125.424 179.254L124.542 179.695Z" fill="#16E09E"/>
<path d="M127.505 181.46L125.74 180.452L126.622 179.948L128.387 180.956L127.505 181.46Z" fill="#16E09E"/>
<path d="M122.525 180.893L119.058 178.876L119.94 178.372L123.407 180.389L122.525 180.893Z" fill="#16E09E"/>
<path opacity="0.5" d="M125.487 182.595L123.722 181.586L124.605 181.082L126.37 182.091L125.487 182.595Z" fill="#16E09E"/>
<path d="M120.507 182.027L117.04 180.073L117.923 179.569L121.39 181.586L120.507 182.027Z" fill="#16E09E"/>
<path opacity="0.5" d="M123.47 183.793L121.705 182.784L122.588 182.28L124.353 183.288L123.47 183.793Z" fill="#16E09E"/>
<path d="M142.317 178.372L138.85 176.418L139.732 175.914L143.199 177.868L142.317 178.372Z" fill="#16E09E"/>
<path d="M145.28 180.074L143.515 179.065L144.398 178.624L146.163 179.569L145.28 180.074Z" fill="#16E09E"/>
<path d="M140.299 179.569L136.832 177.552L137.715 177.048L141.182 179.065L140.299 179.569Z" fill="#16E09E"/>
<path d="M143.262 181.271L141.497 180.263L142.38 179.758L144.145 180.767L143.262 181.271Z" fill="#16E09E"/>
<path d="M138.282 180.704L134.815 178.687L135.698 178.246L139.165 180.2L138.282 180.704Z" fill="#16E09E"/>
<path d="M141.246 182.406L139.481 181.398L140.363 180.957L142.128 181.902L141.246 182.406Z" fill="#16E09E"/>
<path d="M140.678 170.43L137.211 168.412L138.03 167.908L141.497 169.925L140.678 170.43Z" fill="#16E09E"/>
<path d="M143.578 172.132L141.876 171.123L142.759 170.619L144.461 171.627L143.578 172.132Z" fill="#16E09E"/>
<path d="M138.66 171.564L135.193 169.61L136.013 169.106L139.48 171.123L138.66 171.564Z" fill="#16E09E"/>
<path d="M141.56 173.329L139.858 172.321L140.74 171.816L142.442 172.825L141.56 173.329Z" fill="#16E09E"/>
<path d="M136.644 172.762L133.177 170.745L133.996 170.24L137.463 172.257L136.644 172.762Z" fill="#16E09E"/>
<path d="M139.544 174.464L137.842 173.455L138.724 172.951L140.426 173.959L139.544 174.464Z" fill="#16E09E"/>
<path d="M148.369 174.905L144.902 172.888L145.721 172.447L149.188 174.401L148.369 174.905Z" fill="#16E09E"/>
<path d="M151.268 176.607L149.566 175.598L150.449 175.094L152.151 176.103L151.268 176.607Z" fill="#16E09E"/>
<path opacity="0.5" d="M146.351 176.103L142.884 174.086L143.704 173.581L147.171 175.599L146.351 176.103Z" fill="#16E09E"/>
<path d="M149.251 177.805L147.549 176.796L148.432 176.292L150.134 177.3L149.251 177.805Z" fill="#16E09E"/>
<path d="M144.334 177.237L140.867 175.22L141.686 174.716L145.153 176.733L144.334 177.237Z" fill="#16E09E"/>
<path d="M147.234 178.939L145.532 177.931L146.414 177.426L148.116 178.435L147.234 178.939Z" fill="#16E09E"/>
<path d="M136.265 181.902L132.798 179.885L133.68 179.381L137.147 181.398L136.265 181.902Z" fill="#16E09E"/>
<path d="M139.228 183.604L137.463 182.596L138.346 182.091L140.111 183.1L139.228 183.604Z" fill="#16E09E"/>
<path opacity="0.5" d="M134.248 183.037L130.781 181.019L131.664 180.578L135.131 182.532L134.248 183.037Z" fill="#16E09E"/>
<path d="M137.21 184.739L135.445 183.73L136.328 183.226L138.093 184.234L137.21 184.739Z" fill="#16E09E"/>
<path d="M132.23 184.234L128.763 182.217L129.646 181.713L133.113 183.73L132.23 184.234Z" fill="#16E09E"/>
<path d="M135.194 185.937L133.429 184.928L134.311 184.424L136.076 185.432L135.194 185.937Z" fill="#16E09E"/>
<path d="M130.215 185.369L126.748 183.352L127.63 182.848L131.097 184.865L130.215 185.369Z" fill="#16E09E"/>
<path d="M133.176 187.071L131.411 186.062L132.294 185.558L134.059 186.566L133.176 187.071Z" fill="#16E09E"/>
<path d="M128.26 186.504L124.793 184.55L125.612 184.045L129.079 185.999L128.26 186.504Z" fill="#16E09E"/>
<path d="M131.16 188.206L129.458 187.197L130.341 186.756L132.043 187.701L131.16 188.206Z" fill="#16E09E"/>
<path d="M151.645 167.214L151.519 167.025L163.433 159.902C163.874 159.65 164.189 159.146 164.189 158.578C164.189 158.011 163.874 157.57 163.433 157.318L148.431 148.745C147.863 148.43 147.548 147.862 147.548 147.232C147.548 146.602 147.863 146.034 148.431 145.719L184.613 124.917C185.054 124.665 185.306 124.224 185.306 123.72C185.306 123.215 185.054 122.774 184.613 122.522L178.436 118.866C176.544 117.731 175.347 115.651 175.347 113.445V60.0538C175.347 57.9106 174.212 55.8934 172.321 54.8218L166.207 51.2288L166.333 51.0397L172.447 54.6327C174.401 55.7673 175.599 57.8475 175.599 60.0538V113.445C175.599 115.588 176.734 117.605 178.625 118.677L184.802 122.333C185.306 122.648 185.559 123.152 185.559 123.72C185.559 124.287 185.243 124.791 184.739 125.107L148.557 145.908C148.115 146.16 147.8 146.665 147.8 147.232C147.8 147.799 148.052 148.241 148.557 148.556L163.559 157.129C164.126 157.444 164.442 158.011 164.442 158.578C164.442 159.209 164.126 159.776 163.622 160.091L151.645 167.214Z" fill="#16E09E"/>
</g>
<defs>
<linearGradient id="paint0_linear_123_12036" x1="113.167" y1="86.38" x2="111.005" y2="82.6505" gradientUnits="userSpaceOnUse">
<stop stop-color="#5761D7"/>
<stop offset="0.1645" stop-color="#5E67DA"/>
<stop offset="0.4051" stop-color="#727AE2"/>
<stop offset="0.6924" stop-color="#9297EE"/>
<stop offset="1" stop-color="#BCBEFF"/>
</linearGradient>
<linearGradient id="paint1_linear_123_12036" x1="108.034" y1="83.4294" x2="105.871" y2="79.7" gradientUnits="userSpaceOnUse">
<stop stop-color="#5761D7"/>
<stop offset="0.1645" stop-color="#5E67DA"/>
<stop offset="0.4051" stop-color="#727AE2"/>
<stop offset="0.6924" stop-color="#9297EE"/>
<stop offset="1" stop-color="#BCBEFF"/>
</linearGradient>
<linearGradient id="paint2_linear_123_12036" x1="102.812" y1="80.4275" x2="100.649" y2="76.6981" gradientUnits="userSpaceOnUse">
<stop stop-color="#5761D7"/>
<stop offset="0.1645" stop-color="#5E67DA"/>
<stop offset="0.4051" stop-color="#727AE2"/>
<stop offset="0.6924" stop-color="#9297EE"/>
<stop offset="1" stop-color="#BCBEFF"/>
</linearGradient>
<linearGradient id="paint3_linear_123_12036" x1="112.215" y1="86.8618" x2="115.252" y2="81.5784" gradientUnits="userSpaceOnUse">
<stop stop-color="#16E09E"/>
<stop offset="0.1507" stop-color="#43E3C6"/>
<stop offset="0.3285" stop-color="#45D5DF"/>
<stop offset="0.5199" stop-color="#49BDDD"/>
<stop offset="0.7209" stop-color="#4E9CDB"/>
<stop offset="0.9274" stop-color="#5472D8"/>
<stop offset="1" stop-color="#5761D7"/>
</linearGradient>
<linearGradient id="paint4_linear_123_12036" x1="107.082" y1="83.9112" x2="110.119" y2="78.6278" gradientUnits="userSpaceOnUse">
<stop stop-color="#16E09E"/>
<stop offset="0.1507" stop-color="#43E3C6"/>
<stop offset="0.3285" stop-color="#45D5DF"/>
<stop offset="0.5199" stop-color="#49BDDD"/>
<stop offset="0.7209" stop-color="#4E9CDB"/>
<stop offset="0.9274" stop-color="#5472D8"/>
<stop offset="1" stop-color="#5761D7"/>
</linearGradient>
<linearGradient id="paint5_linear_123_12036" x1="101.861" y1="80.9089" x2="104.898" y2="75.6256" gradientUnits="userSpaceOnUse">
<stop stop-color="#16E09E"/>
<stop offset="0.1507" stop-color="#43E3C6"/>
<stop offset="0.3285" stop-color="#45D5DF"/>
<stop offset="0.5199" stop-color="#49BDDD"/>
<stop offset="0.7209" stop-color="#4E9CDB"/>
<stop offset="0.9274" stop-color="#5472D8"/>
<stop offset="1" stop-color="#5761D7"/>
</linearGradient>
<linearGradient id="paint6_linear_123_12036" x1="125.409" y1="116.169" x2="164.831" y2="93.4033" gradientUnits="userSpaceOnUse">
<stop stop-color="#BCBEFF"/>
<stop offset="0.3076" stop-color="#9297EE"/>
<stop offset="0.5949" stop-color="#727AE2"/>
<stop offset="0.8355" stop-color="#5E67DA"/>
<stop offset="1" stop-color="#5761D7"/>
</linearGradient>
<linearGradient id="paint7_linear_123_12036" x1="164.486" y1="88.8189" x2="124.308" y2="106.621" gradientUnits="userSpaceOnUse">
<stop stop-color="#5761D7"/>
<stop offset="0.1645" stop-color="#5E67DA"/>
<stop offset="0.4051" stop-color="#727AE2"/>
<stop offset="0.6924" stop-color="#9297EE"/>
<stop offset="1" stop-color="#BCBEFF"/>
</linearGradient>
<linearGradient id="paint8_linear_123_12036" x1="138.098" y1="112.896" x2="151.984" y2="88.7412" gradientUnits="userSpaceOnUse">
<stop stop-color="#16E09E"/>
<stop offset="0.1507" stop-color="#43E3BD"/>
<stop offset="0.3285" stop-color="#45D5DF"/>
<stop offset="0.5199" stop-color="#49BDDD"/>
<stop offset="0.7209" stop-color="#4E9CDB"/>
<stop offset="0.9274" stop-color="#5472D8"/>
<stop offset="1" stop-color="#5761D7"/>
</linearGradient>
<linearGradient id="paint9_linear_123_12036" x1="138.062" y1="114.275" x2="151.948" y2="90.1196" gradientUnits="userSpaceOnUse">
<stop stop-color="#16E09E"/>
<stop offset="0.1507" stop-color="#43E3BD"/>
<stop offset="0.3285" stop-color="#45DFC3"/>
<stop offset="0.5199" stop-color="#49D4DD"/>
<stop offset="0.7209" stop-color="#4E9CDB"/>
<stop offset="0.9274" stop-color="#5472D8"/>
<stop offset="1" stop-color="#5761D7"/>
</linearGradient>
<linearGradient id="paint10_linear_123_12036" x1="126.921" y1="136.265" x2="-1.39455" y2="136.265" gradientUnits="userSpaceOnUse">
<stop stop-color="#5761D7"/>
<stop offset="0.1779" stop-color="#5C66D9"/>
<stop offset="0.3876" stop-color="#6A73DF"/>
<stop offset="0.6134" stop-color="#8289E8"/>
<stop offset="0.849" stop-color="#A3A7F5"/>
<stop offset="1" stop-color="#BCBEFF"/>
</linearGradient>
<linearGradient id="paint11_linear_123_12036" x1="86.212" y1="133.278" x2="-42.1034" y2="133.278" gradientUnits="userSpaceOnUse">
<stop stop-color="#C0BFF6"/>
<stop offset="0.2938" stop-color="#C5C4F7"/>
<stop offset="0.6399" stop-color="#D3D2F9"/>
<stop offset="1" stop-color="#E9E9FD"/>
</linearGradient>
<linearGradient id="paint12_linear_123_12036" x1="141.47" y1="76.9903" x2="50.6646" y2="76.9903" gradientUnits="userSpaceOnUse">
<stop stop-color="#C0BFF6"/>
<stop offset="0.2938" stop-color="#C5C4F7"/>
<stop offset="0.6399" stop-color="#D3D2F9"/>
<stop offset="1" stop-color="#E9E9FD"/>
</linearGradient>
<linearGradient id="paint13_linear_123_12036" x1="141.471" y1="100.278" x2="125.878" y2="100.278" gradientUnits="userSpaceOnUse">
<stop stop-color="#5761D7"/>
<stop offset="0.1779" stop-color="#5C66D9"/>
<stop offset="0.3876" stop-color="#6A73DF"/>
<stop offset="0.6134" stop-color="#8289E8"/>
<stop offset="0.849" stop-color="#A3A7F5"/>
<stop offset="1" stop-color="#BCBEFF"/>
</linearGradient>
<linearGradient id="paint14_linear_123_12036" x1="129.306" y1="125.686" x2="1.05884" y2="125.686" gradientUnits="userSpaceOnUse">
<stop stop-color="#5761D7"/>
<stop offset="0.1779" stop-color="#5C66D9"/>
<stop offset="0.3876" stop-color="#6A73DF"/>
<stop offset="0.6134" stop-color="#8289E8"/>
<stop offset="0.849" stop-color="#A3A7F5"/>
<stop offset="1" stop-color="#BCBEFF"/>
</linearGradient>
<linearGradient id="paint15_linear_123_12036" x1="86.2141" y1="122.179" x2="-42.1013" y2="122.179" gradientUnits="userSpaceOnUse">
<stop stop-color="#C0BFF6"/>
<stop offset="0.2938" stop-color="#C5C4F7"/>
<stop offset="0.6399" stop-color="#D3D2F9"/>
<stop offset="1" stop-color="#E9E9FD"/>
</linearGradient>
<linearGradient id="paint16_linear_123_12036" x1="178.621" y1="97.4605" x2="50.3739" y2="97.4605" gradientUnits="userSpaceOnUse">
<stop stop-color="#5761D7"/>
<stop offset="0.1779" stop-color="#5C66D9"/>
<stop offset="0.3876" stop-color="#6A73DF"/>
<stop offset="0.6134" stop-color="#8289E8"/>
<stop offset="0.849" stop-color="#A3A7F5"/>
<stop offset="1" stop-color="#BCBEFF"/>
</linearGradient>
<linearGradient id="paint17_linear_123_12036" x1="135.529" y1="93.9546" x2="7.21374" y2="93.9546" gradientUnits="userSpaceOnUse">
<stop stop-color="#C0BFF6"/>
<stop offset="0.2938" stop-color="#C5C4F7"/>
<stop offset="0.6399" stop-color="#D3D2F9"/>
<stop offset="1" stop-color="#E9E9FD"/>
</linearGradient>
<linearGradient id="paint18_linear_123_12036" x1="70.239" y1="60.6636" x2="151.03" y2="108.848" gradientUnits="userSpaceOnUse">
<stop stop-color="#16E09E"/>
<stop offset="0.1055" stop-color="#37BFA7"/>
<stop offset="1" stop-color="#16E09E" stop-opacity="0"/>
</linearGradient>
<linearGradient id="paint19_linear_123_12036" x1="65.8452" y1="63.1306" x2="122.944" y2="97.2028" gradientUnits="userSpaceOnUse">
<stop stop-color="#16E09E"/>
<stop offset="0.1055" stop-color="#37BFA7"/>
<stop offset="1" stop-color="#16E09E" stop-opacity="0"/>
</linearGradient>
<linearGradient id="paint20_linear_123_12036" x1="113.167" y1="17.6743" x2="111.005" y2="13.9449" gradientUnits="userSpaceOnUse">
<stop stop-color="#5761D7"/>
<stop offset="0.1645" stop-color="#5E67DA"/>
<stop offset="0.4051" stop-color="#727AE2"/>
<stop offset="0.6924" stop-color="#9297EE"/>
<stop offset="1" stop-color="#BCBEFF"/>
</linearGradient>
<linearGradient id="paint21_linear_123_12036" x1="108.035" y1="14.7235" x2="105.873" y2="10.9942" gradientUnits="userSpaceOnUse">
<stop stop-color="#5761D7"/>
<stop offset="0.1645" stop-color="#5E67DA"/>
<stop offset="0.4051" stop-color="#727AE2"/>
<stop offset="0.6924" stop-color="#9297EE"/>
<stop offset="1" stop-color="#BCBEFF"/>
</linearGradient>
<linearGradient id="paint22_linear_123_12036" x1="102.813" y1="11.7215" x2="100.65" y2="7.9921" gradientUnits="userSpaceOnUse">
<stop stop-color="#5761D7"/>
<stop offset="0.1645" stop-color="#5E67DA"/>
<stop offset="0.4051" stop-color="#727AE2"/>
<stop offset="0.6924" stop-color="#9297EE"/>
<stop offset="1" stop-color="#BCBEFF"/>
</linearGradient>
<linearGradient id="paint23_linear_123_12036" x1="112.217" y1="18.1558" x2="115.254" y2="12.8725" gradientUnits="userSpaceOnUse">
<stop stop-color="#16E09E"/>
<stop offset="0.1507" stop-color="#43E3BD"/>
<stop offset="0.3285" stop-color="#45D5DF"/>
<stop offset="0.5199" stop-color="#49BDDD"/>
<stop offset="0.7209" stop-color="#4E9CDB"/>
<stop offset="0.9274" stop-color="#5472D8"/>
<stop offset="1" stop-color="#5761D7"/>
</linearGradient>
<linearGradient id="paint24_linear_123_12036" x1="107.084" y1="15.2052" x2="110.121" y2="9.92188" gradientUnits="userSpaceOnUse">
<stop stop-color="#16E09E"/>
<stop offset="0.1507" stop-color="#43E3B3"/>
<stop offset="0.3285" stop-color="#45D5DF"/>
<stop offset="0.5199" stop-color="#49BDDD"/>
<stop offset="0.7209" stop-color="#4E9CDB"/>
<stop offset="0.9274" stop-color="#5472D8"/>
<stop offset="1" stop-color="#5761D7"/>
</linearGradient>
<linearGradient id="paint25_linear_123_12036" x1="101.861" y1="12.2032" x2="104.898" y2="6.9198" gradientUnits="userSpaceOnUse">
<stop stop-color="#16E09E"/>
<stop offset="0.1507" stop-color="#43E3C6"/>
<stop offset="0.3285" stop-color="#45D5DF"/>
<stop offset="0.5199" stop-color="#49BDDD"/>
<stop offset="0.7209" stop-color="#4E9CDB"/>
<stop offset="0.9274" stop-color="#5472D8"/>
<stop offset="1" stop-color="#5761D7"/>
</linearGradient>
<linearGradient id="paint26_linear_123_12036" x1="125.41" y1="47.4635" x2="164.831" y2="24.6982" gradientUnits="userSpaceOnUse">
<stop stop-color="#BCBEFF"/>
<stop offset="0.3076" stop-color="#9297EE"/>
<stop offset="0.5949" stop-color="#727AE2"/>
<stop offset="0.8355" stop-color="#5E67DA"/>
<stop offset="1" stop-color="#5761D7"/>
</linearGradient>
<linearGradient id="paint27_linear_123_12036" x1="164.485" y1="20.1134" x2="124.306" y2="37.9156" gradientUnits="userSpaceOnUse">
<stop stop-color="#5761D7"/>
<stop offset="0.1645" stop-color="#5E67DA"/>
<stop offset="0.4051" stop-color="#727AE2"/>
<stop offset="0.6924" stop-color="#9297EE"/>
<stop offset="1" stop-color="#BCBEFF"/>
</linearGradient>
<linearGradient id="paint28_linear_123_12036" x1="138.097" y1="44.1908" x2="151.983" y2="20.0356" gradientUnits="userSpaceOnUse">
<stop stop-color="#16E09E"/>
<stop offset="0.1507" stop-color="#43E3B3"/>
<stop offset="0.3285" stop-color="#45D5DF"/>
<stop offset="0.5199" stop-color="#49BDDD"/>
<stop offset="0.7209" stop-color="#4E9CDB"/>
<stop offset="0.9274" stop-color="#5472D8"/>
<stop offset="1" stop-color="#5761D7"/>
</linearGradient>
<linearGradient id="paint29_linear_123_12036" x1="138.063" y1="45.5693" x2="151.949" y2="21.4141" gradientUnits="userSpaceOnUse">
<stop stop-color="#16E09E"/>
<stop offset="0.1507" stop-color="#43E3D0"/>
<stop offset="0.3285" stop-color="#45D5DF"/>
<stop offset="0.5199" stop-color="#49BDDD"/>
<stop offset="0.7209" stop-color="#4E9CDB"/>
<stop offset="0.9274" stop-color="#5472D8"/>
<stop offset="1" stop-color="#5761D7"/>
</linearGradient>
<clipPath id="clip0_123_12036">
<rect width="185.325" height="194.78" fill="white" transform="translate(0.675781 0.92627)"/>
</clipPath>
</defs>
</svg>
