<svg width="157" height="136" viewBox="0 0 157 136" fill="none" xmlns="http://www.w3.org/2000/svg">
<g clip-path="url(#clip0_123_11599)">
<g opacity="0.15">
<path d="M0.855621 94.5954L0.91606 100.277C0.91606 100.338 0.976503 100.459 1.03695 100.459L63.1134 135.456C63.2947 135.577 63.6574 135.577 63.8991 135.395L73.9329 129.472C74.0538 129.411 74.1142 129.351 74.1142 129.23L74.0538 123.488L69.2183 126.329L11.9774 94.0514C11.7961 93.9305 11.4334 93.9305 11.1916 94.1119L7.74628 96.167L0.855621 94.5954Z" fill="url(#paint0_linear_123_11599)"/>
<path d="M11.8569 88.3694L73.9333 123.367C74.1146 123.488 74.1146 123.669 73.8728 123.85L63.8391 129.774C63.5973 129.895 63.2346 129.955 63.0533 129.834L0.9769 94.837C0.795567 94.7161 0.795561 94.5347 1.03734 94.3534L11.0711 88.4299C11.3129 88.2485 11.6756 88.2485 11.8569 88.3694Z" fill="url(#paint1_linear_123_11599)"/>
</g>
<g opacity="0.2">
<path d="M66.4991 54.0978C65.8947 47.3885 60.5151 39.5911 54.4102 36.7502C51.3276 35.2996 48.7284 35.36 46.9151 36.6294L45.0413 37.9591H45.6458C44.6787 39.3494 44.2556 41.2836 44.4369 43.7014C44.9809 50.4107 50.4209 58.208 56.5258 61.0489C58.6413 62.016 60.5151 62.3182 62.0866 61.9556V62.4996L64.0209 61.1698L64.0813 61.1093C65.8342 59.84 66.8013 57.4222 66.4991 54.0978Z" fill="#9FFFD7"/>
<path d="M62.1041 62.5218C66.02 59.7913 65.371 52.0946 60.6546 45.3308C55.9382 38.5671 48.9403 35.2975 45.0244 38.0281C41.1086 40.7586 41.7576 48.4553 46.474 55.2191C51.1904 61.9828 58.1882 65.2524 62.1041 62.5218Z" fill="#16E09E"/>
<path d="M58.218 62.1367C57.0695 62.1367 55.7398 61.8345 54.41 61.1696C48.97 58.631 44.1344 51.6799 43.6509 45.6959C43.4091 42.7945 44.1949 40.4976 45.9478 39.2888C47.6402 38.0799 50.058 38.1403 52.7175 39.3492C58.1575 41.8879 62.9931 48.839 63.4767 54.823C63.7184 57.7243 62.9327 60.0212 61.1798 61.2301C60.3335 61.8345 59.3664 62.1367 58.218 62.1367ZM48.8491 38.7448C47.7611 38.7448 46.8544 39.047 46.0687 39.591C44.4367 40.7394 43.6509 42.9154 43.8927 45.6959C44.3762 51.559 49.1513 58.3892 54.5309 60.9279C57.0695 62.1367 59.4269 62.1367 60.9984 61.0487C62.6304 59.9003 63.4162 57.7243 63.1744 54.9438C62.6909 49.0807 57.9158 42.2505 52.5362 39.7119C51.2064 39.047 49.9976 38.7448 48.8491 38.7448Z" fill="#18B271"/>
</g>
<path d="M51.7518 30.8269C58.2798 29.1949 65.11 22.6064 66.9234 16.1389C67.83 12.8749 67.3465 10.2758 65.8354 8.7042L64.2034 7.0722L64.2638 7.67664C62.7527 6.95131 60.758 6.83042 58.4007 7.43487C51.8727 9.06686 45.0425 15.6553 43.2292 22.1229C42.5643 24.3593 42.6247 26.2935 43.2292 27.8046L42.6852 27.8651L44.3172 29.5575L44.3776 29.618C46.0096 31.1291 48.5483 31.6731 51.7518 30.8269Z" fill="#9FFFD7"/>
<path d="M59.5265 23.6676C65.4533 17.9354 67.5677 10.5068 64.249 7.07549C60.9303 3.64415 53.4354 5.50941 47.5085 11.2417C41.5816 16.9739 39.4673 24.4025 42.786 27.8338C46.1047 31.2652 53.5996 29.3999 59.5265 23.6676Z" fill="#73F2C8"/>
<path d="M48.0043 28.2881C46.3118 28.2881 44.8612 27.7441 43.8336 26.7166C42.383 25.2054 42.0203 22.8481 42.8061 20.0072C44.4381 14.265 50.543 8.34146 56.3456 6.89079C59.1865 6.16546 61.5438 6.58857 63.0549 8.09968C64.5056 9.61079 64.8683 11.9681 64.0825 14.809C62.4505 20.5512 56.3456 26.4748 50.5429 27.9254C49.6363 28.1672 48.7901 28.2881 48.0043 28.2881ZM58.9447 6.89079C58.159 6.89079 57.3732 7.01168 56.4665 7.19302C50.7243 8.64368 44.7403 14.3859 43.1083 20.0677C42.3225 22.7877 42.6852 25.0846 44.015 26.4748C45.4052 27.9254 47.6416 28.2881 50.4221 27.6232C56.1643 26.1726 62.1483 20.4303 63.7803 14.7486C64.5661 12.0286 64.2034 9.73168 62.8736 8.34146C61.967 7.37435 60.5767 6.89079 58.9447 6.89079Z" fill="#18B271"/>
<path d="M0.793335 89.0954L0.853783 94.7772C0.853783 94.8376 0.914226 94.9585 0.97467 94.9585L63.0511 129.956C63.2324 130.077 63.5951 130.077 63.8368 129.895L73.8706 123.972C73.9915 123.911 74.052 123.851 74.052 123.73L73.9915 117.988L69.156 120.829L11.9151 88.5514C11.7338 88.4305 11.3711 88.4305 11.1293 88.6119L7.68399 90.667L0.793335 89.0954Z" fill="url(#paint2_linear_123_11599)"/>
<path d="M0.793335 89.0954L0.853783 94.7772C0.853783 94.8376 0.914226 94.9585 0.97467 94.9585L63.0511 129.956C63.2324 130.077 63.5951 130.077 63.8368 129.895L73.8706 123.972C73.9915 123.911 74.052 123.851 74.052 123.73L73.9915 117.988L69.156 120.829L11.9151 88.5514C11.7338 88.4305 11.3711 88.4305 11.1293 88.6119L7.68399 90.667L0.793335 89.0954Z" fill="url(#paint3_radial_123_11599)"/>
<path d="M11.7937 82.8092L73.8701 117.806C74.0514 117.927 74.0514 118.109 73.8097 118.29L63.7759 124.214C63.5341 124.334 63.1714 124.395 62.9901 124.274L0.913709 89.2767C0.732376 89.1558 0.73238 88.9745 0.974157 88.7932L11.0079 82.8696C11.2497 82.7487 11.5519 82.6883 11.7937 82.8092Z" fill="url(#paint4_linear_123_11599)"/>
<path d="M73.8098 117.806L73.6285 117.685L63.7156 123.548C63.4738 123.669 63.1111 123.73 62.9298 123.609L1.03472 88.7324L0.913834 88.7929C0.672057 88.9137 0.672062 89.1555 0.853395 89.2764L62.9298 124.274C63.1111 124.395 63.4738 124.395 63.7156 124.213L73.7494 118.29C73.9911 118.108 74.0516 117.927 73.8098 117.806Z" fill="white"/>
<path opacity="0.6" d="M14.0912 91.3315L62.8698 118.29C63.2325 116.356 63.7765 114.421 64.5018 112.487L15.8441 85.0453C14.9978 87.1608 14.3934 89.2764 14.0912 91.3315Z" fill="#24126A"/>
<path d="M9.67781 86.1335L68.188 119.136C68.3089 119.197 68.3089 119.378 68.1276 119.438L65.5889 120.949C65.4076 121.07 65.1658 121.07 65.0449 120.949L6.53471 87.9468C6.41382 87.8864 6.41382 87.705 6.59515 87.6446L9.13382 86.1335C9.25471 86.073 9.49648 86.073 9.67781 86.1335Z" fill="#24126A"/>
<path d="M6.59544 87.9467L7.80433 88.6115L9.1341 87.8258C9.31543 87.7049 9.55721 87.7049 9.6781 87.8258L67.0398 120.164L68.1883 119.499C68.3696 119.378 68.3696 119.257 68.2487 119.196L9.73854 86.1938C9.61766 86.1333 9.37587 86.1333 9.19454 86.1938L6.65588 87.7049C6.47454 87.7049 6.4141 87.8862 6.59544 87.9467Z" fill="#453C9E"/>
<path opacity="0.7" d="M156.136 27.4416L107.417 -0.00012207C107.478 8.70387 101.494 19.2816 94.0593 23.7545L27.5704 63.0434C18.806 68.2416 11.734 80.7536 11.8549 90.9083L60.5126 118.35C60.3917 108.135 67.4637 95.6834 76.2282 90.4852L142.717 51.1963C150.212 46.7234 156.196 36.0852 156.136 27.4416Z" fill="url(#paint5_linear_123_11599)"/>
<path d="M156.136 27.4416L107.417 -0.00012207C107.478 8.70387 101.494 19.2816 94.0593 23.7545L27.5704 63.0434C18.806 68.2416 11.734 80.7536 11.8549 90.9083L60.5126 118.35C60.3917 108.135 67.4637 95.6834 76.2282 90.4852L142.717 51.1963C150.212 46.7234 156.196 36.0852 156.136 27.4416Z" fill="url(#paint6_radial_123_11599)"/>
<path opacity="0.8" d="M11.7948 90.9083L60.4526 118.35C60.4526 117.927 60.4525 117.443 60.513 117.02L11.8552 89.5785C11.7948 90.0016 11.7948 90.4852 11.7948 90.9083Z" fill="#453C9E"/>
<g opacity="0.8">
<path d="M92.0059 62.0767L101.617 67.5167L100.71 68.0607L91.0992 62.6207L92.0059 62.0767Z" fill="white"/>
<path d="M87.1099 59.296L90.5552 61.2907L89.6485 61.7742L86.2032 59.84L87.1099 59.296Z" fill="white"/>
<path d="M83.3024 57.1804L85.6597 58.5102L84.6926 59.0542L82.3957 57.7244L83.3024 57.1804Z" fill="white"/>
<path d="M98.4729 63.2858L103.671 66.2475L102.764 66.7915L97.5663 63.8298L98.4729 63.2858Z" fill="white"/>
<path d="M90.6157 58.873L97.0229 62.4997L96.1162 63.0437L89.7091 59.4171L90.6157 58.873Z" fill="white"/>
<path d="M86.8082 56.697L89.1656 58.0268L88.1985 58.5708L85.9016 57.241L86.8082 56.697Z" fill="white"/>
<path d="M83.1808 54.7023L85.4777 56.032L84.5711 56.5156L82.2742 55.2463L83.1808 54.7023Z" fill="white"/>
<path d="M101.98 62.9227L105.788 65.0383L104.881 65.5823L101.073 63.4063L101.98 62.9227Z" fill="white"/>
<path d="M99.2589 61.3514L100.528 62.0768L99.6216 62.6208L98.3522 61.8954L99.2589 61.3514Z" fill="white"/>
<path d="M95.4514 59.1752L97.8087 60.505L96.8416 61.049L94.5447 59.7192L95.4514 59.1752Z" fill="white"/>
<path d="M93.9398 55.9113L107.902 63.769L106.935 64.313L93.0331 56.4553L93.9398 55.9113Z" fill="white"/>
<path d="M88.9843 53.1309L92.4297 55.0651L91.523 55.6091L88.0777 53.6749L88.9843 53.1309Z" fill="white"/>
<path d="M106.21 60.4446L109.958 62.5601L109.051 63.1041L105.243 60.9886L106.21 60.4446Z" fill="white"/>
<path d="M97.3259 55.4275L104.7 59.5982L103.793 60.1422L96.4192 55.9715L97.3259 55.4275Z" fill="white"/>
<path d="M93.5175 53.2517L95.8748 54.5815L94.9077 55.1255L92.6108 53.7957L93.5175 53.2517Z" fill="white"/>
<path d="M104.337 56.9387L112.074 61.2907L111.167 61.8347L103.43 57.4827L104.337 56.9387Z" fill="white"/>
<path d="M97.2647 52.9493L102.886 56.1529L101.919 56.6969L96.358 53.4933L97.2647 52.9493Z" fill="white"/>
<path d="M92.0059 49.9879L95.8139 52.1639L94.9072 52.7079L91.0992 50.5319L92.0059 49.9879Z" fill="white"/>
<path d="M111.529 58.6313L114.128 60.082L113.221 60.626L110.622 59.1753L111.529 58.6313Z" fill="white"/>
<path d="M106.633 55.851L110.078 57.7852L109.171 58.3292L105.726 56.395L106.633 55.851Z" fill="white"/>
<path d="M99.5614 51.8616L105.122 55.0047L104.216 55.5487L98.6547 52.4056L99.5614 51.8616Z" fill="white"/>
<path d="M108.205 54.3395L116.244 58.8728L115.337 59.4168L107.298 54.8835L108.205 54.3395Z" fill="white"/>
<path d="M99.2589 49.2626L106.754 53.4937L105.847 54.0377L98.3522 49.8066L99.2589 49.2626Z" fill="white"/>
<path d="M95.4514 47.1467L97.8087 48.4765L96.9021 49.0205L94.5447 47.6907L95.4514 47.1467Z" fill="white"/>
<path d="M91.8241 45.0918L94.121 46.3611L93.2143 46.9051L90.857 45.6358L91.8241 45.0918Z" fill="white"/>
<path d="M113.524 54.8839L118.299 57.6039L117.392 58.1479L112.617 55.4279L113.524 54.8839Z" fill="white"/>
<path d="M72.5425 51.1361L65.8936 47.3885L64.987 47.9326L71.6359 51.6801L72.5425 51.1361Z" fill="white"/>
<path d="M73.2076 49.0808L68.0094 46.119L67.1027 46.663L72.3009 49.6248L73.2076 49.0808Z" fill="white"/>
<path d="M73.8728 47.026L70.0649 44.9104L69.1582 45.4544L72.9662 47.57L73.8728 47.026Z" fill="white"/>
<path d="M77.6802 46.784L72.1797 43.6409L71.2731 44.1849L76.7735 47.328L77.6802 46.784Z" fill="white"/>
<path d="M78.0432 44.5476L74.2956 42.432L73.3285 42.976L77.1365 45.0916L78.0432 44.5476Z" fill="white"/>
<path d="M81.1252 43.8825L76.3501 41.1625L75.4434 41.7065L80.2185 44.4265L81.1252 43.8825Z" fill="white"/>
<path d="M81.0658 41.4045L78.4667 39.9539L77.56 40.4979L80.1591 41.9485L81.0658 41.4045Z" fill="white"/>
<path d="M85.5995 41.5858L80.5222 38.7449L79.6155 39.2889L84.6928 42.1298L85.5995 41.5858Z" fill="white"/>
<path d="M87.413 40.1958L82.6379 37.4758L81.7313 38.0198L86.5064 40.7398L87.413 40.1958Z" fill="white"/>
<path d="M110.019 52.9493L112.074 54.0978L111.167 54.6418L109.112 53.4933L110.019 52.9493Z" fill="white"/>
<path d="M103.975 49.504L108.569 52.1031L107.662 52.6471L103.068 50.048L103.975 49.504Z" fill="white"/>
<path d="M109.596 40.1355L117.332 44.4875L116.426 45.0315L108.689 40.6795L109.596 40.1355Z" fill="white"/>
<path d="M104.276 37.1133L107.359 38.8662L106.452 39.4102L103.37 37.6573L104.276 37.1133Z" fill="white"/>
</g>
<g opacity="0.8">
<path d="M71.8775 73.9841L81.4277 79.4241L80.5211 79.9681L70.9104 74.5281L71.8775 73.9841Z" fill="white"/>
<path d="M66.9211 71.2035L70.3664 73.1982L69.4598 73.7422L66.0144 71.7475L66.9211 71.2035Z" fill="white"/>
<path d="M63.1136 69.0879L65.4709 70.4177L64.5643 70.9617L62.2069 69.6319L63.1136 69.0879Z" fill="white"/>
<path d="M78.285 75.2537L83.5437 78.155L82.637 78.699L77.3784 75.7977L78.285 75.2537Z" fill="white"/>
<path d="M70.4261 70.7804L76.8332 74.4071L75.9265 74.9511L69.5194 71.3244L70.4261 70.7804Z" fill="white"/>
<path d="M66.6186 68.6648L68.9759 69.9946L68.0692 70.4781L65.7119 69.2088L66.6186 68.6648Z" fill="white"/>
<path d="M62.993 66.6097L65.3503 67.9395L64.4436 68.4835L62.0863 67.1537L62.993 66.6097Z" fill="white"/>
<path d="M81.8503 74.8302L85.5979 76.9458L84.6912 77.4898L80.9437 75.3742L81.8503 74.8302Z" fill="white"/>
<path d="M79.071 73.2587L80.4008 73.984L79.4941 74.528L78.1644 73.8027L79.071 73.2587Z" fill="white"/>
<path d="M75.2617 71.0829L77.6191 72.4127L76.7124 72.9567L74.3551 71.6269L75.2617 71.0829Z" fill="white"/>
<path d="M73.751 67.8187L87.7136 75.7369L86.807 76.2205L72.8443 68.3627L73.751 67.8187Z" fill="white"/>
<path d="M68.855 65.0383L72.3003 67.033L71.3937 67.577L67.9483 65.5823L68.855 65.0383Z" fill="white"/>
<path d="M52.415 63.0436L45.7661 59.296L44.8594 59.84L51.5083 63.5876L52.415 63.0436Z" fill="white"/>
<path d="M53.0793 60.9885L47.8206 58.0267L46.914 58.5707L52.1726 61.5325L53.0793 60.9885Z" fill="white"/>
<path d="M53.684 58.9334L49.9364 56.8179L49.0297 57.3619L52.7773 59.4774L53.684 58.9334Z" fill="white"/>
<path d="M57.4914 58.6917L51.991 55.5486L51.0843 56.0926L56.5847 59.2357L57.4914 58.6917Z" fill="white"/>
</g>
<path d="M128.697 85.4074C128.697 78.6377 123.983 70.4777 118.12 67.0928C115.218 65.4003 112.559 65.219 110.625 66.3675L108.63 67.5159L109.234 67.5763C108.207 68.8457 107.542 70.7799 107.542 73.1977C107.542 79.9675 112.257 88.1274 118.12 91.5123C120.114 92.6608 121.988 93.0839 123.62 92.9026L123.56 93.4466L125.615 92.2377L125.675 92.1772C127.549 91.0892 128.697 88.7319 128.697 85.4074Z" fill="#9FFFD7"/>
<path d="M123.579 93.4372C127.713 91.0504 127.722 83.3269 123.599 76.1863C119.476 69.0457 112.783 65.192 108.649 67.5789C104.515 69.9657 104.506 77.6892 108.628 84.8298C112.751 91.9704 119.445 95.8241 123.579 93.4372Z" fill="#73F2C8"/>
<path d="M120.356 92.9633C119.026 92.9633 117.575 92.5402 116.004 91.6335C110.685 88.5508 106.393 81.1162 106.393 75.0113C106.393 71.9891 107.421 69.8131 109.234 68.7251C111.108 67.6371 113.525 67.8788 116.125 69.3899C121.444 72.4726 125.735 79.9073 125.735 86.0122C125.735 88.9739 124.708 91.2104 122.894 92.2984C122.169 92.7215 121.262 92.9633 120.356 92.9633ZM111.833 68.3624C110.926 68.3624 110.141 68.5437 109.415 68.9668C107.662 69.9944 106.695 72.1099 106.695 75.0113C106.695 80.9953 110.926 88.3695 116.125 91.3917C118.603 92.8424 120.96 93.0842 122.713 92.0566C124.466 91.029 125.433 88.9135 125.433 86.0122C125.433 80.0282 121.202 72.6539 116.004 69.6317C114.553 68.7855 113.163 68.3624 111.833 68.3624Z" fill="#18B271"/>
<path d="M34.1622 97.3153C34.1622 90.5455 29.4475 82.3855 23.5844 79.0006C20.683 77.3082 18.0235 77.1269 16.0893 78.2753L14.0946 79.4237L14.6991 79.4842C13.6715 80.7535 13.0066 82.6877 13.0066 85.1055C13.0066 91.8753 17.7213 100.035 23.5844 103.42C25.579 104.569 27.4528 104.992 29.0848 104.81L29.0244 105.354L31.0795 104.146L31.1399 104.085C33.0137 102.997 34.1622 100.64 34.1622 97.3153Z" fill="#9FFFD7"/>
<path d="M29.0336 105.291C33.1676 102.904 33.1768 95.1806 29.054 88.04C24.9313 80.8994 18.2378 77.0458 14.1038 79.4326C9.96978 81.8195 9.96064 89.543 14.0834 96.6836C18.2061 103.824 24.8995 107.678 29.0336 105.291Z" fill="#73F2C8"/>
<path d="M25.6996 104.388C24.4303 104.388 22.9796 103.964 21.5289 103.118C16.4516 100.156 12.2809 93.024 12.2809 87.1609C12.2809 84.2596 13.2481 82.144 15.0614 81.1165C16.8143 80.0889 19.1716 80.3307 21.7103 81.7814C26.7876 84.7431 30.9583 91.8756 30.9583 97.7387C30.9583 100.64 29.9911 102.756 28.1778 103.783C27.392 104.146 26.5458 104.388 25.6996 104.388ZM17.4792 80.6934C16.6329 80.6934 15.8472 80.8747 15.1823 81.2978C13.4898 82.2649 12.5832 84.32 12.5832 87.1005C12.5832 92.9031 16.6329 99.9147 21.6498 102.816C24.0676 104.206 26.304 104.448 27.9965 103.481C29.6889 102.514 30.5956 100.459 30.5956 97.6782C30.5956 91.8756 26.5458 84.864 21.5289 81.9627C20.0783 81.1165 18.7485 80.6934 17.4792 80.6934Z" fill="#18B271"/>
</g>
<defs>
<linearGradient id="paint0_linear_123_11599" x1="76.6435" y1="113.737" x2="9.42827" y2="115.541" gradientUnits="userSpaceOnUse">
<stop stop-color="#5761D7"/>
<stop offset="0.0397918" stop-color="#5C66D9"/>
<stop offset="0.086699" stop-color="#6A73DF"/>
<stop offset="0.1372" stop-color="#8289E8"/>
<stop offset="0.1899" stop-color="#A3A7F5"/>
<stop offset="0.2237" stop-color="#BCBEFF"/>
</linearGradient>
<linearGradient id="paint1_linear_123_11599" x1="56.4231" y1="79.0978" x2="30.9038" y2="119.426" gradientUnits="userSpaceOnUse">
<stop stop-color="#C0BFF6"/>
<stop offset="0.2938" stop-color="#C5C4F7"/>
<stop offset="0.6399" stop-color="#D3D2F9"/>
<stop offset="1" stop-color="#E9E9FD"/>
</linearGradient>
<linearGradient id="paint2_linear_123_11599" x1="76.5661" y1="108.197" x2="9.35095" y2="110.001" gradientUnits="userSpaceOnUse">
<stop stop-color="#5761D7"/>
<stop offset="0.0397918" stop-color="#5C66D9"/>
<stop offset="0.086699" stop-color="#6A73DF"/>
<stop offset="0.1372" stop-color="#8289E8"/>
<stop offset="0.1899" stop-color="#A3A7F5"/>
<stop offset="0.2237" stop-color="#BCBEFF"/>
</linearGradient>
<radialGradient id="paint3_radial_123_11599" cx="0" cy="0" r="1" gradientUnits="userSpaceOnUse" gradientTransform="translate(75.7197 132.047) rotate(-120.583) scale(54.2384 54.2384)">
<stop stop-color="#16E09E"/>
<stop offset="0.0167089" stop-color="#43E0DE"/>
<stop offset="0.1117" stop-color="#47D1C0"/>
<stop offset="0.2141" stop-color="#4BB1C7"/>
<stop offset="0.3237" stop-color="#4E7FBE"/>
<stop offset="0.4431" stop-color="#506BB7"/>
<stop offset="0.5775" stop-color="#525CB3"/>
<stop offset="0.7389" stop-color="#5354B0"/>
<stop offset="1" stop-color="#5351AF"/>
</radialGradient>
<linearGradient id="paint4_linear_123_11599" x1="56.3448" y1="73.5576" x2="30.8255" y2="113.886" gradientUnits="userSpaceOnUse">
<stop stop-color="#C0BFF6"/>
<stop offset="0.2938" stop-color="#C5C4F7"/>
<stop offset="0.6399" stop-color="#D3D2F9"/>
<stop offset="1" stop-color="#E9E9FD"/>
</linearGradient>
<linearGradient id="paint5_linear_123_11599" x1="117.298" y1="0.784652" x2="48.0745" y2="120.79" gradientUnits="userSpaceOnUse">
<stop stop-color="#C0BFF6"/>
<stop offset="0.1172" stop-color="#D0CFF9"/>
<stop offset="0.2627" stop-color="#E9E9FD"/>
<stop offset="0.5143" stop-color="#C0BFF6"/>
<stop offset="0.6217" stop-color="#D0CFF9"/>
<stop offset="0.755" stop-color="#E9E9FD"/>
<stop offset="1" stop-color="#C0BFF6"/>
</linearGradient>
<radialGradient id="paint6_radial_123_11599" cx="0" cy="0" r="1" gradientUnits="userSpaceOnUse" gradientTransform="translate(156.137 75.7215) rotate(-118.381) scale(159.896 159.896)">
<stop stop-color="#16E09E"/>
<stop offset="0.1117" stop-color="#47D1C0"/>
<stop offset="0.2141" stop-color="#4BB1C7"/>
<stop offset="0.3237" stop-color="#4E7FBE"/>
<stop offset="0.4431" stop-color="#4C6CC7"/>
<stop offset="0.5775" stop-color="#4956C9"/>
<stop offset="0.7389" stop-color="#494BC6"/>
<stop offset="1" stop-color="#7C4EFF"/>
</radialGradient>
<clipPath id="clip0_123_11599">
<rect width="155.947" height="136" fill="white" transform="translate(0.191406)"/>
</clipPath>
</defs>
</svg>
