<svg width="168" height="128" viewBox="0 0 168 128" fill="none" xmlns="http://www.w3.org/2000/svg">
<path opacity="0.4" d="M155.492 50.6777C162.4 46.689 162.388 33.7349 155.465 21.7438C148.542 9.75275 137.329 3.26556 130.421 7.25426C123.512 11.243 123.524 24.1971 130.447 36.1882C137.371 48.1792 148.583 54.6664 155.492 50.6777Z" fill="#16E09E"/>
<path d="M150.918 52.0635C148.442 52.0635 145.76 51.2381 142.871 49.5873C133.069 43.9128 125.022 30.0875 125.022 18.6352C125.022 13.0638 126.879 8.93681 130.284 6.9765C133.688 5.0162 138.228 5.42889 143.077 8.21459C152.879 13.8892 160.926 27.7145 160.926 39.1668C160.926 44.7382 159.069 48.8651 155.664 50.8254C154.22 51.754 152.672 52.0635 150.918 52.0635ZM135.03 6.25428C133.379 6.25428 131.831 6.66698 130.49 7.38919C127.188 9.24633 125.434 13.2701 125.434 18.7383C125.434 29.9843 133.379 43.7064 143.077 49.2778C147.72 51.9604 152.157 52.373 155.355 50.5159C158.656 48.6588 160.41 44.635 160.41 39.1668C160.41 27.9208 152.466 14.1987 142.768 8.62728C140.085 7.07967 137.403 6.25428 135.03 6.25428Z" fill="#16E09E"/>
<path d="M141.014 57.6356C138.537 57.6356 135.855 56.8102 132.966 55.1594C123.165 49.4848 115.117 35.6595 115.117 24.2072C115.117 18.6358 116.974 14.5088 120.379 12.5485C123.784 10.5882 128.323 11.0009 133.172 13.7866C142.974 19.4612 151.021 33.2865 151.021 44.7388C151.021 50.3102 149.164 54.4372 145.76 56.3975C144.315 57.326 142.768 57.6356 141.014 57.6356ZM125.125 11.8263C123.474 11.8263 121.926 12.239 120.585 12.9612C117.284 14.8184 115.53 18.8421 115.53 24.2072C115.53 35.4531 123.474 49.1753 133.172 54.7467C137.815 57.4292 142.252 57.8419 145.45 55.9848C148.752 54.1276 150.506 50.1039 150.506 44.6356C150.506 33.3897 142.561 19.6675 132.863 14.0961C130.18 12.6517 127.601 11.8263 125.125 11.8263Z" fill="#16E09E"/>
<path d="M111.403 101.382V96.2229L117.49 65.5802L111.506 61.866L99.4344 68.5723V108.088C99.4344 110.77 100.466 112.524 101.911 113.143L107.276 116.548L107.895 113.969L108.823 109.326C110.371 107.056 111.403 104.064 111.403 101.382Z" fill="url(#paint0_linear_123_11961)"/>
<path d="M111.299 116.341C107.998 118.198 105.315 116.135 105.315 111.802V72.286L117.387 65.5797V105.095C117.387 109.532 114.704 114.484 111.299 116.341Z" fill="url(#paint1_linear_123_11961)"/>
<path d="M102.84 89.5159L102.634 89.4128C102.221 89.2064 101.911 89.2064 101.705 89.4128L100.364 90.2382L101.292 90.4445C101.292 90.5477 101.292 90.5477 101.292 90.6508V98.2857C101.292 99.3174 101.911 100.556 102.737 100.968L102.427 102L103.768 101.175C104.078 101.071 104.284 100.556 104.284 99.9365V92.3016C104.181 91.1667 103.562 89.9286 102.84 89.5159Z" fill="url(#paint2_linear_123_11961)"/>
<path opacity="0.3" d="M102.84 89.5159L102.634 89.4128C102.221 89.2064 101.911 89.2064 101.705 89.4128L100.364 90.2382L101.292 90.4445C101.292 90.5477 101.292 90.5477 101.292 90.6508V98.2857C101.292 99.3174 101.911 100.556 102.737 100.968L102.427 102L103.768 101.175C104.078 101.071 104.284 100.556 104.284 99.9365V92.3016C104.181 91.1667 103.562 89.9286 102.84 89.5159Z" fill="#0F054C"/>
<path d="M101.395 101.69L101.188 101.587C100.363 101.175 99.744 99.9364 99.744 98.9047V91.2698C99.744 90.2381 100.363 89.7222 101.188 90.1349L101.395 90.2381C102.22 90.6508 102.839 91.8889 102.839 92.9206V100.555C102.839 101.69 102.22 102.206 101.395 101.69Z" fill="white"/>
<path opacity="0.5" d="M111.3 116.342C114.602 114.485 117.284 109.429 117.284 105.096V72.0802V67.5405L111.507 68.7786L105.935 71.8738L104.697 70.4294L99.5385 72.3897L99.0226 82.8103V83.0166C99.0226 86.215 101.396 88.8975 104.491 89.4134L105.11 89.5166V111.802C105.316 116.135 107.999 118.199 111.3 116.342Z" fill="#120083"/>
<path d="M138.434 49.3816C138.744 39.4769 132.038 27.1992 123.577 22.0405C119.038 19.2548 114.911 19.0484 112.022 21.0088L84.268 36.0722L104.8 74.9688L133.379 59.4927C133.482 59.3895 133.585 59.3895 133.688 59.2863L133.792 59.1831C136.68 57.5323 138.331 54.1276 138.434 49.3816Z" fill="url(#paint3_radial_123_11961)"/>
<path opacity="0.3" d="M138.433 49.3818C138.64 43.5008 136.37 36.7945 132.656 31.2231C128.529 33.5961 120.172 38.239 104.489 47.2151C100.568 49.4849 96.8542 51.4452 93.3463 53.096L104.902 74.8657L133.481 59.3896C133.584 59.2865 133.687 59.2865 133.791 59.1833L133.894 59.0801C136.679 57.5325 138.33 54.1278 138.433 49.3818Z" fill="#0F054C"/>
<path d="M109.958 64.7542C109.648 74.6589 102.633 78.4763 94.1723 73.3176C85.712 68.1589 79.1089 55.8812 79.3152 45.9765C79.6247 36.0718 86.6406 32.2544 95.1009 37.4131C103.561 42.5718 110.267 54.8495 109.958 64.7542Z" fill="url(#paint4_radial_123_11961)"/>
<path d="M110.166 65.3738C110.476 55.0564 103.563 42.366 94.7932 36.8977C90.7694 34.4216 87.0551 33.9057 84.2695 35.0406H84.1663C84.1663 35.0406 84.1663 35.0406 84.0631 35.0406C83.9599 35.1438 83.8567 35.1438 83.6504 35.2469C66.5235 43.0882 51.1506 42.2628 32.3729 41.0247L27.0079 40.7152L68.3806 116.239L70.8568 111.802C79.833 95.5006 89.325 85.9054 105.007 75.7943C108.103 74.2467 110.063 70.6356 110.166 65.3738Z" fill="url(#paint5_linear_123_11961)"/>
<path opacity="0.3" d="M70.9593 111.802C79.9354 95.5002 89.4274 85.905 105.11 75.7939C108.102 74.2463 110.062 70.6352 110.165 65.3734C110.372 59.4924 108.102 52.7861 104.594 47.1116C104.594 47.1116 104.594 47.1116 104.491 47.1116C78.5942 61.8654 63.0149 64.2384 63.0149 64.2384L55.7927 87.1431L57.9594 97.2541L68.3799 116.238L70.9593 111.802Z" fill="#0F054C"/>
<path d="M73.9533 99.6271C74.4691 79.8176 61.2629 55.3654 44.4455 45.048C35.9852 39.8893 28.3504 39.1671 22.5726 42.2623L17.4139 45.1512L19.1679 44.8417C15.4536 48.5559 13.1838 54.4369 12.9774 62.1749C12.4616 81.9843 25.6679 106.437 42.4852 116.754C49.0883 120.778 55.2788 122.119 60.4375 120.984L59.6121 122.119L64.3581 119.54C64.3581 119.54 64.3581 119.54 64.4613 119.54L64.6676 119.436C70.1358 116.238 73.7469 109.429 73.9533 99.6271Z" fill="url(#paint6_linear_123_11961)"/>
<path d="M70.3422 101.691C70.8581 81.8818 57.6518 57.4296 40.8344 47.1122C32.5805 42.0567 24.9456 41.2313 19.271 44.2233L18.4457 44.636C18.1361 44.8424 17.9298 44.9456 17.6203 45.1519L19.1679 44.8424C15.4536 48.5566 13.1838 54.4376 12.9774 62.1756C12.4616 81.985 25.6679 106.437 42.4852 116.755C49.0883 120.778 55.2788 122.12 60.4375 120.985L59.7152 122.017C65.9057 119.231 70.0327 112.112 70.3422 101.691Z" fill="white"/>
<path d="M69.3088 102.206C68.7929 122.016 54.6581 129.651 37.8407 119.23C21.0233 108.913 7.7139 84.4605 8.33295 64.6511C8.84882 44.8417 22.9837 37.2069 39.801 47.6274C56.6184 58.048 69.8246 82.5002 69.3088 102.206Z" fill="url(#paint7_linear_123_11961)"/>
<path d="M65.4927 99.9369C64.9769 117.27 52.596 123.976 37.8421 114.897C23.0882 105.818 11.4296 84.3576 11.9454 67.0244C12.4613 49.6911 24.8422 42.9848 39.5961 52.0641C54.3499 61.1435 66.0086 82.6036 65.4927 99.9369Z" fill="url(#paint8_radial_123_11961)"/>
<path opacity="0.3" d="M42.5865 112.627C40.3166 111.286 38.2532 109.635 36.1897 107.778C31.9596 103.857 31.65 97.254 35.4675 92.9207C40.1103 87.8652 47.4357 81.0557 58.7848 73.7303C54.0388 64.7542 47.3325 56.7066 39.5944 51.9606C33.0945 47.9368 27.0072 47.0083 22.2612 48.659C22.0549 48.7622 21.9517 48.7622 21.7453 48.8654H21.6422C21.4358 48.9686 21.3326 48.9686 21.1263 49.0717H21.0231C20.8168 49.1749 20.7136 49.2781 20.5072 49.2781C20.0945 49.4844 19.785 49.6908 19.4755 49.8971C19.2692 50.0003 19.166 50.1035 19.0628 50.2067C19.0628 50.2067 18.9596 50.2067 18.9596 50.3098C18.8565 50.413 18.6501 50.5162 18.5469 50.6193L18.4438 50.7225C18.3406 50.8257 18.1342 50.9289 18.0311 51.032C18.0311 51.032 18.0311 51.032 17.9279 51.1352C17.6184 51.4447 17.3089 51.7543 16.9993 52.0638C16.8962 52.167 16.793 52.3733 16.5866 52.4765L16.4835 52.5797C16.3803 52.6828 16.2771 52.786 16.1739 52.9924L16.0708 53.0955C15.9676 53.1987 15.8644 53.405 15.7613 53.5082L15.6581 53.6114C15.5549 53.8177 15.4517 53.9209 15.3485 54.1273C15.2454 54.3336 15.1422 54.54 15.039 54.7463C15.039 54.7463 15.039 54.7463 15.039 54.8495C14.9359 55.0558 14.8327 55.159 14.7295 55.3654C14.7295 55.4685 14.6263 55.4685 14.6263 55.5717C14.5232 55.6749 14.5232 55.8812 14.42 55.9844C14.42 56.0876 14.3168 56.0876 14.3168 56.1907C14.2136 56.2939 14.2136 56.5003 14.1105 56.6034C14.1105 56.7066 14.0073 56.7066 14.0073 56.8098C13.9041 57.0161 13.9041 57.1193 13.8009 57.3257V57.4288C13.6978 57.6352 13.5946 57.8415 13.5946 58.1511V58.2542C13.4914 58.4606 13.4914 58.6669 13.3882 58.8733C13.3882 58.9764 13.3882 58.9764 13.2851 59.0796C13.2851 59.286 13.1819 59.3891 13.1819 59.5955C13.1819 59.6987 13.1819 59.8018 13.0787 59.905C13.0787 60.1114 12.9756 60.2145 12.9756 60.4209C12.9756 60.5241 12.9756 60.6272 12.8724 60.7304C12.8724 60.9367 12.7692 61.1431 12.7692 61.2463C12.7692 61.3494 12.7692 61.3494 12.7692 61.4526C12.666 61.7621 12.666 61.9685 12.666 62.278V62.3812C12.666 62.5875 12.5629 62.8971 12.5629 63.1034C12.5629 63.2066 12.5629 63.3097 12.5629 63.4129C12.5629 63.6193 12.5629 63.8256 12.4597 63.9288C12.4597 64.032 12.4597 64.1351 12.4597 64.2383C12.4597 64.4447 12.4597 64.651 12.3565 64.7542C12.3565 64.8574 12.3565 64.9605 12.3565 65.0637C12.3565 65.2701 12.3565 65.4764 12.3565 65.6828C12.3565 65.7859 12.3565 65.8891 12.3565 65.9923C12.3565 66.3018 12.3565 66.6113 12.3565 66.9208C12.3565 67.4367 12.3565 67.9526 12.3565 68.3653C12.3565 68.5716 12.3565 68.6748 12.3565 68.8811C12.3565 69.1907 12.3565 69.5002 12.3565 69.9129C12.3565 70.1192 12.3565 70.2224 12.3565 70.4288C12.3565 70.8415 12.4597 71.151 12.4597 71.5637C12.4597 71.6668 12.4597 71.77 12.4597 71.9764C12.4597 72.4922 12.5629 72.9049 12.666 73.4208C12.666 73.6272 12.7692 73.8335 12.7692 74.0398C12.7692 74.3494 12.8724 74.6589 12.8724 74.9684C12.8724 75.1748 12.9756 75.4843 12.9756 75.6906C12.9756 76.0002 13.0787 76.2065 13.0787 76.516C13.0787 76.7224 13.1819 77.0319 13.1819 77.2382C13.2851 77.6509 13.3883 78.0636 13.4914 78.3731C13.5946 78.6827 13.6978 79.0954 13.8009 79.4049C13.8009 79.6112 13.9041 79.8176 13.9041 80.0239C14.0073 80.3335 14.1105 80.643 14.2136 80.9525C14.2136 81.1588 14.3168 81.262 14.3168 81.4684C14.6263 82.6033 15.039 83.8414 15.4517 84.9763C15.4517 85.0795 15.4517 85.0795 15.5549 85.1826C15.6581 85.5953 15.8644 85.9049 15.9676 86.3176C15.9676 86.4207 16.0708 86.5239 16.0708 86.6271C20.6104 98.1826 28.7612 109.016 38.15 114.897C46.4039 119.952 53.8325 120.159 58.9912 116.238C54.142 117.373 48.5706 116.341 42.5865 112.627Z" fill="#0F054C"/>
<path d="M34.8481 76.8256L53.1101 64.3414C53.1101 64.3414 56.2053 68.9842 58.7846 73.627C61.364 78.2699 62.9116 83.4286 62.9116 83.4286L41.9671 90.4446L34.8481 76.8256Z" fill="url(#paint9_linear_123_11961)"/>
<path d="M44.0307 86.7301C43.9276 90.2381 41.4514 91.5793 38.4593 89.7222C35.4673 87.8651 33.1974 83.6349 33.3006 80.127C33.4038 76.6191 35.88 75.2778 38.872 77.135C41.8641 78.9921 44.1339 83.3254 44.0307 86.7301Z" fill="url(#paint10_radial_123_11961)"/>
<path opacity="0.4" d="M57.0992 117.339C67.9228 111.481 68.4738 91.5389 58.3297 72.798C48.1856 54.057 31.1879 43.6138 20.3643 49.4724C9.54066 55.331 8.98974 75.2729 19.1338 94.0139C29.2779 112.755 46.2756 123.198 57.0992 117.339Z" fill="#16E09E"/>
<defs>
<linearGradient id="paint0_linear_123_11961" x1="98.8041" y1="88.9003" x2="116.76" y2="89.3942" gradientUnits="userSpaceOnUse">
<stop stop-color="#CDBCFF"/>
<stop offset="0.2271" stop-color="#BEAAF8"/>
<stop offset="0.6802" stop-color="#8B7CE5"/>
<stop offset="1" stop-color="#6957D7"/>
</linearGradient>
<linearGradient id="paint1_linear_123_11961" x1="66.8215" y1="90.0426" x2="123.833" y2="91.611" gradientUnits="userSpaceOnUse">
<stop stop-color="#BCBEFF"/>
<stop offset="0.2271" stop-color="#AAADF8"/>
<stop offset="0.6802" stop-color="#7C83E5"/>
<stop offset="1" stop-color="#5761D7"/>
</linearGradient>
<linearGradient id="paint2_linear_123_11961" x1="100.233" y1="95.4924" x2="104.262" y2="95.4924" gradientUnits="userSpaceOnUse">
<stop stop-color="#BCBEFF"/>
<stop offset="0.2271" stop-color="#AAADF8"/>
<stop offset="0.6802" stop-color="#7C83E5"/>
<stop offset="1" stop-color="#5761D7"/>
</linearGradient>
<radialGradient id="paint3_radial_123_11961" cx="0" cy="0" r="1" gradientUnits="userSpaceOnUse" gradientTransform="translate(86.3225 19.3684) rotate(1.57587) scale(62.7819 62.7819)">
<stop stop-color="#EDE9FD"/>
<stop offset="0.3601" stop-color="#DED2F9"/>
<stop offset="0.7062" stop-color="#D4C4F7"/>
<stop offset="1" stop-color="#CABFF6"/>
</radialGradient>
<radialGradient id="paint4_radial_123_11961" cx="0" cy="0" r="1" gradientUnits="userSpaceOnUse" gradientTransform="translate(94.6302 55.3869) rotate(31.576) scale(17.9812 15.5727)">
<stop stop-color="#F9636B"/>
<stop offset="1" stop-color="#B6246E"/>
</radialGradient>
<linearGradient id="paint5_linear_123_11961" x1="60.129" y1="31.2396" x2="89.2227" y2="93.716" gradientUnits="userSpaceOnUse">
<stop stop-color="#C9BCFF"/>
<stop offset="0.1237" stop-color="#CBB4FC"/>
<stop offset="0.3207" stop-color="#A586FD"/>
<stop offset="0.5651" stop-color="#7C4EFF"/>
<stop offset="0.744" stop-color="#5036BA"/>
</linearGradient>
<linearGradient id="paint6_linear_123_11961" x1="22.1684" y1="51.6113" x2="68.0682" y2="114.687" gradientUnits="userSpaceOnUse">
<stop stop-color="#C9BCFF"/>
<stop offset="0.2271" stop-color="#C3AAF8"/>
<stop offset="0.6802" stop-color="#5B38C8"/>
<stop offset="1" stop-color="#3D289A"/>
</linearGradient>
<linearGradient id="paint7_linear_123_11961" x1="7.70301" y1="82.6161" x2="69.7509" y2="84.3231" gradientUnits="userSpaceOnUse">
<stop stop-color="#E9E9FD"/>
<stop offset="0.3601" stop-color="#D3D2F9"/>
<stop offset="0.7062" stop-color="#C5C4F7"/>
<stop offset="1" stop-color="#C0BFF6"/>
</linearGradient>
<radialGradient id="paint8_radial_123_11961" cx="0" cy="0" r="1" gradientUnits="userSpaceOnUse" gradientTransform="translate(53.3975 106.097) rotate(1.57587) scale(70.8754 70.8754)">
<stop stop-color="#BCBEFF"/>
<stop offset="0.2271" stop-color="#AAADF8"/>
<stop offset="0.6802" stop-color="#7C83E5"/>
<stop offset="1" stop-color="#5761D7"/>
</radialGradient>
<linearGradient id="paint9_linear_123_11961" x1="34.8315" y1="68.9109" x2="85.3904" y2="68.9109" gradientUnits="userSpaceOnUse">
<stop stop-color="#E9E9FD"/>
<stop offset="0.3601" stop-color="#D3D2F9"/>
<stop offset="0.7062" stop-color="#C5C4F7"/>
<stop offset="1" stop-color="#C0BFF6"/>
</linearGradient>
<radialGradient id="paint10_radial_123_11961" cx="0" cy="0" r="1" gradientUnits="userSpaceOnUse" gradientTransform="translate(24.2138 73.014) scale(40.4454 40.4453)">
<stop stop-color="#BCBEFF"/>
<stop offset="0.2271" stop-color="#AAADF8"/>
<stop offset="0.6802" stop-color="#7C83E5"/>
<stop offset="1" stop-color="#5761D7"/>
</radialGradient>
</defs>
</svg>
