<svg width="181" height="211" viewBox="0 0 181 211" fill="none" xmlns="http://www.w3.org/2000/svg">
<g opacity="0.5">
<g opacity="0.1" filter="url(#filter0_f_3126_112)">
<path d="M90.8088 158.59C111.55 158.59 128.364 148.893 128.364 136.931C128.364 124.968 111.55 115.271 90.8088 115.271C70.0678 115.271 53.2539 124.968 53.2539 136.931C53.2539 148.893 70.0678 158.59 90.8088 158.59Z" fill="#0F054C"/>
</g>
<g opacity="0.2" filter="url(#filter1_f_3126_112)">
<path d="M90.8089 154.835C107.981 154.835 121.901 146.819 121.901 136.931C121.901 127.043 107.981 119.027 90.8089 119.027C73.6373 119.027 59.7169 127.043 59.7169 136.931C59.7169 146.819 73.6373 154.835 90.8089 154.835Z" fill="#0F054C"/>
</g>
<g opacity="0.4" filter="url(#filter2_f_3126_112)">
<path d="M90.8093 151.079C104.363 151.079 115.351 144.745 115.351 136.931C115.351 129.117 104.363 122.782 90.8093 122.782C77.2553 122.782 66.2676 129.117 66.2676 136.931C66.2676 144.745 77.2553 151.079 90.8093 151.079Z" fill="#080344"/>
</g>
</g>
<path d="M50.7216 101.734C49.4116 105.926 42.6867 114.136 38.4071 112.826C34.215 111.516 34.2149 101.297 35.4377 97.1051C36.7477 92.913 41.1146 90.4675 45.3941 91.7776C49.5863 93.0876 52.0317 97.5418 50.7216 101.734Z" fill="url(#paint0_radial_3126_112)"/>
<path d="M50.7216 101.734C49.4116 105.926 42.6867 114.136 38.4071 112.826C34.215 111.516 34.2149 101.297 35.4377 97.1051C36.7477 92.913 41.1146 90.4675 45.3941 91.7776C49.5863 93.0876 52.0317 97.5418 50.7216 101.734Z" fill="url(#paint1_linear_3126_112)"/>
<path d="M42.5992 91.8649C44.7826 91.6902 47.6648 93.0002 48.8875 94.8343C50.1975 96.6684 49.4115 98.2405 47.228 98.5025C45.0446 98.6772 42.1625 97.3671 40.9398 95.533C39.6297 93.6989 40.4158 92.0395 42.5992 91.8649Z" fill="#251C72"/>
<path opacity="0.5" d="M42.5992 91.8649C44.7826 91.6902 47.6648 93.0002 48.8875 94.8343C50.1975 96.6684 49.4115 98.2405 47.228 98.5025C45.0446 98.6772 42.1625 97.3671 40.9398 95.533C39.6297 93.6989 40.4158 92.0395 42.5992 91.8649Z" fill="url(#paint2_radial_3126_112)"/>
<path d="M40.329 93.8736C40.6784 93.5242 41.2897 93.3495 41.9884 93.2622C44.1718 93.0875 47.054 94.3976 48.2767 96.2316C48.626 96.7557 48.8881 97.367 48.8881 97.8037C49.6741 97.105 49.7614 95.9696 48.8881 94.7469C47.578 92.9128 44.7832 91.6028 42.5998 91.7775C41.1151 91.9521 40.2417 92.8255 40.329 93.8736Z" fill="#16E09E"/>
<path opacity="0.6" d="M50.0227 89.6815C49.6733 89.6815 49.4113 89.9435 49.4113 90.2929C49.4113 90.6422 49.6733 90.9042 50.0227 90.9042C50.372 90.9042 50.6341 90.6422 50.6341 90.2929C50.6341 90.0309 50.372 89.6815 50.0227 89.6815Z" fill="#16E09E"/>
<path d="M44.0843 85.3147C43.2109 85.3147 42.5122 86.0134 42.4249 86.8868C42.4249 87.7601 43.1236 88.4588 43.9969 88.5462C44.8703 88.6335 45.569 87.8475 45.6563 86.9741C45.6563 86.1007 44.9577 85.3147 44.0843 85.3147Z" fill="#16E09E"/>
<path opacity="0.6" d="M53.1674 81.7338C52.6434 81.7338 52.2941 82.0831 52.2941 82.6071C52.2941 83.1312 52.6434 83.4805 53.1674 83.4805C53.6915 83.4805 54.0408 83.1312 54.0408 82.6071C54.0408 82.0831 53.6915 81.7338 53.1674 81.7338Z" fill="#16E09E"/>
<path d="M49.6748 82.4324C49.3255 82.4324 49.0635 82.6944 49.0635 83.0437C49.0635 83.3931 49.3255 83.6551 49.6748 83.6551C50.0242 83.6551 50.2862 83.3931 50.2862 83.0437C50.2862 82.7817 49.9369 82.4324 49.6748 82.4324Z" fill="#16E09E"/>
<path d="M50.2844 81.1223C50.0224 81.1223 49.8477 81.297 49.8477 81.559C49.8477 81.821 50.0224 81.9957 50.2844 81.9957C50.5464 81.9957 50.7211 81.821 50.7211 81.559C50.7211 81.297 50.5464 81.1223 50.2844 81.1223Z" fill="#16E09E"/>
<path opacity="0.6" d="M45.2192 92.8254C44.6951 92.8254 44.3458 93.1748 44.3458 93.6988C44.3458 94.2228 44.6951 94.5722 45.2192 94.5722C45.7432 94.5722 46.0925 94.2228 46.0925 93.6988C46.0925 93.1748 45.6559 92.8254 45.2192 92.8254Z" fill="#16E09E"/>
<path d="M47.8395 92.4761C47.1408 92.4761 46.5294 93.0001 46.5294 93.7861C46.5294 94.4848 47.0535 95.0962 47.8395 95.0962C48.5382 95.0962 49.1496 94.5722 49.1496 93.7861C49.1496 93.0874 48.6255 92.4761 47.8395 92.4761Z" fill="#16E09E"/>
<path d="M61.9855 87.2361C68.5936 87.2361 73.9506 81.8791 73.9506 75.271C73.9506 68.6628 68.5936 63.3058 61.9855 63.3058C55.3773 63.3058 50.0203 68.6628 50.0203 75.271C50.0203 81.8791 55.3773 87.2361 61.9855 87.2361Z" fill="url(#paint3_linear_3126_112)"/>
<path d="M68.449 65.1397C74.0386 68.7206 75.698 76.1442 72.1172 81.7338C68.5364 87.3234 61.1127 88.9828 55.5231 85.4019C49.9336 81.8211 48.2742 74.3975 51.855 68.8079C55.4358 63.2183 62.8595 61.5589 68.449 65.1397Z" fill="url(#paint4_linear_3126_112)"/>
<path d="M121.813 97.0176C121.813 120.249 107.926 139.201 90.8956 139.201C73.7775 139.201 59.9782 120.337 59.9782 97.0176C59.9782 73.786 73.8648 66.799 90.8956 66.799C107.926 66.7117 121.813 73.6986 121.813 97.0176Z" fill="url(#paint5_radial_3126_112)"/>
<path d="M121.813 97.0176C121.813 120.249 107.926 139.201 90.8956 139.201C73.7775 139.201 59.9782 120.337 59.9782 97.0176C59.9782 73.786 73.8648 66.799 90.8956 66.799C107.926 66.7117 121.813 73.6986 121.813 97.0176Z" fill="url(#paint6_linear_3126_112)"/>
<path d="M90.8083 91.5157C102.481 91.5157 111.944 86.0414 111.944 79.2885C111.944 72.5356 102.481 67.0613 90.8083 67.0613C79.1354 67.0613 69.6727 72.5356 69.6727 79.2885C69.6727 86.0414 79.1354 91.5157 90.8083 91.5157Z" fill="#7C4EFF"/>
<path opacity="0.5" d="M90.8083 91.5157C102.481 91.5157 111.944 86.0414 111.944 79.2885C111.944 72.5356 102.481 67.0613 90.8083 67.0613C79.1354 67.0613 69.6727 72.5356 69.6727 79.2885C69.6727 86.0414 79.1354 91.5157 90.8083 91.5157Z" fill="url(#paint7_radial_3126_112)"/>
<path d="M75.8735 73.8733C84.0832 69.0698 97.5331 69.0698 105.743 73.8733C109.149 75.8821 111.158 78.3275 111.769 80.8603C112.642 77.1921 110.634 73.4366 105.743 70.6418C97.5331 65.8383 84.0832 65.8383 75.8735 70.6418C71.0699 73.4366 69.0612 77.2795 69.8472 80.8603C70.4586 78.3275 72.4673 75.8821 75.8735 73.8733Z" fill="#16E09E"/>
<path d="M79.0162 42.9644C82.4891 36.9493 82.4939 30.4504 79.0268 28.4486C75.5598 26.4469 69.9339 29.7003 66.461 35.7154C62.988 41.7305 62.9833 48.2294 66.4503 50.2312C69.9173 52.2329 75.5433 48.9795 79.0162 42.9644Z" fill="#BCBEFF"/>
<path d="M92.0301 81.7337C109.491 81.7337 123.646 67.5788 123.646 50.1177C123.646 32.6567 109.491 18.5017 92.0301 18.5017C74.569 18.5017 60.414 32.6567 60.414 50.1177C60.414 67.5788 74.569 81.7337 92.0301 81.7337Z" fill="url(#paint8_radial_3126_112)"/>
<path d="M92.0301 81.7337C109.491 81.7337 123.646 67.5788 123.646 50.1177C123.646 32.6567 109.491 18.5017 92.0301 18.5017C74.569 18.5017 60.414 32.6567 60.414 50.1177C60.414 67.5788 74.569 81.7337 92.0301 81.7337Z" fill="url(#paint9_linear_3126_112)"/>
<path d="M82.2499 65.1399C81.4639 71.3408 76.7477 73.2622 71.7695 69.5067C66.7913 65.6639 63.3851 57.6289 64.2585 51.3406C65.0445 45.1397 69.7607 43.2183 74.7389 46.9738C79.6298 50.8166 83.036 58.9389 82.2499 65.1399Z" fill="#7C4EFF"/>
<path opacity="0.5" d="M82.2499 65.1399C81.4639 71.3408 76.7477 73.2622 71.7695 69.5067C66.7913 65.6639 63.3851 57.6289 64.2585 51.3406C65.0445 45.1397 69.7607 43.2183 74.7389 46.9738C79.6298 50.8166 83.036 58.9389 82.2499 65.1399Z" fill="url(#paint10_radial_3126_112)"/>
<path d="M78.1458 59.725C77.8837 61.9958 76.137 62.6945 74.3029 61.2971C72.4688 59.8997 71.2461 56.9302 71.5955 54.7468C71.8575 52.4761 73.6042 51.7774 75.4383 53.1748C77.185 54.4848 78.4078 57.4543 78.1458 59.725Z" fill="#16E09E"/>
<path d="M74.1285 68.5458C69.1503 64.703 65.7441 56.668 66.6175 50.3797C66.9668 47.8469 67.9276 46.0128 69.325 45.0521C66.7048 45.3141 64.7834 47.4976 64.2594 51.3404C63.4734 57.5413 66.7922 65.6637 71.7704 69.5065C74.7398 71.7773 77.5346 71.9519 79.5434 70.5546C77.884 70.6419 76.0499 70.0305 74.1285 68.5458Z" fill="#16E09E"/>
<path d="M72.2071 69.2446C67.2289 65.4017 63.8227 57.3667 64.6961 51.0785C65.0454 48.1963 66.2682 46.2749 67.9276 45.3142C66.0061 46.1002 64.6087 48.109 64.2594 51.2531C63.4734 57.4541 66.7922 65.5764 71.7704 69.4192C74.4778 71.428 77.0106 71.8647 78.932 70.8166C77.098 71.6027 74.6525 71.166 72.2071 69.2446Z" fill="#16E09E"/>
<path d="M124.868 117.018C131.477 117.018 136.834 111.661 136.834 105.053C136.834 98.4448 131.477 93.0878 124.868 93.0878C118.26 93.0878 112.903 98.4448 112.903 105.053C112.903 111.661 118.26 117.018 124.868 117.018Z" fill="url(#paint11_radial_3126_112)"/>
<path d="M124.868 117.018C131.477 117.018 136.834 111.661 136.834 105.053C136.834 98.4448 131.477 93.0878 124.868 93.0878C118.26 93.0878 112.903 98.4448 112.903 105.053C112.903 111.661 118.26 117.018 124.868 117.018Z" fill="url(#paint12_linear_3126_112)"/>
<path d="M136.399 105.227C136.399 108.634 134.041 112.738 131.072 114.398C128.102 116.057 125.744 114.747 125.744 111.341C125.744 107.935 128.102 103.83 131.072 102.171C134.041 100.511 136.399 101.821 136.399 105.227Z" fill="#7C4EFF"/>
<path opacity="0.5" d="M136.399 105.227C136.399 108.634 134.041 112.738 131.072 114.398C128.102 116.057 125.744 114.747 125.744 111.341C125.744 107.935 128.102 103.83 131.072 102.171C134.041 100.511 136.399 101.821 136.399 105.227Z" fill="url(#paint13_radial_3126_112)"/>
<path d="M133.604 101.472C134.041 102.083 134.303 102.957 134.303 104.092C134.303 107.498 131.945 111.603 128.976 113.262C128.102 113.786 127.229 114.048 126.53 113.961C127.404 115.271 129.15 115.533 131.159 114.398C134.128 112.738 136.487 108.634 136.487 105.227C136.399 102.869 135.264 101.559 133.604 101.472Z" fill="#16E09E"/>
<path d="M118.669 61.7335L107.315 68.2838V55.0959L118.669 48.4583V61.7335Z" fill="#7C4EFF"/>
<path opacity="0.8" d="M117.01 49.5063V60.7728L107.315 66.3623V68.2838L118.669 61.7335V48.4583L117.01 49.5063Z" fill="url(#paint14_radial_3126_112)"/>
<path d="M109.498 58.6763L108.45 59.2876V58.1523L109.498 57.5409V58.6763Z" fill="#16E09E"/>
<path d="M111.595 55.9691L110.634 56.4931V55.3577L111.595 54.7463V55.9691Z" fill="#16E09E"/>
<path d="M113.778 56.231L112.817 56.755V55.6197L113.778 55.0083V56.231Z" fill="#16E09E"/>
<path d="M113.778 59.2879L112.817 59.8992V58.6765L113.778 58.1525V59.2879Z" fill="#16E09E"/>
<path d="M112.468 61.6461L111.508 62.2575V61.1221L112.468 60.5107V61.6461Z" fill="#16E09E"/>
<path d="M116.047 57.9779L114.999 58.5893V57.4539L116.047 56.8425V57.9779Z" fill="#16E09E"/>
<path d="M133.082 138.677C131.772 142.869 125.047 151.079 120.767 149.769C116.488 148.459 116.575 138.24 117.798 134.048C119.108 129.856 123.475 127.411 127.754 128.721C131.946 130.031 134.392 134.485 133.082 138.677Z" fill="url(#paint15_radial_3126_112)"/>
<path d="M133.082 138.677C131.772 142.869 125.047 151.079 120.767 149.769C116.488 148.459 116.575 138.24 117.798 134.048C119.108 129.856 123.475 127.411 127.754 128.721C131.946 130.031 134.392 134.485 133.082 138.677Z" fill="url(#paint16_linear_3126_112)"/>
<path d="M124.959 128.808C127.142 128.634 130.024 129.944 131.247 131.778C132.557 133.612 131.771 135.184 129.588 135.446C127.404 135.621 124.522 134.311 123.299 132.476C121.989 130.642 122.775 128.983 124.959 128.808Z" fill="#251C72"/>
<path opacity="0.5" d="M124.959 128.808C127.142 128.634 130.024 129.944 131.247 131.778C132.557 133.612 131.771 135.184 129.588 135.446C127.404 135.621 124.522 134.311 123.299 132.476C121.989 130.642 122.775 128.983 124.959 128.808Z" fill="url(#paint17_radial_3126_112)"/>
<path d="M122.688 130.904C123.038 130.555 123.649 130.38 124.348 130.293C126.531 130.118 129.413 131.428 130.636 133.262C130.985 133.786 131.247 134.398 131.247 134.834C132.033 134.136 132.121 133 131.247 131.778C129.937 129.944 127.143 128.634 124.959 128.808C123.474 128.983 122.601 129.769 122.688 130.904Z" fill="#16E09E"/>
<path opacity="0.6" d="M131.246 123.743C131.508 123.481 131.508 123.131 131.246 122.869C130.984 122.607 130.634 122.607 130.372 122.869C130.11 123.131 130.11 123.481 130.372 123.743C130.547 124.005 130.984 124.005 131.246 123.743Z" fill="#16E09E"/>
<path d="M138.495 122.694C139.106 122.083 139.193 121.122 138.582 120.424C137.971 119.812 137.01 119.725 136.311 120.336C135.7 120.948 135.613 121.908 136.224 122.607C136.923 123.306 137.883 123.306 138.495 122.694Z" fill="#16E09E"/>
<path opacity="0.6" d="M134.565 131.603C134.914 131.254 134.914 130.73 134.565 130.38C134.216 130.031 133.692 130.031 133.342 130.38C132.993 130.73 132.993 131.254 133.342 131.603C133.604 131.952 134.216 131.952 134.565 131.603Z" fill="#16E09E"/>
<path d="M136.573 128.634C136.835 128.372 136.835 128.022 136.573 127.76C136.311 127.498 135.962 127.498 135.7 127.76C135.438 128.022 135.438 128.372 135.7 128.634C135.962 128.808 136.311 128.896 136.573 128.634Z" fill="#16E09E"/>
<path d="M137.097 130.031C137.272 129.856 137.272 129.594 137.097 129.42C136.922 129.245 136.66 129.245 136.485 129.42C136.311 129.594 136.311 129.856 136.485 130.031C136.66 130.206 136.922 130.206 137.097 130.031Z" fill="#16E09E"/>
<path opacity="0.6" d="M132.556 118.153C132.905 117.804 132.905 117.28 132.556 116.93C132.207 116.581 131.683 116.581 131.333 116.93C130.984 117.28 130.984 117.804 131.333 118.153C131.595 118.502 132.207 118.502 132.556 118.153Z" fill="#16E09E"/>
<path d="M130.809 120.249C131.333 119.725 131.333 118.939 130.896 118.415C130.372 117.891 129.586 117.891 129.062 118.328C128.538 118.852 128.538 119.638 128.975 120.162C129.499 120.686 130.285 120.773 130.809 120.249Z" fill="#16E09E"/>
<path d="M104.782 38.3271L39.5415 0.946843C38.4935 0.335484 37.5328 0.33548 36.7467 0.772165L32.7292 3.13027L35.3494 5.05168V7.14777L33.8646 7.75913L33.952 87.3232L38.4062 91.6027L53.5155 100.249L99.8041 126.014C99.8041 126.014 101.551 126.014 101.813 126.014C101.9 126.014 101.988 125.751 102.075 125.489L104.084 126.625L103.472 129.682L107.577 127.324C108.45 126.8 109.062 125.664 109.062 123.917V46.3621C108.974 43.218 107.14 39.6372 104.782 38.3271ZM103.036 121.647L40.2402 85.6638C39.7162 85.4018 39.2795 84.5284 39.2795 83.8297V7.23511L52.6421 15.7941L101.027 44.266L102.424 46.4494L103.21 81.1223L103.036 121.647Z" fill="url(#paint18_linear_3126_112)"/>
<path opacity="0.6" d="M107.664 41.4712L101.376 45.052L102.249 46.4494L103.035 81.1222L102.948 121.559L101.813 120.861C101.813 122.083 103.385 128.284 103.385 129.594L106.704 127.673L107.49 127.236C108.363 126.712 108.974 125.577 108.974 123.83V46.2747C108.974 44.7027 108.45 42.9559 107.664 41.4712Z" fill="#0F054C"/>
<path d="M100.59 40.7727L35.3496 3.39242C33.0788 2.08236 31.1574 3.47976 31.1574 6.53656V84.0919C31.1574 87.1487 32.9915 90.7295 35.3496 92.1269L100.59 129.507C102.861 130.817 104.783 129.42 104.783 126.363V48.8077C104.783 45.6635 102.861 42.0827 100.59 40.7727ZM100.94 124.005C100.94 124.704 100.503 125.053 99.979 124.704L35.9609 88.022C35.4369 87.76 35.0002 86.8866 35.0002 86.1879V8.89465C35.0002 8.19596 35.4369 7.84661 35.9609 8.19595L99.979 44.8775C100.503 45.1395 100.94 46.0129 100.94 46.7116V124.005Z" fill="url(#paint19_linear_3126_112)"/>
<path d="M100.59 40.7727L35.3496 3.39242C33.0788 2.08236 31.1574 3.47976 31.1574 6.53656V84.0919C31.1574 87.1487 32.9915 90.7295 35.3496 92.1269L100.59 129.507C102.861 130.817 104.783 129.42 104.783 126.363V48.8077C104.783 45.6635 102.861 42.0827 100.59 40.7727ZM100.94 124.005C100.94 124.704 100.503 125.053 99.979 124.704L35.9609 88.022C35.4369 87.76 35.0002 86.8866 35.0002 86.1879V8.89465C35.0002 8.19596 35.4369 7.84661 35.9609 8.19595L99.979 44.8775C100.503 45.1395 100.94 46.0129 100.94 46.7116V124.005Z" fill="url(#paint20_linear_3126_112)"/>
<path d="M40.1531 85.5763C39.6291 85.3143 39.1924 84.4409 39.1924 83.7422V10.0297L35.9609 8.10833C35.4369 7.84632 35.0002 8.10833 35.0002 8.80703V86.1877C35.0002 86.8864 35.4369 87.6724 35.9609 88.0217L99.979 124.703C100.503 124.965 100.94 124.703 100.94 124.005V120.424L40.1531 85.5763Z" fill="#251C72"/>
<path opacity="0.4" d="M100.94 124.005C100.94 124.703 100.503 125.053 99.979 124.703L35.9609 88.0217C35.4369 87.7597 35.0002 86.8863 35.0002 86.1876V8.89434C35.0002 8.19565 35.4369 7.8463 35.9609 8.19564L99.979 44.8772C100.503 45.1392 100.94 46.0126 100.94 46.7113V124.005Z" fill="#16E09E"/>
<g opacity="0.4">
<path d="M54.7371 42.694L48.5361 39.1132V37.5411L54.7371 41.1219V42.694Z" fill="#16E09E"/>
<path d="M60.0646 45.751L57.0078 43.9169V42.3448L60.0646 44.1789V45.751Z" fill="#16E09E"/>
<path d="M56.5713 47.4104L53.9512 45.8383V44.2662L56.5713 45.8383V47.4104Z" fill="#16E09E"/>
<path d="M61.0246 49.9428L57.9678 48.1961V46.624L61.0246 48.3708V49.9428Z" fill="#16E09E"/>
<path d="M66.1784 56.5808L53.9512 49.5065V48.0217L66.1784 55.0087V56.5808Z" fill="#16E09E"/>
<path d="M56.5713 54.7465L53.9512 53.2618V51.6897L56.5713 53.1744V54.7465Z" fill="#16E09E"/>
<path d="M61.0246 57.3666L57.9678 55.5325V53.9604L61.0246 55.7945V57.3666Z" fill="#16E09E"/>
<path d="M60.6761 60.7727L53.9512 56.9299V55.3578L60.6761 59.2006V60.7727Z" fill="#16E09E"/>
<path d="M65.2164 63.3931L62.0723 61.559V59.9869L65.2164 61.821V63.3931Z" fill="#16E09E"/>
<path d="M69.6711 66.0131L66.6143 64.179V62.6069L69.6711 64.441V66.0131Z" fill="#16E09E"/>
<path d="M77.008 70.2054L71.1564 66.7992V65.2272L77.008 68.6333V70.2054Z" fill="#16E09E"/>
<path d="M73.5142 75.533L70.3701 73.6989V72.1268L73.5142 73.9609V75.533Z" fill="#16E09E"/>
<path d="M80.7626 79.725L74.911 76.3189V74.7468L80.7626 78.153V79.725Z" fill="#16E09E"/>
<path d="M57.0953 66.013L53.9512 64.2663V62.6942L57.0953 64.5283V66.013Z" fill="#16E09E"/>
<path d="M61.549 68.6333L58.4922 66.8865V65.3145L61.549 67.0612V68.6333Z" fill="#16E09E"/>
<path d="M68.8848 72.9127L63.0332 69.5065V67.9344L68.8848 71.3406V72.9127Z" fill="#16E09E"/>
<path d="M77.881 74.3974L74.8242 72.6507V71.0786L77.881 72.8254V74.3974Z" fill="#16E09E"/>
<path d="M82.4225 77.0175L79.2784 75.1835V73.6987L82.4225 75.4455V77.0175Z" fill="#16E09E"/>
<path d="M89.7592 81.2099L83.8203 77.8037V76.2317L89.7592 79.6378V81.2099Z" fill="#16E09E"/>
<path d="M57.0953 73.4365L53.9512 71.6025V70.0304L57.0953 71.8645V73.4365Z" fill="#16E09E"/>
<path d="M64.3438 77.6287L58.4922 74.2226V72.6505L64.3438 76.0567V77.6287Z" fill="#16E09E"/>
<path d="M75.5221 61.9955L72.3779 60.1614V58.5894L75.5221 60.4234V61.9955Z" fill="#16E09E"/>
<path d="M70.8072 59.288L67.6631 57.4539V55.8818L70.8072 57.7159V59.288Z" fill="#16E09E"/>
<path d="M82.7718 66.1878L76.9202 62.7817V61.2096L82.7718 64.6157V66.1878Z" fill="#16E09E"/>
<path d="M56.746 62.1704L53.9512 60.5983V59.0262L56.746 60.5983V62.1704Z" fill="#16E09E"/>
<path d="M65.1291 66.9737L58.2295 63.0435V61.4714L65.1291 65.4016V66.9737Z" fill="#16E09E"/>
<path d="M73.4265 71.8645L66.6143 67.847V66.2749L73.4265 70.2924V71.8645Z" fill="#16E09E"/>
<path d="M87.1396 68.7207L84.3448 67.0613V65.4893L87.1396 67.1487V68.7207Z" fill="#16E09E"/>
<path d="M60.8503 71.952L54.038 67.9345V66.3624L60.8503 70.3799V71.952Z" fill="#16E09E"/>
<path d="M64.431 73.9609L62.335 72.7382V71.1661L64.431 72.3889V73.9609Z" fill="#16E09E"/>
<path d="M68.0111 76.0566L65.915 74.8339V73.2618L68.0111 74.4846V76.0566Z" fill="#16E09E"/>
<path d="M74.7378 79.8998L69.585 76.9303V75.3583L74.7378 78.3277V79.8998Z" fill="#16E09E"/>
<path d="M76.1343 80.773L70.9814 77.7162V76.1442L76.1343 79.201V80.773Z" fill="#16E09E"/>
<path d="M80.5014 72.2141L78.4053 70.9914V69.4193L80.5014 70.642V72.2141Z" fill="#16E09E"/>
<path d="M87.1382 76.0565L81.9854 73.0871V71.515L87.1382 74.4845V76.0565Z" fill="#16E09E"/>
<path d="M50.7182 73.4369L48.6221 72.2142V70.6421L50.7182 71.8648V73.4369Z" fill="#16E09E"/>
<path d="M57.357 77.2796L52.2041 74.3101V72.738L57.357 75.7075V77.2796Z" fill="#16E09E"/>
<path d="M64.1705 81.2097L59.0176 78.2403V76.6682L64.1705 79.6377V81.2097Z" fill="#16E09E"/>
</g>
<defs>
<filter id="filter0_f_3126_112" x="0.851673" y="62.8688" width="179.914" height="148.124" filterUnits="userSpaceOnUse" color-interpolation-filters="sRGB">
<feFlood flood-opacity="0" result="BackgroundImageFix"/>
<feBlend mode="normal" in="SourceGraphic" in2="BackgroundImageFix" result="shape"/>
<feGaussianBlur stdDeviation="26.2011" result="effect1_foregroundBlur_3126_112"/>
</filter>
<filter id="filter1_f_3126_112" x="24.7821" y="84.0919" width="132.054" height="105.678" filterUnits="userSpaceOnUse" color-interpolation-filters="sRGB">
<feFlood flood-opacity="0" result="BackgroundImageFix"/>
<feBlend mode="normal" in="SourceGraphic" in2="BackgroundImageFix" result="shape"/>
<feGaussianBlur stdDeviation="17.4674" result="effect1_foregroundBlur_3126_112"/>
</filter>
<filter id="filter2_f_3126_112" x="48.8002" y="105.315" width="84.0182" height="63.2321" filterUnits="userSpaceOnUse" color-interpolation-filters="sRGB">
<feFlood flood-opacity="0" result="BackgroundImageFix"/>
<feBlend mode="normal" in="SourceGraphic" in2="BackgroundImageFix" result="shape"/>
<feGaussianBlur stdDeviation="8.73371" result="effect1_foregroundBlur_3126_112"/>
</filter>
<radialGradient id="paint0_radial_3126_112" cx="0" cy="0" r="1" gradientUnits="userSpaceOnUse" gradientTransform="translate(48.0788 95.4426) rotate(16.7569) scale(22.6146 22.6146)">
<stop stop-color="#C0BFF6"/>
<stop offset="1" stop-color="#393091"/>
</radialGradient>
<linearGradient id="paint1_linear_3126_112" x1="44.4145" y1="91.3347" x2="38.5047" y2="110.246" gradientUnits="userSpaceOnUse">
<stop stop-color="#2FD3C7"/>
<stop offset="0.0880899" stop-color="#31B6BD"/>
<stop offset="0.5206" stop-color="#3C57A5"/>
<stop offset="1" stop-color="#453C9E"/>
</linearGradient>
<radialGradient id="paint2_radial_3126_112" cx="0" cy="0" r="1" gradientUnits="userSpaceOnUse" gradientTransform="translate(43.8255 96.7194) rotate(-95.1062) scale(14.6761 14.6761)">
<stop stop-color="#16E09E"/>
<stop offset="0.1055" stop-color="#37BFA7"/>
<stop offset="0.338" stop-color="#2277B0"/>
<stop offset="0.776042" stop-color="#2043CC"/>
<stop offset="1" stop-color="#2D30FF"/>
</radialGradient>
<linearGradient id="paint3_linear_3126_112" x1="61.5989" y1="63.4388" x2="61.5989" y2="87.2267" gradientUnits="userSpaceOnUse">
<stop stop-color="#16E09E"/>
<stop offset="0.0880899" stop-color="#31BDA4"/>
<stop offset="0.5206" stop-color="#2752CC"/>
<stop offset="1" stop-color="#4C14EB"/>
</linearGradient>
<linearGradient id="paint4_linear_3126_112" x1="55.556" y1="85.3415" x2="68.4387" y2="65.1158" gradientUnits="userSpaceOnUse">
<stop stop-color="#706EC4"/>
<stop offset="0.0222208" stop-color="#6D6BC2"/>
<stop offset="0.2509" stop-color="#5651AC"/>
<stop offset="0.4865" stop-color="#463F9D"/>
<stop offset="0.7314" stop-color="#3C3494"/>
<stop offset="1" stop-color="#393091"/>
</linearGradient>
<radialGradient id="paint5_radial_3126_112" cx="0" cy="0" r="1" gradientUnits="userSpaceOnUse" gradientTransform="translate(109.1 90.6857) scale(53.2016 72.4215)">
<stop stop-color="#C0BFF6"/>
<stop offset="1" stop-color="#393091"/>
</radialGradient>
<linearGradient id="paint6_linear_3126_112" x1="96.6128" y1="66.5003" x2="78.6292" y2="131.273" gradientUnits="userSpaceOnUse">
<stop stop-color="#2FD3C7"/>
<stop offset="0.0880899" stop-color="#31B6BD"/>
<stop offset="0.5206" stop-color="#3C57A5"/>
<stop offset="1" stop-color="#453C9E"/>
</linearGradient>
<radialGradient id="paint7_radial_3126_112" cx="0" cy="0" r="1" gradientUnits="userSpaceOnUse" gradientTransform="translate(90.014 90.986) scale(41.1792 41.1792)">
<stop stop-color="#16E09E"/>
<stop offset="0.1055" stop-color="#37BFA7"/>
<stop offset="0.4587" stop-color="#2A76E4"/>
<stop offset="0.7105" stop-color="#6951FD"/>
<stop offset="0.8458" stop-color="#7C4EFF"/>
<stop offset="1" stop-color="#3C04DB"/>
</radialGradient>
<radialGradient id="paint8_radial_3126_112" cx="0" cy="0" r="1" gradientUnits="userSpaceOnUse" gradientTransform="translate(111.765 45.4728) scale(53.3647)">
<stop stop-color="#C0BFF6"/>
<stop offset="1" stop-color="#393091"/>
</radialGradient>
<linearGradient id="paint9_linear_3126_112" x1="97.8765" y1="18.2415" x2="84.1985" y2="75.9272" gradientUnits="userSpaceOnUse">
<stop stop-color="#2FD3C7"/>
<stop offset="0.0880899" stop-color="#31B6BD"/>
<stop offset="0.5206" stop-color="#3C57A5"/>
<stop offset="1" stop-color="#453C9E"/>
</linearGradient>
<radialGradient id="paint10_radial_3126_112" cx="0" cy="0" r="1" gradientUnits="userSpaceOnUse" gradientTransform="translate(82.2314 53.0618) scale(26.2114 26.2114)">
<stop stop-color="#16E09E"/>
<stop offset="0.05911" stop-color="#3CCDB3"/>
<stop offset="0.359375" stop-color="#2277B0"/>
<stop offset="0.770833" stop-color="#2043CC"/>
<stop offset="1" stop-color="#2D30FF"/>
</radialGradient>
<radialGradient id="paint11_radial_3126_112" cx="0" cy="0" r="1" gradientUnits="userSpaceOnUse" gradientTransform="translate(131.964 97.1853) rotate(11.1976) scale(25.0148 25.0148)">
<stop stop-color="#C0BFF6"/>
<stop offset="1" stop-color="#393091"/>
</radialGradient>
<linearGradient id="paint12_linear_3126_112" x1="127.081" y1="92.9893" x2="121.905" y2="114.821" gradientUnits="userSpaceOnUse">
<stop stop-color="#2FD3C7"/>
<stop offset="0.0880899" stop-color="#31B6BD"/>
<stop offset="0.5206" stop-color="#3C57A5"/>
<stop offset="1" stop-color="#453C9E"/>
</linearGradient>
<radialGradient id="paint13_radial_3126_112" cx="0" cy="0" r="1" gradientUnits="userSpaceOnUse" gradientTransform="translate(128.843 106.413) scale(22.34 22.34)">
<stop stop-color="#16E09E"/>
<stop offset="0.1055" stop-color="#37BFAF"/>
<stop offset="0.338" stop-color="#2277B0"/>
<stop offset="0.78125" stop-color="#2043CC"/>
<stop offset="1" stop-color="#2D30FF"/>
</radialGradient>
<radialGradient id="paint14_radial_3126_112" cx="0" cy="0" r="1" gradientUnits="userSpaceOnUse" gradientTransform="translate(110.858 35.8328) scale(21.0572 27.0522)">
<stop stop-color="#7C4EFF"/>
<stop offset="0.31" stop-color="#612CF8"/>
<stop offset="1" stop-color="#4012C4"/>
</radialGradient>
<radialGradient id="paint15_radial_3126_112" cx="0" cy="0" r="1" gradientUnits="userSpaceOnUse" gradientTransform="translate(130.451 132.396) rotate(16.7569) scale(22.6146 22.6146)">
<stop stop-color="#C0BFF6"/>
<stop offset="1" stop-color="#393091"/>
</radialGradient>
<linearGradient id="paint16_linear_3126_112" x1="126.766" y1="128.278" x2="120.862" y2="147.193" gradientUnits="userSpaceOnUse">
<stop stop-color="#2FD3C7"/>
<stop offset="0.0880899" stop-color="#31B6BD"/>
<stop offset="0.5206" stop-color="#3C57A5"/>
<stop offset="1" stop-color="#453C9E"/>
</linearGradient>
<radialGradient id="paint17_radial_3126_112" cx="0" cy="0" r="1" gradientUnits="userSpaceOnUse" gradientTransform="translate(126.197 133.673) rotate(-95.1063) scale(14.6761 14.6761)">
<stop stop-color="#16E09E"/>
<stop offset="0.1055" stop-color="#37BFA7"/>
<stop offset="0.338542" stop-color="#2277B0"/>
<stop offset="0.75" stop-color="#2043CC"/>
<stop offset="1" stop-color="#2D30FF"/>
</radialGradient>
<linearGradient id="paint18_linear_3126_112" x1="47.7918" y1="65.055" x2="109.58" y2="65.055" gradientUnits="userSpaceOnUse">
<stop stop-color="#BCBEFF"/>
<stop offset="0.1659" stop-color="#B6B8FC"/>
<stop offset="0.3956" stop-color="#A4A8F5"/>
<stop offset="0.6625" stop-color="#868DEA"/>
<stop offset="0.9554" stop-color="#5E67DA"/>
<stop offset="1" stop-color="#5761D7"/>
</linearGradient>
<linearGradient id="paint19_linear_3126_112" x1="31.1993" y1="66.4412" x2="104.777" y2="66.4412" gradientUnits="userSpaceOnUse">
<stop stop-color="#BCBEFF"/>
<stop offset="0.1659" stop-color="#B6B8FC"/>
<stop offset="0.3956" stop-color="#A4A8F5"/>
<stop offset="0.6625" stop-color="#868DEA"/>
<stop offset="0.9554" stop-color="#5E67DA"/>
<stop offset="1" stop-color="#5761D7"/>
</linearGradient>
<linearGradient id="paint20_linear_3126_112" x1="21.0371" y1="66.4412" x2="153.782" y2="66.4412" gradientUnits="userSpaceOnUse">
<stop stop-color="#706EC4"/>
<stop offset="0.0222208" stop-color="#6D6BC2"/>
<stop offset="0.2509" stop-color="#5651AC"/>
<stop offset="0.4865" stop-color="#463F9D"/>
<stop offset="0.7314" stop-color="#3C3494"/>
<stop offset="1" stop-color="#393091"/>
</linearGradient>
</defs>
</svg>
